<svg id="Layer_1" data-name="Layer 1" xmlns="http://www.w3.org/2000/svg" viewBox="0 0 396.05 448">
  <defs>
    <style>
      .cls-1 {
        fill: #9acd8d;
      }
    </style>
  </defs>
  <path class="cls-1" d="M435.35,103.83a11,11,0,0,1-11,11h-41v41a11,11,0,1,1-22,0v-41h-41a11,11,0,0,1,0-22h41v-41a11,11,0,1,1,22,0v41h41A11,11,0,0,1,435.35,103.83Z" transform="translate(-39.3)"/>
  <g>
    <path class="cls-1" d="M224,231.6A116,116,0,0,0,339.45,124.83H325.69a102,102,0,1,1-5.05-42H335A115.8,115.8,0,1,0,224,231.6Z" transform="translate(-39.3)"/>
    <path class="cls-1" d="M346.6,209a7.91,7.91,0,0,0-5.4-2.2h-.4a7.87,7.87,0,0,0-5.5,2.7c-11.29,13.4-26.91,24.6-41.83,33-2.65-8.47-5.7-13.68-6-14A3.63,3.63,0,0,0,284.7,227c-24.9,2.13-44.63,21.26-49.19,25.51H212.14C207.58,248,187.85,229.13,163,227a2.85,2.85,0,0,0-2.73,1.52,77.51,77.51,0,0,0-6.21,14.9A146.13,146.13,0,0,1,112.7,209.5a7.87,7.87,0,0,0-5.5-2.7h-.4a7.49,7.49,0,0,0-5.3,2.2C62,247.3,39.3,302.3,39.3,360c0,17.7,8.1,33.4,24.1,46.8,30.9,25.8,91,41.2,160.8,41.2a424.94,424.94,0,0,0,62.9-4.6,12.14,12.14,0,0,0,7.9,3,14.92,14.92,0,0,0,2.1-.2A12.19,12.19,0,0,0,295,422a14.92,14.92,0,0,0-2.1.2,12.13,12.13,0,0,0-8.5,6.1,408.88,408.88,0,0,1-60.7,4.4c-65.8,0-122-14.1-150.3-37.7-12.3-10.3-18.6-22.1-18.6-35,0-50.5,18.9-99.3,51.9-134.3a160.86,160.86,0,0,0,44.05,33.21,82.6,82.6,0,0,0-.55,9.38v.91c0,22.77,9.41,39.17,10,39.78a3.19,3.19,0,0,0,2.73,1.51h.31c25.5-2.12,45.54-22.16,49.48-25.8h22.77c3.34,3.64,23.38,23.37,48.88,25.8h.31a3.62,3.62,0,0,0,2.73-1.51,84.72,84.72,0,0,0,10-39.78v-.91a84,84,0,0,0-.56-9.6c16-8.34,32.12-19.64,44.61-33,33,35,51.9,83.7,51.9,134.3,0,15-8.4,28.4-24.9,39.8a11.41,11.41,0,0,0-4.1-.7,11.57,11.57,0,0,0-5.7,1.5,11.76,11.76,0,0,0-5.9,7.2,12.56,12.56,0,0,0,1,9.3,12.17,12.17,0,0,0,10.7,6.4,11.94,11.94,0,0,0,5.8-1.5,12.17,12.17,0,0,0,6.3-9.2c21.1-14.4,32.2-32.6,32.2-52.8C408.8,302.3,386.1,247.3,346.6,209ZM207.89,265.56h-9.11a3,3,0,1,0,0,6.07h9.11v8.81c-3.95,3.94-21.56,20.95-43.42,23.68a79,79,0,0,1-8.2-35.22v-.3a79.38,79.38,0,0,1,8.2-35.52c21.56,2.73,39.47,19.73,43.42,23.68Zm25.8,12.75h-20v-20h20Zm57.38-9.41v.3a79,79,0,0,1-8.2,35.22c-21.55-2.73-39.46-19.73-43.41-23.68v-9.11h9.11a3,3,0,0,0,0-6.07h-9.11v-8.8c3.95-3.95,21.86-20.95,43.41-23.68a74.83,74.83,0,0,1,8.2,35.21Z" transform="translate(-39.3)"/>
  </g>
</svg>
