<svg id="Capa_1" data-name="Capa 1" xmlns="http://www.w3.org/2000/svg" viewBox="0 0 480 452">
  <defs>
    <style>
      .cls-1 {
        fill: #9acd8d;
      }
    </style>
  </defs>
  <path class="cls-1" d="M323.26,260.41H20.65a15.41,15.41,0,1,1,0-30.82H323.26a15.41,15.41,0,1,1,0,30.82Z" transform="translate(-5 -19)"/>
  <path class="cls-1" d="M239.78,342.59a15.65,15.65,0,0,1-11.06-4.52,15.25,15.25,0,0,1,0-21.8L301.14,245l-72.42-71.29a15.25,15.25,0,0,1,0-21.8,15.83,15.83,0,0,1,22.14,0l83.48,82.18a15.24,15.24,0,0,1,0,21.8l-83.48,82.18A15.65,15.65,0,0,1,239.78,342.59Z" transform="translate(-5 -19)"/>
  <path class="cls-1" d="M255.43,471c-95,0-178.82-56.25-213.66-143.33a15.33,15.33,0,0,1,8.83-20,15.77,15.77,0,0,1,20.31,8.72C101,391.59,173.42,440.18,255.43,440.18c109.32,0,198.27-87.57,198.27-195.18S364.75,49.82,255.43,49.82c-82,0-154.45,48.59-184.52,123.76A15.78,15.78,0,0,1,50.6,182.3a15.33,15.33,0,0,1-8.83-20C76.61,75.25,160.46,19,255.43,19,382,19,485,120.39,485,245S382,471,255.43,471Z" transform="translate(-5 -19)"/>
</svg>
