<svg xmlns="http://www.w3.org/2000/svg" xmlns:xlink="http://www.w3.org/1999/xlink" viewBox="0 0 960.49 738.23"><defs><style>.cls-1,.cls-7{fill:none;}.cls-2{isolation:isolate;}.cls-3{opacity:0.15;}.cls-4{clip-path:url(#clip-path);}.cls-5{mix-blend-mode:hard-light;}.cls-6{fill:#a9daff;}.cls-7{stroke:#a9daff;stroke-miterlimit:10;stroke-width:2px;}.cls-8{opacity:0.2;mix-blend-mode:overlay;}</style><clipPath id="clip-path" transform="translate(-421.49 146.5)"><rect class="cls-1" x="519.5" width="750" height="500"/></clipPath></defs><g class="cls-2"><g id="BACKGROUND_2" data-name="BACKGROUND 2"><g class="cls-3"><g class="cls-4"><g class="cls-5"><path class="cls-6" d="M962.55,224A2.57,2.57,0,1,1,960,226.6a2.57,2.57,0,0,1,2.57-2.57m0-2a4.57,4.57,0,1,0,4.57,4.57,4.58,4.58,0,0,0-4.57-4.57Z" transform="translate(-421.49 146.5)"/><path class="cls-6" d="M1237.55,185a2.57,2.57,0,1,1-2.57,2.57,2.57,2.57,0,0,1,2.57-2.57m0-2a4.57,4.57,0,1,0,4.57,4.57,4.58,4.58,0,0,0-4.57-4.57Z" transform="translate(-421.49 146.5)"/><path class="cls-6" d="M1174.55,91A2.57,2.57,0,1,1,1172,93.6a2.57,2.57,0,0,1,2.57-2.57m0-2a4.57,4.57,0,1,0,4.57,4.57,4.58,4.58,0,0,0-4.57-4.57Z" transform="translate(-421.49 146.5)"/><path class="cls-6" d="M1039.55,137a2.57,2.57,0,1,1-2.57,2.57,2.57,2.57,0,0,1,2.57-2.57m0-2a4.57,4.57,0,1,0,4.57,4.57,4.58,4.58,0,0,0-4.57-4.57Z" transform="translate(-421.49 146.5)"/><path class="cls-6" d="M1093.55,179a2.57,2.57,0,1,1-2.57,2.57,2.57,2.57,0,0,1,2.57-2.57m0-2a4.57,4.57,0,1,0,4.57,4.57,4.58,4.58,0,0,0-4.57-4.57Z" transform="translate(-421.49 146.5)"/><path class="cls-6" d="M962.55,184A2.57,2.57,0,1,1,960,186.6a2.57,2.57,0,0,1,2.57-2.57m0-2a4.57,4.57,0,1,0,4.57,4.57,4.58,4.58,0,0,0-4.57-4.57Z" transform="translate(-421.49 146.5)"/><path class="cls-6" d="M775.55,155A2.57,2.57,0,1,1,773,157.6a2.57,2.57,0,0,1,2.57-2.57m0-2a4.57,4.57,0,1,0,4.57,4.57,4.58,4.58,0,0,0-4.57-4.57Z" transform="translate(-421.49 146.5)"/><path class="cls-6" d="M563.55,64A2.57,2.57,0,1,1,561,66.6,2.57,2.57,0,0,1,563.55,64m0-2a4.57,4.57,0,1,0,4.57,4.57A4.58,4.58,0,0,0,563.55,62Z" transform="translate(-421.49 146.5)"/><path class="cls-6" d="M547.05,422.53a2.57,2.57,0,1,1-2.57,2.57,2.57,2.57,0,0,1,2.57-2.57m0-2a4.57,4.57,0,1,0,4.57,4.57,4.58,4.58,0,0,0-4.57-4.57Z" transform="translate(-421.49 146.5)"/><path class="cls-6" d="M586.55,462A2.57,2.57,0,1,1,584,464.6a2.57,2.57,0,0,1,2.57-2.57m0-2a4.57,4.57,0,1,0,4.57,4.57,4.58,4.58,0,0,0-4.57-4.57Z" transform="translate(-421.49 146.5)"/><polyline class="cls-7" points="34 309.2 67.94 343.14 131.9 343.14 210.22 264.82"/><polyline class="cls-7" points="28.12 323.56 62.06 357.5 136.47 357.5 214.79 279.18"/><polyline class="cls-7" points="24.21 337.92 58.15 371.86 140.38 371.86 218.7 293.54"/><path class="cls-6" d="M635,112.49a2.54,2.54,0,0,1,1.82.75,2.57,2.57,0,0,1,0,3.63,2.57,2.57,0,0,1-3.63,0,2.57,2.57,0,0,1,0-3.63,2.52,2.52,0,0,1,1.81-.75m0-2a4.57,4.57,0,1,0,3.23,1.33,4.57,4.57,0,0,0-3.23-1.33Z" transform="translate(-421.49 146.5)"/><path class="cls-6" d="M639.54,127.5a2.54,2.54,0,0,1,1.82.75,2.57,2.57,0,0,1,0,3.63,2.57,2.57,0,1,1-1.82-4.38m0-2a4.52,4.52,0,0,0-3.23,1.34,4.57,4.57,0,1,0,6.46,0,4.52,4.52,0,0,0-3.23-1.34Z" transform="translate(-421.49 146.5)"/><path class="cls-6" d="M643.46,141.86a2.52,2.52,0,0,1,1.81.75,2.55,2.55,0,0,1,0,3.63,2.57,2.57,0,0,1-3.63,0,2.57,2.57,0,0,1,1.82-4.38m0-2a4.57,4.57,0,1,0,3.23,1.33,4.55,4.55,0,0,0-3.23-1.33Z" transform="translate(-421.49 146.5)"/><polyline class="cls-7" points="254.4 664.6 220.46 651.66 220.46 566.7 243.83 543.33"/><polyline class="cls-7" points="240.04 670.47 206.1 657.54 206.1 562.13 233.87 534.36"/><polyline class="cls-7" points="225.68 674.39 191.74 661.45 191.74 558.22 225.73 524.23"/><path class="cls-6" d="M668.54,391.05a2.52,2.52,0,0,1,1.81.75,2.57,2.57,0,0,1,0,3.63,2.57,2.57,0,0,1-3.63,0,2.57,2.57,0,0,1,0-3.63,2.52,2.52,0,0,1,1.82-.75m0-2a4.57,4.57,0,1,0,3.23,1.34,4.56,4.56,0,0,0-3.23-1.34Z" transform="translate(-421.49 146.5)"/><path class="cls-6" d="M658.52,381.48a2.58,2.58,0,0,1,1.82.75,2.57,2.57,0,1,1-1.82-.75m0-2a4.57,4.57,0,1,0,3.23,1.34,4.53,4.53,0,0,0-3.23-1.34Z" transform="translate(-421.49 146.5)"/><path class="cls-6" d="M649.66,372.06a2.53,2.53,0,0,1,1.82.76,2.57,2.57,0,1,1-3.63,0,2.53,2.53,0,0,1,1.81-.76m0-2a4.57,4.57,0,1,0,3.24,1.34,4.59,4.59,0,0,0-3.24-1.34Z" transform="translate(-421.49 146.5)"/><polyline class="cls-7" points="678.31 361.02 701.68 337.64 701.68 258.5 673.84 230.66 673.84 109.5"/><polyline class="cls-7" points="688.27 369.98 716.04 342.21 716.04 254.81 687.87 226.64 688.01 109.5"/><polyline class="cls-7" points="696.41 380.12 730.4 346.13 730.4 247.5 703.7 220.81 703.7 108.5"/><path class="cls-6" d="M1096.59,215.16a2.54,2.54,0,0,1,1.82.75,2.57,2.57,0,0,1,0,3.63,2.58,2.58,0,0,1-3.64,0,2.57,2.57,0,0,1,0-3.63,2.54,2.54,0,0,1,1.82-.75m0-2a4.57,4.57,0,1,0,3.23,7.8,4.57,4.57,0,0,0,0-6.46,4.52,4.52,0,0,0-3.23-1.34Z" transform="translate(-421.49 146.5)"/><path class="cls-6" d="M1106.6,224.73a2.54,2.54,0,0,1,1.82.75,2.57,2.57,0,0,1,0,3.63,2.57,2.57,0,1,1-1.82-4.38m0-2a4.57,4.57,0,1,0,3.23,1.33,4.55,4.55,0,0,0-3.23-1.33Z" transform="translate(-421.49 146.5)"/><path class="cls-6" d="M1115.46,234.14a2.57,2.57,0,1,1-1.82.75,2.58,2.58,0,0,1,1.82-.75m0-2a4.57,4.57,0,1,0,3.23,1.34,4.56,4.56,0,0,0-3.23-1.34Z" transform="translate(-421.49 146.5)"/><polyline class="cls-7" points="533.96 115.85 533.96 284.24 567.89 318.18 567.89 382.14 489.57 460.46"/><polyline class="cls-7" points="548.31 109.98 548.31 278.37 582.25 312.31 582.25 386.71 503.93 465.03"/><polyline class="cls-7" points="562.67 106.06 562.67 274.45 596.61 308.39 596.61 390.63 518.29 468.95"/><path class="cls-6" d="M907.8,314.66a2.54,2.54,0,0,1,1.82.75,2.57,2.57,0,0,1,0,3.63,2.57,2.57,0,1,1-1.82-4.38m0-2a4.52,4.52,0,0,0-3.23,1.34,4.57,4.57,0,1,0,6.46,0,4.52,4.52,0,0,0-3.23-1.34Z" transform="translate(-421.49 146.5)"/><path class="cls-6" d="M922.81,319.23a2.52,2.52,0,0,1,1.82.75,2.57,2.57,0,0,1,0,3.63,2.57,2.57,0,1,1-1.82-4.38m0-2a4.57,4.57,0,1,0,3.23,1.33,4.57,4.57,0,0,0-3.23-1.33Z" transform="translate(-421.49 146.5)"/><path class="cls-6" d="M937.17,323.14a2.57,2.57,0,1,1-1.81.75,2.58,2.58,0,0,1,1.81-.75m0-2a4.57,4.57,0,1,0,3.23,1.34,4.56,4.56,0,0,0-3.23-1.34Z" transform="translate(-421.49 146.5)"/><polyline class="cls-7" points="432.94 139.25 466.93 173.14 467.02 237.1 388.8 315.53"/><polyline class="cls-7" points="447.3 133.35 481.28 167.25 481.38 241.65 403.17 320.08"/><polyline class="cls-7" points="461.65 129.42 495.63 163.31 495.75 245.55 417.53 323.98"/><path class="cls-6" d="M807,169.73a2.56,2.56,0,1,1-1.82.75,2.56,2.56,0,0,1,1.82-.75m0-2a4.57,4.57,0,0,0,0,9.14,4.57,4.57,0,0,0,0-9.14Z" transform="translate(-421.49 146.5)"/><path class="cls-6" d="M822.05,174.28a2.57,2.57,0,1,1-1.81,4.38,2.57,2.57,0,0,1,1.81-4.38m0-2a4.52,4.52,0,0,0-3.23,1.34,4.57,4.57,0,1,0,3.23-1.34Z" transform="translate(-421.49 146.5)"/><path class="cls-6" d="M836.42,178.17a2.57,2.57,0,1,1-2.57,2.58,2.58,2.58,0,0,1,2.57-2.58m0-2a4.58,4.58,0,1,0,3.22,1.34,4.57,4.57,0,0,0-3.22-1.34Z" transform="translate(-421.49 146.5)"/><polyline class="cls-7" points="62.72 458.53 144.3 458.53 225.56 377.27 360.99 377.27"/><path class="cls-6" d="M787.05,228.53a2.57,2.57,0,1,1-2.57,2.57,2.57,2.57,0,0,1,2.57-2.57m0-2a4.57,4.57,0,1,0,4.57,4.57,4.58,4.58,0,0,0-4.57-4.57Z" transform="translate(-421.49 146.5)"/><polyline class="cls-7" points="67.94 474.19 149.52 474.19 230.78 392.94 361.64 392.94"/><path class="cls-6" d="M787.05,244.2a2.57,2.57,0,1,1-2.57,2.56,2.57,2.57,0,0,1,2.57-2.56m0-2a4.57,4.57,0,1,0,4.57,4.56,4.57,4.57,0,0,0-4.57-4.56Z" transform="translate(-421.49 146.5)"/><polyline class="cls-7" points="73.16 489.86 154.75 489.86 236 408.6 361.64 408.6"/><path class="cls-6" d="M787.05,259.86a2.57,2.57,0,1,1-2.57,2.57,2.57,2.57,0,0,1,2.57-2.57m0-2a4.57,4.57,0,1,0,4.57,4.57,4.57,4.57,0,0,0-4.57-4.57Z" transform="translate(-421.49 146.5)"/><polyline class="cls-7" points="78.38 505.52 159.97 505.52 241.22 424.27 361.64 424.27"/><path class="cls-6" d="M787.05,275.52a2.57,2.57,0,1,1-2.57,2.57,2.58,2.58,0,0,1,2.57-2.57m0-2a4.57,4.57,0,1,0,4.57,4.57,4.58,4.58,0,0,0-4.57-4.57Z" transform="translate(-421.49 146.5)"/><polyline class="cls-7" points="937.3 416.22 855.71 416.22 774.46 497.48 639.03 497.48"/><path class="cls-6" d="M1056,348.08a2.57,2.57,0,1,1-2.57,2.57,2.57,2.57,0,0,1,2.57-2.57m0-2a4.57,4.57,0,1,0,4.57,4.57,4.58,4.58,0,0,0-4.57-4.57Z" transform="translate(-421.49 146.5)"/><polyline class="cls-7" points="932.08 400.56 850.49 400.56 769.23 481.81 638.37 481.81"/><path class="cls-6" d="M1056,332.42a2.57,2.57,0,1,1-2.57,2.57,2.57,2.57,0,0,1,2.57-2.57m0-2a4.57,4.57,0,1,0,4.57,4.57,4.57,4.57,0,0,0-4.57-4.57Z" transform="translate(-421.49 146.5)"/><polyline class="cls-7" points="926.85 384.89 845.27 384.89 764.01 466.15 638.37 466.15"/><path class="cls-6" d="M1056,316.75a2.57,2.57,0,1,1-2.57,2.57,2.58,2.58,0,0,1,2.57-2.57m0-2a4.57,4.57,0,1,0,4.57,4.57,4.58,4.58,0,0,0-4.57-4.57Z" transform="translate(-421.49 146.5)"/><polyline class="cls-7" points="921.63 369.23 840.05 369.23 758.79 450.48 638.37 450.48"/><path class="cls-6" d="M1056,301.09a2.57,2.57,0,1,1-2.57,2.57,2.57,2.57,0,0,1,2.57-2.57m0-2a4.57,4.57,0,1,0,4.57,4.57,4.57,4.57,0,0,0-4.57-4.57Z" transform="translate(-421.49 146.5)"/><path class="cls-6" d="M881.2,233.52a2.57,2.57,0,1,1-2.57,2.57,2.58,2.58,0,0,1,2.57-2.57m0-2a4.57,4.57,0,1,0,4.57,4.57,4.56,4.56,0,0,0-4.57-4.57Z" transform="translate(-421.49 146.5)"/><polyline class="cls-7" points="421.98 662.23 421.98 547.36 459.18 510.16 459.82 387.44"/><path class="cls-6" d="M869.2,233.52a2.57,2.57,0,1,1-2.57,2.57,2.58,2.58,0,0,1,2.57-2.57m0-2a4.57,4.57,0,1,0,4.57,4.57,4.56,4.56,0,0,0-4.57-4.57Z" transform="translate(-421.49 146.5)"/><polyline class="cls-7" points="410.23 657.01 410.23 542.14 447.44 504.94 447.44 387.63"/><path class="cls-6" d="M857.2,233.52a2.57,2.57,0,1,1-2.57,2.57,2.58,2.58,0,0,1,2.57-2.57m0-2a4.57,4.57,0,1,0,4.57,4.57,4.56,4.56,0,0,0-4.57-4.57Z" transform="translate(-421.49 146.5)"/><polyline class="cls-7" points="398.49 651.79 398.49 536.92 435.69 499.72 435.69 387.63"/><path class="cls-6" d="M845.2,233.52a2.57,2.57,0,1,1-2.57,2.57,2.58,2.58,0,0,1,2.57-2.57m0-2a4.57,4.57,0,1,0,4.57,4.57,4.56,4.56,0,0,0-4.57-4.57Z" transform="translate(-421.49 146.5)"/><polyline class="cls-7" points="386.74 657.5 386.74 531.7 423.94 494.5 423.94 387.63"/><path class="cls-6" d="M1015.8,102.6a2.57,2.57,0,1,1-2.57,2.56,2.57,2.57,0,0,1,2.57-2.56m0-2a4.57,4.57,0,1,0,4.57,4.56,4.56,4.56,0,0,0-4.57-4.56Z" transform="translate(-421.49 146.5)"/><line class="cls-7" x1="594.83" y1="139.5" x2="594.19" y2="246.81"/><path class="cls-6" d="M1027.8,102.6a2.57,2.57,0,1,1-2.57,2.56,2.57,2.57,0,0,1,2.57-2.56m0-2a4.57,4.57,0,1,0,4.57,4.56,4.56,4.56,0,0,0-4.57-4.56Z" transform="translate(-421.49 146.5)"/><line class="cls-7" x1="606.58" y1="139.5" x2="606.58" y2="246.62"/><path class="cls-6" d="M1039.8,102.6a2.57,2.57,0,1,1-2.57,2.56,2.57,2.57,0,0,1,2.57-2.56m0-2a4.57,4.57,0,1,0,4.57,4.56,4.56,4.56,0,0,0-4.57-4.56Z" transform="translate(-421.49 146.5)"/><line class="cls-7" x1="618.32" y1="139.5" x2="618.32" y2="246.62"/><path class="cls-6" d="M1051.8,102.6a2.57,2.57,0,1,1-2.57,2.56,2.57,2.57,0,0,1,2.57-2.56m0-2a4.57,4.57,0,1,0,4.57,4.56,4.56,4.56,0,0,0-4.57-4.56Z" transform="translate(-421.49 146.5)"/><line class="cls-7" x1="630.07" y1="139.75" x2="630.07" y2="246.62"/><path class="cls-6" d="M1175.8,21.6a2.57,2.57,0,1,1-2.57,2.56,2.57,2.57,0,0,1,2.57-2.56m0-2a4.57,4.57,0,1,0,4.57,4.56,4.56,4.56,0,0,0-4.57-4.56Z" transform="translate(-421.49 146.5)"/><line class="cls-7" x1="754.83" y1="58.5" x2="754.19" y2="165.81"/><path class="cls-6" d="M1187.8,21.6a2.57,2.57,0,1,1-2.57,2.56,2.57,2.57,0,0,1,2.57-2.56m0-2a4.57,4.57,0,1,0,4.57,4.56,4.56,4.56,0,0,0-4.57-4.56Z" transform="translate(-421.49 146.5)"/><line class="cls-7" x1="766.58" y1="58.5" x2="766.58" y2="165.62"/><path class="cls-6" d="M1199.8,21.6a2.57,2.57,0,1,1-2.57,2.56,2.57,2.57,0,0,1,2.57-2.56m0-2a4.57,4.57,0,1,0,4.57,4.56,4.56,4.56,0,0,0-4.57-4.56Z" transform="translate(-421.49 146.5)"/><line class="cls-7" x1="778.32" y1="58.5" x2="778.32" y2="165.62"/><path class="cls-6" d="M1211.8,21.6a2.57,2.57,0,1,1-2.57,2.56,2.57,2.57,0,0,1,2.57-2.56m0-2a4.57,4.57,0,1,0,4.57,4.56,4.56,4.56,0,0,0-4.57-4.56Z" transform="translate(-421.49 146.5)"/><line class="cls-7" x1="790.07" y1="58.75" x2="790.07" y2="165.62"/><path class="cls-6" d="M702.8,309.52a2.57,2.57,0,1,1-2.57,2.57,2.58,2.58,0,0,1,2.57-2.57m0-2a4.57,4.57,0,1,0,4.57,4.57,4.56,4.56,0,0,0-4.57-4.57Z" transform="translate(-421.49 146.5)"/><polyline class="cls-7" points="319.03 738.23 319.03 623.36 281.83 586.16 281.19 463.44"/><path class="cls-6" d="M714.8,309.52a2.57,2.57,0,1,1-2.57,2.57,2.58,2.58,0,0,1,2.57-2.57m0-2a4.57,4.57,0,1,0,4.57,4.57,4.56,4.56,0,0,0-4.57-4.57Z" transform="translate(-421.49 146.5)"/><polyline class="cls-7" points="330.78 733.01 330.78 618.14 293.58 580.94 293.58 463.63"/><path class="cls-6" d="M726.8,309.52a2.57,2.57,0,1,1-2.57,2.57,2.58,2.58,0,0,1,2.57-2.57m0-2a4.57,4.57,0,1,0,4.57,4.57,4.56,4.56,0,0,0-4.57-4.57Z" transform="translate(-421.49 146.5)"/><polyline class="cls-7" points="342.53 727.79 342.53 612.92 305.32 575.72 305.32 463.63"/><path class="cls-6" d="M738.8,309.52a2.57,2.57,0,1,1-2.57,2.57,2.58,2.58,0,0,1,2.57-2.57m0-2a4.57,4.57,0,1,0,4.57,4.57,4.56,4.56,0,0,0-4.57-4.57Z" transform="translate(-421.49 146.5)"/><polyline class="cls-7" points="354.27 722.57 354.27 607.7 317.07 570.5 317.07 463.63"/><path class="cls-6" d="M698.16,173.45a2.52,2.52,0,0,1,1.81.75,2.57,2.57,0,1,1-1.81-.75m0-2a4.57,4.57,0,1,0,3.23,7.8,4.57,4.57,0,0,0,0-6.46,4.52,4.52,0,0,0-3.23-1.34Z" transform="translate(-421.49 146.5)"/><polyline class="cls-7" points="314.19 23.5 314.19 138.37 276.99 175.57 277.32 318"/><path class="cls-6" d="M711.57,173a2.58,2.58,0,0,1,1.82,4.39,2.57,2.57,0,0,1-3.63,0,2.58,2.58,0,0,1,1.81-4.39m0-2a4.57,4.57,0,1,0,3.23,1.34,4.56,4.56,0,0,0-3.23-1.34Z" transform="translate(-421.49 146.5)"/><polyline class="cls-7" points="327.61 28.72 327.61 143.59 290.4 180.79 290.4 317.5"/><path class="cls-6" d="M725,173.5a2.57,2.57,0,1,1-1.82.75,2.56,2.56,0,0,1,1.82-.75m0-2a4.57,4.57,0,1,0,3.23,1.34A4.56,4.56,0,0,0,725,171.5Z" transform="translate(-421.49 146.5)"/><polyline class="cls-7" points="341.02 33.94 341.02 148.81 303.82 186.01 303.82 318.5"/><path class="cls-6" d="M738.4,173a2.57,2.57,0,0,1,1.82,4.38,2.57,2.57,0,0,1-4.39-1.81A2.56,2.56,0,0,1,738.4,173m0-2a4.52,4.52,0,0,0-3.23,1.34,4.57,4.57,0,1,0,6.46,0A4.52,4.52,0,0,0,738.4,171Z" transform="translate(-421.49 146.5)"/><polyline class="cls-7" points="354.44 39.16 354.44 154.03 317.24 191.24 317.24 318.18"/><path class="cls-6" d="M1326.46,373.86a2.57,2.57,0,1,1-2.57,2.56,2.57,2.57,0,0,1,2.57-2.56m0-2a4.57,4.57,0,1,0,4.57,4.56,4.57,4.57,0,0,0-4.57-4.56Z" transform="translate(-421.49 146.5)"/><path class="cls-6" d="M904.16,348.84a2.52,2.52,0,0,1,1.81.75,2.57,2.57,0,0,1,0,3.63,2.57,2.57,0,0,1-3.63,0,2.57,2.57,0,0,1,0-3.63,2.54,2.54,0,0,1,1.82-.75m0-2a4.57,4.57,0,1,0,3.23,1.33,4.55,4.55,0,0,0-3.23-1.33Z" transform="translate(-421.49 146.5)"/><polyline class="cls-7" points="900.51 523.36 693.48 523.36 664.11 552.73 538.14 552.73 486.25 500.84"/><path class="cls-6" d="M1326.46,385.36a2.57,2.57,0,1,1-2.57,2.56,2.57,2.57,0,0,1,2.57-2.56m0-2a4.57,4.57,0,1,0,4.57,4.56,4.57,4.57,0,0,0-4.57-4.56Z" transform="translate(-421.49 146.5)"/><path class="cls-6" d="M908.88,368a2.52,2.52,0,0,1,1.81.75,2.55,2.55,0,0,1,0,3.63,2.55,2.55,0,0,1-3.63,0,2.57,2.57,0,0,1,0-3.63,2.54,2.54,0,0,1,1.82-.75m0-2a4.57,4.57,0,1,0,3.23,7.8,4.57,4.57,0,0,0,0-6.46,4.52,4.52,0,0,0-3.23-1.34Z" transform="translate(-421.49 146.5)"/><polyline class="cls-7" points="900.51 534.64 698.2 534.64 668.83 564.01 533.73 564.01 490.32 520.61"/><path class="cls-6" d="M1326.46,396.86a2.57,2.57,0,1,1-2.57,2.56,2.57,2.57,0,0,1,2.57-2.56m0-2a4.57,4.57,0,1,0,4.57,4.56,4.57,4.57,0,0,0-4.57-4.56Z" transform="translate(-421.49 146.5)"/><path class="cls-6" d="M914.75,390.69a2.57,2.57,0,1,1-1.81,4.39,2.57,2.57,0,0,1,1.81-4.39m0-2A4.57,4.57,0,1,0,918,390a4.56,4.56,0,0,0-3.23-1.34Z" transform="translate(-421.49 146.5)"/><polyline class="cls-7" points="900.51 546.29 703.42 546.29 674.05 575.66 529.81 575.66 496.2 542.04"/><path class="cls-6" d="M1326.46,408.36a2.57,2.57,0,1,1-2.57,2.56,2.57,2.57,0,0,1,2.57-2.56m0-2a4.57,4.57,0,1,0,4.57,4.56,4.57,4.57,0,0,0-4.57-4.56Z" transform="translate(-421.49 146.5)"/><path class="cls-6" d="M920.63,411.78a2.57,2.57,0,1,1-1.82.75,2.56,2.56,0,0,1,1.82-.75m0-2a4.57,4.57,0,1,0,3.23,1.34,4.56,4.56,0,0,0-3.23-1.34Z" transform="translate(-421.49 146.5)"/><polyline class="cls-7" points="900.51 557.59 708.64 557.59 679.27 586.96 525.89 586.96 502.72 563.79"/><path class="cls-6" d="M1326.46,419.86a2.57,2.57,0,1,1-2.57,2.56,2.57,2.57,0,0,1,2.57-2.56m0-2a4.57,4.57,0,1,0,4.57,4.56,4.57,4.57,0,0,0-4.57-4.56Z" transform="translate(-421.49 146.5)"/><path class="cls-6" d="M926.85,431.16a2.57,2.57,0,1,1-1.82,4.38,2.57,2.57,0,0,1,1.82-4.38m0-2a4.57,4.57,0,1,0,3.23,1.33,4.55,4.55,0,0,0-3.23-1.33Z" transform="translate(-421.49 146.5)"/><polyline class="cls-7" points="900.51 569.13 714.86 569.13 685.49 598.5 522.98 598.5 508.29 583.82"/><path class="cls-6" d="M1179.16,199.86a2.57,2.57,0,0,1,1.81,4.39,2.57,2.57,0,1,1-1.81-4.39m0-2a4.57,4.57,0,1,0,3.23,1.34,4.56,4.56,0,0,0-3.23-1.34Z" transform="translate(-421.49 146.5)"/><polyline class="cls-7" points="939.11 294.11 813.14 294.11 761.25 345.99"/><path class="cls-6" d="M1178.88,184.78a2.57,2.57,0,1,1-2.57,2.57,2.56,2.56,0,0,1,2.57-2.57m0-2a4.57,4.57,0,1,0,3.23,1.34,4.56,4.56,0,0,0-3.23-1.34Z" transform="translate(-421.49 146.5)"/><polyline class="cls-7" points="943.83 282.83 808.73 282.83 760.03 331.52"/><path class="cls-6" d="M1179.25,169.7a2.57,2.57,0,1,1-1.81,4.39,2.57,2.57,0,0,1,1.81-4.39m0-2a4.57,4.57,0,1,0,3.23,1.34,4.56,4.56,0,0,0-3.23-1.34Z" transform="translate(-421.49 146.5)"/><polyline class="cls-7" points="949.05 271.18 804.81 271.18 760.25 315.74"/><path class="cls-6" d="M1179.13,154.62a2.56,2.56,0,1,1-1.82.75,2.56,2.56,0,0,1,1.82-.75m0-2a4.57,4.57,0,1,0,3.23,1.34,4.56,4.56,0,0,0-3.23-1.34Z" transform="translate(-421.49 146.5)"/><polyline class="cls-7" points="954.27 259.88 800.89 259.88 760.64 300.13"/><path class="cls-6" d="M1178.85,139.54a2.56,2.56,0,1,1-1.82.75,2.56,2.56,0,0,1,1.82-.75m0-2a4.57,4.57,0,1,0,3.23,1.34,4.56,4.56,0,0,0-3.23-1.34Z" transform="translate(-421.49 146.5)"/><polyline class="cls-7" points="960.49 248.34 797.98 248.34 760.91 285.4"/><path class="cls-6" d="M882.05,207.53a2.57,2.57,0,1,1-2.57,2.57,2.57,2.57,0,0,1,2.57-2.57m0-2a4.57,4.57,0,1,0,4.57,4.57,4.58,4.58,0,0,0-4.57-4.57Z" transform="translate(-421.49 146.5)"/><polyline class="cls-7" points="515.51 114 515.51 267 461.01 321.5 461.01 352.5"/><path class="cls-6" d="M776.05,71.53a2.57,2.57,0,1,1-2.57,2.57,2.57,2.57,0,0,1,2.57-2.57m0-2a4.57,4.57,0,1,0,4.57,4.57,4.58,4.58,0,0,0-4.57-4.57Z" transform="translate(-421.49 146.5)"/><polyline class="cls-7" points="400.51 123 400.51 171 419.51 190 419.51 228 370.51 277 354.51 277 354.51 225"/><path class="cls-6" d="M568.05,259.53a2.57,2.57,0,1,1-2.57,2.57,2.57,2.57,0,0,1,2.57-2.57m0-2a4.57,4.57,0,1,0,4.57,4.57,4.58,4.58,0,0,0-4.57-4.57Z" transform="translate(-421.49 146.5)"/><path class="cls-6" d="M639.05,188.53a2.57,2.57,0,1,1-2.57,2.57,2.57,2.57,0,0,1,2.57-2.57m0-2a4.57,4.57,0,1,0,4.57,4.57,4.58,4.58,0,0,0-4.57-4.57Z" transform="translate(-421.49 146.5)"/><line class="cls-7" x1="149.51" y1="406" x2="214.51" y2="341"/><path class="cls-6" d="M669.05,319.53a2.57,2.57,0,1,1-2.57,2.57,2.57,2.57,0,0,1,2.57-2.57m0-2a4.57,4.57,0,1,0,4.57,4.57,4.58,4.58,0,0,0-4.57-4.57Z" transform="translate(-421.49 146.5)"/><path class="cls-6" d="M547.05,397.53a2.57,2.57,0,1,1-2.57,2.57,2.57,2.57,0,0,1,2.57-2.57m0-2a4.57,4.57,0,1,0,4.57,4.57,4.58,4.58,0,0,0-4.57-4.57Z" transform="translate(-421.49 146.5)"/><polyline class="cls-7" points="244.51 472 169.51 547 131.01 547"/><path class="cls-6" d="M674.05,422.53a2.57,2.57,0,1,1-2.57,2.57,2.57,2.57,0,0,1,2.57-2.57m0-2a4.57,4.57,0,1,0,4.57,4.57,4.58,4.58,0,0,0-4.57-4.57Z" transform="translate(-421.49 146.5)"/><path class="cls-6" d="M689.05,477.53a2.57,2.57,0,1,1-2.57,2.57,2.57,2.57,0,0,1,2.57-2.57m0-2a4.57,4.57,0,1,0,4.57,4.57,4.58,4.58,0,0,0-4.57-4.57Z" transform="translate(-421.49 146.5)"/><polyline class="cls-7" points="252.51 576.5 252.51 611 265.01 623.5"/><path class="cls-6" d="M771.05,417.53a2.57,2.57,0,1,1-2.57,2.57,2.57,2.57,0,0,1,2.57-2.57m0-2a4.57,4.57,0,1,0,4.57,4.57,4.58,4.58,0,0,0-4.57-4.57Z" transform="translate(-421.49 146.5)"/><path class="cls-6" d="M804.05,296.53a2.57,2.57,0,1,1-2.57,2.57,2.57,2.57,0,0,1,2.57-2.57m0-2a4.57,4.57,0,1,0,4.57,4.57,4.58,4.58,0,0,0-4.57-4.57Z" transform="translate(-421.49 146.5)"/><polyline class="cls-7" points="349.51 562.5 349.51 521 383.01 487.5 383.01 450.5"/><path class="cls-6" d="M820.05,258.53a2.57,2.57,0,1,1-2.57,2.57,2.57,2.57,0,0,1,2.57-2.57m0-2a4.57,4.57,0,1,0,4.57,4.57,4.58,4.58,0,0,0-4.57-4.57Z" transform="translate(-421.49 146.5)"/><path class="cls-6" d="M710.05,201.53a2.57,2.57,0,1,1-2.57,2.57,2.57,2.57,0,0,1,2.57-2.57m0-2a4.57,4.57,0,1,0,4.57,4.57,4.58,4.58,0,0,0-4.57-4.57Z" transform="translate(-421.49 146.5)"/><polyline class="cls-7" points="398.51 404.5 398.51 377 372.01 350.5 294.01 350.5"/><path class="cls-6" d="M579.05,128.53a2.57,2.57,0,1,1-2.57,2.57,2.57,2.57,0,0,1,2.57-2.57m0-2a4.57,4.57,0,1,0,4.57,4.57,4.58,4.58,0,0,0-4.57-4.57Z" transform="translate(-421.49 146.5)"/><path class="cls-6" d="M695.05-36.47a2.57,2.57,0,0,1,2.57,2.57,2.57,2.57,0,0,1-2.57,2.57,2.57,2.57,0,0,1-2.57-2.57,2.57,2.57,0,0,1,2.57-2.57m0-2a4.58,4.58,0,0,0-4.57,4.57,4.58,4.58,0,0,0,4.57,4.57,4.58,4.58,0,0,0,4.57-4.57,4.58,4.58,0,0,0-4.57-4.57Z" transform="translate(-421.49 146.5)"/><polyline class="cls-7" points="159.51 275 220.01 214.5 220.01 166 271.76 114.25"/><path class="cls-6" d="M568.05,119.53a2.57,2.57,0,1,1-2.57,2.57,2.57,2.57,0,0,1,2.57-2.57m0-2a4.57,4.57,0,1,0,4.57,4.57,4.58,4.58,0,0,0-4.57-4.57Z" transform="translate(-421.49 146.5)"/><path class="cls-6" d="M684.05-45.47a2.57,2.57,0,0,1,2.57,2.57,2.57,2.57,0,0,1-2.57,2.57,2.57,2.57,0,0,1-2.57-2.57,2.57,2.57,0,0,1,2.57-2.57m0-2a4.58,4.58,0,0,0-4.57,4.57,4.58,4.58,0,0,0,4.57,4.57,4.58,4.58,0,0,0,4.57-4.57,4.58,4.58,0,0,0-4.57-4.57Z" transform="translate(-421.49 146.5)"/><polyline class="cls-7" points="148.51 266 209.01 205.5 209.01 157 260.76 105.25"/><path class="cls-6" d="M557.05,110.53a2.57,2.57,0,1,1-2.57,2.57,2.57,2.57,0,0,1,2.57-2.57m0-2a4.57,4.57,0,1,0,4.57,4.57,4.58,4.58,0,0,0-4.57-4.57Z" transform="translate(-421.49 146.5)"/><path class="cls-6" d="M673.05-54.47a2.57,2.57,0,0,1,2.57,2.57,2.57,2.57,0,0,1-2.57,2.57,2.57,2.57,0,0,1-2.57-2.57,2.57,2.57,0,0,1,2.57-2.57m0-2a4.58,4.58,0,0,0-4.57,4.57,4.58,4.58,0,0,0,4.57,4.57,4.58,4.58,0,0,0,4.57-4.57,4.58,4.58,0,0,0-4.57-4.57Z" transform="translate(-421.49 146.5)"/><polyline class="cls-7" points="137.51 257 198.01 196.5 198.01 148 249.76 96.25"/><path class="cls-6" d="M1195.05,442.53a2.57,2.57,0,1,1-2.57,2.57,2.57,2.57,0,0,1,2.57-2.57m0-2a4.57,4.57,0,1,0,4.57,4.57,4.58,4.58,0,0,0-4.57-4.57Z" transform="translate(-421.49 146.5)"/><polyline class="cls-7" points="702.01 711.5 702.01 663 770.26 594.75"/><path class="cls-6" d="M1175.05,442.53a2.57,2.57,0,1,1-2.57,2.57,2.57,2.57,0,0,1,2.57-2.57m0-2a4.57,4.57,0,1,0,4.57,4.57,4.58,4.58,0,0,0-4.57-4.57Z" transform="translate(-421.49 146.5)"/><polyline class="cls-7" points="691.01 702.5 691.01 654 750.26 594.75"/><path class="cls-6" d="M1155.05,442.53a2.57,2.57,0,1,1-2.57,2.57,2.57,2.57,0,0,1,2.57-2.57m0-2a4.57,4.57,0,1,0,4.57,4.57,4.58,4.58,0,0,0-4.57-4.57Z" transform="translate(-421.49 146.5)"/><polyline class="cls-7" points="680.01 693.5 680.01 645 730.26 594.75"/><path class="cls-6" d="M672.05,37.53a2.57,2.57,0,1,1-2.57,2.57,2.57,2.57,0,0,1,2.57-2.57m0-2a4.57,4.57,0,1,0,4.57,4.57,4.58,4.58,0,0,0-4.57-4.57Z" transform="translate(-421.49 146.5)"/><path class="cls-6" d="M672.05,123.53a2.57,2.57,0,1,1-2.57,2.57,2.57,2.57,0,0,1,2.57-2.57m0-2a4.57,4.57,0,1,0,4.57,4.57,4.58,4.58,0,0,0-4.57-4.57Z" transform="translate(-421.49 146.5)"/><line class="cls-7" x1="250.51" y1="268" x2="250.51" y2="191"/><path class="cls-6" d="M594.55,33A2.57,2.57,0,1,1,592,35.6,2.57,2.57,0,0,1,594.55,33m0-2a4.57,4.57,0,1,0,4.57,4.57A4.58,4.58,0,0,0,594.55,31Z" transform="translate(-421.49 146.5)"/><path class="cls-6" d="M541.55,33A2.57,2.57,0,1,1,539,35.6,2.57,2.57,0,0,1,541.55,33m0-2a4.57,4.57,0,1,0,4.57,4.57A4.58,4.58,0,0,0,541.55,31Z" transform="translate(-421.49 146.5)"/><line class="cls-7" x1="124.16" y1="182.05" x2="167.66" y2="182.05"/><path class="cls-6" d="M901.55,262A2.57,2.57,0,1,1,899,264.6a2.57,2.57,0,0,1,2.57-2.57m0-2a4.57,4.57,0,1,0,4.57,4.57,4.58,4.58,0,0,0-4.57-4.57Z" transform="translate(-421.49 146.5)"/><path class="cls-6" d="M935.55,165A2.57,2.57,0,1,1,933,167.6a2.57,2.57,0,0,1,2.57-2.57m0-2a4.57,4.57,0,1,0,4.57,4.57,4.58,4.58,0,0,0-4.57-4.57Z" transform="translate(-421.49 146.5)"/><polyline class="cls-7" points="483.01 408.5 514.51 377 514.51 318.5"/><path class="cls-6" d="M878.55,401A2.57,2.57,0,1,1,876,403.6a2.57,2.57,0,0,1,2.57-2.57m0-2a4.57,4.57,0,1,0,4.57,4.57,4.58,4.58,0,0,0-4.57-4.57Z" transform="translate(-421.49 146.5)"/><polyline class="cls-7" points="457.01 554.5 457.01 606.5 479.01 628.5 481.01 726.5"/><path class="cls-6" d="M944.55,473A2.57,2.57,0,1,1,942,475.6a2.57,2.57,0,0,1,2.57-2.57m0-2a4.57,4.57,0,1,0,4.57,4.57,4.58,4.58,0,0,0-4.57-4.57Z" transform="translate(-421.49 146.5)"/><path class="cls-6" d="M1064.55,473a2.57,2.57,0,1,1-2.57,2.57,2.57,2.57,0,0,1,2.57-2.57m0-2a4.57,4.57,0,1,0,4.57,4.57,4.58,4.58,0,0,0-4.57-4.57Z" transform="translate(-421.49 146.5)"/><line class="cls-7" x1="528.01" y1="622.5" x2="638.01" y2="622.5"/><path class="cls-6" d="M1213.55,478a2.57,2.57,0,1,1-2.57,2.57,2.57,2.57,0,0,1,2.57-2.57m0-2a4.57,4.57,0,1,0,4.57,4.57,4.58,4.58,0,0,0-4.57-4.57Z" transform="translate(-421.49 146.5)"/><path class="cls-6" d="M1238.55,453a2.57,2.57,0,1,1-2.57,2.57,2.57,2.57,0,0,1,2.57-2.57m0-2a4.57,4.57,0,1,0,4.57,4.57,4.58,4.58,0,0,0-4.57-4.57Z" transform="translate(-421.49 146.5)"/><line class="cls-7" x1="795.01" y1="624.5" x2="814.01" y2="605.5"/><path class="cls-6" d="M1070.55,376a2.57,2.57,0,1,1-2.57,2.57,2.57,2.57,0,0,1,2.57-2.57m0-2a4.57,4.57,0,1,0,4.57,4.57,4.58,4.58,0,0,0-4.57-4.57Z" transform="translate(-421.49 146.5)"/><path class="cls-6" d="M984.55,376A2.57,2.57,0,1,1,982,378.6a2.57,2.57,0,0,1,2.57-2.57m0-2a4.57,4.57,0,1,0,4.57,4.57,4.58,4.58,0,0,0-4.57-4.57Z" transform="translate(-421.49 146.5)"/><line class="cls-7" x1="644.01" y1="525.5" x2="568.01" y2="525.5"/><path class="cls-6" d="M979.55,328A2.57,2.57,0,1,1,977,330.6a2.57,2.57,0,0,1,2.57-2.57m0-2a4.57,4.57,0,1,0,4.57,4.57,4.58,4.58,0,0,0-4.57-4.57Z" transform="translate(-421.49 146.5)"/><path class="cls-6" d="M1208.55,211a2.57,2.57,0,1,1-2.57,2.57,2.57,2.57,0,0,1,2.57-2.57m0-2a4.57,4.57,0,1,0,4.57,4.57,4.58,4.58,0,0,0-4.57-4.57Z" transform="translate(-421.49 146.5)"/><polyline class="cls-7" points="561.01 475.5 620.51 416 730.26 415.75 783.26 362.75"/><path class="cls-6" d="M1051.55,224a2.57,2.57,0,1,1-2.57,2.57,2.57,2.57,0,0,1,2.57-2.57m0-2a4.57,4.57,0,1,0,4.57,4.57,4.58,4.58,0,0,0-4.57-4.57Z" transform="translate(-421.49 146.5)"/><path class="cls-6" d="M1074.55,130a2.57,2.57,0,1,1-2.57,2.57,2.57,2.57,0,0,1,2.57-2.57m0-2a4.57,4.57,0,1,0,4.57,4.57,4.58,4.58,0,0,0-4.57-4.57Z" transform="translate(-421.49 146.5)"/><polyline class="cls-7" points="630.01 368.5 630.01 332.5 653.51 309 653.51 282.5"/><path class="cls-6" d="M1142.55,39A2.57,2.57,0,1,1,1140,41.6a2.57,2.57,0,0,1,2.57-2.57m0-2a4.57,4.57,0,1,0,4.57,4.57,4.58,4.58,0,0,0-4.57-4.57Z" transform="translate(-421.49 146.5)"/><path class="cls-6" d="M1240.55,39A2.57,2.57,0,1,1,1238,41.6a2.57,2.57,0,0,1,2.57-2.57m0-2a4.57,4.57,0,1,0,4.57,4.57,4.58,4.58,0,0,0-4.57-4.57Z" transform="translate(-421.49 146.5)"/><polyline class="cls-7" points="724.01 191.5 744.51 212 795.01 212 815.76 191.25"/></g><g class="cls-8"><path class="cls-6" d="M939.05,200.53a2.57,2.57,0,1,1-2.57,2.57,2.57,2.57,0,0,1,2.57-2.57m0-2a4.57,4.57,0,1,0,4.57,4.57,4.58,4.58,0,0,0-4.57-4.57Z" transform="translate(-421.49 146.5)"/><path class="cls-6" d="M1214.05,161.53a2.57,2.57,0,1,1-2.57,2.57,2.57,2.57,0,0,1,2.57-2.57m0-2a4.57,4.57,0,1,0,4.57,4.57,4.58,4.58,0,0,0-4.57-4.57Z" transform="translate(-421.49 146.5)"/><path class="cls-6" d="M1151.05,67.53a2.57,2.57,0,1,1-2.57,2.57,2.57,2.57,0,0,1,2.57-2.57m0-2a4.57,4.57,0,1,0,4.57,4.57,4.58,4.58,0,0,0-4.57-4.57Z" transform="translate(-421.49 146.5)"/><path class="cls-6" d="M1016.05,113.53a2.57,2.57,0,1,1-2.57,2.57,2.57,2.57,0,0,1,2.57-2.57m0-2a4.57,4.57,0,1,0,4.57,4.57,4.58,4.58,0,0,0-4.57-4.57Z" transform="translate(-421.49 146.5)"/><path class="cls-6" d="M1070.05,155.53a2.57,2.57,0,1,1-2.57,2.57,2.57,2.57,0,0,1,2.57-2.57m0-2a4.57,4.57,0,1,0,4.57,4.57,4.58,4.58,0,0,0-4.57-4.57Z" transform="translate(-421.49 146.5)"/><path class="cls-6" d="M939.05,160.53a2.57,2.57,0,1,1-2.57,2.57,2.57,2.57,0,0,1,2.57-2.57m0-2a4.57,4.57,0,1,0,4.57,4.57,4.58,4.58,0,0,0-4.57-4.57Z" transform="translate(-421.49 146.5)"/><path class="cls-6" d="M752.05,131.53a2.57,2.57,0,1,1-2.57,2.57,2.57,2.57,0,0,1,2.57-2.57m0-2a4.57,4.57,0,1,0,4.57,4.57,4.58,4.58,0,0,0-4.57-4.57Z" transform="translate(-421.49 146.5)"/><path class="cls-6" d="M540.05,40.53a2.57,2.57,0,1,1-2.57,2.57,2.57,2.57,0,0,1,2.57-2.57m0-2a4.57,4.57,0,1,0,4.57,4.57,4.58,4.58,0,0,0-4.57-4.57Z" transform="translate(-421.49 146.5)"/><path class="cls-6" d="M523.55,399A2.57,2.57,0,1,1,521,401.6a2.57,2.57,0,0,1,2.57-2.57m0-2a4.57,4.57,0,1,0,4.57,4.57,4.58,4.58,0,0,0-4.57-4.57Z" transform="translate(-421.49 146.5)"/><path class="cls-6" d="M563.05,438.53a2.57,2.57,0,1,1-2.57,2.57,2.57,2.57,0,0,1,2.57-2.57m0-2a4.57,4.57,0,1,0,4.57,4.57,4.58,4.58,0,0,0-4.57-4.57Z" transform="translate(-421.49 146.5)"/><polyline class="cls-7" points="10.5 285.7 44.44 319.64 108.4 319.64 186.72 241.32"/><polyline class="cls-7" points="4.62 300.06 38.56 334 112.97 334 191.29 255.68"/><polyline class="cls-7" points="0.71 314.42 34.65 348.36 116.88 348.36 195.2 270.04"/><path class="cls-6" d="M611.47,89a2.54,2.54,0,0,1,1.82.75,2.57,2.57,0,0,1,0,3.63,2.57,2.57,0,0,1-3.63,0,2.57,2.57,0,0,1,0-3.63,2.52,2.52,0,0,1,1.81-.75m0-2a4.57,4.57,0,1,0,3.23,1.33A4.57,4.57,0,0,0,611.47,87Z" transform="translate(-421.49 146.5)"/><path class="cls-6" d="M616,104a2.54,2.54,0,0,1,1.82.75,2.57,2.57,0,0,1,0,3.63A2.57,2.57,0,1,1,616,104m0-2a4.52,4.52,0,0,0-3.23,1.34,4.57,4.57,0,1,0,6.46,0A4.52,4.52,0,0,0,616,102Z" transform="translate(-421.49 146.5)"/><path class="cls-6" d="M620,118.36a2.52,2.52,0,0,1,1.81.75,2.55,2.55,0,0,1,0,3.63,2.57,2.57,0,0,1-3.63,0,2.57,2.57,0,0,1,1.82-4.38m0-2a4.57,4.57,0,1,0,3.23,1.33,4.55,4.55,0,0,0-3.23-1.33Z" transform="translate(-421.49 146.5)"/><polyline class="cls-7" points="230.9 641.1 196.96 628.16 196.96 543.2 220.33 519.83"/><polyline class="cls-7" points="216.54 646.97 182.6 634.04 182.6 538.63 210.37 510.86"/><polyline class="cls-7" points="202.18 650.89 168.24 637.95 168.24 534.72 202.23 500.73"/><path class="cls-6" d="M645,367.55a2.52,2.52,0,0,1,1.81.75,2.57,2.57,0,0,1,0,3.63,2.57,2.57,0,0,1-3.63,0,2.57,2.57,0,0,1,0-3.63,2.52,2.52,0,0,1,1.82-.75m0-2a4.57,4.57,0,1,0,3.23,1.34,4.56,4.56,0,0,0-3.23-1.34Z" transform="translate(-421.49 146.5)"/><path class="cls-6" d="M635,358a2.58,2.58,0,0,1,1.82.75A2.57,2.57,0,1,1,635,358m0-2a4.57,4.57,0,1,0,3.23,1.34A4.53,4.53,0,0,0,635,356Z" transform="translate(-421.49 146.5)"/><path class="cls-6" d="M626.16,348.56a2.53,2.53,0,0,1,1.82.76,2.57,2.57,0,1,1-3.63,0,2.53,2.53,0,0,1,1.81-.76m0-2a4.57,4.57,0,1,0,3.24,1.34,4.59,4.59,0,0,0-3.24-1.34Z" transform="translate(-421.49 146.5)"/><polyline class="cls-7" points="654.81 337.52 678.18 314.14 678.18 235 650.34 207.16 650.34 86"/><polyline class="cls-7" points="664.77 346.48 692.54 318.71 692.54 231.31 664.37 203.14 664.51 86"/><polyline class="cls-7" points="672.91 356.62 706.9 322.63 706.9 224 680.2 197.31 680.2 85"/><path class="cls-6" d="M1073.09,191.66a2.54,2.54,0,0,1,1.82.75,2.57,2.57,0,0,1,0,3.63,2.58,2.58,0,0,1-3.64,0,2.57,2.57,0,0,1,0-3.63,2.54,2.54,0,0,1,1.82-.75m0-2a4.57,4.57,0,1,0,3.23,7.8,4.57,4.57,0,0,0,0-6.46,4.52,4.52,0,0,0-3.23-1.34Z" transform="translate(-421.49 146.5)"/><path class="cls-6" d="M1083.1,201.23a2.54,2.54,0,0,1,1.82.75,2.57,2.57,0,0,1,0,3.63,2.57,2.57,0,1,1-1.82-4.38m0-2a4.57,4.57,0,1,0,3.23,1.33,4.55,4.55,0,0,0-3.23-1.33Z" transform="translate(-421.49 146.5)"/><path class="cls-6" d="M1092,210.64a2.57,2.57,0,1,1-1.82.75,2.58,2.58,0,0,1,1.82-.75m0-2a4.57,4.57,0,1,0,3.23,1.34,4.56,4.56,0,0,0-3.23-1.34Z" transform="translate(-421.49 146.5)"/><polyline class="cls-7" points="510.45 92.35 510.45 260.74 544.39 294.68 544.39 358.64 466.07 436.96"/><polyline class="cls-7" points="524.81 86.48 524.81 254.87 558.75 288.81 558.75 363.21 480.43 441.53"/><polyline class="cls-7" points="539.17 82.56 539.17 250.95 573.11 284.89 573.11 367.13 494.79 445.45"/><path class="cls-6" d="M884.3,291.16a2.54,2.54,0,0,1,1.82.75,2.57,2.57,0,0,1,0,3.63,2.57,2.57,0,1,1-1.82-4.38m0-2a4.52,4.52,0,0,0-3.23,1.34,4.57,4.57,0,1,0,6.46,0,4.52,4.52,0,0,0-3.23-1.34Z" transform="translate(-421.49 146.5)"/><path class="cls-6" d="M899.31,295.73a2.52,2.52,0,0,1,1.82.75,2.57,2.57,0,0,1,0,3.63,2.57,2.57,0,1,1-1.82-4.38m0-2a4.57,4.57,0,1,0,3.23,1.33,4.57,4.57,0,0,0-3.23-1.33Z" transform="translate(-421.49 146.5)"/><path class="cls-6" d="M913.67,299.64a2.57,2.57,0,1,1-1.81.75,2.58,2.58,0,0,1,1.81-.75m0-2A4.57,4.57,0,1,0,916.9,299a4.56,4.56,0,0,0-3.23-1.34Z" transform="translate(-421.49 146.5)"/><polyline class="cls-7" points="409.44 115.75 443.43 149.64 443.52 213.6 365.3 292.03"/><polyline class="cls-7" points="423.8 109.86 457.78 143.75 457.88 218.15 379.67 296.58"/><polyline class="cls-7" points="438.15 105.92 472.13 139.81 472.25 222.05 394.03 300.48"/><path class="cls-6" d="M783.54,146.23a2.56,2.56,0,1,1-1.82.75,2.56,2.56,0,0,1,1.82-.75m0-2a4.57,4.57,0,0,0,0,9.14,4.57,4.57,0,0,0,0-9.14Z" transform="translate(-421.49 146.5)"/><path class="cls-6" d="M798.55,150.78a2.57,2.57,0,1,1-1.81,4.38,2.57,2.57,0,0,1,1.81-4.38m0-2a4.52,4.52,0,0,0-3.23,1.34,4.57,4.57,0,1,0,3.23-1.34Z" transform="translate(-421.49 146.5)"/><path class="cls-6" d="M812.92,154.67a2.57,2.57,0,1,1-2.57,2.58,2.58,2.58,0,0,1,2.57-2.58m0-2a4.58,4.58,0,1,0,3.22,1.34,4.57,4.57,0,0,0-3.22-1.34Z" transform="translate(-421.49 146.5)"/><polyline class="cls-7" points="39.22 435.03 120.8 435.03 202.06 353.77 337.49 353.77"/><path class="cls-6" d="M763.55,205A2.57,2.57,0,1,1,761,207.6a2.57,2.57,0,0,1,2.57-2.57m0-2a4.57,4.57,0,1,0,4.57,4.57,4.58,4.58,0,0,0-4.57-4.57Z" transform="translate(-421.49 146.5)"/><polyline class="cls-7" points="44.44 450.69 126.02 450.69 207.28 369.44 338.14 369.44"/><path class="cls-6" d="M763.55,220.7a2.57,2.57,0,1,1-2.57,2.56,2.57,2.57,0,0,1,2.57-2.56m0-2a4.57,4.57,0,1,0,4.57,4.56,4.57,4.57,0,0,0-4.57-4.56Z" transform="translate(-421.49 146.5)"/><polyline class="cls-7" points="49.66 466.36 131.25 466.36 212.5 385.1 338.14 385.1"/><path class="cls-6" d="M763.55,236.36a2.57,2.57,0,1,1-2.57,2.57,2.57,2.57,0,0,1,2.57-2.57m0-2a4.57,4.57,0,1,0,4.57,4.57,4.57,4.57,0,0,0-4.57-4.57Z" transform="translate(-421.49 146.5)"/><polyline class="cls-7" points="54.88 482.02 136.47 482.02 217.72 400.77 338.14 400.77"/><path class="cls-6" d="M763.55,252a2.57,2.57,0,1,1-2.57,2.57,2.58,2.58,0,0,1,2.57-2.57m0-2a4.57,4.57,0,1,0,4.57,4.57,4.58,4.58,0,0,0-4.57-4.57Z" transform="translate(-421.49 146.5)"/><polyline class="cls-7" points="913.8 392.72 832.21 392.72 750.96 473.98 615.53 473.98"/><path class="cls-6" d="M1032.45,324.58a2.57,2.57,0,1,1-2.57,2.57,2.57,2.57,0,0,1,2.57-2.57m0-2a4.57,4.57,0,1,0,4.57,4.57,4.58,4.58,0,0,0-4.57-4.57Z" transform="translate(-421.49 146.5)"/><polyline class="cls-7" points="908.58 377.06 826.99 377.06 745.73 458.31 614.87 458.31"/><path class="cls-6" d="M1032.45,308.92a2.57,2.57,0,1,1-2.57,2.57,2.57,2.57,0,0,1,2.57-2.57m0-2a4.57,4.57,0,1,0,4.57,4.57,4.57,4.57,0,0,0-4.57-4.57Z" transform="translate(-421.49 146.5)"/><polyline class="cls-7" points="903.35 361.39 821.77 361.39 740.51 442.65 614.87 442.65"/><path class="cls-6" d="M1032.45,293.25a2.57,2.57,0,1,1-2.57,2.57,2.58,2.58,0,0,1,2.57-2.57m0-2a4.57,4.57,0,1,0,4.57,4.57,4.58,4.58,0,0,0-4.57-4.57Z" transform="translate(-421.49 146.5)"/><polyline class="cls-7" points="898.13 345.73 816.55 345.73 735.29 426.98 614.87 426.98"/><path class="cls-6" d="M1032.45,277.59a2.57,2.57,0,1,1-2.57,2.57,2.57,2.57,0,0,1,2.57-2.57m0-2a4.57,4.57,0,1,0,4.57,4.57,4.57,4.57,0,0,0-4.57-4.57Z" transform="translate(-421.49 146.5)"/><path class="cls-6" d="M857.7,210a2.57,2.57,0,1,1-2.57,2.57A2.58,2.58,0,0,1,857.7,210m0-2a4.57,4.57,0,1,0,4.57,4.57A4.56,4.56,0,0,0,857.7,208Z" transform="translate(-421.49 146.5)"/><polyline class="cls-7" points="398.48 638.73 398.48 523.86 435.68 486.66 436.32 363.94"/><path class="cls-6" d="M845.7,210a2.57,2.57,0,1,1-2.57,2.57A2.58,2.58,0,0,1,845.7,210m0-2a4.57,4.57,0,1,0,4.57,4.57A4.56,4.56,0,0,0,845.7,208Z" transform="translate(-421.49 146.5)"/><polyline class="cls-7" points="386.73 633.51 386.73 518.64 423.94 481.44 423.94 364.13"/><path class="cls-6" d="M833.7,210a2.57,2.57,0,1,1-2.57,2.57A2.58,2.58,0,0,1,833.7,210m0-2a4.57,4.57,0,1,0,4.57,4.57A4.56,4.56,0,0,0,833.7,208Z" transform="translate(-421.49 146.5)"/><polyline class="cls-7" points="374.99 628.29 374.99 513.42 412.19 476.22 412.19 364.13"/><path class="cls-6" d="M821.7,210a2.57,2.57,0,1,1-2.57,2.57A2.58,2.58,0,0,1,821.7,210m0-2a4.57,4.57,0,1,0,4.57,4.57A4.56,4.56,0,0,0,821.7,208Z" transform="translate(-421.49 146.5)"/><polyline class="cls-7" points="363.24 634 363.24 508.2 400.44 471 400.44 364.13"/><path class="cls-6" d="M992.3,79.1a2.57,2.57,0,1,1-2.57,2.56,2.57,2.57,0,0,1,2.57-2.56m0-2a4.57,4.57,0,1,0,4.57,4.56,4.56,4.56,0,0,0-4.57-4.56Z" transform="translate(-421.49 146.5)"/><line class="cls-7" x1="571.33" y1="116" x2="570.69" y2="223.31"/><path class="cls-6" d="M1004.3,79.1a2.57,2.57,0,1,1-2.57,2.56,2.57,2.57,0,0,1,2.57-2.56m0-2a4.57,4.57,0,1,0,4.57,4.56,4.56,4.56,0,0,0-4.57-4.56Z" transform="translate(-421.49 146.5)"/><line class="cls-7" x1="583.08" y1="116" x2="583.08" y2="223.12"/><path class="cls-6" d="M1016.3,79.1a2.57,2.57,0,1,1-2.57,2.56,2.57,2.57,0,0,1,2.57-2.56m0-2a4.57,4.57,0,1,0,4.57,4.56,4.56,4.56,0,0,0-4.57-4.56Z" transform="translate(-421.49 146.5)"/><line class="cls-7" x1="594.82" y1="116" x2="594.82" y2="223.12"/><path class="cls-6" d="M1028.3,79.1a2.57,2.57,0,1,1-2.57,2.56,2.57,2.57,0,0,1,2.57-2.56m0-2a4.57,4.57,0,1,0,4.57,4.56,4.56,4.56,0,0,0-4.57-4.56Z" transform="translate(-421.49 146.5)"/><line class="cls-7" x1="606.57" y1="116.25" x2="606.57" y2="223.12"/><path class="cls-6" d="M1152.3-1.9a2.57,2.57,0,0,1,2.57,2.56,2.57,2.57,0,0,1-5.14,0,2.57,2.57,0,0,1,2.57-2.56m0-2a4.56,4.56,0,0,0-4.57,4.56,4.57,4.57,0,1,0,4.57-4.56Z" transform="translate(-421.49 146.5)"/><line class="cls-7" x1="731.33" y1="35" x2="730.69" y2="142.31"/><path class="cls-6" d="M1164.3-1.9a2.57,2.57,0,0,1,2.57,2.56,2.57,2.57,0,0,1-5.14,0,2.57,2.57,0,0,1,2.57-2.56m0-2a4.56,4.56,0,0,0-4.57,4.56,4.57,4.57,0,1,0,4.57-4.56Z" transform="translate(-421.49 146.5)"/><line class="cls-7" x1="743.08" y1="35" x2="743.08" y2="142.12"/><path class="cls-6" d="M1176.3-1.9a2.57,2.57,0,0,1,2.57,2.56,2.57,2.57,0,0,1-5.14,0,2.57,2.57,0,0,1,2.57-2.56m0-2a4.56,4.56,0,0,0-4.57,4.56,4.57,4.57,0,1,0,4.57-4.56Z" transform="translate(-421.49 146.5)"/><line class="cls-7" x1="754.82" y1="35" x2="754.82" y2="142.12"/><path class="cls-6" d="M1188.3-1.9a2.57,2.57,0,0,1,2.57,2.56,2.57,2.57,0,0,1-5.14,0,2.57,2.57,0,0,1,2.57-2.56m0-2a4.56,4.56,0,0,0-4.57,4.56,4.57,4.57,0,1,0,4.57-4.56Z" transform="translate(-421.49 146.5)"/><line class="cls-7" x1="766.57" y1="35.25" x2="766.57" y2="142.12"/><path class="cls-6" d="M679.3,286a2.57,2.57,0,1,1-2.57,2.57A2.58,2.58,0,0,1,679.3,286m0-2a4.57,4.57,0,1,0,4.57,4.57A4.56,4.56,0,0,0,679.3,284Z" transform="translate(-421.49 146.5)"/><polyline class="cls-7" points="295.53 714.73 295.53 599.86 258.33 562.66 257.69 439.94"/><path class="cls-6" d="M691.3,286a2.57,2.57,0,1,1-2.57,2.57A2.58,2.58,0,0,1,691.3,286m0-2a4.57,4.57,0,1,0,4.57,4.57A4.56,4.56,0,0,0,691.3,284Z" transform="translate(-421.49 146.5)"/><polyline class="cls-7" points="307.28 709.51 307.28 594.64 270.08 557.44 270.08 440.13"/><path class="cls-6" d="M703.3,286a2.57,2.57,0,1,1-2.57,2.57A2.58,2.58,0,0,1,703.3,286m0-2a4.57,4.57,0,1,0,4.57,4.57A4.56,4.56,0,0,0,703.3,284Z" transform="translate(-421.49 146.5)"/><polyline class="cls-7" points="319.03 704.29 319.03 589.42 281.82 552.22 281.82 440.13"/><path class="cls-6" d="M715.3,286a2.57,2.57,0,1,1-2.57,2.57A2.58,2.58,0,0,1,715.3,286m0-2a4.57,4.57,0,1,0,4.57,4.57A4.56,4.56,0,0,0,715.3,284Z" transform="translate(-421.49 146.5)"/><polyline class="cls-7" points="330.77 699.07 330.77 584.2 293.57 547 293.57 440.13"/><path class="cls-6" d="M674.66,150a2.52,2.52,0,0,1,1.81.75,2.57,2.57,0,1,1-1.81-.75m0-2a4.57,4.57,0,1,0,3.23,7.8,4.57,4.57,0,0,0,0-6.46,4.52,4.52,0,0,0-3.23-1.34Z" transform="translate(-421.49 146.5)"/><polyline class="cls-7" points="290.69 0 290.69 114.87 253.49 152.07 253.82 294.5"/><path class="cls-6" d="M688.07,149.47a2.58,2.58,0,0,1,1.82,4.39,2.57,2.57,0,0,1-3.63,0,2.58,2.58,0,0,1,1.81-4.39m0-2a4.57,4.57,0,1,0,3.23,1.34,4.56,4.56,0,0,0-3.23-1.34Z" transform="translate(-421.49 146.5)"/><polyline class="cls-7" points="304.11 5.22 304.11 120.09 266.9 157.29 266.9 294"/><path class="cls-6" d="M701.49,150a2.57,2.57,0,1,1-1.82.75,2.56,2.56,0,0,1,1.82-.75m0-2a4.57,4.57,0,1,0,3.23,1.34,4.56,4.56,0,0,0-3.23-1.34Z" transform="translate(-421.49 146.5)"/><polyline class="cls-7" points="317.52 10.44 317.52 125.31 280.32 162.51 280.32 295"/><path class="cls-6" d="M714.9,149.53a2.57,2.57,0,0,1,1.82,4.38,2.57,2.57,0,0,1-4.39-1.81,2.56,2.56,0,0,1,2.57-2.57m0-2a4.52,4.52,0,0,0-3.23,1.34,4.57,4.57,0,1,0,6.46,0,4.52,4.52,0,0,0-3.23-1.34Z" transform="translate(-421.49 146.5)"/><polyline class="cls-7" points="330.94 15.66 330.94 130.53 293.74 167.74 293.74 294.68"/><path class="cls-6" d="M1303,350.36a2.57,2.57,0,1,1-2.57,2.56,2.57,2.57,0,0,1,2.57-2.56m0-2a4.57,4.57,0,1,0,4.57,4.56,4.57,4.57,0,0,0-4.57-4.56Z" transform="translate(-421.49 146.5)"/><path class="cls-6" d="M880.66,325.34a2.52,2.52,0,0,1,1.81.75,2.57,2.57,0,0,1,0,3.63,2.57,2.57,0,0,1-3.63,0,2.57,2.57,0,0,1,0-3.63,2.54,2.54,0,0,1,1.82-.75m0-2a4.57,4.57,0,1,0,3.23,1.33,4.55,4.55,0,0,0-3.23-1.33Z" transform="translate(-421.49 146.5)"/><polyline class="cls-7" points="877.01 499.86 669.98 499.86 640.61 529.23 514.64 529.23 462.75 477.34"/><path class="cls-6" d="M1303,361.86a2.57,2.57,0,1,1-2.57,2.56,2.57,2.57,0,0,1,2.57-2.56m0-2a4.57,4.57,0,1,0,4.57,4.56,4.57,4.57,0,0,0-4.57-4.56Z" transform="translate(-421.49 146.5)"/><path class="cls-6" d="M885.38,344.45a2.52,2.52,0,0,1,1.81.75,2.55,2.55,0,0,1,0,3.63,2.55,2.55,0,0,1-3.63,0,2.57,2.57,0,0,1,0-3.63,2.54,2.54,0,0,1,1.82-.75m0-2a4.57,4.57,0,1,0,3.23,7.8,4.57,4.57,0,0,0,0-6.46,4.52,4.52,0,0,0-3.23-1.34Z" transform="translate(-421.49 146.5)"/><polyline class="cls-7" points="877.01 511.14 674.7 511.14 645.33 540.51 510.23 540.51 466.82 497.11"/><path class="cls-6" d="M1303,373.36a2.57,2.57,0,1,1-2.57,2.56,2.57,2.57,0,0,1,2.57-2.56m0-2a4.57,4.57,0,1,0,4.57,4.56,4.57,4.57,0,0,0-4.57-4.56Z" transform="translate(-421.49 146.5)"/><path class="cls-6" d="M891.25,367.19a2.57,2.57,0,1,1-1.81,4.39,2.57,2.57,0,0,1,1.81-4.39m0-2a4.57,4.57,0,1,0,3.23,1.34,4.56,4.56,0,0,0-3.23-1.34Z" transform="translate(-421.49 146.5)"/><polyline class="cls-7" points="877.01 522.79 679.92 522.79 650.55 552.16 506.31 552.16 472.7 518.54"/><path class="cls-6" d="M1303,384.86a2.57,2.57,0,1,1-2.57,2.56,2.57,2.57,0,0,1,2.57-2.56m0-2a4.57,4.57,0,1,0,4.57,4.56,4.57,4.57,0,0,0-4.57-4.56Z" transform="translate(-421.49 146.5)"/><path class="cls-6" d="M897.13,388.28a2.57,2.57,0,1,1-1.82.75,2.56,2.56,0,0,1,1.82-.75m0-2a4.57,4.57,0,1,0,3.23,1.34,4.56,4.56,0,0,0-3.23-1.34Z" transform="translate(-421.49 146.5)"/><polyline class="cls-7" points="877.01 534.09 685.14 534.09 655.77 563.46 502.39 563.46 479.22 540.29"/><path class="cls-6" d="M1303,396.36a2.57,2.57,0,1,1-2.57,2.56,2.57,2.57,0,0,1,2.57-2.56m0-2a4.57,4.57,0,1,0,4.57,4.56,4.57,4.57,0,0,0-4.57-4.56Z" transform="translate(-421.49 146.5)"/><path class="cls-6" d="M903.35,407.66a2.57,2.57,0,1,1-1.82,4.38,2.57,2.57,0,0,1,1.82-4.38m0-2a4.57,4.57,0,1,0,3.23,1.33,4.55,4.55,0,0,0-3.23-1.33Z" transform="translate(-421.49 146.5)"/><polyline class="cls-7" points="877.01 545.63 691.36 545.63 661.99 575 499.48 575 484.79 560.32"/><path class="cls-6" d="M1155.66,176.36a2.57,2.57,0,0,1,1.81,4.39,2.57,2.57,0,1,1-1.81-4.39m0-2a4.57,4.57,0,1,0,3.23,1.34,4.56,4.56,0,0,0-3.23-1.34Z" transform="translate(-421.49 146.5)"/><polyline class="cls-7" points="915.61 270.61 789.64 270.61 737.75 322.49"/><path class="cls-6" d="M1155.38,161.28a2.57,2.57,0,1,1-2.57,2.57,2.56,2.56,0,0,1,2.57-2.57m0-2a4.57,4.57,0,1,0,3.23,1.34,4.56,4.56,0,0,0-3.23-1.34Z" transform="translate(-421.49 146.5)"/><polyline class="cls-7" points="920.33 259.33 785.23 259.33 736.53 308.02"/><path class="cls-6" d="M1155.75,146.2a2.57,2.57,0,1,1-1.81,4.39,2.57,2.57,0,0,1,1.81-4.39m0-2a4.57,4.57,0,1,0,3.23,1.34,4.56,4.56,0,0,0-3.23-1.34Z" transform="translate(-421.49 146.5)"/><polyline class="cls-7" points="925.55 247.68 781.31 247.68 736.75 292.24"/><path class="cls-6" d="M1155.63,131.12a2.56,2.56,0,1,1-1.82.75,2.56,2.56,0,0,1,1.82-.75m0-2a4.57,4.57,0,1,0,3.23,1.34,4.56,4.56,0,0,0-3.23-1.34Z" transform="translate(-421.49 146.5)"/><polyline class="cls-7" points="930.77 236.38 777.39 236.38 737.14 276.63"/><path class="cls-6" d="M1155.35,116a2.56,2.56,0,1,1-1.82.75,2.56,2.56,0,0,1,1.82-.75m0-2a4.57,4.57,0,1,0,3.23,1.34,4.56,4.56,0,0,0-3.23-1.34Z" transform="translate(-421.49 146.5)"/><polyline class="cls-7" points="936.99 224.84 774.48 224.84 737.41 261.9"/><path class="cls-6" d="M858.55,184A2.57,2.57,0,1,1,856,186.6a2.57,2.57,0,0,1,2.57-2.57m0-2a4.57,4.57,0,1,0,4.57,4.57,4.58,4.58,0,0,0-4.57-4.57Z" transform="translate(-421.49 146.5)"/><polyline class="cls-7" points="492.01 90.5 492.01 243.5 437.51 298 437.51 329"/><path class="cls-6" d="M752.55,48A2.57,2.57,0,1,1,750,50.6,2.57,2.57,0,0,1,752.55,48m0-2a4.57,4.57,0,1,0,4.57,4.57A4.58,4.58,0,0,0,752.55,46Z" transform="translate(-421.49 146.5)"/><polyline class="cls-7" points="377.01 99.5 377.01 147.5 396.01 166.5 396.01 204.5 347.01 253.5 331.01 253.5 331.01 201.5"/><path class="cls-6" d="M544.55,236A2.57,2.57,0,1,1,542,238.6a2.57,2.57,0,0,1,2.57-2.57m0-2a4.57,4.57,0,1,0,4.57,4.57,4.58,4.58,0,0,0-4.57-4.57Z" transform="translate(-421.49 146.5)"/><path class="cls-6" d="M615.55,165A2.57,2.57,0,1,1,613,167.6a2.57,2.57,0,0,1,2.57-2.57m0-2a4.57,4.57,0,1,0,4.57,4.57,4.58,4.58,0,0,0-4.57-4.57Z" transform="translate(-421.49 146.5)"/><line class="cls-7" x1="126.01" y1="382.5" x2="191.01" y2="317.5"/><path class="cls-6" d="M645.55,296A2.57,2.57,0,1,1,643,298.6a2.57,2.57,0,0,1,2.57-2.57m0-2a4.57,4.57,0,1,0,4.57,4.57,4.58,4.58,0,0,0-4.57-4.57Z" transform="translate(-421.49 146.5)"/><path class="cls-6" d="M523.55,374A2.57,2.57,0,1,1,521,376.6a2.57,2.57,0,0,1,2.57-2.57m0-2a4.57,4.57,0,1,0,4.57,4.57,4.58,4.58,0,0,0-4.57-4.57Z" transform="translate(-421.49 146.5)"/><polyline class="cls-7" points="221.01 448.5 146.01 523.5 107.51 523.5"/><path class="cls-6" d="M650.55,399A2.57,2.57,0,1,1,648,401.6a2.57,2.57,0,0,1,2.57-2.57m0-2a4.57,4.57,0,1,0,4.57,4.57,4.58,4.58,0,0,0-4.57-4.57Z" transform="translate(-421.49 146.5)"/><path class="cls-6" d="M665.55,454A2.57,2.57,0,1,1,663,456.6a2.57,2.57,0,0,1,2.57-2.57m0-2a4.57,4.57,0,1,0,4.57,4.57,4.58,4.58,0,0,0-4.57-4.57Z" transform="translate(-421.49 146.5)"/><polyline class="cls-7" points="229.01 553 229.01 587.5 241.51 600"/><path class="cls-6" d="M747.55,394A2.57,2.57,0,1,1,745,396.6a2.57,2.57,0,0,1,2.57-2.57m0-2a4.57,4.57,0,1,0,4.57,4.57,4.58,4.58,0,0,0-4.57-4.57Z" transform="translate(-421.49 146.5)"/><path class="cls-6" d="M780.55,273A2.57,2.57,0,1,1,778,275.6a2.57,2.57,0,0,1,2.57-2.57m0-2a4.57,4.57,0,1,0,4.57,4.57,4.58,4.58,0,0,0-4.57-4.57Z" transform="translate(-421.49 146.5)"/><polyline class="cls-7" points="326.01 539 326.01 497.5 359.51 464 359.51 427"/><path class="cls-6" d="M796.55,235A2.57,2.57,0,1,1,794,237.6a2.57,2.57,0,0,1,2.57-2.57m0-2a4.57,4.57,0,1,0,4.57,4.57,4.58,4.58,0,0,0-4.57-4.57Z" transform="translate(-421.49 146.5)"/><path class="cls-6" d="M686.55,178A2.57,2.57,0,1,1,684,180.6a2.57,2.57,0,0,1,2.57-2.57m0-2a4.57,4.57,0,1,0,4.57,4.57,4.58,4.58,0,0,0-4.57-4.57Z" transform="translate(-421.49 146.5)"/><polyline class="cls-7" points="375.01 381 375.01 353.5 348.51 327 270.51 327"/><path class="cls-6" d="M555.55,105A2.57,2.57,0,1,1,553,107.6a2.57,2.57,0,0,1,2.57-2.57m0-2a4.57,4.57,0,1,0,4.57,4.57,4.58,4.58,0,0,0-4.57-4.57Z" transform="translate(-421.49 146.5)"/><path class="cls-6" d="M671.55-60a2.57,2.57,0,0,1,2.57,2.57,2.57,2.57,0,0,1-2.57,2.57A2.57,2.57,0,0,1,669-57.4,2.57,2.57,0,0,1,671.55-60m0-2A4.58,4.58,0,0,0,667-57.4a4.58,4.58,0,0,0,4.57,4.57,4.58,4.58,0,0,0,4.57-4.57A4.58,4.58,0,0,0,671.55-62Z" transform="translate(-421.49 146.5)"/><polyline class="cls-7" points="136.01 251.5 196.51 191 196.51 142.5 248.26 90.75"/><path class="cls-6" d="M544.55,96A2.57,2.57,0,1,1,542,98.6,2.57,2.57,0,0,1,544.55,96m0-2a4.57,4.57,0,1,0,4.57,4.57A4.58,4.58,0,0,0,544.55,94Z" transform="translate(-421.49 146.5)"/><path class="cls-6" d="M660.55-69a2.57,2.57,0,0,1,2.57,2.57,2.57,2.57,0,0,1-2.57,2.57A2.57,2.57,0,0,1,658-66.4,2.57,2.57,0,0,1,660.55-69m0-2A4.58,4.58,0,0,0,656-66.4a4.58,4.58,0,0,0,4.57,4.57,4.58,4.58,0,0,0,4.57-4.57A4.58,4.58,0,0,0,660.55-71Z" transform="translate(-421.49 146.5)"/><polyline class="cls-7" points="125.01 242.5 185.51 182 185.51 133.5 237.26 81.75"/><path class="cls-6" d="M533.55,87A2.57,2.57,0,1,1,531,89.6,2.57,2.57,0,0,1,533.55,87m0-2a4.57,4.57,0,1,0,4.57,4.57A4.58,4.58,0,0,0,533.55,85Z" transform="translate(-421.49 146.5)"/><path class="cls-6" d="M649.55-78a2.57,2.57,0,0,1,2.57,2.57,2.57,2.57,0,0,1-2.57,2.57A2.57,2.57,0,0,1,647-75.4,2.57,2.57,0,0,1,649.55-78m0-2A4.58,4.58,0,0,0,645-75.4a4.58,4.58,0,0,0,4.57,4.57,4.58,4.58,0,0,0,4.57-4.57A4.58,4.58,0,0,0,649.55-80Z" transform="translate(-421.49 146.5)"/><polyline class="cls-7" points="114.01 233.5 174.51 173 174.51 124.5 226.26 72.75"/><path class="cls-6" d="M1171.55,419a2.57,2.57,0,1,1-2.57,2.57,2.57,2.57,0,0,1,2.57-2.57m0-2a4.57,4.57,0,1,0,4.57,4.57,4.58,4.58,0,0,0-4.57-4.57Z" transform="translate(-421.49 146.5)"/><polyline class="cls-7" points="678.51 688 678.51 639.5 746.76 571.25"/><path class="cls-6" d="M1151.55,419a2.57,2.57,0,1,1-2.57,2.57,2.57,2.57,0,0,1,2.57-2.57m0-2a4.57,4.57,0,1,0,4.57,4.57,4.58,4.58,0,0,0-4.57-4.57Z" transform="translate(-421.49 146.5)"/><polyline class="cls-7" points="667.51 679 667.51 630.5 726.76 571.25"/><path class="cls-6" d="M1131.55,419a2.57,2.57,0,1,1-2.57,2.57,2.57,2.57,0,0,1,2.57-2.57m0-2a4.57,4.57,0,1,0,4.57,4.57,4.58,4.58,0,0,0-4.57-4.57Z" transform="translate(-421.49 146.5)"/><polyline class="cls-7" points="656.51 670 656.51 621.5 706.76 571.25"/><path class="cls-6" d="M648.55,14A2.57,2.57,0,1,1,646,16.6,2.57,2.57,0,0,1,648.55,14m0-2a4.57,4.57,0,1,0,4.57,4.57A4.58,4.58,0,0,0,648.55,12Z" transform="translate(-421.49 146.5)"/><path class="cls-6" d="M648.55,100A2.57,2.57,0,1,1,646,102.6a2.57,2.57,0,0,1,2.57-2.57m0-2a4.57,4.57,0,1,0,4.57,4.57A4.58,4.58,0,0,0,648.55,98Z" transform="translate(-421.49 146.5)"/><line class="cls-7" x1="227.01" y1="244.5" x2="227.01" y2="167.5"/><path class="cls-6" d="M571.05,9.53a2.57,2.57,0,1,1-2.57,2.57,2.57,2.57,0,0,1,2.57-2.57m0-2a4.57,4.57,0,1,0,4.57,4.57,4.58,4.58,0,0,0-4.57-4.57Z" transform="translate(-421.49 146.5)"/><path class="cls-6" d="M518.05,9.53a2.57,2.57,0,1,1-2.57,2.57,2.57,2.57,0,0,1,2.57-2.57m0-2a4.57,4.57,0,1,0,4.57,4.57,4.58,4.58,0,0,0-4.57-4.57Z" transform="translate(-421.49 146.5)"/><line class="cls-7" x1="100.66" y1="158.55" x2="144.16" y2="158.55"/><path class="cls-6" d="M878.05,238.53a2.57,2.57,0,1,1-2.57,2.57,2.57,2.57,0,0,1,2.57-2.57m0-2a4.57,4.57,0,1,0,4.57,4.57,4.58,4.58,0,0,0-4.57-4.57Z" transform="translate(-421.49 146.5)"/><path class="cls-6" d="M912.05,141.53a2.57,2.57,0,1,1-2.57,2.57,2.57,2.57,0,0,1,2.57-2.57m0-2a4.57,4.57,0,1,0,4.57,4.57,4.58,4.58,0,0,0-4.57-4.57Z" transform="translate(-421.49 146.5)"/><polyline class="cls-7" points="459.51 385 491.01 353.5 491.01 295"/><path class="cls-6" d="M855.05,377.53a2.57,2.57,0,1,1-2.57,2.57,2.57,2.57,0,0,1,2.57-2.57m0-2a4.57,4.57,0,1,0,4.57,4.57,4.58,4.58,0,0,0-4.57-4.57Z" transform="translate(-421.49 146.5)"/><polyline class="cls-7" points="433.51 531 433.51 583 455.51 605 457.51 703"/><path class="cls-6" d="M921.05,449.53a2.57,2.57,0,1,1-2.57,2.57,2.57,2.57,0,0,1,2.57-2.57m0-2a4.57,4.57,0,1,0,4.57,4.57,4.58,4.58,0,0,0-4.57-4.57Z" transform="translate(-421.49 146.5)"/><path class="cls-6" d="M1041.05,449.53a2.57,2.57,0,1,1-2.57,2.57,2.57,2.57,0,0,1,2.57-2.57m0-2a4.57,4.57,0,1,0,4.57,4.57,4.58,4.58,0,0,0-4.57-4.57Z" transform="translate(-421.49 146.5)"/><line class="cls-7" x1="504.51" y1="599" x2="614.51" y2="599"/><path class="cls-6" d="M1190.05,454.53a2.57,2.57,0,1,1-2.57,2.57,2.57,2.57,0,0,1,2.57-2.57m0-2a4.57,4.57,0,1,0,4.57,4.57,4.58,4.58,0,0,0-4.57-4.57Z" transform="translate(-421.49 146.5)"/><path class="cls-6" d="M1215.05,429.53a2.57,2.57,0,1,1-2.57,2.57,2.57,2.57,0,0,1,2.57-2.57m0-2a4.57,4.57,0,1,0,4.57,4.57,4.58,4.58,0,0,0-4.57-4.57Z" transform="translate(-421.49 146.5)"/><line class="cls-7" x1="771.51" y1="601" x2="790.51" y2="582"/><path class="cls-6" d="M1047.05,352.53a2.57,2.57,0,1,1-2.57,2.57,2.57,2.57,0,0,1,2.57-2.57m0-2a4.57,4.57,0,1,0,4.57,4.57,4.58,4.58,0,0,0-4.57-4.57Z" transform="translate(-421.49 146.5)"/><path class="cls-6" d="M961.05,352.53a2.57,2.57,0,1,1-2.57,2.57,2.57,2.57,0,0,1,2.57-2.57m0-2a4.57,4.57,0,1,0,4.57,4.57,4.58,4.58,0,0,0-4.57-4.57Z" transform="translate(-421.49 146.5)"/><line class="cls-7" x1="620.51" y1="502" x2="544.51" y2="502"/><path class="cls-6" d="M956.05,304.53a2.57,2.57,0,1,1-2.57,2.57,2.57,2.57,0,0,1,2.57-2.57m0-2a4.57,4.57,0,1,0,4.57,4.57,4.58,4.58,0,0,0-4.57-4.57Z" transform="translate(-421.49 146.5)"/><path class="cls-6" d="M1185.05,187.53a2.57,2.57,0,1,1-2.57,2.57,2.57,2.57,0,0,1,2.57-2.57m0-2a4.57,4.57,0,1,0,4.57,4.57,4.58,4.58,0,0,0-4.57-4.57Z" transform="translate(-421.49 146.5)"/><polyline class="cls-7" points="537.51 452 597.01 392.5 706.76 392.25 759.76 339.25"/><path class="cls-6" d="M1028.05,200.53a2.57,2.57,0,1,1-2.57,2.57,2.57,2.57,0,0,1,2.57-2.57m0-2a4.57,4.57,0,1,0,4.57,4.57,4.58,4.58,0,0,0-4.57-4.57Z" transform="translate(-421.49 146.5)"/><path class="cls-6" d="M1051.05,106.53a2.57,2.57,0,1,1-2.57,2.57,2.57,2.57,0,0,1,2.57-2.57m0-2a4.57,4.57,0,1,0,4.57,4.57,4.58,4.58,0,0,0-4.57-4.57Z" transform="translate(-421.49 146.5)"/><polyline class="cls-7" points="606.51 345 606.51 309 630.01 285.5 630.01 259"/><path class="cls-6" d="M1119.05,15.53a2.57,2.57,0,1,1-2.57,2.57,2.57,2.57,0,0,1,2.57-2.57m0-2a4.57,4.57,0,1,0,4.57,4.57,4.58,4.58,0,0,0-4.57-4.57Z" transform="translate(-421.49 146.5)"/><path class="cls-6" d="M1217.05,15.53a2.57,2.57,0,1,1-2.57,2.57,2.57,2.57,0,0,1,2.57-2.57m0-2a4.57,4.57,0,1,0,4.57,4.57,4.58,4.58,0,0,0-4.57-4.57Z" transform="translate(-421.49 146.5)"/><polyline class="cls-7" points="700.51 168 721.01 188.5 771.51 188.5 792.26 167.75"/></g></g></g></g></g></svg>