<svg id="Capa_1" data-name="Capa 1" xmlns="http://www.w3.org/2000/svg" viewBox="0 0 912 308.9">
  <defs>
    <style>
      .cls-1 {
        fill: #35bfec;
        stroke: #fff;
        stroke-miterlimit: 10;
        stroke-width: 7px;
      }
    </style>
  </defs>
  <path class="cls-1" d="M839.31,86.31H289.81a151,151,0,1,0,0,143.38h549.5a71.69,71.69,0,1,0,0-143.38Z" transform="translate(-2.5 -3.55)"/>
  <path d="M114.74,102.27h40.34a39.07,39.07,0,0,1,14.6,2.5,30.67,30.67,0,0,1,10.17,6.36,25.52,25.52,0,0,1,5.89,8.53,23.89,23.89,0,0,1,1.94,9.18,21.86,21.86,0,0,1-2.26,9.74,26.91,26.91,0,0,1-6,8,31.39,31.39,0,0,1-8.77,5.63A26.33,26.33,0,0,1,160,154.44v.64a81.69,81.69,0,0,1,9.34,1.13,36.86,36.86,0,0,1,11.27,3.86,28.11,28.11,0,0,1,9.5,8.37q4,5.48,4,14.66a34.27,34.27,0,0,1-2,11.51,27.09,27.09,0,0,1-6.54,10.22,33.53,33.53,0,0,1-12,7.33Q166.15,215,155.32,215H114.74Zm34,49.27a25.66,25.66,0,0,0,9.1-1.61,24.47,24.47,0,0,0,7.57-4.51,20.52,20.52,0,0,0,7-15.62,22.4,22.4,0,0,0-1.29-7.4,17.82,17.82,0,0,0-4.1-6.6,20.54,20.54,0,0,0-7.25-4.67,28.84,28.84,0,0,0-10.7-1.77H129.39v42.18Zm4.11,56.35a30.8,30.8,0,0,0,9.77-1.53,22.21,22.21,0,0,0,8-4.59,22.7,22.7,0,0,0,5.42-7.41,23.49,23.49,0,0,0,2-10,26.53,26.53,0,0,0-1.86-9.82,22.56,22.56,0,0,0-5.66-8.21,27.45,27.45,0,0,0-9.61-5.63,40.4,40.4,0,0,0-13.73-2.1H129.39v49.27Z" transform="translate(-2.5 -3.55)"/>
  <g>
    <path d="M223.3,124.38a5.49,5.49,0,1,1-1.66,3.93A5.34,5.34,0,0,1,223.3,124.38Z" transform="translate(-2.5 -3.55)"/>
    <rect x="220.49" y="141.14" width="8.81" height="51.83"/>
    <path d="M297.52,170.72a33.33,33.33,0,0,0-2-12,23.43,23.43,0,0,0-5.34-8.39,22,22,0,0,0-7.82-5,27,27,0,0,0-9.44-1.66,25.59,25.59,0,0,0-9.74,1.82,22.29,22.29,0,0,0-7.78,5.28,24.65,24.65,0,0,0-5.18,8.4,31.35,31.35,0,0,0-1.87,11.14A32.4,32.4,0,0,0,250,180.41a26.29,26.29,0,0,0,4.87,8.81,23.56,23.56,0,0,0,8.3,6.22A27.87,27.87,0,0,0,275,197.78a31.39,31.39,0,0,0,12.23-2.34,28.29,28.29,0,0,0,9.74-6.68l-3.31-3.32c-1.44,1.24-2.81,2.38-4.08,3.42a23.61,23.61,0,0,1-3.88,2.59,19.79,19.79,0,0,1-4.08,1.61,18.07,18.07,0,0,1-4.7.57,23.47,23.47,0,0,1-6.16-.88,16.18,16.18,0,0,1-6-3.16,17.24,17.24,0,0,1-4.66-6.33,24.88,24.88,0,0,1-1.86-10.36h39.29Zm-39.29-2a36.06,36.06,0,0,1,.88-8,23.19,23.19,0,0,1,2.67-6.9,14.7,14.7,0,0,1,4.58-4.82,11.83,11.83,0,0,1,6.6-1.81,13.12,13.12,0,0,1,11.37,5.75q4.07,5.76,4.07,15.81Z" transform="translate(-2.5 -3.55)"/>
    <path d="M345.52,196.53V162.42c0-.69-.07-1.8-.21-3.32a13.31,13.31,0,0,0-1.3-4.56,10.44,10.44,0,0,0-3.47-4,11.42,11.42,0,0,0-6.74-1.71,15.06,15.06,0,0,0-5.23.93,12.28,12.28,0,0,0-4.51,2.91,13.86,13.86,0,0,0-3.11,4.87,19,19,0,0,0-1.14,6.94v32H311V144.69h8.81v6.64h.41l1.66-1.66a19.72,19.72,0,0,1,7.36-4.92,18.86,18.86,0,0,1,6.74-1.2q6.84,0,10.57,2.34a15,15,0,0,1,5.45,5.49,16.83,16.83,0,0,1,2,6.43c.2,2.17.31,3.88.31,5.13v33.59Z" transform="translate(-2.5 -3.55)"/>
    <polygon points="371.63 141.14 388.94 182.71 389.56 182.71 406.36 141.14 411.23 141.14 390.29 192.97 384.07 192.97 362.51 141.14 371.63 141.14"/>
    <path d="M470.12,170.72a33.33,33.33,0,0,0-2-12,23.43,23.43,0,0,0-5.34-8.39,22,22,0,0,0-7.82-5,27,27,0,0,0-9.44-1.66,25.59,25.59,0,0,0-9.74,1.82,22.38,22.38,0,0,0-7.78,5.28,24.65,24.65,0,0,0-5.18,8.4A31.36,31.36,0,0,0,421,170.3a32.39,32.39,0,0,0,1.6,10.11,26.29,26.29,0,0,0,4.87,8.81,23.56,23.56,0,0,0,8.3,6.22,27.9,27.9,0,0,0,11.87,2.34,31.39,31.39,0,0,0,12.23-2.34,28.29,28.29,0,0,0,9.74-6.68l-3.31-3.32q-2.16,1.86-4.08,3.42a23.2,23.2,0,0,1-3.88,2.59,19.57,19.57,0,0,1-4.08,1.61,18.07,18.07,0,0,1-4.7.57,23.59,23.59,0,0,1-6.16-.88,16.18,16.18,0,0,1-6-3.16,17.46,17.46,0,0,1-4.66-6.33,24.88,24.88,0,0,1-1.86-10.36h39.29Zm-39.29-2a36.06,36.06,0,0,1,.88-8,22.93,22.93,0,0,1,2.68-6.9A14.6,14.6,0,0,1,439,149a11.77,11.77,0,0,1,6.59-1.81,13.12,13.12,0,0,1,11.37,5.75Q461,158.7,461,168.75Z" transform="translate(-2.5 -3.55)"/>
    <path d="M518.12,196.53V162.42c0-.69-.07-1.8-.21-3.32a13.51,13.51,0,0,0-1.29-4.56,10.56,10.56,0,0,0-3.48-4,11.42,11.42,0,0,0-6.74-1.71,15.1,15.1,0,0,0-5.23.93,12.28,12.28,0,0,0-4.51,2.91,14,14,0,0,0-3.11,4.87,19,19,0,0,0-1.14,6.94v32H483.6V144.69h8.81v6.64h.41l1.66-1.66a19.8,19.8,0,0,1,7.36-4.92,18.89,18.89,0,0,1,6.74-1.2q6.84,0,10.58,2.34a15,15,0,0,1,5.44,5.49,16.83,16.83,0,0,1,2,6.43c.21,2.17.31,3.88.31,5.13v33.59Z" transform="translate(-2.5 -3.55)"/>
    <path d="M547.56,124.38a5.49,5.49,0,1,1-1.66,3.93A5.36,5.36,0,0,1,547.56,124.38Z" transform="translate(-2.5 -3.55)"/>
    <rect x="544.75" y="141.14" width="8.81" height="51.83"/>
    <path d="M613,124V153.2h-.41a13.56,13.56,0,0,0-2.75-4.51,14.66,14.66,0,0,0-3.89-2.95,17.76,17.76,0,0,0-4.61-1.66,24.27,24.27,0,0,0-14.46,1.4,21.75,21.75,0,0,0-7.52,5.44,25,25,0,0,0-4.92,8.5,32.91,32.91,0,0,0-1.76,11.09,33.71,33.71,0,0,0,1.76,11.25,25.44,25.44,0,0,0,4.92,8.6,21.4,21.4,0,0,0,7.52,5.5,23.35,23.35,0,0,0,9.53,1.92q12.24,0,16.18-9.64H613v8.39h8.81V124Zm0,51.83a18.41,18.41,0,0,1-1.14,6.48,17.11,17.11,0,0,1-3.06,5.28,14.14,14.14,0,0,1-4.56,3.53,12.7,12.7,0,0,1-5.65,1.3,16.14,16.14,0,0,1-6.22-1.2,13,13,0,0,1-5.08-3.78,19.25,19.25,0,0,1-3.47-6.74,33.36,33.36,0,0,1-1.3-9.95,33.85,33.85,0,0,1,1.3-10.06,19.5,19.5,0,0,1,3.52-6.79,13.27,13.27,0,0,1,5.14-3.83,15.8,15.8,0,0,1,6.11-1.19,12.93,12.93,0,0,1,5.5,1.19,13.23,13.23,0,0,1,4.56,3.52,18.44,18.44,0,0,1,3.16,5.65,22.44,22.44,0,0,1,1.19,7.57Z" transform="translate(-2.5 -3.55)"/>
    <path d="M687.09,160.4a26.07,26.07,0,0,0-5.34-8.65,25.74,25.74,0,0,0-8.39-6,26.46,26.46,0,0,0-11-2.23,27.39,27.39,0,0,0-11.25,2.23,25.38,25.38,0,0,0-8.5,6,26.7,26.7,0,0,0-5.39,8.65,28.21,28.21,0,0,0-1.92,10.32,27.87,27.87,0,0,0,1.92,10.21,26.74,26.74,0,0,0,5.39,8.66,25.67,25.67,0,0,0,8.5,6,27.55,27.55,0,0,0,11.25,2.23,27.09,27.09,0,0,0,11-2.18,25.18,25.18,0,0,0,8.39-5.91,26,26,0,0,0,5.34-8.66,29.38,29.38,0,0,0,0-20.63Zm-9.54,22a18,18,0,0,1-4,7,12.89,12.89,0,0,1-5.49,3.37,19.59,19.59,0,0,1-11.61,0,13.19,13.19,0,0,1-5.55-3.37,18.19,18.19,0,0,1-4.15-7,35.37,35.37,0,0,1-1.6-11.66,35.84,35.84,0,0,1,1.6-11.77,18.14,18.14,0,0,1,4.15-7,13.09,13.09,0,0,1,5.55-3.37,19.59,19.59,0,0,1,11.61,0,12.79,12.79,0,0,1,5.49,3.37,17.91,17.91,0,0,1,4,7,36.79,36.79,0,0,1,1.56,11.77A36.31,36.31,0,0,1,677.55,182.38Z" transform="translate(-2.5 -3.55)"/>
    <path d="M729.61,156.51a6.94,6.94,0,0,0-.72-2.9,8.25,8.25,0,0,0-2.27-2.85,13.6,13.6,0,0,0-3.82-2.18,15,15,0,0,0-5.37-.88,13.37,13.37,0,0,0-5.17.88,9.68,9.68,0,0,0-3.3,2.18,7.53,7.53,0,0,0-1.76,2.8,8.62,8.62,0,0,0-.52,2.85,5.87,5.87,0,0,0,2.33,5,21.35,21.35,0,0,0,5.83,3c2.35.83,4.88,1.63,7.6,2.38a40.46,40.46,0,0,1,7.59,3,17.3,17.3,0,0,1,5.84,4.82,12.7,12.7,0,0,1,2.33,8,14,14,0,0,1-4.82,11q-4.83,4.2-14.36,4.2a29.92,29.92,0,0,1-9.28-1.3A21.3,21.3,0,0,1,703,193a14.4,14.4,0,0,1-4.09-4.92,12.68,12.68,0,0,1-1.35-5.65h6.74a8.47,8.47,0,0,0,.78,3.11,11.51,11.51,0,0,0,2.59,3.68,15.61,15.61,0,0,0,4.66,3.11,17,17,0,0,0,7,1.29,14.68,14.68,0,0,0,5.49-.88,9.64,9.64,0,0,0,3.43-2.17,7.06,7.06,0,0,0,1.71-2.85,10.49,10.49,0,0,0,.46-3,6.77,6.77,0,0,0-2.27-5.39,19,19,0,0,0-5.68-3.27c-2.28-.86-4.74-1.66-7.39-2.38a38.3,38.3,0,0,1-7.39-2.85,17.15,17.15,0,0,1-5.68-4.67c-1.52-1.93-2.27-4.56-2.27-7.88a14.28,14.28,0,0,1,1.34-6.37,13.38,13.38,0,0,1,3.67-4.61,15.7,15.7,0,0,1,5.48-2.8,23.47,23.47,0,0,1,6.77-.94,25.27,25.27,0,0,1,7.18,1,21,21,0,0,1,5.89,2.69,13.15,13.15,0,0,1,4,4.1,9.77,9.77,0,0,1,1.45,5.18Z" transform="translate(-2.5 -3.55)"/>
  </g>
</svg>
