<?xml version="1.0" encoding="utf-8"?>
<!-- Generator: Adobe Illustrator 22.0.0, SVG Export Plug-In . SVG Version: 6.00 Build 0)  -->
<svg version="1.1" id="Layer_1" xmlns="http://www.w3.org/2000/svg" xmlns:xlink="http://www.w3.org/1999/xlink" x="0px" y="0px"
	 viewBox="0 0 448 448" style="enable-background:new 0 0 448 448;" xml:space="preserve">
<style type="text/css">
	.st0{fill:#9ACD8D;}
</style>
<path class="st0" d="M242,150"/>
<path class="st0" d="M425.8,432.7c-3.6,0-6.9-1.8-9.2-4.8H68.9c-2.2,3-5.6,4.8-9.2,4.8C53.3,432.7,48,427,48,420
	c0-7,5.3-12.7,11.7-12.7c3.6,0,6.9,1.8,9.2,4.8h347.7c2.2-3,5.6-4.8,9.2-4.8c6.5,0,11.7,5.7,11.7,12.7
	C437.5,427,432.2,432.7,425.8,432.7z"/>
<path class="st0" d="M425.8,410.9c-3.2,0-5.9,2-7.3,4.8H67.1c-1.4-2.8-4.1-4.8-7.3-4.8c-4.6,0-8.4,4.1-8.4,9.1s3.7,9.1,8.4,9.1
	c3.2,0,5.9-2,7.3-4.8h351.4c1.4,2.8,4.1,4.8,7.3,4.8c4.6,0,8.4-4.1,8.4-9.1S430.4,410.9,425.8,410.9z"/>
<path class="st0" d="M22.8,398c-6.8,0-12.3-5.3-12.3-11.9c0-3.6,1.7-7,4.6-9.2V160.1c-2.9-2.2-4.6-5.6-4.6-9.2
	c0-6.6,5.5-11.9,12.3-11.9s12.3,5.3,12.3,11.9c0,3.6-1.7,7-4.6,9.2v216.8c2.9,2.2,4.6,5.6,4.6,9.2C35.1,392.7,29.6,398,22.8,398z"/>
<path class="st0" d="M31.5,150.8c0-4.7-3.9-8.6-8.7-8.6s-8.7,3.8-8.7,8.6c0,3.3,1.9,6,4.6,7.5v220.3c-2.7,1.5-4.6,4.2-4.6,7.5
	c0,4.7,3.9,8.6,8.7,8.6s8.7-3.8,8.7-8.6c0-3.3-1.9-6-4.6-7.5V158.3C29.7,156.9,31.5,154.1,31.5,150.8z"/>
<path class="st0" d="M22.8,129c-6.8,0-12.3-5.7-12.3-12.7c0-3.8,1.7-7.4,4.6-9.8V37.8c-2.9-2.4-4.6-6-4.6-9.8
	c0-7,5.5-12.7,12.3-12.7S35.1,21,35.1,28c0,3.8-1.7,7.4-4.6,9.8v68.6c2.9,2.4,4.6,6,4.6,9.8C35.1,123.3,29.6,129,22.8,129z"/>
<path class="st0" d="M31.5,28c0-5-3.9-9.1-8.7-9.1S14.1,23,14.1,28c0,3.5,1.9,6.4,4.6,8v72.3c-2.7,1.5-4.6,4.5-4.6,8
	c0,5,3.9,9.1,8.7,9.1s8.7-4.1,8.7-9.1c0-3.5-1.9-6.4-4.6-8V36C29.7,34.4,31.5,31.5,31.5,28z"/>
<path class="st0" d="M69.8,332.7c-3.3,0-6.4-1.3-8.8-3.8c-4.7-4.9-4.7-12.9,0-17.8c2.3-2.4,5.4-3.7,8.7-3.7c0.4,0,0.9,0,1.3,0.1
	l91.2-95.2l34.3,35.8l104.9-109.5l37.4,39l60-62.6l-7-7.3l34-9.5l-9.1,35.5l-7.1-7.4l-70.8,73.9l-37.4-39L196.5,270.5l-34.3-35.8
	L82,318.6c0.4,3.8-0.8,7.6-3.4,10.4C76.2,331.4,73.1,332.7,69.8,332.7z"/>
<path class="st0" d="M76,326.5c2.3-2.4,3-5.9,2.2-9l84.1-87.8l34.3,35.8l104.9-109.5l37.4,39l70.8-73.9l5.3,5.5l6-23.4l-22.4,6.3
	l5.3,5.5l-64.9,67.8l-37.4-39L196.5,253.1l-34.3-35.8l-90,94c-3-0.9-6.3-0.2-8.7,2.3c-3.4,3.6-3.4,9.3,0,12.9
	C67.1,330,72.6,330,76,326.5z"/>
</svg>
