<?xml version="1.0" encoding="utf-8"?>
<!-- Generator: Adobe Illustrator 25.0.0, SVG Export Plug-In . SVG Version: 6.00 Build 0)  -->
<svg version="1.1" id="Layer_1" xmlns="http://www.w3.org/2000/svg" xmlns:xlink="http://www.w3.org/1999/xlink" x="0px" y="0px"
	 viewBox="0 0 290.7 290.7" style="enable-background:new 0 0 290.7 290.7;" xml:space="preserve">
<style type="text/css">
	.st0{fill:#FC0000;}
</style>
<g>
	<path class="st0" d="M261.7,91.4c-0.6,0.1-1.3,0.2-1.9,0.2c-2.9,0-5.7-1.1-7.8-3.2l-6.7-6.7c11.3,18.5,17.8,40.3,17.8,63.7
		c0,66.5-52.8,120.5-117.8,120.5S27.5,211.8,27.5,145.3S80.4,24.8,145.3,24.8c22.5,0,43.6,6.5,61.5,17.7c-0.9-1.6-1.4-3.5-1.4-5.4
		c0-2.2,0.6-4.2,1.8-6c-18.3-10.4-39.4-16.3-61.8-16.3c-70.5,0-127.8,58.5-127.8,130.5s57.3,130.5,127.8,130.5
		s127.8-58.5,127.8-130.5C273.2,126.1,269.1,107.8,261.7,91.4z"/>
</g>
<g>
	<path class="st0" d="M207.4,153.5h-62.1c-2.8,0-5-2.2-5-5V66c0-2.8,2.2-5,5-5s5,2.2,5,5v77.5h57.1c2.8,0,5,2.2,5,5
		C212.4,151.2,210.2,153.5,207.4,153.5z"/>
</g>
<path class="st0" d="M263.3,77c2,1.9,2,5.1,0,7.1c-1,1-2.3,1.5-3.5,1.5c-0.3,0-0.6,0-0.9-0.1c-1-0.2-1.9-0.6-2.6-1.4l-18.2-18.2
	l-2.3,2.3l-15.9,15.9c-1,1-2.3,1.5-3.5,1.5c-1.3,0-2.6-0.5-3.5-1.5c-2-2-2-5.1,0-7.1l16.3-16.3l1.9-1.9l-18.2-18.2
	c-1.8-1.8-1.9-4.5-0.5-6.5c0.1-0.2,0.3-0.4,0.5-0.6c2-2,5.1-2,7.1,0l18.2,18.2l18.2-18.2c2-2,5.1-2,7.1,0c2,2,2,5.1,0,7.1
	l-18.2,18.2L263.3,77z"/>
</svg>
