<?xml version="1.0" encoding="utf-8"?>
<!-- Generator: Adobe Illustrator 22.0.0, SVG Export Plug-In . SVG Version: 6.00 Build 0)  -->
<svg version="1.1" id="Layer_1" xmlns="http://www.w3.org/2000/svg" xmlns:xlink="http://www.w3.org/1999/xlink" x="0px" y="0px"
	 viewBox="0 0 290.7 290.7" style="enable-background:new 0 0 290.7 290.7;" xml:space="preserve">
<style type="text/css">
	.st0{fill:none;}
	.st1{fill:#9ACD8D;}
</style>
<g>
	<path class="st0" d="M273.4,35.2"/>
</g>
<g>
	<path class="st0" d="M219.3,226.6"/>
</g>
<g>
	<path class="st1" d="M44.9,285c-1.5,0-2.9-0.3-4.3-0.7c-5.2-1.8-8.6-6.6-8.6-12.1v-40.5h-0.2C15.9,231.6,3,218.7,3,202.8V59
		c0-15.9,12.9-28.8,28.8-28.8h26.6c1.3-1.4,3.2-2.2,5.2-2.2c4,0,7.2,3.2,7.2,7.2s-3.2,7.2-7.2,7.2c-2,0-3.8-0.8-5.2-2.2H31.8
		C21.4,40.2,13,48.7,13,59v143.8c0,10.4,8.4,18.8,18.8,18.8H37c2.8,0,5,2.2,5,5v45.5c0,1.8,1.3,2.5,1.9,2.7c0.3,0.1,0.7,0.2,1,0.2
		c0.9,0,1.5-0.3,2.1-1.1l40.4-50.4c1-1.2,2.4-1.9,3.9-1.9h103.9c1.3-1.4,3.2-2.2,5.2-2.2c4,0,7.2,3.2,7.2,7.2s-3.2,7.2-7.2,7.2
		c-2,0-3.8-0.8-5.2-2.2H93.7l-38.9,48.5C52.4,283.2,48.7,285,44.9,285z"/>
	<path class="st1" d="M200.4,222.4c-1.6,0-3,0.9-3.7,2.2H91.3c-0.6,0-1.2,0.3-1.6,0.7l-40.4,50.4c-1.9,2.4-4.6,2.5-6.5,1.8
		c-1.9-0.7-3.9-2.4-3.9-5.5v-45.5c0-1.1-0.9-2-2-2h-5.2c-12,0-21.8-9.8-21.8-21.8V59c0-12,9.8-21.8,21.8-21.8h28.1
		c0.7,1.3,2.1,2.2,3.7,2.2c2.3,0,4.2-1.9,4.2-4.2S65.9,31,63.6,31c-1.6,0-3,0.9-3.7,2.2H31.8C17.6,33.2,6,44.8,6,59v143.8
		c0,14.2,11.6,25.8,25.8,25.8H35v43.5c0,4.2,2.6,7.9,6.6,9.3c1.1,0.4,2.2,0.6,3.3,0.6c2.9,0,5.7-1.3,7.6-3.7l39.8-49.7h104.5
		c0.7,1.3,2.1,2.2,3.7,2.2c2.3,0,4.2-1.9,4.2-4.2S202.8,222.4,200.4,222.4z"/>
	<path class="st1" d="M234.4,233.9c-4,0-7.2-3.2-7.2-7.2s3.2-7.2,7.2-7.2c2,0,3.8,0.8,5.2,2.2h22.1c10.4,0,18.8-8.4,18.8-18.8V59
		c0-10.4-8.4-18.8-18.8-18.8H95c-1.3,1.4-3.2,2.2-5.2,2.2c-4,0-7.2-3.2-7.2-7.2s3.2-7.2,7.2-7.2c2,0,3.8,0.8,5.2,2.2h166.6
		c15.9,0,28.8,12.9,28.8,28.8v143.8c0,15.9-12.9,28.8-28.8,28.8h-22.1C238.2,233,236.3,233.9,234.4,233.9z"/>
	<path class="st1" d="M261.6,33.2H93.5c-0.7-1.3-2.1-2.2-3.7-2.2c-2.3,0-4.2,1.9-4.2,4.2s1.9,4.2,4.2,4.2c1.6,0,3-0.9,3.7-2.2h168.1
		c12,0,21.8,9.8,21.8,21.8v143.8c0,12-9.8,21.8-21.8,21.8h-23.6c-0.7-1.3-2.1-2.2-3.7-2.2c-2.3,0-4.2,1.9-4.2,4.2s1.9,4.2,4.2,4.2
		c1.6,0,3-0.9,3.7-2.2h23.6c14.2,0,25.8-11.6,25.8-25.8V59C287.4,44.8,275.9,33.2,261.6,33.2z"/>
	<path class="st1" d="M225.1,188.9c-2,0-3.8-0.8-5.2-2.2h-141c-2.8,0-5-2.2-5-5v-45.8c0-2.8,2.2-5,5-5h145.4V98.2h-136
		c-1.3,1.4-3.2,2.2-5.2,2.2c-4,0-7.2-3.2-7.2-7.2s3.2-7.2,7.2-7.2c2,0,3.8,0.8,5.2,2.2h141c2.8,0,5,2.2,5,5v42.6c0,2.8-2.2,5-5,5
		H83.8v35.8h136c1.3-1.4,3.2-2.2,5.2-2.2c4,0,7.2,3.2,7.2,7.2S229,188.9,225.1,188.9z"/>
	<path class="st1" d="M229.3,137.8c1.1,0,2-0.9,2-2V93.2c0-1.1-0.9-2-2-2H86.7C86,89.9,84.6,89,83.1,89c-2.3,0-4.2,1.9-4.2,4.2
		s1.9,4.2,4.2,4.2c1.6,0,3-0.9,3.7-2.2h140.5v38.6H78.8c-1.1,0-2,0.9-2,2v45.8c0,1.1,0.9,2,2,2h142.5c0.7,1.3,2.1,2.2,3.7,2.2
		c2.3,0,4.2-1.9,4.2-4.2s-1.9-4.2-4.2-4.2c-1.6,0-3,0.9-3.7,2.2H80.8v-41.8H229.3z"/>
</g>
</svg>
