<svg id="e4CpP8tnFyl1" xmlns="http://www.w3.org/2000/svg" xmlns:xlink="http://www.w3.org/1999/xlink" viewBox="0 0 278.370000 373.830000" shape-rendering="geometricPrecision" text-rendering="geometricPrecision"><style><![CDATA[#e4CpP8tnFyl9_ts {animation: e4CpP8tnFyl9_ts__ts 3000ms linear infinite normal forwards}@keyframes e4CpP8tnFyl9_ts__ts { 0% {transform: translate(121.606094px,143.109711px) scale(1,1)} 26.666667% {transform: translate(121.606094px,143.109711px) scale(1,0.024852)} 30% {transform: translate(121.606094px,143.109711px) scale(1,1)} 33.333333% {transform: translate(121.606094px,143.109711px) scale(1,0.024852)} 36.666667% {transform: translate(121.606094px,143.109711px) scale(1,1)} 100% {transform: translate(121.606094px,143.109711px) scale(1,1)}} #e4CpP8tnFyl10_ts {animation: e4CpP8tnFyl10_ts__ts 3000ms linear infinite normal forwards}@keyframes e4CpP8tnFyl10_ts__ts { 0% {transform: translate(157.486092px,143.112720px) scale(1,1)} 26.666667% {transform: translate(157.486092px,143.112720px) scale(1,0.024852)} 30% {transform: translate(157.486092px,143.112720px) scale(1,1)} 33.333333% {transform: translate(157.486092px,143.112720px) scale(1,0.024852)} 36.666667% {transform: translate(157.486092px,143.112720px) scale(1,1)} 100% {transform: translate(157.486092px,143.112720px) scale(1,1)}}]]></style><g id="e4CpP8tnFyl2" style="isolation:isolate"><g id="e4CpP8tnFyl3"><g id="e4CpP8tnFyl4"><path id="e4CpP8tnFyl5" d="M117.630000,190C116.673759,189.060196,115.356412,188.582156,114.020000,188.690000C113.920241,188.680172,113.819759,188.680172,113.720000,188.690000C110.887335,188.883743,108.613089,191.102932,108.350000,193.930000Q107.510000,208.810000,106.770000,223.720000L106.650000,224.650000C104.650000,241.220000,105.340000,257.900000,104.560000,274.550000C104.310000,279.790000,104.190000,284.970000,104.170000,290.120000C104.040000,294.900000,103.880000,299.680000,103.770000,304.450000C103.690000,307.980000,102.850000,337.580000,104.520000,355.580000C104.520000,356.580000,104.450000,357.580000,104.390000,358.580000C104.338847,359.495652,104.231982,360.407339,104.070000,361.310000C104.070000,361.550000,103.990000,361.740000,103.950000,361.910000C101.150000,362.810000,94.950000,362.500000,91.950000,363.020000C88.950000,363.540000,82.950000,363.420000,80.620000,366.020000C79.832464,366.864947,79.832464,368.175053,80.620000,369.020000C83.280000,372.170000,90.620000,372.480000,94.370000,373.130000C99.370000,374.010000,106.680000,374.130000,111.300000,371.650000C116.380000,368.930000,116.360000,360.880000,116.520000,356.010000L116.520000,355.950000C116.810000,352.800000,116.780000,349.750000,116.780000,347.620000C116.780000,331.500000,116.120000,315.440000,116.470000,299.290000Q117,273,117.600000,246.600000C118.460000,238.480000,119.440000,230.370000,120.600000,222.310000C122,213.240000,126.390000,196.330000,117.630000,190ZM103.750000,362.630000" fill="rgb(0,0,0)" stroke="none" stroke-width="1"/><path id="e4CpP8tnFyl6" d="M194.690000,364.510000C191.300000,357.510000,178.140000,358.030000,171.530000,357.740000C171.101738,355.562765,170.801224,353.362339,170.630000,351.150000C170.370000,348.760000,169.940000,346.380000,169.440000,344.010000C169.340000,335.600000,168.790000,327.120000,169.130000,319.010000C169.570000,308.390000,170.130000,297.770000,170.670000,287.150000C171.320000,282.350000,171.890000,277.530000,172.220000,272.670000C173.220000,257.130000,170.570000,241.170000,169.680000,225.670000C169.370000,220.210000,168.280000,214.480000,167.760000,208.780000C167.883875,203.430506,168.635693,198.114079,170,192.940000C171.820000,186.360000,162.450000,182.390000,159,188.310000C154.060000,196.860000,155.560000,208.850000,156.140000,218.250000C156.920000,230.790000,158.750000,243.110000,158.840000,255.700000C158.980000,275.180000,157.550000,294.700000,156.990000,314.140000C156.660000,325.740000,155.860000,339.530000,158.330000,351.900000C158.330000,353.170000,158.390000,354.450000,158.500000,355.720000C158.930000,360.600000,159.320000,365.490000,163.500000,368.630000C166.860000,371.140000,171.900000,370.510000,175.830000,370.690000C181.710000,370.950000,189.080000,370.540000,194.010000,366.990000C194.859287,366.475083,195.157885,365.386077,194.690000,364.510000Z" fill="rgb(0,0,0)" stroke="none" stroke-width="1"/></g><path id="e4CpP8tnFyl7" d="M277.700000,271L149.760000,6.620000C148.341801,2.914268,144.919324,0.354105,140.963927,0.040151C137.008530,-0.273803,133.225033,1.714395,131.240000,5.150000L1.370000,272.760000C-0.889019,276.691610,-0.308222,281.638534,2.800000,284.940000C3.491298,285.686018,4.294186,286.320232,5.180000,286.820000C8.169062,288.530995,11.814249,288.639750,14.900000,287.110000L139.180000,239.310000L263,283.560000C266.764862,285.686369,271.457430,285.232302,274.744754,282.423541C278.032077,279.614781,279.212834,275.050551,277.700000,271Z" fill="rgb(33,150,243)" stroke="none" stroke-width="1"/><g id="e4CpP8tnFyl8"><g id="e4CpP8tnFyl9_ts" transform="translate(121.606094,143.109711) scale(1,1)"><path id="e4CpP8tnFyl9" d="M112.350000,136.260000C112.350000,136.260000,111.840000,122,119,120.430000C126.160000,118.860000,131.770000,127.580000,130.750000,136.260000C129.730000,144.940000,128.750000,161.260000,128.750000,161.260000C128.750000,161.260000,124.150000,166.870000,119.560000,165.850000C114.970000,164.830000,112.390000,153.600000,112.400000,144.910000Z" transform="translate(-121.606094,-143.109711)" fill="rgb(0,0,0)" stroke="none" stroke-width="1"/></g><g id="e4CpP8tnFyl10_ts" transform="translate(157.486092,143.112720) scale(1,1)"><path id="e4CpP8tnFyl10" d="M148.240000,136.260000C148.240000,136.260000,147.730000,121.970000,154.880000,120.430000C162.030000,118.890000,167.640000,127.580000,166.620000,136.260000C165.600000,144.940000,164.620000,161.260000,164.620000,161.260000C164.620000,161.260000,160.020000,166.870000,155.430000,165.850000C150.840000,164.830000,148.260000,153.600000,148.270000,144.910000Z" transform="translate(-157.486092,-143.112720)" fill="rgb(0,0,0)" stroke="none" stroke-width="1"/></g></g><path id="e4CpP8tnFyl11" style="mix-blend-mode:multiply" d="M277,279.740000C275.480381,282.388453,272.859106,284.221513,269.850000,284.740000C270.202773,282.880270,270.033161,280.959152,269.360000,279.190000L141.430000,14.860000C139.610152,10.106982,134.594254,7.393045,129.620000,8.470000L131.230000,5.150000C133.218250,1.715719,137.002585,-0.270924,140.958459,0.042898C144.914333,0.356721,148.338100,2.915189,149.760000,6.620000L277.690000,271C278.777540,273.870076,278.524430,277.076132,277,279.740000Z" opacity="0.3" fill="rgb(19,99,153)" stroke="none" stroke-width="1"/></g></g></svg>