<svg xmlns="http://www.w3.org/2000/svg" viewBox="0 0 278.37 373.83">
  <defs>
    <style>
      .cls-1 {
        isolation: isolate;
      }

      .cls-2 {
        fill: #2196f3;
      }

      .cls-3 {
        fill: #136399;
        opacity: 0.3;
        mix-blend-mode: multiply;
      }
    </style>
  </defs>
  <g class="cls-1">
    <g id="Capa_1" data-name="Capa 1">
      <g>
        <path d="M117.63,190a4.62,4.62,0,0,0-3.61-1.31,1.53,1.53,0,0,0-.3,0,5.79,5.79,0,0,0-5.37,5.24q-.84,14.88-1.58,29.79l-.12.93c-2,16.57-1.31,33.25-2.09,49.9-.25,5.24-.37,10.42-.39,15.57-.13,4.78-.29,9.56-.4,14.33-.08,3.53-.92,33.13.75,51.13,0,1-.07,2-.13,3a22.59,22.59,0,0,1-.32,2.73c0,.24-.08.43-.12.6-2.8.9-9,.59-12,1.11s-9,.4-11.33,3a2.2,2.2,0,0,0,0,3c2.66,3.15,10,3.46,13.75,4.11,5,.88,12.31,1,16.93-1.48,5.08-2.72,5.06-10.77,5.22-15.64v-.06c.29-3.15.26-6.2.26-8.33,0-16.12-.66-32.18-.31-48.33Q117,273,117.6,246.6c.86-8.12,1.84-16.23,3-24.29C122,213.24,126.39,196.33,117.63,190ZM103.75,362.63Z"/>
        <path d="M194.69,364.51c-3.39-7-16.55-6.48-23.16-6.77a56.89,56.89,0,0,1-.9-6.59c-.26-2.39-.69-4.77-1.19-7.14-.1-8.41-.65-16.89-.31-25,.44-10.62,1-21.24,1.54-31.86.65-4.8,1.22-9.62,1.55-14.48,1-15.54-1.65-31.5-2.54-47-.31-5.46-1.4-11.19-1.92-16.89A68.33,68.33,0,0,1,170,192.94c1.82-6.58-7.55-10.55-11-4.63-4.94,8.55-3.44,20.54-2.86,29.94.78,12.54,2.61,24.86,2.7,37.45.14,19.48-1.29,39-1.85,58.44-.33,11.6-1.13,25.39,1.34,37.76,0,1.27.06,2.55.17,3.82.43,4.88.82,9.77,5,12.91,3.36,2.51,8.4,1.88,12.33,2.06,5.88.26,13.25-.15,18.18-3.7A1.87,1.87,0,0,0,194.69,364.51Z"/>
      </g>
      <path class="cls-2" d="M277.7,271,149.76,6.62a10.29,10.29,0,0,0-18.52-1.47L1.37,272.76A10.29,10.29,0,0,0,2.8,284.94a9.83,9.83,0,0,0,2.38,1.88,10.33,10.33,0,0,0,9.72.29l124.28-47.8L263,283.56A10.29,10.29,0,0,0,277.7,271Z"/>
      <g>
        <path d="M112.35,136.26S111.84,122,119,120.43s12.77,7.15,11.75,15.83-2,25-2,25-4.6,5.61-9.19,4.59-7.17-12.25-7.16-20.94Z"/>
        <path d="M148.24,136.26s-.51-14.29,6.64-15.83,12.76,7.15,11.74,15.83-2,25-2,25-4.6,5.61-9.19,4.59-7.17-12.25-7.16-20.94Z"/>
      </g>
      <path class="cls-3" d="M277,279.74a10.25,10.25,0,0,1-7.15,5,10.24,10.24,0,0,0-.49-5.55L141.43,14.86a10.31,10.31,0,0,0-11.81-6.39l1.61-3.32a10.3,10.3,0,0,1,18.53,1.47L277.69,271A10.27,10.27,0,0,1,277,279.74Z"/>
    </g>
  </g>
</svg>
