<svg id="Capa_1" data-name="Capa 1" xmlns="http://www.w3.org/2000/svg" viewBox="0 0 401.6 493.12">
  <defs>
    <style>
      .cls-1 {
        fill: #2196f3;
      }

      .cls-2 {
        fill: none;
        stroke: #455a64;
        stroke-linecap: round;
        stroke-miterlimit: 10;
        stroke-width: 20px;
      }
    </style>
  </defs>
  <path class="cls-1" d="M434.55,364.5l-224.84-187a10.29,10.29,0,0,0-16.86,7.82L190.34,494a10.29,10.29,0,0,0,7.23,9.91,10,10,0,0,0,3,.46,10.31,10.31,0,0,0,8.6-4.52l80.23-118.23L427.9,382.7a10.29,10.29,0,0,0,6.65-18.2Z" transform="translate(-36.66 -11.2)"/>
  <line class="cls-2" x1="58.58" y1="291.49" x2="118.39" y2="232.65"/>
  <line class="cls-2" x1="10" y1="174.99" x2="93.89" y2="175.67"/>
  <line class="cls-2" x1="58.36" y1="57.62" x2="117.2" y2="117.42"/>
  <line class="cls-2" x1="175.82" y1="10" x2="175.14" y2="93.89"/>
  <line class="cls-2" x1="294.96" y1="58.48" x2="234.68" y2="116.83"/>
  <line class="cls-2" x1="342.59" y1="176.34" x2="258.7" y2="174.97"/>
</svg>
