<svg id="Layer_1" data-name="Layer 1" xmlns="http://www.w3.org/2000/svg" viewBox="0 0 518.9 157.8">
  <defs>
    <style>
      .cls-1 {
        fill: #072e51;
      }
    </style>
  </defs>
  <path class="cls-1" d="M150,138.05a66.06,66.06,0,0,1-8.3,7.6,70.78,70.78,0,0,1-13.6,8.2,98,98,0,0,1-19.2,6.4,110.72,110.72,0,0,1-24.9,2.6c-14.7,0-27.3-2.3-37.9-6.9s-19.3-10.6-26.1-18.1a71.84,71.84,0,0,1-15.1-25.7A91.57,91.57,0,0,1,0,82.45c0-11.8,2-22.4,6.1-31.9a70.64,70.64,0,0,1,17.2-24.4A76.81,76.81,0,0,1,50,10.55a104.91,104.91,0,0,1,34.5-5.4,96.49,96.49,0,0,1,23.3,2.6A64.44,64.44,0,0,1,125.7,15a46.63,46.63,0,0,1,12.7,10.9,62.24,62.24,0,0,1,8.4,13.7H130.7a27.26,27.26,0,0,0-5.3-9,37.93,37.93,0,0,0-9.8-8,63.34,63.34,0,0,0-13.7-5.7,61.57,61.57,0,0,0-17.1-2.2,64.3,64.3,0,0,0-25.4,5,60.76,60.76,0,0,0-20.2,13.9A62.31,62.31,0,0,0,26,54.75a76.34,76.34,0,0,0-4.7,27.1,80.64,80.64,0,0,0,4.5,26.8A67.73,67.73,0,0,0,39,131.35a63.91,63.91,0,0,0,21.8,15.7c8.7,3.9,18.7,5.9,30.1,5.9q30.45,0,52.7-20.9Z" transform="translate(0 -5.15)"/>
  <path class="cls-1" d="M194.6,160.25H176.1V7.75h18.5Z" transform="translate(0 -5.15)"/>
  <path class="cls-1" d="M241.7,8.65a11.59,11.59,0,0,1,16.6,0,11.59,11.59,0,0,1,0,16.6,11.59,11.59,0,0,1-16.6,0,11.59,11.59,0,0,1,0-16.6Zm17.9,42.7v108.9H241.1V51.35Z" transform="translate(0 -5.15)"/>
  <path class="cls-1" d="M372.1,148.65a53.76,53.76,0,0,0,15.1-9.3l6.3,8.3a88.16,88.16,0,0,1-18.2,10.5q-10.8,4.8-25.2,4.8a56.67,56.67,0,0,1-23.1-4.5,52,52,0,0,1-17.5-12.2A53.42,53.42,0,0,1,298.3,128a65,65,0,0,1-3.9-22.8,65.17,65.17,0,0,1,3.6-21.8,50.21,50.21,0,0,1,10.8-17.9,52.6,52.6,0,0,1,17.6-12.1c7-3,15-4.5,24.2-4.5a80.75,80.75,0,0,1,13.6,1.2,46.25,46.25,0,0,1,13.3,4.4,40.36,40.36,0,0,1,11,8.3,30.7,30.7,0,0,1,7,13h-15a25,25,0,0,0-9.8-12.9,29.33,29.33,0,0,0-17.4-5.2,36.37,36.37,0,0,0-12.9,2.5,34.64,34.64,0,0,0-12.3,8.1,43.68,43.68,0,0,0-9.3,14.8c-2.5,6.2-3.7,13.7-3.7,22.6,0,8.6,1.1,15.8,3.4,21.7a39.38,39.38,0,0,0,9,14.2,33.78,33.78,0,0,0,13,7.7,47.73,47.73,0,0,0,31.6-.6Z" transform="translate(0 -5.15)"/>
  <path class="cls-1" d="M438,105.35l53.6-54h14.2l-41.6,41.8,54.7,67.1H494.5l-43.8-53.8-12.6,12.9v41H419.6V7.75h18.5l-.1,97.6Z" transform="translate(0 -5.15)"/>
</svg>
