<svg id="Capa_1" data-name="Capa 1" xmlns="http://www.w3.org/2000/svg" viewBox="0 0 356.4 424.17">
  <defs>
    <style>
      .cls-1 {
        fill: #fff;
      }

      .cls-2 {
        fill: #455a64;
      }

      .cls-3 {
        fill: #2196f3;
      }
    </style>
  </defs>
  <g>
    <path class="cls-1" d="M365.58,302.8l-86.11-71.62,25.61.42h.65a37.17,37.17,0,0,0,37-36.4,37,37,0,0,0-36.4-37.6l-34-.55L296.22,134a37,37,0,0,0-51.47-53.18L219,105.68l.27-33.88a37,37,0,0,0-36.58-37.3h-.42a37.11,37.11,0,0,0-37,36.7L145,104.45,121.77,80.79A37.25,37.25,0,0,0,95.39,69.74,37,37,0,0,0,69,132.7L92.8,156.87l-33.2-.27a37.11,37.11,0,0,0-37,36.7,37,37,0,0,0,36.7,37.3l33.24.27L69.6,253.44a37,37,0,0,0-.43,52.32,37.22,37.22,0,0,0,26.38,11.06,36.77,36.77,0,0,0,26-10.63l15.89-15.63-1.06,130.59a37.21,37.21,0,0,0,37.06,37.52h.16a37.19,37.19,0,0,0,30.81-16.33L254.84,368l87,.68a37.22,37.22,0,0,0,23.79-65.83Z" transform="translate(-22.6 -34.5)"/>
    <path class="cls-2" d="M305.73,202h-.12l-62.08-1a7.4,7.4,0,1,1,.24-14.8l62.08,1a7.4,7.4,0,0,1-.12,14.8Z" transform="translate(-22.6 -34.5)"/>
  </g>
  <path class="cls-3" d="M346.65,325.56,180.26,187.17A7.61,7.61,0,0,0,167.79,193l-1.86,228.43a7.62,7.62,0,0,0,13.93,4.33l59.38-87.49,102.49.8a7.61,7.61,0,0,0,4.92-13.47Z" transform="translate(-22.6 -34.5)"/>
  <path class="cls-2" d="M95.55,287.22a7.4,7.4,0,0,1-5.19-12.68L134.62,231A7.4,7.4,0,1,1,145,241.55l-44.26,43.54A7.36,7.36,0,0,1,95.55,287.22Z" transform="translate(-22.6 -34.5)"/>
  <path class="cls-2" d="M121.68,201.51h-.06L59.54,201a7.4,7.4,0,0,1,.06-14.8h.06l62.08.51a7.4,7.4,0,0,1-.06,14.8Z" transform="translate(-22.6 -34.5)"/>
  <path class="cls-2" d="M138.93,158.4a7.38,7.38,0,0,1-5.27-2.21L90.11,111.93a7.4,7.4,0,0,1,10.55-10.38l43.55,44.26a7.41,7.41,0,0,1-5.28,12.59Z" transform="translate(-22.6 -34.5)"/>
  <path class="cls-2" d="M181.81,141h-.06a7.41,7.41,0,0,1-7.34-7.46l.5-62.09a7.41,7.41,0,0,1,7.4-7.34h.06a7.4,7.4,0,0,1,7.34,7.46l-.5,62.09A7.4,7.4,0,0,1,181.81,141Z" transform="translate(-22.6 -34.5)"/>
  <path class="cls-2" d="M225.87,158a7.4,7.4,0,0,1-5.14-12.72l44.6-43.18a7.4,7.4,0,0,1,10.3,10.64L231,155.88A7.38,7.38,0,0,1,225.87,158Z" transform="translate(-22.6 -34.5)"/>
</svg>
