<svg id="Layer_1" data-name="Layer 1" xmlns="http://www.w3.org/2000/svg" viewBox="0 0 461.15 477.71">
  <defs>
    <style>
      .cls-1 {
        fill: #35bfec;
      }
    </style>
  </defs>
  <g class="animate-conetors">
    <path class="cls-1" d="M428.46,234.12V129.92a6.9,6.9,0,0,0,3.78-6.13,6.78,6.78,0,0,0-13.56,0v0a6.87,6.87,0,0,0,3.78,6.13v104.2a6.87,6.87,0,0,0-3.78,6.13,6.78,6.78,0,1,0,13.56,0h0A7,7,0,0,0,428.46,234.12Z" transform="translate(-42.16 -33.94)"/>
    <path class="cls-1" d="M451.15,202.43V149.61a6.88,6.88,0,0,0,3.78-6.13,6.78,6.78,0,0,0-13.56,0v0a6.9,6.9,0,0,0,3.78,6.13v52.82a6.89,6.89,0,0,0-3.78,6.13,6.78,6.78,0,1,0,9.78-6.13Z" transform="translate(-42.16 -33.94)"/>
    <path class="cls-1" d="M486.75,188.86a6.78,6.78,0,1,0-13.56,0h0A6.89,6.89,0,0,0,477,195v10L444.5,237.51v67.68a6.87,6.87,0,0,0-3.78,6.13,6.78,6.78,0,1,0,13.56,0v0a6.9,6.9,0,0,0-3.78-6.13V240L483,207.51V195A6.85,6.85,0,0,0,486.75,188.86Z" transform="translate(-42.16 -33.94)"/>
    <path class="cls-1" d="M499.53,349V331.93l-25.69-25.69V253.81a6.87,6.87,0,0,0,3.78-6.13,6.78,6.78,0,0,0-13.56,0,6.9,6.9,0,0,0,3.78,6.13v54.91l25.7,25.69V349a6.89,6.89,0,0,0-3.79,6.13,6.79,6.79,0,0,0,13.57,0A7.07,7.07,0,0,0,499.53,349Z" transform="translate(-42.16 -33.94)"/>
    <path class="cls-1" d="M495.75,226.68a6.78,6.78,0,0,0-13.56,0,6.88,6.88,0,0,0,3.78,6.13v93a3,3,0,0,0,6,0v-93A7,7,0,0,0,495.75,226.68Z" transform="translate(-42.16 -33.94)"/>
    <path class="cls-1" d="M472.28,367.27V335.58a6.9,6.9,0,0,0,3.78-6.13,6.78,6.78,0,1,0-13.56,0h0a6.87,6.87,0,0,0,3.78,6.13v31.69a6.87,6.87,0,0,0-3.78,6.13,6.78,6.78,0,0,0,13.56,0A6.55,6.55,0,0,0,472.28,367.27Z" transform="translate(-42.16 -33.94)"/>
    <circle class="cls-1" cx="441.46" cy="363.59" r="6.78"/>
    <circle class="cls-1" cx="391.64" cy="398.29" r="6.78"/>
    <circle class="cls-1" cx="371.95" cy="416.54" r="6.78"/>
    <circle class="cls-1" cx="244.92" cy="470.93" r="6.78"/>
    <circle class="cls-1" cx="288.74" cy="363.59" r="6.78"/>
    <circle class="cls-1" cx="211.67" cy="470.93" r="6.78"/>
    <circle class="cls-1" cx="90.77" cy="436.11" r="6.78"/>
    <circle class="cls-1" cx="107.27" cy="448.9" r="6.78" transform="translate(-142.48 2.75) rotate(-13.29)"/>
    <circle class="cls-1" cx="67.86" cy="222.12" r="6.78" transform="translate(-45.52 -32.88) rotate(-0.87)"/>
    <circle class="cls-1" cx="37.82" cy="126.24" r="6.78"/>
    <circle class="cls-1" cx="146.72" cy="49.03" r="6.78"/>
    <circle class="cls-1" cx="226.79" cy="34.03" r="6.78"/>
    <circle class="cls-1" cx="302.44" cy="34.03" r="6.78"/>
    <circle class="cls-1" cx="294.87" cy="62.72" r="6.78"/>
    <circle class="cls-1" cx="319" cy="117.11" r="6.78"/>
    <circle class="cls-1" cx="317.56" cy="142.8" r="6.78"/>
    <circle class="cls-1" cx="287.31" cy="159.49" r="6.78"/>
    <circle class="cls-1" cx="387.08" cy="306.08" r="6.78"/>
    <path class="cls-1" d="M433,364.4a6.52,6.52,0,0,0-7-1.56l-32.6-32.61H324.91a6.9,6.9,0,0,0-6.13-3.78,6.79,6.79,0,0,0,0,13.57,6.89,6.89,0,0,0,6.13-3.79h66L421.68,367a7,7,0,0,0,1.56,7A6.87,6.87,0,0,0,433,364.4Z" transform="translate(-42.16 -33.94)"/>
    <path class="cls-1" d="M421.68,302.2a6.84,6.84,0,0,0-6.13,3.78H314.34a6.85,6.85,0,0,0-6.13-3.78,6.78,6.78,0,0,0,0,13.56,6.89,6.89,0,0,0,6.13-3.78H415.55a6.88,6.88,0,0,0,6.13,3.78,6.78,6.78,0,0,0,0-13.56Z" transform="translate(-42.16 -33.94)"/>
    <path class="cls-1" d="M430,260.72a6.93,6.93,0,0,0-9.65,0,6.74,6.74,0,0,0-1.56,7L404.59,282H382.42a6.9,6.9,0,0,0-6.13-3.78,6.78,6.78,0,0,0,0,13.56,6.88,6.88,0,0,0,6.13-3.78h24.65L423,272.07a6.83,6.83,0,0,0,7-11.35Z" transform="translate(-42.16 -33.94)"/>
    <path class="cls-1" d="M414.11,93.66a6.78,6.78,0,1,0-13.56,0h0a6.88,6.88,0,0,0,3.78,6.13v91.68l-27.26,27.26v36.78a6.88,6.88,0,0,0-3.78,6.13,6.78,6.78,0,1,0,9.78-6.13V221.34l27.26-27.26V99.92A7.42,7.42,0,0,0,414.11,93.66Z" transform="translate(-42.16 -33.94)"/>
    <path class="cls-1" d="M402.77,226.55V200.21a3,3,0,0,0-6,0v26.34a6.89,6.89,0,0,0-3.79,6.13,6.79,6.79,0,0,0,13.57,0A7.06,7.06,0,0,0,402.77,226.55Z" transform="translate(-42.16 -33.94)"/>
    <path class="cls-1" d="M386.2,167.61V143.48a6.87,6.87,0,0,0,3.78-6.13,6.78,6.78,0,0,0-13.56,0v0a6.9,6.9,0,0,0,3.78,6.13v24.13a6.88,6.88,0,0,0-3.78,6.13,6.78,6.78,0,0,0,13.56,0h0A6.84,6.84,0,0,0,386.2,167.61Z" transform="translate(-42.16 -33.94)"/>
    <path class="cls-1" d="M390.64,71.75A6.88,6.88,0,0,0,380.07,80L357,108.27a6.78,6.78,0,1,0,4.82,3.78l23.09-28.3a6.82,6.82,0,0,0,5.74-12Z" transform="translate(-42.16 -33.94)"/>
    <path class="cls-1" d="M377.86,187.3a6.94,6.94,0,0,0-9.66,0,6.52,6.52,0,0,0-1.56,7L348.38,212.6v66.9a6.9,6.9,0,0,0-3.78,6.13,6.78,6.78,0,1,0,13.56,0v0a6.88,6.88,0,0,0-3.78-6.13V215.08l16.43-16.44a6.83,6.83,0,0,0,7.05-11.34Z" transform="translate(-42.16 -33.94)"/>
    <path class="cls-1" d="M353.47,234.38l-18.13-18.13a7.08,7.08,0,0,0-1.57-7,6.82,6.82,0,0,0-9.65,9.65,6.52,6.52,0,0,0,7.05,1.56l18.12,18.13a2.83,2.83,0,0,0,2.09.92,2.62,2.62,0,0,0,2.09-.92,2.79,2.79,0,0,0,.36-4A.39.39,0,0,0,353.47,234.38Z" transform="translate(-42.16 -33.94)"/>
    <path class="cls-1" d="M340.82,150.26a6.93,6.93,0,0,0-9.65,0,6.53,6.53,0,0,0-1.57,7l-32.34,32.35H229.83a6.88,6.88,0,0,0-6.13-3.79,6.79,6.79,0,0,0,0,13.57h0a6.89,6.89,0,0,0,6.13-3.78h70l34-34a7.09,7.09,0,0,0,7-1.57A7.23,7.23,0,0,0,340.82,150.26Z" transform="translate(-42.16 -33.94)"/>
    <path class="cls-1" d="M326.08,73.58a6.91,6.91,0,0,0-9.65,0,6.52,6.52,0,0,0-1.57,7L300.78,94.7v27.91l-21,21a7.11,7.11,0,0,0-7,1.56,6.82,6.82,0,1,0,9.65,9.65h0a6.52,6.52,0,0,0,1.57-7l22.69-22.69V97.18l12.26-12.26a7.11,7.11,0,0,0,7-1.56A7,7,0,0,0,326.08,73.58Z" transform="translate(-42.16 -33.94)"/>
    <path class="cls-1" d="M340.43,119.74a6.93,6.93,0,0,0-9.65,0,6.52,6.52,0,0,0-1.57,7.05L286.69,169.3H211.84l-19.18,19.17V303.76a6.9,6.9,0,0,0-3.78,6.13,6.79,6.79,0,0,0,13.57,0,6.89,6.89,0,0,0-3.79-6.13V191l15.65-15.65h74.86L333.51,131a6.73,6.73,0,0,0,6.92-11.22Z" transform="translate(-42.16 -33.94)"/>
    <path class="cls-1" d="M330.25,279.5V239.73l-27.51-27.52h-80.6a6.87,6.87,0,0,0-6.13-3.78A6.78,6.78,0,0,0,216,222a6.9,6.9,0,0,0,6.13-3.78h78.12l24,24v37.3a6.9,6.9,0,0,0-3.78,6.13,6.79,6.79,0,0,0,13.57,0v0A6.89,6.89,0,0,0,330.25,279.5Z" transform="translate(-42.16 -33.94)"/>
    <path class="cls-1" d="M463.28,423.22V403.14l-8.74-9.52a6.73,6.73,0,0,0-1.3-7.05,6.84,6.84,0,1,0-10.36,8.92c.1.12.2.23.31.34a7,7,0,0,0,6.92,2l7.17,7.83v17.6a6.88,6.88,0,0,0-3.78,6.13,6.78,6.78,0,1,0,9.78-6.13Z" transform="translate(-42.16 -33.94)"/>
    <path class="cls-1" d="M431.07,399.62a6.54,6.54,0,0,0-7.05-1.57l-45.64-45.91h-67.3L294,335.06V243.38a6.9,6.9,0,0,0,3.78-6.13,6.78,6.78,0,0,0-13.56,0v0a6.87,6.87,0,0,0,3.78,6.13v94.16l20.6,20.6h67.3L420,402.22a7.1,7.1,0,0,0,1.57,7,6.93,6.93,0,0,0,9.65,0,6.81,6.81,0,0,0-.11-9.63Z" transform="translate(-42.16 -33.94)"/>
    <path class="cls-1" d="M412.55,423.48a7,7,0,0,0-7.05-1L396.77,415V398.44l-24.91-23.73a6.68,6.68,0,0,0-1.83-6.92,6.82,6.82,0,1,0-2.35,11.35l23,21.91v16.69L401.46,427a6.54,6.54,0,0,0,2.22,6.79,6.83,6.83,0,0,0,9.63-.77l0,0a6.66,6.66,0,0,0-.64-9.4Z" transform="translate(-42.16 -33.94)"/>
    <path class="cls-1" d="M412,471.61a6.52,6.52,0,0,0-7-1.57l-33.65-33.65V399.75L342,370.4H295.82l-24.64-24.78V266.07a6.9,6.9,0,0,0,3.78-6.13,6.79,6.79,0,0,0-13.57,0,6.89,6.89,0,0,0,3.79,6.13v82l28.17,28.17h46.16l25.83,25.82v36.65l35.47,35.47a7.12,7.12,0,0,0,1.56,7.05,6.93,6.93,0,0,0,9.65,0,6.69,6.69,0,0,0,.2-9.46Z" transform="translate(-42.16 -33.94)"/>
    <path class="cls-1" d="M383.07,471.48V449.17a3,3,0,0,0-6,0v22.31a6.88,6.88,0,0,0-3.78,6.13,6.78,6.78,0,1,0,9.78-6.13Z" transform="translate(-42.16 -33.94)"/>
    <path class="cls-1" d="M352.82,489.73V429.35a6.9,6.9,0,0,0,3.78-6.13,6.79,6.79,0,0,0-13.57,0,6.89,6.89,0,0,0,3.79,6.13v60.38a6.89,6.89,0,0,0-3.79,6.13,6.79,6.79,0,0,0,13.57,0A6.33,6.33,0,0,0,352.82,489.73Z" transform="translate(-42.16 -33.94)"/>
    <path class="cls-1" d="M321.12,497.3V420.35a6.88,6.88,0,0,0,3.79-6.13,6.79,6.79,0,1,0-13.57,0h0a6.88,6.88,0,0,0,3.79,6.13V497.3a6.89,6.89,0,0,0-3.79,6.13,6.79,6.79,0,1,0,9.78-6.13Z" transform="translate(-42.16 -33.94)"/>
    <path class="cls-1" d="M308.21,390a6.87,6.87,0,0,0-6.13,3.78h-17.6l-37.56-37.56V243.38a6.9,6.9,0,0,0,3.78-6.13,6.78,6.78,0,0,0-13.56,0v0a6.87,6.87,0,0,0,3.78,6.13V358.67L282,399.75h20.08a6.9,6.9,0,0,0,6.13,3.78,6.78,6.78,0,1,0,0-13.56Z" transform="translate(-42.16 -33.94)"/>
    <path class="cls-1" d="M304.56,425.7l-15.39-15.39H276.65a6.89,6.89,0,0,0-6.13-3.78,6.78,6.78,0,0,0,0,13.56,6.87,6.87,0,0,0,6.13-3.78h10l11.87,11.87v29.21l-18,18a7.11,7.11,0,0,0-7,1.56,6.82,6.82,0,0,0,9.65,9.65h0a6.74,6.74,0,0,0,1.57-7l19.69-19.69V425.7Z" transform="translate(-42.16 -33.94)"/>
    <path class="cls-1" d="M284.87,436a6.93,6.93,0,0,0-9.65,0,6.54,6.54,0,0,0-1.57,7.05L225.4,491.3a7.1,7.1,0,0,0-7,1.56,6.83,6.83,0,0,0,9.65,9.66,6.54,6.54,0,0,0,1.56-7l48.26-48.25a7.09,7.09,0,0,0,7-1.57A6.93,6.93,0,0,0,284.87,436Z" transform="translate(-42.16 -33.94)"/>
    <path class="cls-1" d="M255.39,394.79l-34-34V252.51a6.9,6.9,0,0,0,3.78-6.13,6.79,6.79,0,0,0-13.57,0v0a6.89,6.89,0,0,0,3.79,6.13V363.36l34,34V435l-34.17,34.17a7.12,7.12,0,0,0-7,1.56,6.82,6.82,0,1,0,9.65,9.65h0a6.5,6.5,0,0,0,1.57-7l36-36Z" transform="translate(-42.16 -33.94)"/>
    <path class="cls-1" d="M233.48,398.57l-8.34-8.34a7.1,7.1,0,0,0-1.57-7.05,6.82,6.82,0,0,0-9.65,9.65,6.75,6.75,0,0,0,7,1.57l6.66,6.65V425.7l-14.35,14.22a7,7,0,0,0-7,1.56,6.82,6.82,0,0,0,9.65,9.65h0a6.72,6.72,0,0,0,1.56-7l15.91-15.91V398.57Z" transform="translate(-42.16 -33.94)"/>
    <path class="cls-1" d="M218.36,411.35a6.54,6.54,0,0,0-7.05-1.56L200.1,398.57V346.15a6.9,6.9,0,0,0,3.78-6.13,6.78,6.78,0,1,0-13.56,0h0a6.87,6.87,0,0,0,3.78,6.13v54.9L207,414a7.08,7.08,0,0,0,1.57,7,6.91,6.91,0,0,0,9.65,0,6.8,6.8,0,0,0,.15-9.62Z" transform="translate(-42.16 -33.94)"/>
    <path class="cls-1" d="M195.66,485.17V430.26l-6.91-6.91a7.11,7.11,0,0,0-1.56-7,6.82,6.82,0,0,0-9.65,9.65h0a6.74,6.74,0,0,0,7,1.57l5.08,5.08v52.56a6.9,6.9,0,0,0-3.78,6.13,6.79,6.79,0,1,0,9.78-6.13Z" transform="translate(-42.16 -33.94)"/>
    <path class="cls-1" d="M175.06,397.4a7.08,7.08,0,0,0,7-1.57,6.82,6.82,0,0,0-9.65-9.65h0a6.76,6.76,0,0,0-1.57,7.05L155,409.14v28.17l12.13,12.13a7.09,7.09,0,0,0,1.57,7,6.82,6.82,0,0,0,9.65-9.65,6.75,6.75,0,0,0-7-1.57l-10.44-10.43V411.61Z" transform="translate(-42.16 -33.94)"/>
    <path class="cls-1" d="M182,352.93a6.93,6.93,0,0,0-9.65,0,6.75,6.75,0,0,0-1.57,7l-36.38,36.39v47.08l26.86,26.86v11.87a6.9,6.9,0,0,0-3.78,6.13,6.79,6.79,0,0,0,13.57,0,6.89,6.89,0,0,0-3.79-6.13V467.69L140.5,440.83V398.7l34.56-34.56a7.05,7.05,0,0,0,7-1.56A6.81,6.81,0,0,0,182,353Z" transform="translate(-42.16 -33.94)"/>
    <path class="cls-1" d="M182.75,270.5a6.78,6.78,0,0,0-13.56,0,6.88,6.88,0,0,0,3.78,6.13v46.3l-65.6,65.6a7.08,7.08,0,0,0-7,1.57,6.82,6.82,0,0,0,9.65,9.65,6.54,6.54,0,0,0,1.57-7.05l67.29-67.29V276.63A6.77,6.77,0,0,0,182.75,270.5Z" transform="translate(-42.16 -33.94)"/>
    <path class="cls-1" d="M323.73,39.54a6.93,6.93,0,0,0-9.65,0,6.5,6.5,0,0,0-1.56,7l-36,36v38.61l-26.21,26.21H208.05l-32,32v57.91a6.9,6.9,0,0,0-3.78,6.13,6.78,6.78,0,0,0,13.56,0,6.88,6.88,0,0,0-3.78-6.13V181.82l28.43-28.43h42.39l29.73-29.73V85.05l34.17-34.17a7,7,0,0,0,7-1.56A7,7,0,0,0,323.73,39.54Z" transform="translate(-42.16 -33.94)"/>
    <path class="cls-1" d="M297.65,40.71a6.78,6.78,0,0,0-13.56,0,6.87,6.87,0,0,0,3.78,6.13V72.53a3,3,0,0,0,6,0V46.84A6.66,6.66,0,0,0,297.65,40.71Z" transform="translate(-42.16 -33.94)"/>
    <path class="cls-1" d="M255.39,49.84a6.78,6.78,0,1,0-13.56,0A6.9,6.9,0,0,0,245.61,56v59.86L239,122.48a7.08,7.08,0,0,0-7,1.57,6.82,6.82,0,1,0,11.22,2.6l8.34-8.34V55.84A6.58,6.58,0,0,0,255.39,49.84Z" transform="translate(-42.16 -33.94)"/>
    <path class="cls-1" d="M230.35,104.09V62a6.89,6.89,0,0,0,3.79-6.13,6.79,6.79,0,0,0-13.57,0v0A6.89,6.89,0,0,0,224.36,62v42.25a6.89,6.89,0,0,0-3.79,6.13,6.79,6.79,0,0,0,13.57,0v0A6.66,6.66,0,0,0,230.35,104.09Z" transform="translate(-42.16 -33.94)"/>
    <path class="cls-1" d="M206.88,60.53a7.09,7.09,0,0,0-1.57-7,6.82,6.82,0,0,0-9.65,9.65,6.76,6.76,0,0,0,7.05,1.57l5.08,5.08V97.57l-12.65,12.65h-7.82a6.9,6.9,0,0,0-6.13-3.78,6.78,6.78,0,1,0,0,13.56,6.87,6.87,0,0,0,6.13-3.78h10.3l16.17-16.17V67.32Z" transform="translate(-42.16 -33.94)"/>
    <path class="cls-1" d="M169.19,80a6.78,6.78,0,1,0-13.56,0,6.87,6.87,0,0,0,3.78,6.13v40.29l-28.69,28.7V187.3a6.89,6.89,0,0,0-3.79,6.13,6.79,6.79,0,0,0,13.57,0,6.9,6.9,0,0,0-3.78-6.13V157.56l28.69-28.69V86.1A6.76,6.76,0,0,0,169.19,80Z" transform="translate(-42.16 -33.94)"/>
    <path class="cls-1" d="M148.06,99.66a6.78,6.78,0,0,0-13.56,0,6.88,6.88,0,0,0,3.78,6.13v19l-7.43,7.43a7.1,7.1,0,0,0-7,1.57A6.83,6.83,0,1,0,135,136.44l9.13-9.13V105.66A6.53,6.53,0,0,0,148.06,99.66Z" transform="translate(-42.16 -33.94)"/>
    <path class="cls-1" d="M124.59,108a6.91,6.91,0,0,0-9.65,0,6.52,6.52,0,0,0-1.57,7l-10.69,10.69v51.13A6.87,6.87,0,0,0,98.89,183a6.79,6.79,0,1,0,13.57,0,6.88,6.88,0,0,0-3.78-6.12V128.22l8.86-8.87a6.83,6.83,0,0,0,7-11.34Z" transform="translate(-42.16 -33.94)"/>
    <path class="cls-1" d="M214.57,122.35a6.9,6.9,0,0,0-6.13,3.78H192.93l-41.09,41.08V309.76a6.9,6.9,0,0,0-3.78,6.13,6.79,6.79,0,0,0,13.57,0,6.89,6.89,0,0,0-3.79-6.13V169.69l37.56-37.56h13a6.87,6.87,0,0,0,6.13,3.78,6.73,6.73,0,0,0,6.79-6.67v-.11A6.83,6.83,0,0,0,214.57,122.35Z" transform="translate(-42.16 -33.94)"/>
    <path class="cls-1" d="M99.68,206.47a6.54,6.54,0,0,0-7.05-1.57L72.29,184.56a7.08,7.08,0,0,0-1.57-7,6.82,6.82,0,0,0-9.65,9.65,6.52,6.52,0,0,0,7.05,1.56l20.34,20.35a7.08,7.08,0,0,0,1.57,7,6.82,6.82,0,1,0,9.65-9.65Z" transform="translate(-42.16 -33.94)"/>
    <path class="cls-1" d="M124.59,207.77a6.93,6.93,0,0,0-9.65,0,6.54,6.54,0,0,0-1.57,7L88.59,239.6a7.05,7.05,0,0,0-7,1.56,6.82,6.82,0,1,0,9.65,9.65,6.53,6.53,0,0,0,1.57-7L117.54,219a7.1,7.1,0,0,0,7-1.57A6.93,6.93,0,0,0,124.59,207.77Z" transform="translate(-42.16 -33.94)"/>
    <path class="cls-1" d="M138.15,228.9a6.93,6.93,0,0,0-9.65,0,6.53,6.53,0,0,0-1.57,7L96,266.85a7.1,7.1,0,0,0-7,1.57,6.82,6.82,0,0,0,9.65,9.65h0a6.75,6.75,0,0,0,1.57-7l30.91-30.91a7.09,7.09,0,0,0,7-1.57,6.69,6.69,0,0,0,.19-9.46Z" transform="translate(-42.16 -33.94)"/>
    <path class="cls-1" d="M141.15,263.72a6.93,6.93,0,0,0-9.65,0,6.54,6.54,0,0,0-1.57,7l-15.78,15.65a7.06,7.06,0,0,0-7,1.56,6.82,6.82,0,0,0,9.65,9.65,6.53,6.53,0,0,0,1.57-7l15.78-15.78a7.09,7.09,0,0,0,7-1.57,6.51,6.51,0,0,0,.3-9.21C141.36,263.92,141.25,263.82,141.15,263.72Z" transform="translate(-42.16 -33.94)"/>
    <path class="cls-1" d="M133.59,338.45V309.89a6.9,6.9,0,0,0,3.78-6.13,6.79,6.79,0,0,0-13.57,0,6.89,6.89,0,0,0,3.79,6.13v28.56a6.89,6.89,0,0,0-3.79,6.13,6.79,6.79,0,0,0,13.57,0A6.54,6.54,0,0,0,133.59,338.45Z" transform="translate(-42.16 -33.94)"/>
    <path class="cls-1" d="M107.89,334V319.93L74.64,286.68V263.07a6.9,6.9,0,0,0,3.78-6.13,6.78,6.78,0,0,0-13.56,0,6.87,6.87,0,0,0,3.78,6.13v26.08l33.25,33.26V334a6.89,6.89,0,0,0-3.78,6.13,6.79,6.79,0,0,0,13.57,0h0A6.33,6.33,0,0,0,107.89,334Z" transform="translate(-42.16 -33.94)"/>
    <path class="cls-1" d="M117.81,415.27a6.84,6.84,0,0,0-6.13,3.78H105L92.11,406.14v-27l15-15a7,7,0,0,0,7-1.56,6.82,6.82,0,1,0-9.65-9.65h0a6.52,6.52,0,0,0-1.56,7l-16.7,16.69v32l16.57,16.56h9.13a6.88,6.88,0,0,0,6.13,3.78,6.73,6.73,0,0,0,6.78-6.68v-.1A7.07,7.07,0,0,0,117.81,415.27Z" transform="translate(-42.16 -33.94)"/>
    <path class="cls-1" d="M74.64,364.14V321.89a6.9,6.9,0,0,0,3.78-6.13,6.78,6.78,0,0,0-13.56,0,6.87,6.87,0,0,0,3.78,6.13v42.25a6.87,6.87,0,0,0-3.78,6.13,6.78,6.78,0,1,0,9.78-6.13Z" transform="translate(-42.16 -33.94)"/>
    <path class="cls-1" d="M51.94,334V247.94a6.89,6.89,0,0,0,3.79-6.13,6.79,6.79,0,0,0-13.57,0h0A6.89,6.89,0,0,0,46,247.94V334a6.88,6.88,0,0,0-3.79,6.13,6.79,6.79,0,0,0,13.57,0A6.32,6.32,0,0,0,51.94,334Z" transform="translate(-42.16 -33.94)"/>
  </g>
</svg>
