<svg id="Capa_1" data-name="Capa 1" xmlns="http://www.w3.org/2000/svg" viewBox="0 0 1287.21 828.13">
  <path d="M1406.21,39.38V340.1a56.05,56.05,0,0,1-56,56H942.06a4.18,4.18,0,0,1-3.52-1.93A281.79,281.79,0,0,0,712.64,264.4c-165.21-6.72-301.52,130.87-293.29,296C426.78,709.5,550.05,828.13,701,828.13c99.77,0,187.44-51.84,237.56-130a4.18,4.18,0,0,1,3.52-1.93h610A154.18,154.18,0,0,0,1706.21,542V40.3A40.3,40.3,0,0,0,1665.91,0H1445.6A39.39,39.39,0,0,0,1406.21,39.38Z" transform="translate(-419)"/>
</svg>
