<svg id="Layer_1" data-name="Layer 1" xmlns="http://www.w3.org/2000/svg" viewBox="0 0 376.12 401.13">
  <defs>
    <style>
      .cls-1 {
        fill: #2d5c84;
      }
    </style>
  </defs>
  <path class="cls-1" d="M132.71,424.56A96.77,96.77,0,0,1,64.23,259.39L278.33,44.16a70.83,70.83,0,0,1,100.15,100.2L201.1,321.74l-.11.11a44.88,44.88,0,0,1-63.33-63.62l85.6-85.62a10.3,10.3,0,0,1,14.57,14.56l-85.61,85.62a24.29,24.29,0,0,0,34.3,34.41l177.4-177.4A50.24,50.24,0,0,0,328.38,44a49.81,49.81,0,0,0-35.47,14.68L78.81,273.93A76.19,76.19,0,0,0,186.54,381.7L394.48,172.63a10.3,10.3,0,1,1,14.6,14.52l-208,209.09a96.11,96.11,0,0,1-68.41,28.32Z" transform="translate(-35.96 -23.44)"/>
</svg>
