<svg id="Layer_1" data-name="Layer 1" xmlns="http://www.w3.org/2000/svg" viewBox="0 0 278.23 237.29">
  <defs>
    <style>
      .cls-1 {
        fill: #9acd8d;
      }
    </style>
  </defs>
  <g>
    <path class="cls-1" d="M198.39,52.37c0-.24,0-.49,0-.73A5.68,5.68,0,0,0,192.81,46c-1.36-.08-2.74,0-4.1,0-4.2,0-4.16,0-5.83-3.86a2,2,0,0,1,.52-2.56c1.56-1.48,3.07-3,4.55-4.57a5.68,5.68,0,0,0,.07-8.22q-5.37-5.55-10.91-10.92a5.72,5.72,0,0,0-8.09,0c-1,.93-2,1.91-2.92,2.88-2.78,2.84-2.76,2.78-6.53,1.38a2.16,2.16,0,0,1-1.64-2.46c.08-2.14.08-4.3,0-6.45a5.68,5.68,0,0,0-5.75-5.71c-5.07-.09-10.16-.09-15.23,0a5.77,5.77,0,0,0-5.85,5.84c-.06,1.3,0,2.6,0,3.9,0,4.14,0,4.09-3.71,5.73a2.05,2.05,0,0,1-2.73-.49c-1.51-1.62-3.09-3.18-4.71-4.69a5.65,5.65,0,0,0-7.8-.14c-3.85,3.7-7.62,7.49-11.32,11.33a5.66,5.66,0,0,0,0,7.66c.95,1.07,2,2.06,3,3.07,3,2.91,2.9,2.89,1.45,6.67a2,2,0,0,1-2.28,1.6q-3.22-.12-6.45,0a5.75,5.75,0,0,0-5.86,5.81c0,.21,0,.41,0,.62q-.09,6.65,0,13.29c0,.45,0,.89,0,1.34a5.72,5.72,0,0,0,5.69,5.78c1.36.09,2.73,0,4.1,0,4.09,0,4,0,5.69,3.75a2.07,2.07,0,0,1-.54,2.73q-2.43,2.27-4.68,4.71a5.65,5.65,0,0,0-.09,7.8c3.71,3.84,7.48,7.63,11.34,11.32a5.57,5.57,0,0,0,7.64,0c1.07-1,2.07-2,3.07-3,2.88-2.91,2.86-2.86,6.69-1.41a2.05,2.05,0,0,1,1.55,2.31c-.07,2.08-.06,4.17,0,6.25a5.8,5.8,0,0,0,6.07,6c2.41,0,4.82,0,7.23,0,2.6,0,5.21.06,7.81,0a5.69,5.69,0,0,0,5.72-5.53c.09-1.36,0-2.74,0-4.1,0-4.23,0-4.18,3.82-5.85a1.93,1.93,0,0,1,2.56.46c1.57,1.65,3.18,3.27,4.86,4.8a5.58,5.58,0,0,0,7.79,0q5.7-5.47,11.19-11.18a5.65,5.65,0,0,0-.08-7.94c-.88-1-1.81-1.87-2.74-2.78-3-3-3-3-1.5-6.84A2,2,0,0,1,186,72.8c2.21.06,4.43.08,6.64,0a5.66,5.66,0,0,0,5.75-5.7c0-.47,0-1,0-1.42C198.47,61.23,198.46,56.79,198.39,52.37Zm-5,13.29c.06,1.79-.66,2.32-2.38,2.21-1.88-.12-3.78-.05-5.66,0-3.1,0-4.86,1.26-6,4.1-.29.73-.55,1.47-.87,2.18-1.86,4.18-1.58,5.72,1.69,9,1.24,1.25,2.46,2.51,3.72,3.73A1.27,1.27,0,0,1,184,89q-4.94,4.88-9.81,9.81c-.79.8-1.4.69-2.13-.06q-2.25-2.31-4.57-4.55c-2.26-2.17-4.45-2.53-7.32-1.25-.47.21-.93.45-1.41.65-5.31,2.23-5.75,2.88-5.74,8.56,0,6,0,6-6,6H144.6c-2.27,0-4.55,0-6.83,0-1.27,0-1.75-.52-1.73-1.76.05-2.14,0-4.29,0-6.44A5.75,5.75,0,0,0,132,94.25c-.85-.32-1.71-.64-2.54-1-3.61-1.64-5.48-1.34-8.26,1.4-1.35,1.32-2.71,2.63-4,4-.84.88-1.5,1-2.42.07q-4.71-4.83-9.53-9.54c-.92-.9-.89-1.57,0-2.43,1.56-1.48,3.06-3,4.55-4.56a5.8,5.8,0,0,0,1.22-7c-.44-1-.85-1.91-1.21-2.88a6.3,6.3,0,0,0-6.37-4.48c-2,0-3.91,0-5.86,0-1.29,0-1.9-.39-1.9-1.78v-.42c0-4.23-.06-8.45-.19-12.67a4.14,4.14,0,0,1,0-.62c.11-1.23.75-1.79,2.23-1.69,2,.13,4,.22,6,.21,3,0,4.84-1.33,5.93-4.16.25-.67.49-1.34.77-2,1.94-4.45,1.68-5.84-1.81-9.34-1.15-1.16-2.27-2.34-3.45-3.45-.81-.77-1-1.42-.07-2.28Q110,24.88,114.8,20c.83-.85,1.46-.84,2.27,0,1.44,1.5,2.93,3,4.43,4.41,2.36,2.29,4.5,2.65,7.46,1.31.59-.27,1.18-.54,1.79-.78,4.5-1.77,5.3-2.92,5.31-7.68,0-1.69,0-3.39,0-5.08,0-1.12.4-1.68,1.6-1.67,4.55,0,9.11,0,13.67,0,1.3,0,1.7.6,1.68,1.8,0,2.15,0,4.3,0,6.45a5.7,5.7,0,0,0,3.94,5.69c.85.33,1.71.62,2.55,1,3.88,1.73,5.59,1.44,8.56-1.5,1.35-1.32,2.7-2.64,4-4a1.26,1.26,0,0,1,2.13,0q4.88,4.93,9.81,9.81c.8.78.68,1.4-.06,2.13q-2.37,2.32-4.68,4.71a5.81,5.81,0,0,0-1.19,7c.24.53.51,1.06.73,1.6,2.26,5.35,2.88,5.76,8.75,5.76,3.63,0,5,0,5.51,1.42a15.48,15.48,0,0,1,.31,4.42c0,2.92-.11,5.85,0,8.77Z" transform="translate(-4.35 -5.41)"/>
    <path class="cls-1" d="M144.52,43.38h0v7a9,9,0,0,1,5.65,2,7.38,7.38,0,0,1,.73.65A9.08,9.08,0,0,1,151,65.66a9.08,9.08,0,0,1-6.53,2.7,8.83,8.83,0,0,1-6.39-2.7,9.11,9.11,0,0,1-2.52-6.41,8.86,8.86,0,0,1,3.34-6.89,9,9,0,0,1,5.62-2v-7a15.89,15.89,0,0,0-16,15.84,16.17,16.17,0,0,0,1.28,6.44,16,16,0,0,0,29.41,0,16.18,16.18,0,0,0-.33-13.3A15.91,15.91,0,0,0,144.52,43.38Z" transform="translate(-4.35 -5.41)"/>
  </g>
  <path class="cls-1" d="M282.54,87.3a41.53,41.53,0,0,0-.61-7.8c-3.13-16.23-16.51-27.1-33.52-27.11q-21.51,0-43,0c.07,4.41.08,8.87,0,13.28h42.25c9,0,15.86,3.54,19.86,11.87A40.3,40.3,0,0,1,269,81.73c-.92.56-1.72,1.07-2.54,1.53q-60.15,33.58-120.29,67.23a4.87,4.87,0,0,1-5.49,0Q80.57,116.77,20.39,83.22c-.75-.42-1.49-.86-2.36-1.36,2.61-10.42,10-16.18,20.72-16.19q22.43,0,44.86,0c-.06-4.41,0-8.86,0-13.27l-45,0a38,38,0,0,0-8.05.81c-16.06,3.56-26.19,16.68-26.21,34q-.06,60.38,0,120.75a40.47,40.47,0,0,0,.52,7.22c3,16.45,16.41,27.51,33.46,27.53q52.44.08,104.89,0,52.16,0,104.31,0a41.51,41.51,0,0,0,9.18-.91c15.95-3.71,25.8-16.7,25.82-34Q282.62,147.52,282.54,87.3ZM269.35,207.57c0,10.69-5.47,18.47-14.82,21a25.92,25.92,0,0,1-6.58.77q-104.47.06-208.95,0c-12.75,0-21.33-8.14-21.38-20.88-.15-36.67-.05-73.35,0-110,0-.29.08-.57.2-1.4,1.21.65,2.13,1.13,3,1.63q58.53,32.68,117,65.44c4,2.25,7.29,2.22,11.3,0q58.44-32.84,117-65.43c.91-.5,1.83-1,3.07-1.62.06,1.19.13,2,.13,2.84Q269.37,153.72,269.35,207.57Z" transform="translate(-4.35 -5.41)"/>
</svg>
