<svg id="Layer_1" data-name="Layer 1" xmlns="http://www.w3.org/2000/svg" viewBox="0 0 448.94 446.84">
  <defs>
    <style>
      .cls-1 {
        fill: #9acd8d;
      }
    </style>
  </defs>
  <g>
    <path class="cls-1" d="M275.9,118.26c-.15-8.19-6.11-14.06-14.26-14.55-3.49-.2-7-.08-10.49-.08-10.75,0-10.63,0-14.9-9.87-1.22-2.81-.77-4.55,1.33-6.55,4-3.78,7.85-7.69,11.64-11.69,6-6.28,6.18-14.8.18-21q-13.76-14.15-27.9-28c-6-5.78-14.58-5.6-20.71.09-2.56,2.38-5,4.89-7.47,7.38-7.12,7.25-7.06,7.11-16.71,3.52-3.19-1.21-4.32-3-4.19-6.29.24-5.5.24-11,0-16.5C172.05,6.21,166.15.2,157.71.05q-19.5-.33-39,0c-8.68.13-14.62,6.24-15,14.93-.15,3.33,0,6.66,0,10,0,10.58-.06,10.46-9.5,14.65-2.92,1.29-4.82,1.07-7-1.26-3.81-4.16-7.86-8.14-12-12C69.37,21,60.7,20.68,55.16,26q-14.77,14.23-29,29a14.44,14.44,0,0,0-.08,19.59c2.43,2.74,5.09,5.28,7.69,7.86,7.54,7.46,7.43,7.4,3.72,17.09-1.13,3-2.65,4.2-5.85,4.08-5.5-.2-11-.18-16.5,0-8.68.28-14.87,6.28-15,14.87q-.3,19.5,0,39c.12,8.41,6.08,14.31,14.55,14.81,3.49.21,7,.08,10.49.08,10.48,0,10.34.07,14.57,9.62,1.32,3,.88,4.86-1.39,7q-6.22,5.82-12,12.06c-5.31,5.77-5.56,14.45-.21,20q14.2,14.84,29,29c5.5,5.32,13.85,5.07,19.56,0,2.74-2.43,5.29-5.08,7.86-7.69,7.4-7.5,7.34-7.38,17.1-3.66,3.08,1.15,4.11,2.8,4,5.92-.17,5.33-.14,10.67,0,16,.26,9.27,6.3,15.23,15.53,15.38,6.17.09,12.33,0,18.5,0,6.67,0,13.34.15,20,0,8.24-.24,14.08-5.93,14.63-14.15.24-3.5.11-7,.11-10.5,0-10.86.06-10.74,9.76-15,2.73-1.2,4.57-1,6.57,1.17,4,4.23,8.14,8.36,12.44,12.3,5.81,5.29,14.26,5.46,19.93,0q14.63-14.06,28.63-28.63c5.61-5.81,5.33-14.32-.19-20.32-2.24-2.45-4.63-4.78-7-7.12-7.77-7.65-7.67-7.6-3.84-17.5,1.08-2.77,2.48-4,5.48-3.87,5.67.2,11.35.25,17,0,8.56-.37,14.57-6.2,14.71-14.61Q276.25,138,275.9,118.26ZM257,159.84c-4.81-.3-9.66-.12-14.49-.05-7.92.1-12.42,3.23-15.28,10.5-.73,1.86-1.4,3.75-2.21,5.58-4.77,10.7-4.06,14.64,4.32,23.12,3.16,3.2,6.29,6.43,9.53,9.55,2,1.89,2.06,3.47.06,5.47q-12.63,12.47-25.11,25.09c-2,2-3.57,1.78-5.44-.15q-5.74-5.91-11.69-11.64c-5.78-5.57-11.39-6.49-18.73-3.2-1.22.54-2.4,1.16-3.63,1.67-13.58,5.7-14.69,7.35-14.69,21.9,0,15.45,0,15.45-15.4,15.45h-6c-5.83,0-11.66-.1-17.47,0-3.25.07-4.48-1.32-4.42-4.49.09-5.5,0-11,0-16.5,0-7.39-3.64-12.23-10.47-14.82-2.18-.82-4.37-1.6-6.49-2.6-9.26-4.21-14.05-3.42-21.15,3.58-3.45,3.39-6.93,6.74-10.25,10.26-2.13,2.26-3.84,2.59-6.19.17q-12-12.37-24.33-24.42c-2.39-2.3-2.31-4,0-6.2,4-3.79,7.83-7.68,11.65-11.68,5.06-5.23,6.19-11.2,3.12-17.9-1.1-2.42-2.16-4.87-3.1-7.36-2.9-7.63-8.06-11.34-16.3-11.46-5-.08-10-.1-15,.06-3.31.1-4.86-1-4.86-4.56,0-11.16-.16-22.33-.49-33.48-.12-4.27,1.37-6.2,5.76-5.92,5.14.33,10.3.54,15.45.54,7.83,0,12.39-3.39,15.16-10.64.66-1.71,1.27-3.44,2-5.12,5-11.39,4.3-14.91-4.63-23.91-2.94-2.95-5.84-6-8.84-8.83-2.08-2-2.44-3.62-.19-5.83Q49.74,49.8,62,37.38c2.13-2.18,3.74-2.16,5.81,0,3.68,3.8,7.49,7.54,11.33,11.24,6.06,5.86,11.53,6.76,19.06,3.32,1.51-.68,3-1.39,4.57-2,11.58-4.53,13.58-7.46,13.58-19.66,0-4.33.08-8.66,0-13-.06-2.87,1-4.28,4.08-4.28,11.67.08,23.34.1,35,0,3.3,0,4.36,1.54,4.3,4.61-.09,5.5,0,11,0,16.5,0,7.16,3.48,12,10.08,14.57,2.16.86,4.38,1.55,6.51,2.55,9.93,4.45,14.32,3.71,21.93-3.82,3.44-3.39,6.91-6.76,10.26-10.24,1.92-2,3.45-2,5.45,0q12.47,12.63,25.1,25.1c2,2,1.75,3.6-.16,5.46q-6.09,6-12,12.06c-5.05,5.25-6.05,11.25-3,17.92.62,1.36,1.3,2.7,1.88,4.08,5.79,13.69,7.49,14.7,22.38,14.7s14.89,0,14.89,15c0,7.45-.26,15,.09,22.45C263.37,158.71,261.53,160.12,257,159.84Z" transform="translate(172.87 170.76)"/>
    <path class="cls-1" d="M138,84.16c-30.17,0-53.65,24.06-53.87,55.21C84,167.68,108.87,192,138.07,192s54.08-24.42,53.9-53.17C191.79,108.24,168,84.16,138,84.16ZM179,138.66a41.25,41.25,0,1,1,0-.43Z" transform="translate(172.87 170.76)"/>
  </g>
  <g>
    <path class="cls-1" d="M10.71-92a9.67,9.67,0,0,0-9.49-9.68c-2.32-.14-4.65-.06-7-.06-7.15,0-7.07,0-9.91-6.56a3.32,3.32,0,0,1,.88-4.36c2.66-2.52,5.22-5.12,7.75-7.78,4-4.18,4.11-9.85.12-14q-9.15-9.41-18.57-18.66c-4-3.84-9.7-3.72-13.78.06-1.7,1.59-3.33,3.26-5,4.91-4.73,4.83-4.69,4.73-11.11,2.34a3.69,3.69,0,0,1-2.79-4.18c.16-3.66.16-7.33,0-11-.25-5.63-4.17-9.63-9.79-9.73q-13-.22-25.95,0c-5.77.08-9.72,4.15-10,9.93-.1,2.22,0,4.43,0,6.65,0,7,0,7-6.32,9.75-1.94.86-3.21.71-4.66-.84-2.53-2.77-5.23-5.41-8-8-3.86-3.57-9.62-3.79-13.31-.24q-9.84,9.48-19.29,19.29a9.61,9.61,0,0,0-.06,13c1.62,1.82,3.39,3.51,5.12,5.23,5,5,4.94,4.92,2.47,11.37-.75,2-1.76,2.79-3.89,2.71-3.66-.13-7.32-.12-11,0-5.77.19-9.89,4.18-10,9.9q-.19,13,0,25.94c.08,5.6,4.05,9.53,9.68,9.86,2.33.14,4.65,0,7,0,7,0,6.88.05,9.7,6.4a3.52,3.52,0,0,1-.93,4.66q-4.14,3.87-8,8a9.66,9.66,0,0,0-.14,13.31q9.45,9.87,19.29,19.3a9.48,9.48,0,0,0,13,0c1.82-1.62,3.52-3.38,5.23-5.12,4.92-5,4.88-4.91,11.37-2.44,2,.77,2.74,1.87,2.67,3.94-.12,3.55-.1,7.1,0,10.65.17,6.17,4.19,10.13,10.33,10.23,4.1.06,8.2,0,12.31,0,4.43,0,8.87.1,13.28,0a9.67,9.67,0,0,0,9.74-9.41c.16-2.33.07-4.66.07-7,0-7.23,0-7.15,6.49-10,1.82-.8,3-.67,4.38.78C-44.62-9.85-41.87-7.1-39-4.48a9.54,9.54,0,0,0,13.26,0q9.74-9.35,19.05-19C-3-27.39-3.15-33-6.82-37c-1.49-1.63-3.09-3.18-4.66-4.73-5.17-5.09-5.11-5.06-2.56-11.65.72-1.84,1.65-2.63,3.65-2.57,3.77.13,7.55.16,11.31,0,5.7-.25,9.69-4.13,9.79-9.72Q10.93-78.87,10.71-92ZM-1.84-64.34c-3.2-.2-6.43-.08-9.64,0-5.27.06-8.27,2.15-10.17,7-.48,1.24-.93,2.5-1.47,3.72-3.17,7.12-2.7,9.74,2.88,15.38,2.1,2.13,4.18,4.28,6.34,6.35,1.3,1.26,1.37,2.31,0,3.64Q-22.27-20-30.57-11.6c-1.34,1.35-2.38,1.18-3.62-.1Q-38-15.63-42-19.45c-3.84-3.7-7.58-4.32-12.46-2.13-.81.36-1.6.77-2.41,1.11-9,3.8-9.78,4.89-9.78,14.57,0,10.28,0,10.28-10.24,10.28h-4c-3.88,0-7.75-.06-11.62,0-2.16,0-3-.87-2.94-3,.06-3.66,0-7.32,0-11,0-4.92-2.42-8.14-7-9.86-1.45-.55-2.9-1.07-4.32-1.73-6.16-2.8-9.34-2.28-14.07,2.38-2.29,2.26-4.61,4.48-6.82,6.83-1.41,1.5-2.55,1.72-4.12.11q-8-8.23-16.18-16.25c-1.59-1.53-1.54-2.66,0-4.12,2.65-2.52,5.21-5.11,7.75-7.77,3.36-3.48,4.12-7.46,2.07-11.91-.73-1.61-1.43-3.24-2.06-4.9-1.93-5.08-5.36-7.55-10.84-7.63-3.33,0-6.66-.06-10,0-2.21.07-3.24-.65-3.24-3,0-7.42-.1-14.86-.32-22.27-.08-2.85.91-4.13,3.83-3.94,3.42.22,6.85.36,10.28.36,5.21,0,8.24-2.26,10.08-7.08.44-1.14.85-2.29,1.34-3.41,3.3-7.58,2.86-9.92-3.08-15.91-2-2-3.89-4-5.89-5.87-1.38-1.31-1.62-2.41-.12-3.88q8.31-8.16,16.47-16.42c1.42-1.45,2.49-1.43,3.87,0,2.44,2.53,5,5,7.53,7.48,4,3.9,7.68,4.5,12.69,2.21,1-.45,2-.92,3-1.33,7.7-3,9-5,9-13.08,0-2.88.06-5.76,0-8.65,0-1.91.68-2.85,2.72-2.85q11.64.09,23.28,0c2.2,0,2.9,1,2.86,3.07-.06,3.66,0,7.32,0,11,0,4.76,2.32,8,6.71,9.69,1.44.57,2.92,1,4.33,1.7,6.61,3,9.53,2.47,14.59-2.54,2.29-2.26,4.6-4.5,6.83-6.82,1.28-1.33,2.3-1.33,3.63,0q8.3,8.42,16.7,16.7c1.35,1.35,1.16,2.4-.11,3.64q-4.05,4-8,8c-3.36,3.49-4,7.49-2,11.92.41.91.86,1.8,1.25,2.72,3.85,9.11,5,9.78,14.89,9.78s9.91,0,9.91,10c0,5-.18,10,.06,14.94C2.37-65.09,1.15-64.15-1.84-64.34Z" transform="translate(172.87 170.76)"/>
    <path class="cls-1" d="M-81-114.69c-20.07,0-35.69,16-35.84,36.73-.13,18.84,16.44,35,35.86,35s36-16.25,35.87-35.38C-45.25-98.67-61.06-114.69-81-114.69ZM-53.8-78.43A27.11,27.11,0,0,1-81.18-51.59a27.21,27.21,0,0,1-27-27.3A27.21,27.21,0,0,1-80.92-106,27.2,27.2,0,0,1-53.8-78.72Z" transform="translate(172.87 170.76)"/>
  </g>
</svg>
