<svg id="Layer_1" data-name="Layer 1" xmlns="http://www.w3.org/2000/svg" viewBox="0 0 210.94 281.25">
  <defs>
    <style>
      .cls-1 {
        fill: #9acd8d;
      }
    </style>
  </defs>
  <path class="cls-1" d="M249.32,65,190.73,6.44a5.86,5.86,0,0,0-4.15-1.71h-123A23.46,23.46,0,0,0,40.1,28.16V262.54A23.46,23.46,0,0,0,63.54,286H227.6A23.46,23.46,0,0,0,251,262.54V69.18A5.83,5.83,0,0,0,249.32,65ZM192.44,24.73,231,63.32H204.16A11.74,11.74,0,0,1,192.44,51.6Zm46.88,237.81a11.74,11.74,0,0,1-11.72,11.72H63.54a11.74,11.74,0,0,1-11.72-11.72V28.16A11.74,11.74,0,0,1,63.54,16.44H180.72V51.6A23.46,23.46,0,0,0,204.16,75h35.16Z" transform="translate(-40.1 -4.73)"/>
  <g>
    <path class="cls-1" d="M219.79,97.67H160V87.33A9.44,9.44,0,0,0,148.78,78L69.61,92.89a9.44,9.44,0,0,0-7.72,9.28V211a9.44,9.44,0,0,0,7.71,9.28l79.12,14.84a9,9,0,0,0,1.8.18,9.44,9.44,0,0,0,9.44-9.45V215.53h59.83a9.45,9.45,0,0,0,9.45-9.44v-99A9.46,9.46,0,0,0,219.79,97.67ZM151,225.88a.46.46,0,0,1-.17.35.44.44,0,0,1-.36.08L71.25,211.47a.45.45,0,0,1-.36-.44V102.17a.45.45,0,0,1,.37-.44l79.26-14.86h0a.48.48,0,0,1,.25.1l0,0a.42.42,0,0,1,.15.34Zm69.28-19.79a.45.45,0,0,1-.45.44H160V191.24h10.35a5,5,0,1,0,0-9.9H160v-9.89h10.35a4.95,4.95,0,0,0,0-9.9H160v-9.9h10.35a4.95,4.95,0,1,0,0-9.89H160v-9.9h10.35a5,5,0,0,0,0-9.9H160V106.67h59.83a.45.45,0,0,1,.45.45Z" transform="translate(-40.1 -4.73)"/>
    <path class="cls-1" d="M200,122h-9.9a4.95,4.95,0,1,0,0,9.9H200a4.95,4.95,0,0,0,0-9.9Z" transform="translate(-40.1 -4.73)"/>
    <path class="cls-1" d="M200,141.76h-9.9a4.95,4.95,0,1,0,0,9.89H200a4.95,4.95,0,1,0,0-9.89Z" transform="translate(-40.1 -4.73)"/>
    <path class="cls-1" d="M200,161.55h-9.9a4.95,4.95,0,0,0,0,9.9H200a4.95,4.95,0,0,0,0-9.9Z" transform="translate(-40.1 -4.73)"/>
    <path class="cls-1" d="M200,181.34h-9.9a4.95,4.95,0,1,0,0,9.9H200a4.95,4.95,0,0,0,0-9.9Z" transform="translate(-40.1 -4.73)"/>
    <path class="cls-1" d="M118.8,155.26l15.82-20.35a5,5,0,0,0-7.81-6.09l-14.65,18.85L99.81,133.55a4.95,4.95,0,0,0-7.45,6.51L106,155.62,92.18,173.36a4.95,4.95,0,0,0,7.81,6.07l12.62-16.23L127,179.64a4.94,4.94,0,1,0,7.44-6.5Z" transform="translate(-40.1 -4.73)"/>
  </g>
</svg>
