<svg id="Layer_1" data-name="Layer 1" xmlns="http://www.w3.org/2000/svg" viewBox="0 0 272.06 311.38">
  <defs>
    <style>
      .cls-1 {
        fill: #9acd8d;
      }

      .cls-2 {
        fill: #0e3004;
      }

      .cls-3 {
        fill: #fff;
      }
    </style>
  </defs>
  <path class="cls-1" d="M246.31,119.84H44.39a5.32,5.32,0,0,0-5.31,5.32V246.31a5.31,5.31,0,0,0,5.31,5.31H246.31a5.31,5.31,0,0,0,5.31-5.31V125.16A5.32,5.32,0,0,0,246.31,119.84ZM89.62,241H49.7V211.24H89.62Zm0-40.39H49.7V170.86H89.62Zm0-40.38H49.7V130.47H89.62ZM140.1,241H100.25V211.24H140.1Zm0-40.39H100.25V170.86H140.1Zm0-40.38H100.25V130.47H140.1ZM190.58,241H150.73V211.24h39.85Zm0-40.39H150.73V170.86h39.85Zm0-40.38H150.73V130.47h39.85ZM241,241H201.21V211.24H241Zm0-40.39H201.21V170.86H241Zm0-40.38H201.21V130.47H241Z" transform="translate(-9.32 -9.32)"/>
  <g>
    <rect class="cls-2" x="40.38" y="161.54" width="39.92" height="29.75"/>
    <rect class="cls-2" x="90.67" y="161.28" width="39.85" height="29.75"/>
    <rect class="cls-2" x="191.63" y="120.89" width="39.79" height="29.76"/>
    <rect class="cls-2" x="141.15" y="120.89" width="39.85" height="29.76"/>
  </g>
  <g>
    <path class="cls-1" d="M276.07,30.58H248.43V26.32a17,17,0,1,0-34,0v4.26H191.05V26.32a17,17,0,0,0-34,0v4.26H133.66V26.32a17,17,0,0,0-34,0v4.26H76.27V26.32a17,17,0,1,0-34,0v4.26H14.63a5.31,5.31,0,0,0-5.31,5.31V276.07a5.31,5.31,0,0,0,5.31,5.31H276.07a5.31,5.31,0,0,0,5.31-5.31V35.89A5.31,5.31,0,0,0,276.07,30.58Zm-51-4.26a6.38,6.38,0,0,1,12.76,0V49.7a6.38,6.38,0,0,1-12.76,0Zm-57.38,0a6.38,6.38,0,0,1,12.75,0V49.7a6.38,6.38,0,1,1-12.75,0Zm-57.39,0a6.38,6.38,0,0,1,12.75,0V49.7a6.38,6.38,0,1,1-12.75,0Zm-57.39,0a6.38,6.38,0,0,1,12.76,0V49.7a6.38,6.38,0,1,1-12.76,0ZM270.75,90.09H169.26a5.32,5.32,0,0,0,0,10.63H270.75v170H20v-170H121.44a5.32,5.32,0,0,0,0-10.63H20V41.2H42.27v8.5a17,17,0,1,0,34,0V41.2H99.65v8.5a17,17,0,1,0,34,0V41.2H157v8.5a17,17,0,1,0,34,0V41.2h23.38v8.5a17,17,0,1,0,34,0V41.2h22.32Z" transform="translate(-9.32 -9.32)"/>
    <path class="cls-1" d="M145.35,90.09a5.31,5.31,0,1,0,3.76,1.56A5.36,5.36,0,0,0,145.35,90.09Z" transform="translate(-9.32 -9.32)"/>
  </g>
  <g>
    <path d="M265.59,216.75a13.72,13.72,0,0,0-7.72,2.35,13.89,13.89,0,0,0-13.08-9.28,13.73,13.73,0,0,0-7.71,2.35,13.87,13.87,0,0,0-20-7.43V175.16a13.86,13.86,0,0,0-27.72,0v73.52l-20.49-12.56-.16-.1a13.53,13.53,0,0,0-7.08-2,13.89,13.89,0,0,0-13.86,13.88,13.49,13.49,0,0,0,2.16,7.42l.05.07,31.77,50.65a31,31,0,0,0,26.42,14.62h40.1a31.22,31.22,0,0,0,31.19-31.19v-58.9A13.87,13.87,0,0,0,265.59,216.75Zm6.93,72.76a24.29,24.29,0,0,1-24.26,24.26h-40.1a24.14,24.14,0,0,1-20.56-11.36l-31.86-50.8s-.05-.1-.08-.14a6.7,6.7,0,0,1-1-3.53,6.93,6.93,0,0,1,6.93-6.93,6.58,6.58,0,0,1,3.55,1l.22.14L191,257.81l.09.06.13.06.19.1.1,0,.24.09s.05,0,.08,0l.24.06h.1a.91.91,0,0,0,.23,0,.27.27,0,0,0,.12,0H193a.68.68,0,0,0,.21,0h.1l.25,0h0l.29-.07a0,0,0,0,1,0,0l.29-.11,0,0,.24-.13.09,0a2,2,0,0,1,.18-.13l.12-.09a1.3,1.3,0,0,1,.15-.1l.13-.14a.39.39,0,0,0,.1-.08.75.75,0,0,1,.15-.16.3.3,0,0,0,.07-.11,1.12,1.12,0,0,0,.13-.16.26.26,0,0,0,.07-.11s0-.05.06-.08l0-.08s.05-.09.07-.15a1.14,1.14,0,0,0,.09-.16s0-.1.05-.15a.49.49,0,0,0,.06-.17.38.38,0,0,0,0-.15.53.53,0,0,0,.05-.19,1.21,1.21,0,0,1,0-.14,1.25,1.25,0,0,0,0-.19s0-.1,0-.15V255a.25.25,0,0,0,0-.08V175.16a6.93,6.93,0,1,1,13.86,0v72.78a3.47,3.47,0,0,0,6.93,0V216.75a6.93,6.93,0,0,1,13.86,0v31.19a3.47,3.47,0,0,0,6.93,0V223.68a6.94,6.94,0,0,1,13.87,0v24.26a3.47,3.47,0,0,0,6.93,0V230.61a6.93,6.93,0,0,1,13.86,0Z" transform="translate(-9.32 -9.32)"/>
    <path class="cls-3" d="M272.52,230.61v58.9a24.29,24.29,0,0,1-24.26,24.26h-40.1a24.14,24.14,0,0,1-20.56-11.36l-31.86-50.8s-.05-.1-.08-.14a6.7,6.7,0,0,1-1-3.53,6.93,6.93,0,0,1,6.93-6.93,6.58,6.58,0,0,1,3.55,1l.22.14L191,257.81l.09.06.13.06.19.1.1,0,.24.09s.05,0,.08,0l.24.06h.1a.91.91,0,0,0,.23,0,.27.27,0,0,0,.12,0H193a.68.68,0,0,0,.21,0h.1l.25,0h0l.29-.07a0,0,0,0,1,0,0l.29-.11,0,0,.24-.13.09,0a2,2,0,0,1,.18-.13l.12-.09a1.3,1.3,0,0,1,.15-.1l.13-.14a.39.39,0,0,0,.1-.08.75.75,0,0,1,.15-.16.3.3,0,0,0,.07-.11,1.12,1.12,0,0,0,.13-.16.26.26,0,0,0,.07-.11s0-.05.06-.08l0-.08s.05-.09.07-.15a1.14,1.14,0,0,0,.09-.16s0-.1.05-.15a.49.49,0,0,0,.06-.17.38.38,0,0,0,0-.15.53.53,0,0,0,.05-.19,1.21,1.21,0,0,1,0-.14,1.25,1.25,0,0,0,0-.19s0-.1,0-.15V255a.25.25,0,0,0,0-.08V175.16a6.93,6.93,0,1,1,13.86,0v72.78a3.47,3.47,0,0,0,6.93,0V216.75a6.93,6.93,0,0,1,13.86,0v31.19a3.47,3.47,0,0,0,6.93,0V223.68a6.94,6.94,0,0,1,13.87,0v24.26a3.47,3.47,0,0,0,6.93,0V230.61a6.93,6.93,0,0,1,13.86,0Z" transform="translate(-9.32 -9.32)"/>
  </g>
</svg>
