<svg id="Layer_1" data-name="Layer 1" xmlns="http://www.w3.org/2000/svg" viewBox="0 0 296.72 296.71"><defs><style>.cls-1{fill:#9acd8d;}</style></defs><path class="cls-1" d="M359,89c-2.66-3-13.64-13-24.8-13.37h-.68a16.89,16.89,0,0,0-12.31,5.11l-88.72,88.71h-.15a7.09,7.09,0,0,0-5.07,2.11,7.21,7.21,0,0,0,0,10.19,7.19,7.19,0,0,0,12.29-5.21l64.31-64.31c11.71,3.19,26,11.37,31.91,32L332,148h-.15a7.07,7.07,0,0,0-5.07,2.09,7.21,7.21,0,1,0,12.29,5l28.21-28.22a16.84,16.84,0,0,0,5.09-13C371.94,102.7,361.94,91.69,359,89Zm-16.61,52.83c-6.71-23-22.63-32.43-36.15-36.22l19.92-19.94a10,10,0,0,1,7.79-3c8.68.33,18.46,9.45,19.9,11.11a2.56,2.56,0,0,0,.43.44c1.67,1.44,10.8,11.22,11.12,19.9a10,10,0,0,1-3.05,7.78Z" transform="translate(-75.64 -75.64)"/><path class="cls-1" d="M369.35,113.94c-.37-10.17-10.11-20.7-12.52-22.79-2.06-2.39-12.6-12.13-22.77-12.5a14,14,0,0,0-10.76,4.22l-89.78,89.77a4.21,4.21,0,1,0,2.83,2.84l66.57-66.58c13.31,3.2,30,12.11,36.17,36.21l-6,6a4.2,4.2,0,1,0,1.78,7,4.16,4.16,0,0,0,1-4.16l29.27-29.27A13.93,13.93,0,0,0,369.35,113.94Zm-27,27.91c-6.71-23-22.63-32.43-36.15-36.22l19.92-19.94a10,10,0,0,1,7.79-3c8.68.33,18.46,9.45,19.9,11.11a2.56,2.56,0,0,0,.43.44c1.67,1.44,10.8,11.22,11.12,19.9a10,10,0,0,1-3.05,7.78Z" transform="translate(-75.64 -75.64)"/><path class="cls-1" d="M314,173.07a7.2,7.2,0,0,0-12.3,5.22L148.24,331.7c-7-18.7-20.25-27.69-31.88-32L192,224.08l.15,0a7.13,7.13,0,0,0,5.07-2.1A7.21,7.21,0,1,0,187,211.8a7.13,7.13,0,0,0-2.1,5.21l-80.45,80.45a9,9,0,0,0-1.87,2.77L76.36,361.44a7.78,7.78,0,0,0,1.48,8.74,7.54,7.54,0,0,0,5.35,2.18,8.42,8.42,0,0,0,3.38-.72l61.22-26.21a8.83,8.83,0,0,0,2.75-1.87L308.73,185.37h.15a7.12,7.12,0,0,0,5.08-2.11A7.21,7.21,0,0,0,314,173.07ZM82.79,365.23c-.19-.19-.18-.6,0-1l6.62-15.44c5.44,1.45,9.11,4.61,10.94,9.38l-16.54,7.08A1,1,0,0,1,82.79,365.23ZM104,356.56c-2.69-6.89-8.12-10.08-13-11.52l17.35-40.5c13,3.32,28.9,12.17,35.1,35.13Z" transform="translate(-75.64 -75.64)"/><path class="cls-1" d="M311.83,175.19a4.19,4.19,0,0,0-7,4.17L146.93,337.26c-6.7-23-22.63-32.43-36.15-36.22l80.12-80.12a4.2,4.2,0,1,0-1.78-7,4.16,4.16,0,0,0-1,4.16L106.57,299.6a5.77,5.77,0,0,0-1.23,1.8L79.12,362.62a4.82,4.82,0,0,0,.84,5.43,4.48,4.48,0,0,0,3.23,1.31,5.5,5.5,0,0,0,2.2-.48l61.22-26.21a6.31,6.31,0,0,0,1.81-1.23L307.67,182.19a4.2,4.2,0,0,0,4.16-7Zm-228,190a1,1,0,0,1-1,0c-.19-.19-.18-.6,0-1l6.62-15.44c5.44,1.45,9.11,4.61,10.94,9.38ZM104,356.56c-2.69-6.89-8.12-10.08-13-11.52l17.35-40.5c13,3.32,28.9,12.17,35.1,35.13Z" transform="translate(-75.64 -75.64)"/></svg>