<svg id="Layer_1" data-name="Layer 1" xmlns="http://www.w3.org/2000/svg" viewBox="0 0 448.05 273.54">
  <defs>
    <style>
      .cls-1 {
        fill: #9acd8d;
      }
    </style>
  </defs>
  <path class="cls-1" d="M224,259a61.4,61.4,0,1,0-61.39-61.4A61.47,61.47,0,0,0,224,259Zm0-115.53a54.14,54.14,0,1,1-54.13,54.13A54.19,54.19,0,0,1,224,143.5Z" transform="translate(0 -100.22)"/>
  <path class="cls-1" d="M289,247.05a4.19,4.19,0,0,0-2.86-1.17H286a4.14,4.14,0,0,0-2.92,1.43,77,77,0,0,1-118,0,4.14,4.14,0,0,0-2.91-1.43h-.21a4,4,0,0,0-2.81,1.17c-21,20.3-33,49.46-33,80.05,0,9.39,4.29,17.71,12.78,24.82,16.38,13.67,48.24,21.84,85.25,21.84a225.43,225.43,0,0,0,33.35-2.44,6.41,6.41,0,0,0,4.19,1.59,8.32,8.32,0,0,0,1.11-.1A6.47,6.47,0,0,0,261.67,360a8.33,8.33,0,0,0-1.12.11,6.43,6.43,0,0,0-4.5,3.23,216.58,216.58,0,0,1-32.19,2.34c-34.88,0-64.68-7.48-79.68-20-6.52-5.46-9.86-11.72-9.86-18.56,0-26.77,10-52.64,27.51-71.2a85.16,85.16,0,0,0,124.49,0c17.49,18.56,27.52,44.38,27.52,71.2,0,8-4.46,15.06-13.21,21.1a6.5,6.5,0,0,0-8.32,4.25,6.67,6.67,0,0,0,.53,4.93,6.47,6.47,0,0,0,5.67,3.39,6.26,6.26,0,0,0,3.08-.8,6.47,6.47,0,0,0,3.34-4.87c11.19-7.64,17.07-17.29,17.07-28C322,296.51,310,267.35,289,247.05Z" transform="translate(0 -100.22)"/>
  <g>
    <path class="cls-1" d="M80.33,100.22a50.36,50.36,0,1,0,50.36,50.36A50.42,50.42,0,0,0,80.33,100.22Zm0,94.76a44.4,44.4,0,1,1,44.4-44.4A44.46,44.46,0,0,1,80.33,195Z" transform="translate(0 -100.22)"/>
    <path class="cls-1" d="M158.88,238.26a11.92,11.92,0,0,0-5.41,3.08c-.24.23-.47.46-.71.71a84.17,84.17,0,0,0-21.33-43.68,69.86,69.86,0,0,1-102.12,0C15,213.6,6.74,234.82,6.74,256.78c0,5.61,2.74,10.74,8.09,15.22,12.31,10.27,36.75,16.4,65.37,16.4a176.54,176.54,0,0,0,26.39-1.92,5.29,5.29,0,0,1,3.7-2.65,7,7,0,0,1,.91-.09,5.31,5.31,0,0,1,.92,10.53,7.16,7.16,0,0,1-.92.09,5.24,5.24,0,0,1-3.43-1.31,184.19,184.19,0,0,1-27.36,2c-30.35,0-56.49-6.7-69.93-17.92C3.52,271.31,0,264.48,0,256.78c0-25.09,9.87-49,27.05-65.67a3.27,3.27,0,0,1,2.31-1h.17a3.44,3.44,0,0,1,2.39,1.18,63.19,63.19,0,0,0,96.81,0,3.44,3.44,0,0,1,2.39-1.18h.18a3.41,3.41,0,0,1,2.34,1A90,90,0,0,1,158.88,238.26Z" transform="translate(0 -100.22)"/>
  </g>
  <g>
    <path class="cls-1" d="M317.36,150.58a50.37,50.37,0,1,0,50.36-50.36A50.42,50.42,0,0,0,317.36,150.58Zm6,0a44.41,44.41,0,1,1,44.4,44.4A44.45,44.45,0,0,1,323.32,150.58Z" transform="translate(0 -100.22)"/>
    <path class="cls-1" d="M289.17,238.26a11.92,11.92,0,0,1,5.41,3.08c.24.23.47.46.71.71a84.17,84.17,0,0,1,21.33-43.68,69.86,69.86,0,0,0,102.12,0c14.35,15.23,22.57,36.45,22.57,58.41,0,5.61-2.74,10.74-8.09,15.22-12.31,10.27-36.75,16.4-65.37,16.4a176.54,176.54,0,0,1-26.39-1.92,5.29,5.29,0,0,0-3.7-2.65,7,7,0,0,0-.91-.09,5.31,5.31,0,0,0-.92,10.53,7.16,7.16,0,0,0,.92.09,5.24,5.24,0,0,0,3.43-1.31,184.19,184.19,0,0,0,27.36,2c30.35,0,56.49-6.7,69.93-17.92,7-5.82,10.48-12.65,10.48-20.35,0-25.09-9.87-49-27.05-65.67a3.27,3.27,0,0,0-2.31-1h-.17a3.44,3.44,0,0,0-2.39,1.18,63.19,63.19,0,0,1-96.81,0,3.44,3.44,0,0,0-2.39-1.18h-.18a3.41,3.41,0,0,0-2.34,1A90,90,0,0,0,289.17,238.26Z" transform="translate(0 -100.22)"/>
  </g>
</svg>
