<?xml version="1.0" encoding="utf-8"?>
<!-- Generator: Adobe Illustrator 22.0.0, SVG Export Plug-In . SVG Version: 6.00 Build 0)  -->
<svg version="1.1" id="Layer_1" xmlns="http://www.w3.org/2000/svg" xmlns:xlink="http://www.w3.org/1999/xlink" x="0px" y="0px"
	 viewBox="0 0 448 448" style="enable-background:new 0 0 448 448;" xml:space="preserve">
<style type="text/css">
	.st0{fill:#9ACD8D;}
</style>
<g>
	<path class="st0" d="M351.5,345.6c-5.8,0-10.5-4.6-10.5-10.3c0-5.3,4-9.6,9.2-10.2l42.1-79.3l-4.7-3.8l-0.1-0.1
		c-6.5-6-14.9-9.3-23.8-9.3c-0.7,0-1.5,0-2.3,0.1c-9.7,0.7-18.8,5.4-24.9,12.9l-23.1,27.6c-1.2,1.5-3,2.3-5,2.3
		c-0.8,0-1.6-0.1-2.3-0.4c-2.4-0.8-4.2-3.2-4.2-5.9L302,79.5c0-13-9.9-23.6-22-23.6c-11.9,0-21.6,10-22,22.7c0,0,0,136.4,0,142.8
		c2.3,1.9,3.7,4.8,3.7,7.8c0,5.7-4.7,10.3-10.5,10.3c-5.8,0-10.5-4.6-10.5-10.3c0-3.4,1.6-6.4,4.3-8.3c0-7.1,0-82.3,0-82.3l0-58.6
		l0-0.1v-0.1c0-0.5,0-0.8,0-1.2l0-42.2c0-13-9.9-23.5-22-23.5h-0.7c-12.3,0-22.3,10.5-22.3,23.4v185c2.5,1.9,4,4.9,4,8
		c0,5.7-4.7,10.3-10.5,10.3c-5.8,0-10.5-4.6-10.5-10.3c0-3.2,1.5-6.1,4-8.1V60.7c0-13-9.8-23.6-21.8-23.6
		c-12.1,0-21.9,10.6-21.9,23.6v160.5c2.4,1.9,3.9,4.8,3.9,8c0,5.7-4.7,10.3-10.5,10.3s-10.5-4.6-10.5-10.3c0-3.2,1.6-6.2,4.1-8.2
		v-92.5c0-12.8-9.9-23.2-22.2-23.2h-0.6c-12.1,0-22,10.5-22,23.3c0,17.7-0.1,40-0.1,64.9c2.5,1.9,4.1,4.9,4.1,8.1
		c0,5.7-4.7,10.3-10.5,10.3s-10.5-4.6-10.5-10.3c0-3.2,1.5-6.1,3.9-8c0-25.1,0-47.4,0.1-65.1c0.1-19.8,15.8-36,35-36h0.6
		c7.9,0,15.1,2.2,20.4,6.3l1.8,1.4V60.7c0-20,15.7-36.2,34.9-36.2c7.5,0,14.8,2.5,20.7,7.1l1.5,1.2l0.3-1.8
		C190.2,13.2,205,0,222.2,0h0.7c19.1,0,34.6,16.2,34.6,36.1v15l1.7-1.1c7-4.6,13.5-6.8,20.5-6.8c19.4,0,35.2,16.3,35.2,36.3l0.1,172
		l11.6-13.9c8.3-10.2,20.8-16.6,34-17.5c1.1-0.1,2.2-0.1,3.2-0.1c12,0,23.4,4.4,32.2,12.4l8.5,6.9c2.3,1.9,3,5.2,1.6,7.8l-44.9,84.6
		c0.4,1.2,0.7,2.4,0.7,3.6C362,341,357.3,345.6,351.5,345.6z"/>
	<path class="st0" d="M402.4,242l-8.5-6.9l-0.2-0.1c-8.1-7.4-18.7-11.5-29.8-11.5c-1,0-2,0-3,0.1c-12.3,0.9-23.8,6.8-31.6,16.3
		l-17.8,21.3l-0.1-181.6c0-18.1-14.2-32.8-31.7-32.8c-6.3,0-12.2,2-18.6,6.2l-7.1,4.7V36.1c0-18-14-32.7-31.1-32.7h-0.7
		c-15.5,0-28.8,12-31.1,27.9L190,39l-6.3-4.8c-5.2-4.1-11.8-6.3-18.5-6.4c-17.3,0-31.4,14.7-31.4,32.8v46.7l-7.4-5.7
		c-4.7-3.6-11.1-5.6-18.2-5.6h-0.6c-17.3,0-31.4,14.6-31.5,32.6c0,18.2-0.1,41.2-0.1,67c-2.3,1.1-3.9,3.4-3.9,6.1
		c0,3.8,3.1,6.9,7,6.9s7-3.1,7-6.9c0-2.8-1.7-5.1-4.1-6.2c0-25.8,0-48.7,0.1-66.9c0-14.8,11.5-26.8,25.5-26.8h0.6
		c14.1,0,25.7,11.9,25.7,26.6v94.4c-2.4,1.1-4.1,3.5-4.1,6.2c0,3.8,3.1,6.9,7,6.9s7-3.1,7-6.9c0-2.7-1.6-5-3.9-6.1V60.7
		c0-14.9,11.4-27,25.4-27c14,0,25.3,12.1,25.3,27V223c-2.4,1.1-4,3.4-4,6.2c0,3.8,3.1,6.9,7,6.9c3.9,0,7-3.1,7-6.9
		c0-2.7-1.6-5.1-4-6.2V36.1c0-14.8,11.6-26.9,25.8-26.9h0.7c14.1,0,25.5,12.1,25.5,26.9v42.4c0,0.3,0,0.7,0,1l0,0.2l0,58.7
		c0,36.8,0,73.2,0,84.3c-2.5,1-4.3,3.5-4.3,6.3c0,3.8,3.1,6.9,7,6.9c3.9,0,7-3.1,7-6.9c0-2.6-1.5-4.8-3.7-6c0-10,0-42.5,0-76.8
		l0-67.8c0.5-14.6,11.7-26,25.5-26c14.1,0,25.5,12.1,25.5,27l0.1,189.7c0,1.2,0.8,2.3,2,2.7c0.3,0.1,0.6,0.2,1,0.2
		c0.9,0,1.7-0.4,2.3-1.1l23.1-27.5c6.7-8.2,16.7-13.4,27.4-14.2c0.8-0.1,1.7-0.1,2.5-0.1c9.7,0,19,3.6,26.2,10.2l6.8,5.5l-44.4,83.6
		c-0.3,0-0.6-0.1-0.9-0.1c-3.9,0-7,3.1-7,6.9c0,3.8,3.1,6.9,7,6.9c3.9,0,7-3.1,7-6.9c0-1.3-0.4-2.6-1.1-3.7l45.8-86.2
		C403.8,244.3,403.5,242.8,402.4,242z"/>
	<path class="st0" d="M157.1,448c-46.6,0-84.5-39.5-84.6-88.1c0-35.8-0.1-73.5-0.1-109c-2.5-1.9-3.9-4.8-3.9-8
		c0-5.7,4.7-10.3,10.5-10.3s10.5,4.6,10.5,10.3c0,3.2-1.5,6.2-4.1,8.1c0,35.5,0,73.1,0.1,108.9c0,41.6,32.2,75.5,71.7,75.5h92.6
		c25.9,0,49.9-14.8,62.5-38.6L328,367c-0.6-1.3-1-2.8-1-4.3c0-5.7,4.7-10.3,10.5-10.3c5.8,0,10.5,4.6,10.5,10.3
		c0,5-3.7,9.2-8.5,10.1l-15.8,29.7c-14.9,28-43.2,45.4-74,45.4H157.1z"/>
	<path class="st0" d="M337.5,355.9c-3.9,0-7,3.1-7,6.9c0,1.6,0.6,3,1.5,4.2l-16.7,31.4c-13.2,25-38.4,40.5-65.6,40.5h-92.6
		c-41.4,0-75.1-35.4-75.2-78.9c0-36.4-0.1-74.8-0.1-110.8c2.4-1.1,4.1-3.5,4.1-6.2c0-3.8-3.1-6.9-7-6.9s-7,3.1-7,6.9
		c0,2.7,1.6,5,3.9,6.1c0,36.1,0.1,74.4,0.1,110.9c0.1,46.7,36.4,84.7,81.1,84.7h92.6c29.5,0,56.6-16.7,70.9-43.6l16.7-31.4
		c0.1,0,0.2,0,0.2,0c3.9,0,7-3.1,7-6.9C344.5,359,341.4,355.9,337.5,355.9z"/>
</g>
<path class="st0" d="M24,224"/>
</svg>
