<svg id="Capa_1" data-name="Capa 1" xmlns="http://www.w3.org/2000/svg" viewBox="0 0 308.15 394.44">
  <defs>
    <style>
      .cls-1 {
        fill: #9acd8d;
        opacity: 0.4;
      }
    </style>
  </defs>
  <path class="cls-1" d="M187.28,467.75a30.15,30.15,0,0,1-30.12-30.12v-201c1.71.08,3.4.12,5.09.12v200.9a25.05,25.05,0,0,0,25,25H388.55a25.06,25.06,0,0,0,25-25V139.85a25.06,25.06,0,0,0-25-25H275.61c-.19-1.7-.41-3.39-.66-5.09h113.6a30.18,30.18,0,0,1,30.12,30.12V437.63a30.15,30.15,0,0,1-30.12,30.12Z" transform="translate(-110.52 -73.3)"/>
  <path class="cls-1" d="M184.36,150.2a3.07,3.07,0,0,1-3.07-3.06V105.8a3.07,3.07,0,0,1,6.13,0v38.27h44.41a3.07,3.07,0,1,1,0,6.13Z" transform="translate(-110.52 -73.3)"/>
  <path class="cls-1" d="M184.36,221a73.83,73.83,0,1,1,73.83-73.82A73.91,73.91,0,0,1,184.36,221Zm0-141.53a67.7,67.7,0,1,0,67.7,67.71A67.79,67.79,0,0,0,184.36,79.43Z" transform="translate(-110.52 -73.3)"/>
  <path class="cls-1" d="M230.83,242.68a4,4,0,0,1,0-8.06H350.31a4,4,0,0,1,0,8.06Z" transform="translate(-110.52 -73.3)"/>
  <path class="cls-1" d="M231,309.58a4,4,0,0,1,0-8.06H350.51a4,4,0,0,1,0,8.06Z" transform="translate(-110.52 -73.3)"/>
  <path class="cls-1" d="M231,379.25a4,4,0,1,1,0-8.06H350.51a4,4,0,0,1,2.85,1.18,4,4,0,0,1-2.85,6.88Z" transform="translate(-110.52 -73.3)"/>
</svg>
