<svg id="Layer_1" data-name="Layer 1" xmlns="http://www.w3.org/2000/svg" viewBox="0 0 290 448"><defs><style>.cls-1,.cls-3{fill:none;stroke:#9acd8d;stroke-linecap:round;stroke-miterlimit:10;}.cls-1{stroke-width:16px;}.cls-2{fill:#9acd8d;}.cls-3{stroke-width:19px;}</style></defs><path class="cls-1" d="M224,234" transform="translate(-78.9)"/><path class="cls-2" d="M368.8,101.5v-.4a6.39,6.39,0,0,0-.6-1.6.76.76,0,0,0-.2-.5,7.63,7.63,0,0,0-1.3-1.7L272.6,2.4a7.63,7.63,0,0,0-1.7-1.3c-.2-.1-.3-.2-.5-.3a9.61,9.61,0,0,0-2-.7h-.2a7.08,7.08,0,0,0-1.4-.1H91.5a8.07,8.07,0,0,0-8.1,8.1V115a12.58,12.58,0,1,0,20.7,9.6,12.72,12.72,0,0,0-4.5-9.6V16.2H258.7V84.7a12.58,12.58,0,1,0,20.7,9.6,12.72,12.72,0,0,0-4.5-9.6V27.8l66.6,67.1H300.4a12.6,12.6,0,1,0,0,16.2h52.5V431.7H99.6v-241a12.58,12.58,0,1,0-20.7-9.6,12.72,12.72,0,0,0,4.5,9.6V439.9a8.07,8.07,0,0,0,8.1,8.1H360.8a8.07,8.07,0,0,0,8.1-8.1V103A7.57,7.57,0,0,0,368.8,101.5Z" transform="translate(-78.9)"/><line class="cls-3" x1="66.74" y1="173.5" x2="225.67" y2="173.5"/><line class="cls-3" x1="66.74" y1="234.4" x2="225.67" y2="234.4"/><line class="cls-3" x1="66.74" y1="295.3" x2="225.67" y2="295.3"/><line class="cls-3" x1="66.74" y1="356.2" x2="225.67" y2="356.2"/></svg>