<svg id="Layer_1" data-name="Layer 1" xmlns="http://www.w3.org/2000/svg" viewBox="0 0 255.62 261.04">
  <defs>
    <style>
      .cls-1 {
        fill: #9acd8d;
      }
    </style>
  </defs>
  <path class="cls-1" d="M145.35,275.87c-70.47,0-127.81-58.55-127.81-130.52S74.88,14.83,145.35,14.83,273.16,73.38,273.16,145.35,215.82,275.87,145.35,275.87Zm0-251c-65,0-117.81,54.06-117.81,120.52S80.39,265.87,145.35,265.87s117.81-54.06,117.81-120.52S210.31,24.83,145.35,24.83Z" transform="translate(-17.54 -14.83)"/>
  <path class="cls-1" d="M207.45,153.47h-62.1a5,5,0,0,1-5-5V66a5,5,0,0,1,10,0v77.47h57.1a5,5,0,0,1,0,10Z" transform="translate(-17.54 -14.83)"/>
</svg>
