<svg id="Layer_1" data-name="Layer 1" xmlns="http://www.w3.org/2000/svg" viewBox="0 0 292.55 188.5"><defs><style>.cls-1{fill:#9acd8d;}</style></defs><path class="cls-1" d="M285.25,153.2a5.27,5.27,0,1,1,5.15,5.39h0a5.27,5.27,0,0,1-5.15-5.39Z" transform="translate(-3.23 -60.24)"/><path class="cls-1" d="M278.37,248.74H20.25c-9.38,0-17-8-17-17.75V79.5C3.23,72.06,9,66,16.16,66H221.68a5.22,5.22,0,0,1,0,10.44H16.16a3,3,0,0,0-2.93,3V231a7.18,7.18,0,0,0,7,7.32H278.37a7.17,7.17,0,0,0,7-7.32V83.77a7.26,7.26,0,0,0-5.5-7.15L156.61,176.72l-.41.29a12.79,12.79,0,0,1-13.72.29c-.18-.12-.36-.24-.53-.37L62.83,114.09a5.37,5.37,0,0,1-1-7.31,4.87,4.87,0,0,1,7-1l78.82,62.6a3.18,3.18,0,0,0,3-.09L275.3,67.11a4.89,4.89,0,0,1,3.07-1.1c9.38,0,17,8,17,17.76V231C295.38,240.78,287.75,248.74,278.37,248.74Z" transform="translate(-3.23 -60.24)"/><path class="cls-1" d="M59.9,119a11.3,11.3,0,0,1-2-15.39,10.24,10.24,0,0,1,14.76-2.09,11.31,11.31,0,0,1,2,15.39A10.24,10.24,0,0,1,59.9,119Z" transform="translate(-3.23 -60.24)"/><path class="cls-1" d="M221.15,82.22a11,11,0,1,0-10.53-11A10.77,10.77,0,0,0,221.15,82.22Z" transform="translate(-3.23 -60.24)"/><path class="cls-1" d="M12.81,245.56a5.5,5.5,0,0,1-3.28-9.91l78-57.93a5.5,5.5,0,1,1,6.56,8.83l-78,57.93A5.51,5.51,0,0,1,12.81,245.56Z" transform="translate(-3.23 -60.24)"/><path class="cls-1" d="M96.12,190.05a9.51,9.51,0,1,0-13.31-2A9.51,9.51,0,0,0,96.12,190.05Z" transform="translate(-3.23 -60.24)"/><path class="cls-1" d="M286.12,244.51a5.44,5.44,0,0,1-3.24-1.06l-78.46-57.33a5.5,5.5,0,1,1,6.49-8.88l78.46,57.33a5.5,5.5,0,0,1-3.25,9.94Z" transform="translate(-3.23 -60.24)"/><path class="cls-1" d="M213.66,174.28a9.51,9.51,0,1,0,2.07,13.29A9.52,9.52,0,0,0,213.66,174.28Z" transform="translate(-3.23 -60.24)"/></svg>