<svg id="Layer_1" data-name="Layer 1" xmlns="http://www.w3.org/2000/svg" viewBox="0 0 386.37 358.14">
  <defs>
    <style>
      .cls-1 {
        fill: #9acd8d;
      }
    </style>
  </defs>
  <g>
    <path class="cls-1" d="M73.19,6H23.5A21.53,21.53,0,0,0,2,27.47V338.65a21.52,21.52,0,0,0,21.5,21.5H73.19a21.52,21.52,0,0,0,21.5-21.5V27.47A21.53,21.53,0,0,0,73.19,6Zm13.5,332.68a13.52,13.52,0,0,1-13.5,13.5H23.5A13.52,13.52,0,0,1,10,338.65V27.47A13.52,13.52,0,0,1,23.5,14H73.19a13.52,13.52,0,0,1,13.5,13.5Z" transform="translate(-2 -2.01)"/>
    <path class="cls-1" d="M70.47,40.66h-47a4,4,0,1,0,0,8h47a4,4,0,0,0,0-8Z" transform="translate(-2 -2.01)"/>
    <path class="cls-1" d="M70.47,57.51h-47a4,4,0,1,0,0,8h47a4,4,0,0,0,0-8Z" transform="translate(-2 -2.01)"/>
    <path class="cls-1" d="M70.47,317.46h-47a4,4,0,0,0,0,8h47a4,4,0,0,0,0-8Z" transform="translate(-2 -2.01)"/>
    <path class="cls-1" d="M70.47,300.61h-47a4,4,0,0,0,0,8h47a4,4,0,1,0,0-8Z" transform="translate(-2 -2.01)"/>
    <path class="cls-1" d="M189.56,6H139.87a21.53,21.53,0,0,0-21.5,21.5V338.65a21.52,21.52,0,0,0,21.5,21.5h49.69a21.52,21.52,0,0,0,21.5-21.5V27.47A21.52,21.52,0,0,0,189.56,6Zm13.5,332.68a13.52,13.52,0,0,1-13.5,13.5H139.87a13.52,13.52,0,0,1-13.5-13.5V27.47A13.52,13.52,0,0,1,139.87,14h49.69a13.52,13.52,0,0,1,13.5,13.5Z" transform="translate(-2 -2.01)"/>
    <path class="cls-1" d="M186.84,40.66h-47a4,4,0,0,0,0,8h47a4,4,0,0,0,0-8Z" transform="translate(-2 -2.01)"/>
    <path class="cls-1" d="M186.84,57.51h-47a4,4,0,1,0,0,8h47a4,4,0,0,0,0-8Z" transform="translate(-2 -2.01)"/>
    <path class="cls-1" d="M186.84,317.46h-47a4,4,0,0,0,0,8h47a4,4,0,0,0,0-8Z" transform="translate(-2 -2.01)"/>
    <path class="cls-1" d="M186.84,300.61h-47a4,4,0,0,0,0,8h47a4,4,0,1,0,0-8Z" transform="translate(-2 -2.01)"/>
    <path class="cls-1" d="M387.53,316.75,301.86,17.6A21.51,21.51,0,0,0,275.27,2.85L227.5,16.53a21.51,21.51,0,0,0-14.75,26.59l85.67,299.15a21.54,21.54,0,0,0,20.64,15.59A21.65,21.65,0,0,0,325,357l47.77-13.68a21.51,21.51,0,0,0,14.75-26.59Zm-8.86,12.47a13.44,13.44,0,0,1-8.09,6.43l-47.77,13.68a13.5,13.5,0,0,1-16.7-9.26L220.45,40.91a13.49,13.49,0,0,1,9.26-16.69l47.77-13.68a13.49,13.49,0,0,1,16.69,9.26L379.84,319A13.41,13.41,0,0,1,378.67,329.22Z" transform="translate(-2 -2.01)"/>
    <path class="cls-1" d="M284.4,44.63a4,4,0,1,0-2.2-7.7L237,49.86a4,4,0,0,0,1.1,7.85,4.22,4.22,0,0,0,1.1-.15Z" transform="translate(-2 -2.01)"/>
    <path class="cls-1" d="M286.84,53.13,241.68,66.06a4,4,0,0,0,1.1,7.85,4.22,4.22,0,0,0,1.1-.15L289,60.83a4,4,0,0,0-2.2-7.7Z" transform="translate(-2 -2.01)"/>
    <path class="cls-1" d="M358.42,303,313.26,316a4,4,0,0,0,1.1,7.85,4.22,4.22,0,0,0,1.1-.15l45.16-12.94a4,4,0,1,0-2.2-7.7Z" transform="translate(-2 -2.01)"/>
    <path class="cls-1" d="M356,294.53a4,4,0,0,0-2.2-7.7l-45.16,12.94a4,4,0,0,0,1.1,7.85,4.22,4.22,0,0,0,1.1-.15Z" transform="translate(-2 -2.01)"/>
  </g>
</svg>
