<svg id="Layer_1" data-name="Layer 1" xmlns="http://www.w3.org/2000/svg" viewBox="0 0 390.38 362.15"><defs><style>.cls-1{fill:#9acd8d;}.cls-2,.cls-3{fill:none;stroke:#9acd8d;stroke-width:12px;}.cls-2{stroke-miterlimit:10;}.cls-3{stroke-linecap:round;stroke-linejoin:round;}</style></defs><path class="cls-1" d="M24,224" transform="translate(-40.83 -54.89)"/><rect class="cls-2" x="6" y="9.97" width="84.69" height="346.18" rx="17.5"/><line class="cls-3" x1="23.49" y1="44.66" x2="70.47" y2="44.66"/><line class="cls-3" x1="23.49" y1="61.51" x2="70.47" y2="61.51"/><line class="cls-3" x1="23.49" y1="321.46" x2="70.47" y2="321.46"/><line class="cls-3" x1="23.49" y1="304.61" x2="70.47" y2="304.61"/><path class="cls-1" d="M140.37,224" transform="translate(-40.83 -54.89)"/><rect class="cls-2" x="122.37" y="9.97" width="84.69" height="346.18" rx="17.5"/><line class="cls-3" x1="139.86" y1="44.66" x2="186.84" y2="44.66"/><line class="cls-3" x1="139.86" y1="61.51" x2="186.84" y2="61.51"/><line class="cls-3" x1="139.86" y1="321.46" x2="186.84" y2="321.46"/><line class="cls-3" x1="139.86" y1="304.61" x2="186.84" y2="304.61"/><path class="cls-1" d="M274.48,239.34" transform="translate(-40.83 -54.89)"/><rect class="cls-2" x="298.63" y="61.72" width="84.69" height="346.18" rx="17.5" transform="translate(-92.3 48.07) rotate(-15.98)"/><line class="cls-3" x1="238.14" y1="53.71" x2="283.3" y2="40.78"/><line class="cls-3" x1="242.78" y1="69.91" x2="287.94" y2="56.98"/><line class="cls-3" x1="314.36" y1="319.82" x2="359.52" y2="306.88"/><line class="cls-3" x1="309.72" y1="303.62" x2="354.88" y2="290.68"/></svg>