<?xml version="1.0" encoding="utf-8"?>
<!-- Generator: Adobe Illustrator 22.0.0, SVG Export Plug-In . SVG Version: 6.00 Build 0)  -->
<svg version="1.1" id="Layer_1" xmlns="http://www.w3.org/2000/svg" xmlns:xlink="http://www.w3.org/1999/xlink" x="0px" y="0px"
	 viewBox="0 0 1336.1 514.1" style="enable-background:new 0 0 1336.1 514.1;" xml:space="preserve">
<style type="text/css">
	.st0{fill:#9ACD8D;}
	.st1{fill:#FFFFFF;}
</style>
<g>
	<g>
		<g>
			<path class="st0" d="M380.3,214.6v-94.8c2-1.1,3.4-3.1,3.4-5.6c0-3.4-2.7-6.2-6.2-6.2s-6.2,2.7-6.2,6.2c0,2.5,1.4,4.5,3.4,5.6
				v94.8c-2,1.1-3.4,3.1-3.4,5.6c0,3.4,2.7,6.2,6.2,6.2s6.2-2.7,6.2-6.2C383.7,217.8,382.3,215.7,380.3,214.6z"/>
		</g>
	</g>
	<g>
		<g>
			<path class="st0" d="M400.9,185.8v-48c2-1.1,3.4-3.1,3.4-5.6c0-3.4-2.7-6.2-6.2-6.2s-6.2,2.7-6.2,6.2c0,2.5,1.4,4.5,3.4,5.6v48
				c-2,1.1-3.4,3.1-3.4,5.6c0,3.4,2.7,6.2,6.2,6.2s6.2-2.7,6.2-6.2C404.4,188.9,402.9,186.7,400.9,185.8z"/>
		</g>
	</g>
	<g>
		<g>
			<path class="st0" d="M433.3,173.5c0-3.4-2.7-6.2-6.2-6.2s-6.2,2.7-6.2,6.2c0,2.5,1.4,4.5,3.4,5.6v9.1l-29.5,29.5v61.6
				c-2,1.1-3.4,3.1-3.4,5.6c0,3.4,2.7,6.2,6.2,6.2c3.4,0,6.2-2.7,6.2-6.2c0-2.5-1.4-4.5-3.4-5.6V220l29.5-29.5V179
				C431.9,178,433.3,176,433.3,173.5z"/>
		</g>
	</g>
	<g>
		<g>
			<path class="st0" d="M444.9,319.1v-15.5l-23.4-23.4v-47.7c2-1.1,3.4-3.1,3.4-5.6c0-3.4-2.7-6.2-6.2-6.2s-6.2,2.7-6.2,6.2
				c0,2.5,1.4,4.5,3.4,5.6v49.9l23.4,23.4v13.3c-2,1.1-3.4,3.1-3.4,5.6c0,3.4,2.7,6.2,6.2,6.2s6.2-2.7,6.2-6.2
				C448.4,322.3,447,320.2,444.9,319.1z"/>
		</g>
	</g>
	<g>
		<g>
			<path class="st0" d="M441.5,207.9c0-3.4-2.7-6.2-6.2-6.2s-6.2,2.7-6.2,6.2c0,2.5,1.4,4.5,3.4,5.6V298c0,1.5,1.2,2.7,2.7,2.7
				s2.7-1.2,2.7-2.7v-84.6C440.1,212.4,441.5,210.2,441.5,207.9z"/>
		</g>
	</g>
	<g>
		<g>
			<path class="st0" d="M420.1,335.7v-28.8c2-1.1,3.4-3.1,3.4-5.6c0-3.4-2.7-6.2-6.2-6.2s-6.2,2.7-6.2,6.2c0,2.5,1.4,4.5,3.4,5.6
				v28.8c-2,1.1-3.4,3.1-3.4,5.6c0,3.4,2.7,6.2,6.2,6.2s6.2-2.7,6.2-6.2C423.6,338.8,422.3,336.7,420.1,335.7z"/>
		</g>
	</g>
	<g>
		<g>
			<ellipse class="st0" cx="430.5" cy="363.3" rx="6.2" ry="6.2"/>
		</g>
	</g>
	<g>
		<g>
			<circle class="st0" cx="385.1" cy="394.8" r="6.2"/>
		</g>
	</g>
	<g>
		<g>
			<ellipse class="st0" cx="367.3" cy="411.4" rx="6.2" ry="6.2"/>
		</g>
	</g>
	<g>
		<g>
			<circle class="st0" cx="251.7" cy="460.9" r="6.2"/>
		</g>
	</g>
	<g>
		<g>
			<circle class="st0" cx="291.6" cy="363.3" r="6.2"/>
		</g>
	</g>
	<g>
		<g>
			<circle class="st0" cx="221.4" cy="460.9" r="6.2"/>
		</g>
	</g>
	<g>
		<g>
			<circle class="st0" cx="111.5" cy="429.2" r="6.2"/>
		</g>
	</g>
	<g>
		<g>
			<ellipse transform="matrix(0.9732 -0.2298 0.2298 0.9732 -91.8543 31.2243)" class="st0" cx="88.1" cy="410" rx="6.2" ry="6.2"/>
		</g>
	</g>
	<g>
		<g>
			<ellipse class="st0" cx="52.3" cy="203.7" rx="6.2" ry="6.2"/>
		</g>
	</g>
	<g>
		<g>
			<circle class="st0" cx="63.3" cy="147.4" r="6.2"/>
		</g>
	</g>
	<g>
		<g>
			<circle class="st0" cx="162.4" cy="77.1" r="6.2"/>
		</g>
	</g>
	<g>
		<g>
			<circle class="st0" cx="235.2" cy="63.5" r="6.2"/>
		</g>
	</g>
	<g>
		<g>
			<circle class="st0" cx="304" cy="63.5" r="6.2"/>
		</g>
	</g>
	<g>
		<g>
			<circle class="st0" cx="297.1" cy="89.6" r="6.2"/>
		</g>
	</g>
	<g>
		<g>
			<circle class="st0" cx="319.1" cy="139.1" r="6.2"/>
		</g>
	</g>
	<g>
		<g>
			<ellipse class="st0" cx="317.7" cy="162.4" rx="6.2" ry="6.2"/>
		</g>
	</g>
	<g>
		<g>
			<circle class="st0" cx="290.2" cy="177.6" r="6.2"/>
		</g>
	</g>
	<g>
		<g>
			<ellipse class="st0" cx="381" cy="311" rx="6.2" ry="6.2"/>
		</g>
	</g>
	<g>
		<g>
			<path class="st0" d="M384.4,333.1c-1.8-1.8-4.2-2.3-6.4-1.4l-29.7-29.7h-62.3c-1.1-2-3.1-3.4-5.6-3.4c-3.4,0-6.2,2.7-6.2,6.2
				s2.7,6.2,6.2,6.2c2.5,0,4.5-1.4,5.6-3.4h60l28,28c-0.7,2.1-0.2,4.6,1.4,6.4c2.4,2.4,6.4,2.4,8.8,0S386.8,335.6,384.4,333.1z"/>
		</g>
	</g>
	<g>
		<g>
			<path class="st0" d="M374.1,276.5c-2.5,0-4.5,1.4-5.6,3.4h-92.1c-1.1-2-3.1-3.4-5.6-3.4c-3.4,0-6.2,2.7-6.2,6.2s2.7,6.2,6.2,6.2
				c2.5,0,4.5-1.4,5.6-3.4h92.1c1.1,2,3.1,3.4,5.6,3.4c3.4,0,6.2-2.7,6.2-6.2S377.6,276.5,374.1,276.5z"/>
		</g>
	</g>
	<g>
		<g>
			<path class="st0" d="M381.7,238.8c-2.4-2.4-6.4-2.4-8.8,0c-1.8,1.8-2.1,4.2-1.4,6.4l-12.9,12.9h-20.2c-1.1-2-3.1-3.4-5.6-3.4
				c-3.4,0-6.2,2.7-6.2,6.2s2.7,6.2,6.2,6.2c2.5,0,4.5-1.4,5.6-3.4h22.4l14.5-14.5c2.1,0.7,4.6,0.2,6.4-1.4
				C384.1,245.1,384.1,241.2,381.7,238.8z"/>
		</g>
	</g>
	<g>
		<g>
			<path class="st0" d="M367.2,86.9c0-3.4-2.7-6.2-6.2-6.2s-6.2,2.7-6.2,6.2c0,2.5,1.4,4.5,3.4,5.6v83.4l-24.8,24.8v33.5
				c-2,1.1-3.4,3.1-3.4,5.6c0,3.4,2.7,6.2,6.2,6.2s6.2-2.7,6.2-6.2c0-2.5-1.4-4.5-3.4-5.6V203l24.8-24.8V92.6
				C365.8,91.4,367.2,89.2,367.2,86.9z"/>
		</g>
	</g>
	<g>
		<g>
			<path class="st0" d="M356.9,207.7v-24c0-1.5-1.2-2.7-2.7-2.7s-2.7,1.2-2.7,2.7v24c-2,1.1-3.4,3.1-3.4,5.6c0,3.4,2.7,6.2,6.2,6.2
				s6.2-2.7,6.2-6.2C360.4,210.9,358.9,208.8,356.9,207.7z"/>
		</g>
	</g>
	<g>
		<g>
			<path class="st0" d="M341.8,154.1v-21.9c2-1.1,3.4-3.1,3.4-5.6c0-3.4-2.7-6.2-6.2-6.2s-6.2,2.7-6.2,6.2c0,2.5,1.4,4.5,3.4,5.6
				v21.9c-2,1.1-3.4,3.1-3.4,5.6c0,3.4,2.7,6.2,6.2,6.2s6.2-2.7,6.2-6.2C345.3,157.2,343.9,155.2,341.8,154.1z"/>
		</g>
	</g>
	<g>
		<g>
			<path class="st0" d="M345.9,66.9c-2.6-2.1-6.5-1.8-8.8,0.9c-1.5,1.9-1.8,4.4-0.8,6.5l-21,25.7c-2.3-0.5-4.6,0.2-6.2,2.1
				c-2.1,2.6-1.8,6.5,0.9,8.8c2.6,2.1,6.5,1.8,8.8-0.9c1.5-1.9,1.8-4.4,0.8-6.5l21-25.7c2.3,0.5,4.6-0.2,6.2-2.1
				C349,73,348.6,69.1,345.9,66.9z"/>
		</g>
	</g>
	<g>
		<g>
			<path class="st0" d="M334.3,172c-2.4-2.4-6.4-2.4-8.8,0c-1.8,1.8-2.3,4.2-1.4,6.4l-16.6,16.6v60.9c-2,1.1-3.4,3.1-3.4,5.6
				c0,3.4,2.7,6.2,6.2,6.2s6.2-2.7,6.2-6.2c0-2.5-1.4-4.5-3.4-5.6v-58.6l14.9-14.9c2.1,0.7,4.6,0.2,6.4-1.4
				C336.6,178.4,336.6,174.5,334.3,172z"/>
		</g>
	</g>
	<g>
		<g>
			<path class="st0" d="M312.1,214.9l-16.5-16.5c0.7-2.1,0.2-4.6-1.4-6.4c-2.4-2.4-6.4-2.4-8.8,0c-2.4,2.4-2.4,6.4,0,8.8
				c1.8,1.8,4.2,2.3,6.4,1.4l16.5,16.5c0.6,0.6,1.2,0.8,1.9,0.8s1.4-0.2,1.9-0.8C313.1,217.7,313.1,215.9,312.1,214.9z"/>
		</g>
	</g>
	<g>
		<g>
			<path class="st0" d="M300.6,138.3c-2.4-2.4-6.4-2.4-8.8,0c-1.8,1.8-2.3,4.2-1.4,6.4l-29.4,29.4h-61.3c-1.1-2-3.1-3.4-5.6-3.4
				c-3.4,0-6.2,2.7-6.2,6.2s2.7,6.2,6.2,6.2c2.5,0,4.5-1.4,5.6-3.4h63.7l31-31c2.1,0.7,4.6,0.2,6.4-1.4
				C302.9,144.8,302.9,140.8,300.6,138.3z"/>
		</g>
	</g>
	<g>
		<g>
			<path class="st0" d="M287.2,68.6c-2.4-2.4-6.4-2.4-8.8,0c-1.8,1.8-2.3,4.2-1.4,6.4l-12.8,12.8v25.4l-19.1,19.1
				c-2.1-0.7-4.6-0.2-6.4,1.4c-2.4,2.4-2.4,6.4,0,8.8s6.4,2.4,8.8,0c1.8-1.8,2.3-4.2,1.4-6.4l20.6-20.6V90.1l11.2-11.2
				c2.1,0.7,4.6,0.2,6.4-1.4C289.5,75,289.5,71,287.2,68.6z"/>
		</g>
	</g>
	<g>
		<g>
			<path class="st0" d="M300.2,110.6c-2.4-2.4-6.4-2.4-8.8,0c-1.8,1.8-2.3,4.2-1.4,6.4l-38.7,38.7h-68.1l-17.4,17.4V278
				c-2,1.1-3.4,3.1-3.4,5.6c0,3.4,2.7,6.2,6.2,6.2s6.2-2.7,6.2-6.2c0-2.5-1.4-4.5-3.4-5.6V175.4l14.2-14.2h68.1l40.3-40.3
				c2.1,0.7,4.6,0.2,6.4-1.4C302.6,116.9,302.6,113,300.2,110.6z"/>
		</g>
	</g>
	<g>
		<g>
			<path class="st0" d="M291,255.9v-36.2l-25-25h-73.3c-1.1-2-3.1-3.4-5.6-3.4c-3.4,0-6.2,2.7-6.2,6.2s2.7,6.2,6.2,6.2
				c2.5,0,4.5-1.4,5.6-3.4h71.1l21.8,21.8v33.9c-2,1.1-3.4,3.1-3.4,5.6c0,3.4,2.7,6.2,6.2,6.2s6.2-2.7,6.2-6.2
				C294.4,259,293,257,291,255.9z"/>
		</g>
	</g>
	<g>
		<g>
			<path class="st0" d="M412,386.6v-18.3l-7.9-8.7c0.8-2.1,0.5-4.6-1.2-6.4c-2.4-2.5-6.3-2.7-8.8-0.4c-2.5,2.4-2.7,6.3-0.4,8.8
				c1.7,1.8,4.2,2.4,6.3,1.8l6.5,7.1v16c-2,1.1-3.4,3.1-3.4,5.6c0,3.4,2.7,6.2,6.2,6.2s6.2-2.7,6.2-6.2
				C415.4,389.7,414,387.6,412,386.6z"/>
		</g>
	</g>
	<g>
		<g>
			<path class="st0" d="M382.7,365.2c-1.8-1.8-4.2-2.3-6.4-1.4L334.7,322h-61.2L258,306.4V223c2-1.1,3.4-3.1,3.4-5.6
				c0-3.4-2.7-6.2-6.2-6.2c-3.4,0-6.2,2.7-6.2,6.2c0,2.5,1.4,4.5,3.4,5.6v85.6l18.7,18.7h61.2l40.1,40.1c-0.7,2.1-0.2,4.6,1.4,6.4
				c2.4,2.4,6.4,2.4,8.8,0C385.1,371.4,385.1,367.5,382.7,365.2z"/>
		</g>
	</g>
	<g>
		<g>
			<path class="st0" d="M365.8,386.9c-1.9-1.5-4.4-1.8-6.4-0.9l-7.9-6.8v-15.1l-22.7-21.6c0.7-2.1,0.1-4.6-1.7-6.3
				c-2.5-2.4-6.4-2.3-8.8,0.2c-2.4,2.5-2.3,6.4,0.2,8.8c1.8,1.7,4.3,2.1,6.4,1.3l20.9,19.9v15.2l9.8,8.4c-0.6,2.3,0.1,4.6,2,6.2
				c2.6,2.3,6.5,1.9,8.8-0.7C368.8,392.9,368.4,389,365.8,386.9z"/>
		</g>
	</g>
	<g>
		<g>
			<path class="st0" d="M365.3,430.6c-1.8-1.8-4.2-2.3-6.4-1.4l-30.6-30.6v-33.3l-26.7-26.7h-42L237.2,316v-72.4
				c2-1.1,3.4-3.1,3.4-5.6c0-3.4-2.7-6.2-6.2-6.2s-6.2,2.7-6.2,6.2c0,2.5,1.4,4.5,3.4,5.6v74.6l25.6,25.6h42l23.5,23.5v33.3
				l32.3,32.3c-0.7,2.1-0.2,4.6,1.4,6.4c2.4,2.4,6.4,2.4,8.8,0C367.8,436.9,367.8,433,365.3,430.6z"/>
		</g>
	</g>
	<g>
		<g>
			<path class="st0" d="M339,430.5v-20.3c0-1.5-1.2-2.7-2.7-2.7s-2.7,1.2-2.7,2.7v20.3c-2,1.1-3.4,3.1-3.4,5.6
				c0,3.4,2.7,6.2,6.2,6.2s6.2-2.7,6.2-6.2C342.4,433.7,341.1,431.6,339,430.5z"/>
		</g>
	</g>
	<g>
		<g>
			<path class="st0" d="M311.5,447.1v-54.9c2-1.1,3.4-3.1,3.4-5.6c0-3.4-2.7-6.2-6.2-6.2s-6.2,2.7-6.2,6.2c0,2.5,1.4,4.5,3.4,5.6
				v54.9c-2,1.1-3.4,3.1-3.4,5.6c0,3.4,2.7,6.2,6.2,6.2s6.2-2.7,6.2-6.2C315,450.2,313.6,448.1,311.5,447.1z"/>
		</g>
	</g>
	<g>
		<g>
			<path class="st0" d="M282.7,454v-70c2-1.1,3.4-3.1,3.4-5.6c0-3.4-2.7-6.2-6.2-6.2s-6.2,2.7-6.2,6.2c0,2.5,1.4,4.5,3.4,5.6v70
				c-2,1.1-3.4,3.1-3.4,5.6c0,3.4,2.7,6.2,6.2,6.2s6.2-2.7,6.2-6.2C286.1,457.1,284.7,455,282.7,454z"/>
		</g>
	</g>
	<g>
		<g>
			<path class="st0" d="M270.9,356.4c-2.5,0-4.5,1.4-5.6,3.4h-16l-34.2-34.2V223c2-1.1,3.4-3.1,3.4-5.6c0-3.4-2.7-6.2-6.2-6.2
				s-6.2,2.7-6.2,6.2c0,2.5,1.4,4.5,3.4,5.6v104.9l37.4,37.4h18.3c1.1,2,3.1,3.4,5.6,3.4c3.4,0,6.2-2.7,6.2-6.2
				S274.4,356.4,270.9,356.4z"/>
		</g>
	</g>
	<g>
		<g>
			<path class="st0" d="M267.6,388.9l-14-14h-11.4c-1.1-2-3.1-3.4-5.6-3.4c-3.4,0-6.2,2.7-6.2,6.2c0,3.4,2.7,6.2,6.2,6.2
				c2.5,0,4.5-1.4,5.6-3.4h9.1l10.8,10.8v26.6l-16.4,16.4c-2.1-0.7-4.6-0.2-6.4,1.4c-2.4,2.4-2.4,6.4,0,8.8c2.4,2.4,6.4,2.4,8.8,0
				c1.8-1.8,2.1-4.2,1.4-6.4l17.9-17.9v-31.1H267.6z"/>
		</g>
	</g>
	<g>
		<g>
			<path class="st0" d="M249.7,398.3c-2.4-2.4-6.4-2.4-8.8,0c-1.8,1.8-2.3,4.2-1.4,6.4l-43.9,43.9c-2.1-0.7-4.6-0.2-6.4,1.4
				c-2.4,2.4-2.4,6.4,0,8.8c2.4,2.4,6.4,2.4,8.8,0c1.8-1.8,2.3-4.2,1.4-6.4l43.9-43.9c2.1,0.7,4.6,0.2,6.4-1.4
				C252,404.7,252,400.7,249.7,398.3z"/>
		</g>
	</g>
	<g>
		<g>
			<path class="st0" d="M222.9,360.8l-31-31v-98.5c2-1.1,3.4-3.1,3.4-5.6c0-3.4-2.7-6.2-6.2-6.2s-6.2,2.7-6.2,6.2
				c0,2.5,1.4,4.5,3.4,5.6v100.8l31,31v34.2l-31.1,31.1c-2.1-0.7-4.6-0.2-6.4,1.4c-2.4,2.4-2.4,6.4,0,8.8c2.4,2.4,6.4,2.4,8.8,0
				c1.8-1.8,2.3-4.2,1.4-6.4l32.7-32.7V360.8z"/>
		</g>
	</g>
	<g>
		<g>
			<path class="st0" d="M202.9,364.2l-7.6-7.6c0.7-2.1,0.2-4.6-1.4-6.4c-2.4-2.4-6.4-2.4-8.8,0c-2.4,2.4-2.4,6.4,0,8.8
				c1.8,1.8,4.2,2.1,6.4,1.4l6,6v22.4l-13,12.9c-2.1-0.7-4.6-0.2-6.4,1.4c-2.4,2.4-2.4,6.4,0,8.8c2.4,2.4,6.4,2.4,8.8,0
				c1.8-1.8,2.1-4.2,1.4-6.4l14.5-14.5v-26.9H202.9z"/>
		</g>
	</g>
	<g>
		<g>
			<path class="st0" d="M189.2,375.8c-1.8-1.8-4.2-2.3-6.4-1.4l-10.2-10.2v-47.7c2-1.1,3.4-3.1,3.4-5.6c0-3.4-2.7-6.2-6.2-6.2
				s-6.2,2.7-6.2,6.2c0,2.5,1.4,4.5,3.4,5.6v49.9l11.7,11.7c-0.7,2.1-0.2,4.6,1.4,6.4c2.4,2.4,6.4,2.4,8.8,0
				C191.6,382.1,191.6,378.2,189.2,375.8z"/>
		</g>
	</g>
	<g>
		<g>
			<path class="st0" d="M168.5,443V393l-6.3-6.3c0.7-2.1,0.2-4.6-1.4-6.4c-2.4-2.4-6.4-2.4-8.8,0c-2.4,2.4-2.4,6.4,0,8.8
				c1.8,1.8,4.2,2.1,6.4,1.4l4.6,4.6V443c-2,1.1-3.4,3.1-3.4,5.6c0,3.4,2.7,6.2,6.2,6.2s6.2-2.7,6.2-6.2
				C172,446.1,170.6,443.9,168.5,443z"/>
		</g>
	</g>
	<g>
		<g>
			<path class="st0" d="M149.8,363.1c2.1,0.7,4.6,0.2,6.4-1.4c2.4-2.4,2.4-6.4,0-8.8c-2.4-2.4-6.4-2.4-8.8,0
				c-1.8,1.8-2.1,4.2-1.4,6.4l-14.5,14.5v25.6l11,11c-0.7,2.1-0.2,4.6,1.4,6.4c2.4,2.4,6.4,2.4,8.8,0s2.4-6.4,0-8.8
				c-1.8-1.8-4.2-2.1-6.4-1.4l-9.5-9.5v-21.1L149.8,363.1z"/>
		</g>
	</g>
	<g>
		<g>
			<path class="st0" d="M156.1,322.7c-2.4-2.4-6.4-2.4-8.8,0c-1.8,1.8-2.1,4.2-1.4,6.4l-33.1,33.1V405l24.4,24.4v10.8
				c-2,1.1-3.4,3.1-3.4,5.6c0,3.4,2.7,6.2,6.2,6.2s6.2-2.7,6.2-6.2c0-2.5-1.4-4.5-3.4-5.6v-13.2l-24.3-24.4v-38.3l31.4-31.4
				c2.1,0.7,4.6,0.2,6.4-1.4C158.6,329,158.6,325.1,156.1,322.7z"/>
		</g>
	</g>
	<g>
		<g>
			<path class="st0" d="M156.8,247.7c0-3.4-2.7-6.2-6.2-6.2s-6.2,2.7-6.2,6.2c0,2.5,1.4,4.5,3.4,5.6v42.1l-59.7,59.7
				c-2.1-0.7-4.6-0.2-6.4,1.4c-2.4,2.4-2.4,6.4,0,8.8s6.4,2.4,8.8,0c1.8-1.8,2.3-4.2,1.4-6.4l61.2-61.2v-44.4
				C155.4,252.2,156.8,250.2,156.8,247.7z"/>
		</g>
	</g>
	<g>
		<g>
			<path class="st0" d="M285,37.6c-2.4-2.4-6.4-2.4-8.8,0c-1.8,1.8-2.3,4.2-1.4,6.4l-32.7,32.7v35.1l-23.8,23.8h-38.4l-29.1,29.1
				v52.7c-2,1.1-3.4,3.1-3.4,5.6c0,3.4,2.7,6.2,6.2,6.2c3.4,0,6.2-2.7,6.2-6.2c0-2.5-1.4-4.5-3.4-5.6v-50.4l25.9-25.9h38.6l27-27V79
				L278.7,48c2.1,0.7,4.6,0.2,6.4-1.4C287.5,44,287.5,40.1,285,37.6z"/>
		</g>
	</g>
	<g>
		<g>
			<path class="st0" d="M261.3,38.7c0-3.4-2.7-6.2-6.2-6.2c-3.4,0-6.2,2.7-6.2,6.2c0,2.5,1.4,4.5,3.4,5.6v23.4
				c0,1.5,1.2,2.7,2.7,2.7s2.7-1.2,2.7-2.7V44.3C260,43.2,261.3,41.2,261.3,38.7z"/>
		</g>
	</g>
	<g>
		<g>
			<path class="st0" d="M222.9,47c0-3.4-2.7-6.2-6.2-6.2s-6.2,2.7-6.2,6.2c0,2.5,1.4,4.5,3.4,5.6V107l-6,6c-2.1-0.7-4.6-0.2-6.4,1.4
				c-2.4,2.4-2.4,6.4,0,8.8c2.4,2.4,6.4,2.4,8.8,0c1.8-1.8,2.1-4.2,1.4-6.4l7.6-7.6V52.5C221.4,51.5,222.9,49.4,222.9,47z"/>
		</g>
	</g>
	<g>
		<g>
			<path class="st0" d="M200.1,96.4V58c2-1.1,3.4-3.1,3.4-5.6c0-3.4-2.7-6.2-6.2-6.2s-6.2,2.7-6.2,6.2c0,2.5,1.4,4.5,3.4,5.6v38.4
				c-2,1.1-3.4,3.1-3.4,5.6c0,3.4,2.7,6.2,6.2,6.2s6.2-2.7,6.2-6.2C203.6,99.6,202.2,97.4,200.1,96.4z"/>
		</g>
	</g>
	<g>
		<g>
			<path class="st0" d="M178.7,56.7c0.7-2.1,0.2-4.6-1.4-6.4c-2.4-2.4-6.4-2.4-8.8,0c-2.4,2.4-2.4,6.4,0,8.8
				c1.8,1.8,4.2,2.1,6.4,1.4l4.6,4.6v25.3l-11.5,11.5h-7.1c-1.1-2-3.1-3.4-5.6-3.4c-3.4,0-6.2,2.7-6.2,6.2s2.7,6.2,6.2,6.2
				c2.5,0,4.5-1.4,5.6-3.4h9.4L185,92.7V62.9L178.7,56.7z"/>
		</g>
	</g>
	<g>
		<g>
			<path class="st0" d="M144.5,74.4c0-3.4-2.7-6.2-6.2-6.2s-6.2,2.7-6.2,6.2c0,2.5,1.4,4.5,3.4,5.6v36.7l-26.1,26.1V172
				c-2,1.1-3.4,3.1-3.4,5.6c0,3.4,2.7,6.2,6.2,6.2s6.2-2.7,6.2-6.2c0-2.5-1.4-4.5-3.4-5.6v-27l26.1-26.1V80
				C143,79,144.5,76.9,144.5,74.4z"/>
		</g>
	</g>
	<g>
		<g>
			<path class="st0" d="M125.2,92.3c0-3.4-2.7-6.2-6.2-6.2s-6.2,2.7-6.2,6.2c0,2.5,1.4,4.5,3.4,5.6v17.3l-6.8,6.8
				c-2.1-0.7-4.6-0.2-6.4,1.4c-2.4,2.4-2.4,6.4,0,8.8s6.4,2.4,8.8,0c1.8-1.8,2.1-4.2,1.4-6.4l8.3-8.3V97.8
				C123.8,96.8,125.2,94.8,125.2,92.3z"/>
		</g>
	</g>
	<g>
		<g>
			<path class="st0" d="M103.9,99.9c-2.4-2.4-6.4-2.4-8.8,0c-1.8,1.8-2.3,4.2-1.4,6.4L84,116v46.5c-2,1.1-3.4,3.1-3.4,5.6
				c0,3.4,2.7,6.2,6.2,6.2s6.2-2.7,6.2-6.2c0-2.5-1.4-4.5-3.4-5.6v-44.2l8.1-8.1c2.1,0.7,4.6,0.2,6.4-1.4
				C106.3,106.2,106.3,102.3,103.9,99.9z"/>
		</g>
	</g>
	<g>
		<g>
			<path class="st0" d="M185.7,113c-2.5,0-4.5,1.4-5.6,3.4H166l-37.4,37.4v129.7c-2,1.1-3.4,3.1-3.4,5.6c0,3.4,2.7,6.2,6.2,6.2
				c3.4,0,6.2-2.7,6.2-6.2c0-2.5-1.4-4.5-3.4-5.6V156l34.2-34.2h11.9c1.1,2,3.1,3.4,5.6,3.4c3.4,0,6.2-2.7,6.2-6.2
				C191.9,115.7,189.1,113,185.7,113z"/>
		</g>
	</g>
	<g>
		<g>
			<path class="st0" d="M81.2,189.5c-1.8-1.8-4.2-2.3-6.4-1.4l-18.5-18.5c0.7-2.1,0.2-4.6-1.4-6.4c-2.4-2.4-6.4-2.4-8.8,0
				c-2.4,2.4-2.4,6.4,0,8.8c1.8,1.8,4.2,2.3,6.4,1.4L71,191.8c-0.7,2.1-0.2,4.6,1.4,6.4c2.4,2.4,6.4,2.4,8.8,0
				C83.6,195.8,83.6,191.8,81.2,189.5z"/>
		</g>
	</g>
	<g>
		<g>
			<path class="st0" d="M103.9,190.7c-2.4-2.4-6.4-2.4-8.8,0c-1.8,1.8-2.3,4.2-1.4,6.4l-22.5,22.5c-2.1-0.7-4.6-0.2-6.4,1.4
				c-2.4,2.4-2.4,6.4,0,8.8c2.4,2.4,6.4,2.4,8.8,0c1.8-1.8,2.3-4.2,1.4-6.4l22.5-22.5c2.1,0.7,4.6,0.2,6.4-1.4
				C106.3,196.9,106.3,193,103.9,190.7z"/>
		</g>
	</g>
	<g>
		<g>
			<path class="st0" d="M116.2,209.9c-2.4-2.4-6.4-2.4-8.8,0c-1.8,1.8-2.3,4.2-1.4,6.4l-28.1,28.1c-2.1-0.7-4.6-0.2-6.4,1.4
				c-2.4,2.4-2.4,6.4,0,8.8s6.4,2.4,8.8,0c1.8-1.8,2.1-4.2,1.4-6.4l28.1-28.1c2.1,0.7,4.6,0.2,6.4-1.4
				C118.7,216.3,118.7,212.4,116.2,209.9z"/>
		</g>
	</g>
	<g>
		<g>
			<path class="st0" d="M119,241.6c-2.4-2.4-6.4-2.4-8.8,0c-1.8,1.8-2.3,4.2-1.4,6.4l-14.4,14.2c-2.1-0.7-4.6-0.2-6.4,1.4
				c-2.4,2.4-2.4,6.4,0,8.8s6.4,2.4,8.8,0c1.8-1.8,2.3-4.2,1.4-6.4l14.4-14.4c2.1,0.7,4.6,0.2,6.4-1.4
				C121.4,247.8,121.4,243.9,119,241.6z"/>
		</g>
	</g>
	<g>
		<g>
			<path class="st0" d="M112.1,309.5v-26c2-1.1,3.4-3.1,3.4-5.6c0-3.4-2.7-6.2-6.2-6.2c-3.4,0-6.2,2.7-6.2,6.2
				c0,2.5,1.4,4.5,3.4,5.6v26c-2,1.1-3.4,3.1-3.4,5.6c0,3.4,2.7,6.2,6.2,6.2c3.4,0,6.2-2.7,6.2-6.2
				C115.6,312.6,114.2,310.6,112.1,309.5z"/>
		</g>
	</g>
	<g>
		<g>
			<path class="st0" d="M88.7,305.5v-12.8l-30.2-30.2V241c2-1.1,3.4-3.1,3.4-5.6c0-3.4-2.7-6.2-6.2-6.2s-6.2,2.7-6.2,6.2
				c0,2.5,1.4,4.5,3.4,5.6v23.7l30.2,30.2v10.6c-2,1.1-3.4,3.1-3.4,5.6c0,3.4,2.7,6.2,6.2,6.2s6.2-2.7,6.2-6.2
				C92.3,308.6,90.8,306.4,88.7,305.5z"/>
		</g>
	</g>
	<g>
		<g>
			<path class="st0" d="M97.7,379.4c-2.5,0-4.5,1.4-5.6,3.4h-6l-11.7-11.7v-24.6L88,332.9c2.1,0.7,4.6,0.2,6.4-1.4
				c2.4-2.4,2.4-6.4,0-8.8c-2.4-2.4-6.4-2.4-8.8,0c-1.8,1.8-2.3,4.2-1.4,6.4L69,344.3v29.1l15.1,15.1h8.3c1.1,2,3.1,3.4,5.6,3.4
				c3.4,0,6.2-2.7,6.2-6.2S101.2,379.4,97.7,379.4z"/>
		</g>
	</g>
	<g>
		<g>
			<path class="st0" d="M58.5,332.9v-38.4c2-1.1,3.4-3.1,3.4-5.6c0-3.4-2.7-6.2-6.2-6.2s-6.2,2.7-6.2,6.2c0,2.5,1.4,4.5,3.4,5.6
				v38.4c-2,1.1-3.4,3.1-3.4,5.6c0,3.4,2.7,6.2,6.2,6.2s6.2-2.7,6.2-6.2C61.9,336.1,60.6,334,58.5,332.9z"/>
		</g>
	</g>
	<g>
		<g>
			<path class="st0" d="M37.8,305.5v-78.3c2-1.1,3.4-3.1,3.4-5.6c0-3.4-2.7-6.2-6.2-6.2c-3.4,0-6.2,2.7-6.2,6.2
				c0,2.5,1.4,4.5,3.4,5.6v78.3c-2,1.1-3.4,3.1-3.4,5.6c0,3.4,2.7,6.2,6.2,6.2s6.2-2.7,6.2-6.2C41.4,308.6,39.9,306.4,37.8,305.5z"
				/>
		</g>
	</g>
</g>
<g>
	<path class="st1" d="M734.1,194.9c-1.9,2.2-4.7,4.7-8.3,7.6c-3.6,2.9-8.2,5.6-13.6,8.2c-5.4,2.5-11.8,4.7-19.2,6.4
		c-7.3,1.7-15.7,2.6-24.9,2.6c-14.7,0-27.3-2.3-37.9-6.9c-10.6-4.6-19.3-10.6-26.1-18.1S592.2,178.6,589,169
		c-3.3-9.7-4.9-19.6-4.9-29.7c0-11.8,2-22.4,6.1-31.9S600,89.8,607.4,83s16.3-11.9,26.7-15.6c10.4-3.6,21.9-5.4,34.5-5.4
		c8.7,0,16.5,0.9,23.3,2.6s12.8,4.1,17.9,7.2c5.1,3,9.3,6.7,12.7,10.9c3.4,4.2,6.2,8.8,8.4,13.7h-16.1c-1-3-2.8-6.1-5.3-9
		c-2.5-3-5.8-5.6-9.8-8c-4-2.3-8.6-4.2-13.7-5.7c-5.2-1.5-10.9-2.2-17.1-2.2c-9.2,0-17.6,1.7-25.4,5c-7.8,3.3-14.5,8-20.2,13.9
		c-5.7,6-10.1,13-13.2,21.2c-3.1,8.2-4.7,17.3-4.7,27.1c0,9.3,1.5,18.2,4.5,26.8s7.4,16.1,13.2,22.7c5.8,6.5,13.1,11.8,21.8,15.7
		s18.7,5.9,30.1,5.9c20.3,0,37.9-7,52.7-20.9L734.1,194.9z"/>
	<path class="st1" d="M778.7,217.1h-18.5V64.6h18.5V217.1z"/>
	<path class="st1" d="M825.8,65.5c2.3-2.3,5.1-3.5,8.3-3.5s6,1.2,8.3,3.5c2.3,2.3,3.5,5.1,3.5,8.3c0,3.2-1.2,6-3.5,8.3
		s-5.1,3.5-8.3,3.5s-6-1.2-8.3-3.5s-3.5-5.1-3.5-8.3S823.5,67.8,825.8,65.5z M843.7,108.2v108.9h-18.5V108.2H843.7z"/>
	<path class="st1" d="M956.2,205.5c5-2,10.1-5,15.1-9.3l6.3,8.3c-4.9,3.8-11,7.3-18.2,10.5s-15.6,4.8-25.2,4.8
		c-8.6,0-16.3-1.5-23.1-4.5s-12.7-7-17.5-12.2c-4.9-5.2-8.6-11.3-11.2-18.3c-2.6-7-3.9-14.6-3.9-22.8c0-7.7,1.2-15,3.6-21.8
		c2.4-6.8,6-12.8,10.8-17.9s10.7-9.1,17.6-12.1c7-3,15-4.5,24.2-4.5c4.4,0,8.9,0.4,13.6,1.2c4.7,0.8,9.2,2.3,13.3,4.4
		s7.8,4.9,11,8.3s5.5,7.7,7,13h-15c-1.6-5.1-4.9-9.4-9.8-12.9c-4.9-3.5-10.8-5.2-17.4-5.2c-4.1,0-8.4,0.8-12.9,2.5
		s-8.6,4.4-12.3,8.1s-6.8,8.6-9.3,14.8s-3.7,13.7-3.7,22.6c0,8.6,1.1,15.8,3.4,21.7c2.3,5.9,5.3,10.6,9,14.2c3.8,3.6,8.1,6.1,13,7.7
		c4.9,1.6,9.9,2.4,15.1,2.4C945.7,208.4,951.2,207.4,956.2,205.5z"/>
	<path class="st1" d="M1022.1,162.2l53.6-54h14.2l-41.6,41.8l54.7,67.1h-24.4l-43.8-53.8l-12.6,12.9v41h-18.5V64.6h18.5
		L1022.1,162.2L1022.1,162.2z"/>
	<polygon class="st1" points="686.1,299.1 686.1,311.1 607.5,311.1 607.5,365.8 675,365.8 675,375.8 607.5,375.8 607.5,439.7 
		686.1,439.7 686.1,451.7 587.6,451.7 587.6,299.1 	"/>
	<path class="st1" d="M767.2,367.6c0-1.9-0.5-3.9-1.5-6.1s-2.6-4.2-4.8-6s-4.8-3.3-8-4.6c-3.2-1.2-6.9-1.9-11.3-1.9
		c-4.3,0-8,0.6-10.9,1.9c-2.9,1.2-5.2,2.8-6.9,4.6c-1.7,1.8-3,3.8-3.7,5.9s-1.1,4.1-1.1,6c0,4.5,1.6,8,4.9,10.5
		c3.3,2.5,7.3,4.6,12.3,6.3c4.9,1.7,10.2,3.4,16,5c5.7,1.6,11,3.7,16,6.2c4.9,2.5,9,5.9,12.3,10.1s4.9,9.8,4.9,16.8
		c0,9.6-3.4,17.3-10.1,23.2c-6.8,5.9-16.8,8.8-30.2,8.8c-7.4,0-13.9-0.9-19.5-2.7c-5.6-1.8-10.3-4.3-14.2-7.3s-6.7-6.5-8.6-10.3
		c-1.9-3.8-2.8-7.8-2.8-11.9h14c0,1.7,0.5,3.9,1.6,6.5s2.9,5.2,5.4,7.7s5.8,4.7,9.8,6.5s8.9,2.7,14.7,2.7c4.6,0,8.5-0.6,11.5-1.9
		c3-1.2,5.4-2.8,7.2-4.6c1.7-1.8,2.9-3.8,3.6-6c0.7-2.2,1-4.3,1-6.3c0-4.8-1.6-8.6-4.8-11.3c-3.2-2.8-7.2-5-11.9-6.9
		c-4.8-1.8-10-3.5-15.5-5c-5.6-1.5-10.8-3.5-15.5-6c-4.8-2.5-8.8-5.7-11.9-9.8c-3.2-4.1-4.8-9.6-4.8-16.6c0-5.1,0.9-9.5,2.8-13.4
		c1.9-3.8,4.5-7.1,7.7-9.7c3.3-2.6,7.1-4.6,11.5-5.9s9.2-2,14.2-2c5.4,0,10.4,0.7,15.1,2.1c4.7,1.4,8.8,3.3,12.4,5.7
		c3.5,2.4,6.3,5.3,8.4,8.6c2,3.3,3,7,3,10.9h-12.3V367.6z"/>
	<path class="st1" d="M885.8,440c5-2,10.1-5,15.1-9.3l6.3,8.3c-4.9,3.8-11,7.3-18.2,10.5s-15.6,4.8-25.2,4.8
		c-8.6,0-16.3-1.5-23.1-4.5s-12.7-7-17.5-12.2c-4.9-5.2-8.6-11.3-11.2-18.3c-2.6-7-3.9-14.6-3.9-22.8c0-7.7,1.2-15,3.6-21.8
		c2.4-6.8,6-12.8,10.8-17.9s10.7-9.1,17.6-12.1c7-3,15-4.5,24.2-4.5c4.4,0,8.9,0.4,13.6,1.2c4.7,0.8,9.2,2.3,13.3,4.4
		s7.8,4.9,11,8.3s5.5,7.7,7,13h-15c-1.6-5.1-4.9-9.4-9.8-12.9c-4.9-3.5-10.8-5.2-17.4-5.2c-4.1,0-8.4,0.8-12.9,2.5
		s-8.6,4.4-12.3,8.1s-6.8,8.6-9.3,14.8c-2.5,6.2-3.7,13.7-3.7,22.6c0,8.6,1.1,15.8,3.4,21.7c2.3,5.9,5.3,10.6,9,14.2
		c3.8,3.6,8.1,6.1,13,7.7s9.9,2.4,15.1,2.4C875.3,442.9,880.8,442,885.8,440z"/>
	<path class="st1" d="M951.7,342.7v71.9c0,1.5,0.1,3.7,0.4,6.9c0.3,3.1,1.3,6.3,2.9,9.5c1.7,3.2,4.2,6,7.6,8.4
		c3.4,2.4,8.2,3.6,14.3,3.6c3.8,0,7.4-0.7,10.9-2s6.5-3.3,9.2-6c2.6-2.7,4.7-6.1,6.3-10.1c1.6-4.1,2.4-8.9,2.4-14.6v-67.5h18.5
		v108.9h-18.5V438h-0.9l-3.5,3.5c-5.1,5.1-10.1,8.5-15.1,10.3s-9.6,2.6-13.8,2.5c-9.6,0-17-1.6-22.3-4.9s-9.2-7.1-11.7-11.5
		s-4-8.9-4.5-13.5s-0.8-8.2-0.8-10.8v-70.8L951.7,342.7L951.7,342.7z"/>
	<path class="st1" d="M1156.5,397.4c0-9.7-1.4-18.2-4.1-25.3c-2.8-7.1-6.5-13-11.2-17.6s-10.2-8.1-16.4-10.5
		c-6.2-2.3-12.9-3.5-19.8-3.5c-7.4,0-14.2,1.3-20.5,3.8c-6.2,2.5-11.7,6.2-16.3,11.1c-4.7,4.9-8.3,10.8-10.9,17.6
		c-2.6,6.9-3.9,14.7-3.9,23.4c0,7.3,1.1,14.3,3.4,21.2c2.2,6.9,5.7,13.1,10.2,18.5c4.6,5.5,10.4,9.8,17.4,13.1
		c7,3.3,15.4,4.9,24.9,4.9c9.3,0,17.9-1.6,25.7-4.9c7.8-3.3,14.7-8,20.5-14l-7-7c-3,2.6-5.9,5-8.6,7.2s-5.4,4-8.2,5.4
		s-5.6,2.6-8.6,3.4s-6.3,1.2-9.9,1.2c-4.1,0-8.4-0.6-12.9-1.9c-4.6-1.2-8.8-3.5-12.7-6.6c-3.9-3.2-7.2-7.6-9.8-13.3
		c-2.6-5.7-3.9-12.9-3.9-21.8h82.6L1156.5,397.4L1156.5,397.4z M1074,393.3c0-5.8,0.6-11.4,1.8-16.9c1.2-5.4,3.1-10.3,5.6-14.5
		s5.7-7.6,9.6-10.1s8.5-3.8,13.9-3.8c10.2,0,18.2,4,23.9,12.1c5.7,8.1,8.6,19.1,8.6,33.2L1074,393.3L1074,393.3z"/>
	<rect x="1189.2" y="299.1" class="st1" width="18.5" height="152.5"/>
	<path class="st1" d="M1329.1,373c-0.4-6.2-2-11.8-4.7-16.6c-2.7-4.8-6.9-8.7-12.8-11.7c-5.8-3-14-4.5-24.6-4.5
		c-6.4,0-11.8,0.5-16.4,1.6c-4.5,1.1-8.4,2.5-11.7,4.3c-3.3,1.7-6,3.7-8.3,5.9c-2.3,2.2-4.4,4.4-6.4,6.5l11.2,11.3
		c2-3.3,4.1-6.4,6.1-9c2-2.7,4.3-4.9,6.7-6.8c2.4-1.8,5.1-3.2,8.2-4.2s6.6-1.5,10.7-1.5c9.5,0,16,2.9,19.6,8.7
		c3.6,5.8,5.4,14.7,5.4,26.6v9.4c-3.8-4.6-8.6-8.2-14.5-10.8c-5.9-2.5-12.1-3.8-18.6-3.8s-12.3,1.2-17.4,3.5s-9.4,5.3-12.9,9
		s-6.1,7.9-7.8,12.5c-1.7,4.7-2.6,9.3-2.6,13.9c0,4.5,0.8,8.9,2.4,13.3s4,8.3,7.2,11.8s7.2,6.3,12,8.5s10.3,3.3,16.6,3.3
		c6.5,0,13.1-1.2,19.6-3.6s11.9-5.6,16.1-9.7v10.7h17.6v-59.5C1329.8,385.6,1329.5,379.2,1329.1,373z M1312.1,425.3
		c-1.3,2.9-3,5.6-5,8.1s-4.3,4.6-6.9,6.4s-5.3,3.2-8.1,4.2c-2.8,1-5.7,1.5-8.4,1.5c-2.9,0-6-0.6-9.2-1.7c-3.2-1.2-6.1-2.9-8.8-5.3
		c-2.6-2.4-4.8-5.3-6.5-8.7c-1.7-3.4-2.5-7.4-2.5-12.1c0-3.9,0.7-7.7,2-11.3c1.3-3.6,3.2-6.8,5.6-9.5s5.4-4.9,8.9-6.5
		c3.5-1.7,7.4-2.5,11.6-2.5s7.9,0.8,10.9,2.3c3.1,1.5,5.7,3.4,7.9,5.6c2.2,2.2,4,4.4,5.4,6.8c1.4,2.3,2.4,4.4,3.2,6.1L1312.1,425.3
		L1312.1,425.3z"/>
</g>
<g>
	<rect x="512.2" y="11.5" class="st1" width="5.1" height="493.3"/>
</g>
</svg>
