<?xml version="1.0" encoding="utf-8"?>
<!-- Generator: Adobe Illustrator 22.0.0, SVG Export Plug-In . SVG Version: 6.00 Build 0)  -->
<svg version="1.1" id="Layer_1" xmlns="http://www.w3.org/2000/svg" xmlns:xlink="http://www.w3.org/1999/xlink" x="0px" y="0px"
	 viewBox="0 0 1336.1 514.1" style="enable-background:new 0 0 1336.1 514.1;" xml:space="preserve">
<style type="text/css">
	.st0{fill:#35BFEC;}
	.st1{fill:#072E51;}
	.st2{fill:#08376B;}
</style>
<g>
	<g>
		<g>
			<g>
				<path class="st0" d="M302,228.5v-79.9c1.7-0.9,2.9-2.6,2.9-4.7c0-2.9-2.3-5.2-5.2-5.2s-5.2,2.3-5.2,5.2c0,2.1,1.2,3.8,2.9,4.7
					v79.9c-1.7,0.9-2.9,2.6-2.9,4.7c0,2.9,2.3,5.2,5.2,5.2s5.2-2.3,5.2-5.2C304.9,231.2,303.7,229.4,302,228.5z"/>
			</g>
		</g>
		<g>
			<g>
				<path class="st0" d="M319.4,204.2v-40.5c1.7-0.9,2.9-2.6,2.9-4.7c0-2.9-2.3-5.2-5.2-5.2s-5.2,2.3-5.2,5.2c0,2.1,1.2,3.8,2.9,4.7
					v40.5c-1.7,0.9-2.9,2.6-2.9,4.7c0,2.9,2.3,5.2,5.2,5.2s5.2-2.3,5.2-5.2C322.3,206.8,321.1,205,319.4,204.2z"/>
			</g>
		</g>
		<g>
			<g>
				<path class="st0" d="M346.7,193.8c0-2.9-2.3-5.2-5.2-5.2s-5.2,2.3-5.2,5.2c0,2.1,1.2,3.8,2.9,4.7v7.7l-24.9,24.9V283
					c-1.7,0.9-2.9,2.6-2.9,4.7c0,2.9,2.3,5.2,5.2,5.2s5.2-2.3,5.2-5.2c0-2.1-1.2-3.8-2.9-4.7v-50l24.9-24.9v-9.6
					C345.5,197.6,346.7,195.9,346.7,193.8z"/>
			</g>
		</g>
		<g>
			<g>
				<path class="st0" d="M356.5,316.6v-13.1l-19.7-19.7v-40.2c1.7-0.9,2.9-2.6,2.9-4.7c0-2.9-2.3-5.2-5.2-5.2s-5.2,2.3-5.2,5.2
					c0,2.1,1.2,3.8,2.9,4.7v42.1l19.7,19.7v11.2c-1.7,0.9-2.9,2.6-2.9,4.7c0,2.9,2.3,5.2,5.2,5.2s5.2-2.3,5.2-5.2
					C359.4,319.3,358.2,317.5,356.5,316.6z"/>
			</g>
		</g>
		<g>
			<g>
				<path class="st0" d="M353.6,222.8c0-2.9-2.3-5.2-5.2-5.2s-5.2,2.3-5.2,5.2c0,2.1,1.2,3.8,2.9,4.7v71.3c0,1.3,1,2.3,2.3,2.3
					s2.3-1,2.3-2.3v-71.3C352.4,226.6,353.6,224.8,353.6,222.8z"/>
			</g>
		</g>
		<g>
			<g>
				<path class="st0" d="M335.6,330.6v-24.3c1.7-0.9,2.9-2.6,2.9-4.7c0-2.9-2.3-5.2-5.2-5.2s-5.2,2.3-5.2,5.2c0,2.1,1.2,3.8,2.9,4.7
					v24.3c-1.7,0.9-2.9,2.6-2.9,4.7c0,2.9,2.3,5.2,5.2,5.2s5.2-2.3,5.2-5.2C338.5,333.2,337.4,331.4,335.6,330.6z"/>
			</g>
		</g>
		<g>
			<g>
				<ellipse class="st0" cx="344.3" cy="353.8" rx="5.2" ry="5.2"/>
			</g>
		</g>
		<g>
			<g>
				<circle class="st0" cx="306.1" cy="380.4" r="5.2"/>
			</g>
		</g>
		<g>
			<g>
				<ellipse class="st0" cx="291" cy="394.4" rx="5.2" ry="5.2"/>
			</g>
		</g>
		<g>
			<g>
				<circle class="st0" cx="193.6" cy="436.1" r="5.2"/>
			</g>
		</g>
		<g>
			<g>
				<circle class="st0" cx="227.2" cy="353.8" r="5.2"/>
			</g>
		</g>
		<g>
			<g>
				<circle class="st0" cx="168.1" cy="436.1" r="5.2"/>
			</g>
		</g>
		<g>
			<g>
				<circle class="st0" cx="75.4" cy="409.4" r="5.2"/>
			</g>
		</g>
		<g>
			<g>
				
					<ellipse transform="matrix(0.9732 -0.2298 0.2298 0.9732 -88.8625 23.3263)" class="st0" cx="55.7" cy="393.2" rx="5.2" ry="5.2"/>
			</g>
		</g>
		<g>
			<g>
				<ellipse class="st0" cx="25.5" cy="219.3" rx="5.2" ry="5.2"/>
			</g>
		</g>
		<g>
			<g>
				<circle class="st0" cx="34.8" cy="171.8" r="5.2"/>
			</g>
		</g>
		<g>
			<g>
				<circle class="st0" cx="118.3" cy="112.6" r="5.2"/>
			</g>
		</g>
		<g>
			<g>
				<circle class="st0" cx="179.7" cy="101.1" r="5.2"/>
			</g>
		</g>
		<g>
			<g>
				<circle class="st0" cx="237.7" cy="101.1" r="5.2"/>
			</g>
		</g>
		<g>
			<g>
				<circle class="st0" cx="231.9" cy="123.1" r="5.2"/>
			</g>
		</g>
		<g>
			<g>
				<circle class="st0" cx="250.4" cy="164.8" r="5.2"/>
			</g>
		</g>
		<g>
			<g>
				<ellipse class="st0" cx="249.3" cy="184.5" rx="5.2" ry="5.2"/>
			</g>
		</g>
		<g>
			<g>
				<circle class="st0" cx="226.1" cy="197.3" r="5.2"/>
			</g>
		</g>
		<g>
			<g>
				<ellipse class="st0" cx="302.6" cy="309.7" rx="5.2" ry="5.2"/>
			</g>
		</g>
		<g>
			<g>
				<path class="st0" d="M305.5,328.4c-1.5-1.5-3.5-1.9-5.4-1.2l-25-25h-52.5c-0.9-1.7-2.6-2.9-4.7-2.9c-2.9,0-5.2,2.3-5.2,5.2
					s2.3,5.2,5.2,5.2c2.1,0,3.8-1.2,4.7-2.9h50.6l23.6,23.6c-0.6,1.8-0.2,3.9,1.2,5.4c2,2,5.4,2,7.4,0S307.5,330.5,305.5,328.4z"/>
			</g>
		</g>
		<g>
			<g>
				<path class="st0" d="M296.8,280.7c-2.1,0-3.8,1.2-4.7,2.9h-77.6c-0.9-1.7-2.6-2.9-4.7-2.9c-2.9,0-5.2,2.3-5.2,5.2
					s2.3,5.2,5.2,5.2c2.1,0,3.8-1.2,4.7-2.9h77.6c0.9,1.7,2.6,2.9,4.7,2.9c2.9,0,5.2-2.3,5.2-5.2S299.7,280.7,296.8,280.7z"/>
			</g>
		</g>
		<g>
			<g>
				<path class="st0" d="M303.2,248.9c-2-2-5.4-2-7.4,0c-1.5,1.5-1.8,3.5-1.2,5.4l-10.9,10.9h-17c-0.9-1.7-2.6-2.9-4.7-2.9
					c-2.9,0-5.2,2.3-5.2,5.2s2.3,5.2,5.2,5.2c2.1,0,3.8-1.2,4.7-2.9h18.9l12.2-12.2c1.8,0.6,3.9,0.2,5.4-1.2
					C305.2,254.2,305.2,250.9,303.2,248.9z"/>
			</g>
		</g>
		<g>
			<g>
				<path class="st0" d="M291,120.8c0-2.9-2.3-5.2-5.2-5.2s-5.2,2.3-5.2,5.2c0,2.1,1.2,3.8,2.9,4.7v70.3l-20.9,20.9v28.2
					c-1.7,0.9-2.9,2.6-2.9,4.7c0,2.9,2.3,5.2,5.2,5.2s5.2-2.3,5.2-5.2c0-2.1-1.2-3.8-2.9-4.7v-26.2l20.9-20.9v-72.2
					C289.8,124.6,291,122.8,291,120.8z"/>
			</g>
		</g>
		<g>
			<g>
				<path class="st0" d="M282.3,222.7v-20.2c0-1.3-1-2.3-2.3-2.3s-2.3,1-2.3,2.3v20.2c-1.7,0.9-2.9,2.6-2.9,4.7
					c0,2.9,2.3,5.2,5.2,5.2s5.2-2.3,5.2-5.2C285.2,225.4,284,223.6,282.3,222.7z"/>
			</g>
		</g>
		<g>
			<g>
				<path class="st0" d="M269.6,177.5V159c1.7-0.9,2.9-2.6,2.9-4.7c0-2.9-2.3-5.2-5.2-5.2s-5.2,2.3-5.2,5.2c0,2.1,1.2,3.8,2.9,4.7
					v18.5c-1.7,0.9-2.9,2.6-2.9,4.7c0,2.9,2.3,5.2,5.2,5.2s5.2-2.3,5.2-5.2C272.5,180.1,271.3,178.4,269.6,177.5z"/>
			</g>
		</g>
		<g>
			<g>
				<path class="st0" d="M273,104c-2.2-1.8-5.5-1.5-7.4,0.8c-1.3,1.6-1.5,3.7-0.7,5.5L247.2,132c-1.9-0.4-3.9,0.2-5.2,1.8
					c-1.8,2.2-1.5,5.5,0.8,7.4c2.2,1.8,5.5,1.5,7.4-0.8c1.3-1.6,1.5-3.7,0.7-5.5l17.7-21.7c1.9,0.4,3.9-0.2,5.2-1.8
					C275.6,109.1,275.3,105.8,273,104z"/>
			</g>
		</g>
		<g>
			<g>
				<path class="st0" d="M263.2,192.6c-2-2-5.4-2-7.4,0c-1.5,1.5-1.9,3.5-1.2,5.4l-14,14v51.3c-1.7,0.9-2.9,2.6-2.9,4.7
					c0,2.9,2.3,5.2,5.2,5.2s5.2-2.3,5.2-5.2c0-2.1-1.2-3.8-2.9-4.7v-49.4l12.6-12.6c1.8,0.6,3.9,0.2,5.4-1.2
					C265.2,198,265.2,194.7,263.2,192.6z"/>
			</g>
		</g>
		<g>
			<g>
				<path class="st0" d="M244.5,228.7l-13.9-13.9c0.6-1.8,0.2-3.9-1.2-5.4c-2-2-5.4-2-7.4,0s-2,5.4,0,7.4c1.5,1.5,3.5,1.9,5.4,1.2
					l13.9,13.9c0.5,0.5,1,0.7,1.6,0.7s1.2-0.2,1.6-0.7C245.4,231.1,245.4,229.6,244.5,228.7z"/>
			</g>
		</g>
		<g>
			<g>
				<path class="st0" d="M234.8,164.2c-2-2-5.4-2-7.4,0c-1.5,1.5-1.9,3.5-1.2,5.4l-24.8,24.8h-51.7c-0.9-1.7-2.6-2.9-4.7-2.9
					c-2.9,0-5.2,2.3-5.2,5.2s2.3,5.2,5.2,5.2c2.1,0,3.8-1.2,4.7-2.9h53.7l26.1-26.1c1.8,0.6,3.9,0.2,5.4-1.2
					C236.8,169.6,236.8,166.3,234.8,164.2z"/>
			</g>
		</g>
		<g>
			<g>
				<path class="st0" d="M223.5,105.4c-2-2-5.4-2-7.4,0c-1.5,1.5-1.9,3.5-1.2,5.4l-10.8,10.8V143L188,159.1
					c-1.8-0.6-3.9-0.2-5.4,1.2c-2,2-2,5.4,0,7.4s5.4,2,7.4,0c1.5-1.5,1.9-3.5,1.2-5.4l17.4-17.4v-21.4l9.4-9.4
					c1.8,0.6,3.9,0.2,5.4-1.2C225.5,110.8,225.5,107.4,223.5,105.4z"/>
			</g>
		</g>
		<g>
			<g>
				<path class="st0" d="M234.5,140.8c-2-2-5.4-2-7.4,0c-1.5,1.5-1.9,3.5-1.2,5.4l-32.6,32.6h-57.4l-14.7,14.7v88.4
					c-1.7,0.9-2.9,2.6-2.9,4.7c0,2.9,2.3,5.2,5.2,5.2s5.2-2.3,5.2-5.2c0-2.1-1.2-3.8-2.9-4.7v-86.5l12-12h57.4l34-34
					c1.8,0.6,3.9,0.2,5.4-1.2C236.5,146.1,236.5,142.8,234.5,140.8z"/>
			</g>
		</g>
		<g>
			<g>
				<path class="st0" d="M226.7,263.3v-30.5l-21.1-21.1h-61.8c-0.9-1.7-2.6-2.9-4.7-2.9c-2.9,0-5.2,2.3-5.2,5.2s2.3,5.2,5.2,5.2
					c2.1,0,3.8-1.2,4.7-2.9h59.9l18.4,18.4v28.6c-1.7,0.9-2.9,2.6-2.9,4.7c0,2.9,2.3,5.2,5.2,5.2s5.2-2.3,5.2-5.2
					C229.6,265.9,228.4,264.2,226.7,263.3z"/>
			</g>
		</g>
		<g>
			<g>
				<path class="st0" d="M328.7,373.5v-15.4l-6.7-7.3c0.7-1.8,0.4-3.9-1-5.4c-2-2.1-5.3-2.3-7.4-0.3s-2.3,5.3-0.3,7.4
					c1.4,1.5,3.5,2,5.3,1.5l5.5,6v13.5c-1.7,0.9-2.9,2.6-2.9,4.7c0,2.9,2.3,5.2,5.2,5.2s5.2-2.3,5.2-5.2
					C331.6,376.1,330.4,374.3,328.7,373.5z"/>
			</g>
		</g>
		<g>
			<g>
				<path class="st0" d="M304,355.4c-1.5-1.5-3.5-1.9-5.4-1.2l-35-35.2H212l-13.1-13.1v-70.3c1.7-0.9,2.9-2.6,2.9-4.7
					c0-2.9-2.3-5.2-5.2-5.2s-5.2,2.3-5.2,5.2c0,2.1,1.2,3.8,2.9,4.7v72.2l15.8,15.8h51.6l33.8,33.8c-0.6,1.8-0.2,3.9,1.2,5.4
					c2,2,5.4,2,7.4,0C306.1,360.7,306.1,357.4,304,355.4z"/>
			</g>
		</g>
		<g>
			<g>
				<path class="st0" d="M289.8,373.7c-1.6-1.3-3.7-1.5-5.4-0.8l-6.7-5.7v-12.7l-19.1-18.2c0.6-1.8,0.1-3.9-1.4-5.3
					c-2.1-2-5.4-1.9-7.4,0.2s-1.9,5.4,0.2,7.4c1.5,1.4,3.6,1.8,5.4,1.1l17.6,16.8v12.8l8.3,7.1c-0.5,1.9,0.1,3.9,1.7,5.2
					c2.2,1.9,5.5,1.6,7.4-0.6C292.3,378.8,292,375.5,289.8,373.7z"/>
			</g>
		</g>
		<g>
			<g>
				<path class="st0" d="M289.4,410.6c-1.5-1.5-3.5-1.9-5.4-1.2l-25.8-25.8v-28.1L235.7,333h-35.4l-18.9-19v-61
					c1.7-0.9,2.9-2.6,2.9-4.7c0-2.9-2.3-5.2-5.2-5.2s-5.2,2.3-5.2,5.2c0,2.1,1.2,3.8,2.9,4.7v62.9l21.6,21.6h35.4l19.8,19.8v28.1
					l27.2,27.2c-0.6,1.8-0.2,3.9,1.2,5.4c2,2,5.4,2,7.4,0C291.5,415.9,291.5,412.6,289.4,410.6z"/>
			</g>
		</g>
		<g>
			<g>
				<path class="st0" d="M267.2,410.5v-17.1c0-1.3-1-2.3-2.3-2.3s-2.3,1-2.3,2.3v17.1c-1.7,0.9-2.9,2.6-2.9,4.7
					c0,2.9,2.3,5.2,5.2,5.2s5.2-2.3,5.2-5.2C270.1,413.2,269,411.4,267.2,410.5z"/>
			</g>
		</g>
		<g>
			<g>
				<path class="st0" d="M244,424.5v-46.3c1.7-0.9,2.9-2.6,2.9-4.7c0-2.9-2.3-5.2-5.2-5.2s-5.2,2.3-5.2,5.2c0,2.1,1.2,3.8,2.9,4.7
					v46.3c-1.7,0.9-2.9,2.6-2.9,4.7c0,2.9,2.3,5.2,5.2,5.2s5.2-2.3,5.2-5.2C247,427.1,245.8,425.3,244,424.5z"/>
			</g>
		</g>
		<g>
			<g>
				<path class="st0" d="M219.7,430.3v-59c1.7-0.9,2.9-2.6,2.9-4.7c0-2.9-2.3-5.2-5.2-5.2s-5.2,2.3-5.2,5.2c0,2.1,1.2,3.8,2.9,4.7
					v59c-1.7,0.9-2.9,2.6-2.9,4.7c0,2.9,2.3,5.2,5.2,5.2s5.2-2.3,5.2-5.2C222.6,432.9,221.4,431.1,219.7,430.3z"/>
			</g>
		</g>
		<g>
			<g>
				<path class="st0" d="M209.8,348c-2.1,0-3.8,1.2-4.7,2.9h-13.5l-28.8-28.8v-86.5c1.7-0.9,2.9-2.6,2.9-4.7c0-2.9-2.3-5.2-5.2-5.2
					s-5.2,2.3-5.2,5.2c0,2.1,1.2,3.8,2.9,4.7V324l31.5,31.5h15.4c0.9,1.7,2.6,2.9,4.7,2.9c2.9,0,5.2-2.3,5.2-5.2
					S212.7,348,209.8,348z"/>
			</g>
		</g>
		<g>
			<g>
				<path class="st0" d="M207,375.4l-11.8-11.8h-9.6c-0.9-1.7-2.6-2.9-4.7-2.9c-2.9,0-5.2,2.3-5.2,5.2s2.3,5.2,5.2,5.2
					c2.1,0,3.8-1.2,4.7-2.9h7.7l9.1,9.1v22.4l-13.8,13.8c-1.8-0.6-3.9-0.2-5.4,1.2c-2,2-2,5.4,0,7.4s5.4,2,7.4,0
					c1.5-1.5,1.8-3.5,1.2-5.4l15.1-15.1v-26.2H207z"/>
			</g>
		</g>
		<g>
			<g>
				<path class="st0" d="M191.9,383.3c-2-2-5.4-2-7.4,0c-1.5,1.5-1.9,3.5-1.2,5.4l-37,37c-1.8-0.6-3.9-0.2-5.4,1.2c-2,2-2,5.4,0,7.4
					s5.4,2,7.4,0c1.5-1.5,1.9-3.5,1.2-5.4l37-37c1.8,0.6,3.9,0.2,5.4-1.2C193.9,388.7,193.9,385.4,191.9,383.3z"/>
			</g>
		</g>
		<g>
			<g>
				<path class="st0" d="M169.3,351.7l-26.1-26.1v-83c1.7-0.9,2.9-2.6,2.9-4.7c0-2.9-2.3-5.2-5.2-5.2s-5.2,2.3-5.2,5.2
					c0,2.1,1.2,3.8,2.9,4.7v85l26.1,26.1v28.8l-26.2,26.2c-1.8-0.6-3.9-0.2-5.4,1.2c-2,2-2,5.4,0,7.4s5.4,2,7.4,0
					c1.5-1.5,1.9-3.5,1.2-5.4l27.6-27.6V351.7z"/>
			</g>
		</g>
		<g>
			<g>
				<path class="st0" d="M152.5,354.6l-6.4-6.4c0.6-1.8,0.2-3.9-1.2-5.4c-2-2-5.4-2-7.4,0s-2,5.4,0,7.4c1.5,1.5,3.5,1.8,5.4,1.2
					l5.1,5.1v18.9l-11,10.9c-1.8-0.6-3.9-0.2-5.4,1.2c-2,2-2,5.4,0,7.4s5.4,2,7.4,0c1.5-1.5,1.8-3.5,1.2-5.4l12.2-12.2v-22.7H152.5z
					"/>
			</g>
		</g>
		<g>
			<g>
				<path class="st0" d="M140.9,364.4c-1.5-1.5-3.5-1.9-5.4-1.2l-8.6-8.6v-40.2c1.7-0.9,2.9-2.6,2.9-4.7c0-2.9-2.3-5.2-5.2-5.2
					s-5.2,2.3-5.2,5.2c0,2.1,1.2,3.8,2.9,4.7v42.1l9.9,9.9c-0.6,1.8-0.2,3.9,1.2,5.4c2,2,5.4,2,7.4,0
					C142.9,369.7,142.9,366.4,140.9,364.4z"/>
			</g>
		</g>
		<g>
			<g>
				<path class="st0" d="M123.5,421v-42.1l-5.3-5.3c0.6-1.8,0.2-3.9-1.2-5.4c-2-2-5.4-2-7.4,0s-2,5.4,0,7.4c1.5,1.5,3.5,1.8,5.4,1.2
					l3.9,3.9V421c-1.7,0.9-2.9,2.6-2.9,4.7c0,2.9,2.3,5.2,5.2,5.2s5.2-2.3,5.2-5.2C126.4,423.6,125.2,421.8,123.5,421z"/>
			</g>
		</g>
		<g>
			<g>
				<path class="st0" d="M107.7,353.7c1.8,0.6,3.9,0.2,5.4-1.2c2-2,2-5.4,0-7.4s-5.4-2-7.4,0c-1.5,1.5-1.8,3.5-1.2,5.4l-12.2,12.2
					v21.6l9.3,9.3c-0.6,1.8-0.2,3.9,1.2,5.4c2,2,5.4,2,7.4,0s2-5.4,0-7.4c-1.5-1.5-3.5-1.8-5.4-1.2l-8-8v-17.8L107.7,353.7z"/>
			</g>
		</g>
		<g>
			<g>
				<path class="st0" d="M113,319.6c-2-2-5.4-2-7.4,0c-1.5,1.5-1.8,3.5-1.2,5.4l-27.9,27.9V389l20.6,20.6v9.1
					c-1.7,0.9-2.9,2.6-2.9,4.7c0,2.9,2.3,5.2,5.2,5.2s5.2-2.3,5.2-5.2c0-2.1-1.2-3.8-2.9-4.7v-11.1L81.2,387v-32.3l26.5-26.5
					c1.8,0.6,3.9,0.2,5.4-1.2C115.1,324.9,115.1,321.6,113,319.6z"/>
			</g>
		</g>
		<g>
			<g>
				<path class="st0" d="M113.6,256.4c0-2.9-2.3-5.2-5.2-5.2s-5.2,2.3-5.2,5.2c0,2.1,1.2,3.8,2.9,4.7v35.5l-50.3,50.3
					c-1.8-0.6-3.9-0.2-5.4,1.2c-2,2-2,5.4,0,7.4s5.4,2,7.4,0c1.5-1.5,1.9-3.5,1.2-5.4l51.6-51.6v-37.4
					C112.4,260.2,113.6,258.5,113.6,256.4z"/>
			</g>
		</g>
		<g>
			<g>
				<path class="st0" d="M221.7,79.3c-2-2-5.4-2-7.4,0c-1.5,1.5-1.9,3.5-1.2,5.4l-27.6,27.6v29.6L165.4,162H133l-24.5,24.5v44.4
					c-1.7,0.9-2.9,2.6-2.9,4.7c0,2.9,2.3,5.2,5.2,5.2s5.2-2.3,5.2-5.2c0-2.1-1.2-3.8-2.9-4.7v-42.5l21.8-21.8h32.5l22.8-22.8v-29.6
					L216.4,88c1.8,0.6,3.9,0.2,5.4-1.2C223.8,84.7,223.8,81.4,221.7,79.3z"/>
			</g>
		</g>
		<g>
			<g>
				<path class="st0" d="M201.7,80.2c0-2.9-2.3-5.2-5.2-5.2s-5.2,2.3-5.2,5.2c0,2.1,1.2,3.8,2.9,4.7v19.7c0,1.3,1,2.3,2.3,2.3
					s2.3-1,2.3-2.3V84.9C200.6,84,201.7,82.3,201.7,80.2z"/>
			</g>
		</g>
		<g>
			<g>
				<path class="st0" d="M169.3,87.2c0-2.9-2.3-5.2-5.2-5.2s-5.2,2.3-5.2,5.2c0,2.1,1.2,3.8,2.9,4.7v45.9l-5.1,5.1
					c-1.8-0.6-3.9-0.2-5.4,1.2c-2,2-2,5.4,0,7.4s5.4,2,7.4,0c1.5-1.5,1.8-3.5,1.2-5.4l6.4-6.4V91.8C168.1,91,169.3,89.2,169.3,87.2z
					"/>
			</g>
		</g>
		<g>
			<g>
				<path class="st0" d="M150.1,128.8V96.5c1.7-0.9,2.9-2.6,2.9-4.7c0-2.9-2.3-5.2-5.2-5.2s-5.2,2.3-5.2,5.2c0,2.1,1.2,3.8,2.9,4.7
					v32.4c-1.7,0.9-2.9,2.6-2.9,4.7c0,2.9,2.3,5.2,5.2,5.2s5.2-2.3,5.2-5.2C153.1,131.5,151.9,129.7,150.1,128.8z"/>
			</g>
		</g>
		<g>
			<g>
				<path class="st0" d="M132.1,95.4c0.6-1.8,0.2-3.9-1.2-5.4c-2-2-5.4-2-7.4,0s-2,5.4,0,7.4c1.5,1.5,3.5,1.8,5.4,1.2l3.9,3.9v21.3
					l-9.7,9.7h-6c-0.9-1.7-2.6-2.9-4.7-2.9c-2.9,0-5.2,2.3-5.2,5.2s2.3,5.2,5.2,5.2c2.1,0,3.8-1.2,4.7-2.9h7.9l12.4-12.4v-25.1
					L132.1,95.4z"/>
			</g>
		</g>
		<g>
			<g>
				<path class="st0" d="M103.2,110.3c0-2.9-2.3-5.2-5.2-5.2s-5.2,2.3-5.2,5.2c0,2.1,1.2,3.8,2.9,4.7v30.9l-22,22v24.7
					c-1.7,0.9-2.9,2.6-2.9,4.7c0,2.9,2.3,5.2,5.2,5.2s5.2-2.3,5.2-5.2c0-2.1-1.2-3.8-2.9-4.7v-22.8l22-22V115
					C102,114.2,103.2,112.4,103.2,110.3z"/>
			</g>
		</g>
		<g>
			<g>
				<path class="st0" d="M87,125.4c0-2.9-2.3-5.2-5.2-5.2s-5.2,2.3-5.2,5.2c0,2.1,1.2,3.8,2.9,4.7v14.6l-5.7,5.7
					c-1.8-0.6-3.9-0.2-5.4,1.2c-2,2-2,5.4,0,7.4s5.4,2,7.4,0c1.5-1.5,1.8-3.5,1.2-5.4l7-7V130C85.8,129.2,87,127.5,87,125.4z"/>
			</g>
		</g>
		<g>
			<g>
				<path class="st0" d="M69,131.8c-2-2-5.4-2-7.4,0c-1.5,1.5-1.9,3.5-1.2,5.4l-8.2,8.2v39.2c-1.7,0.9-2.9,2.6-2.9,4.7
					c0,2.9,2.3,5.2,5.2,5.2s5.2-2.3,5.2-5.2c0-2.1-1.2-3.8-2.9-4.7v-37.3l6.8-6.8c1.8,0.6,3.9,0.2,5.4-1.2
					C71,137.1,71,133.8,69,131.8z"/>
			</g>
		</g>
		<g>
			<g>
				<path class="st0" d="M138,142.8c-2.1,0-3.8,1.2-4.7,2.9h-11.9l-31.5,31.5v109.3c-1.7,0.9-2.9,2.6-2.9,4.7c0,2.9,2.3,5.2,5.2,5.2
					c2.9,0,5.2-2.3,5.2-5.2c0-2.1-1.2-3.8-2.9-4.7V179.1l28.8-28.8h10c0.9,1.7,2.6,2.9,4.7,2.9c2.9,0,5.2-2.3,5.2-5.2
					S140.8,142.8,138,142.8z"/>
			</g>
		</g>
		<g>
			<g>
				<path class="st0" d="M49.9,207.3c-1.5-1.5-3.5-1.9-5.4-1.2l-15.6-15.6c0.6-1.8,0.2-3.9-1.2-5.4c-2-2-5.4-2-7.4,0s-2,5.4,0,7.4
					c1.5,1.5,3.5,1.9,5.4,1.2l15.6,15.6c-0.6,1.8-0.2,3.9,1.2,5.4c2,2,5.4,2,7.4,0C51.9,212.6,51.9,209.3,49.9,207.3z"/>
			</g>
		</g>
		<g>
			<g>
				<path class="st0" d="M69,208.3c-2-2-5.4-2-7.4,0c-1.5,1.5-1.9,3.5-1.2,5.4l-19,19c-1.8-0.6-3.9-0.2-5.4,1.2c-2,2-2,5.4,0,7.4
					s5.4,2,7.4,0c1.5-1.5,1.9-3.5,1.2-5.4l19-19c1.8,0.6,3.9,0.2,5.4-1.2C71,213.6,71,210.3,69,208.3z"/>
			</g>
		</g>
		<g>
			<g>
				<path class="st0" d="M79.4,224.5c-2-2-5.4-2-7.4,0c-1.5,1.5-1.9,3.5-1.2,5.4l-23.7,23.7c-1.8-0.6-3.9-0.2-5.4,1.2
					c-2,2-2,5.4,0,7.4s5.4,2,7.4,0c1.5-1.5,1.8-3.5,1.2-5.4L74,233.1c1.8,0.6,3.9,0.2,5.4-1.2C81.5,229.9,81.5,226.6,79.4,224.5z"/>
			</g>
		</g>
		<g>
			<g>
				<path class="st0" d="M81.7,251.2c-2-2-5.4-2-7.4,0c-1.5,1.5-1.9,3.5-1.2,5.4l-12.1,12c-1.8-0.6-3.9-0.2-5.4,1.2
					c-2,2-2,5.4,0,7.4s5.4,2,7.4,0c1.5-1.5,1.9-3.5,1.2-5.4l12.1-12.1c1.8,0.6,3.9,0.2,5.4-1.2C83.8,256.5,83.8,253.2,81.7,251.2z"
					/>
			</g>
		</g>
		<g>
			<g>
				<path class="st0" d="M75.9,308.5v-21.9c1.7-0.9,2.9-2.6,2.9-4.7c0-2.9-2.3-5.2-5.2-5.2s-5.2,2.3-5.2,5.2c0,2.1,1.2,3.8,2.9,4.7
					v21.9c-1.7,0.9-2.9,2.6-2.9,4.7c0,2.9,2.3,5.2,5.2,5.2s5.2-2.3,5.2-5.2C78.9,311.1,77.7,309.4,75.9,308.5z"/>
			</g>
		</g>
		<g>
			<g>
				<path class="st0" d="M56.2,305.1v-10.8l-25.5-25.5v-18.1c1.7-0.9,2.9-2.6,2.9-4.7c0-2.9-2.3-5.2-5.2-5.2s-5.2,2.3-5.2,5.2
					c0,2.1,1.2,3.8,2.9,4.7v20l25.5,25.5v8.9c-1.7,0.9-2.9,2.6-2.9,4.7c0,2.9,2.3,5.2,5.2,5.2s5.2-2.3,5.2-5.2
					C59.2,307.7,58,305.9,56.2,305.1z"/>
			</g>
		</g>
		<g>
			<g>
				<path class="st0" d="M63.8,367.4c-2.1,0-3.8,1.2-4.7,2.9H54l-9.9-9.9v-20.7l11.5-11.5c1.8,0.6,3.9,0.2,5.4-1.2c2-2,2-5.4,0-7.4
					s-5.4-2-7.4,0c-1.5,1.5-1.9,3.5-1.2,5.4l-12.8,12.8v24.5L52.3,375h7c0.9,1.7,2.6,2.9,4.7,2.9c2.9,0,5.2-2.3,5.2-5.2
					S66.7,367.4,63.8,367.4z"/>
			</g>
		</g>
		<g>
			<g>
				<path class="st0" d="M30.7,328.2v-32.4c1.7-0.9,2.9-2.6,2.9-4.7c0-2.9-2.3-5.2-5.2-5.2s-5.2,2.3-5.2,5.2c0,2.1,1.2,3.8,2.9,4.7
					v32.4c-1.7,0.9-2.9,2.6-2.9,4.7c0,2.9,2.3,5.2,5.2,5.2s5.2-2.3,5.2-5.2C33.6,330.9,32.5,329.1,30.7,328.2z"/>
			</g>
		</g>
		<g>
			<g>
				<path class="st0" d="M13.3,305.1v-66c1.7-0.9,2.9-2.6,2.9-4.7c0-2.9-2.3-5.2-5.2-5.2s-5.2,2.3-5.2,5.2c0,2.1,1.2,3.8,2.9,4.7v66
					c-1.7,0.9-2.9,2.6-2.9,4.7c0,2.9,2.3,5.2,5.2,5.2s5.2-2.3,5.2-5.2C16.3,307.7,15.1,305.9,13.3,305.1z"/>
			</g>
		</g>
	</g>
	<g>
		<path class="st1" d="M734.1,194.9c-1.9,2.2-4.7,4.7-8.3,7.6c-3.6,2.9-8.2,5.6-13.6,8.2c-5.4,2.5-11.8,4.7-19.2,6.4
			c-7.3,1.7-15.7,2.6-24.9,2.6c-14.7,0-27.3-2.3-37.9-6.9c-10.6-4.6-19.3-10.6-26.1-18.1S592.2,178.6,589,169
			c-3.3-9.7-4.9-19.6-4.9-29.7c0-11.8,2-22.4,6.1-31.9S600,89.8,607.4,83s16.3-11.9,26.7-15.6c10.4-3.6,21.9-5.4,34.5-5.4
			c8.7,0,16.5,0.9,23.3,2.6s12.8,4.1,17.9,7.2c5.1,3,9.3,6.7,12.7,10.9c3.4,4.2,6.2,8.8,8.4,13.7h-16.1c-1-3-2.8-6.1-5.3-9
			c-2.5-3-5.8-5.6-9.8-8c-4-2.3-8.6-4.2-13.7-5.7c-5.2-1.5-10.9-2.2-17.1-2.2c-9.2,0-17.6,1.7-25.4,5c-7.8,3.3-14.5,8-20.2,13.9
			c-5.7,6-10.1,13-13.2,21.2c-3.1,8.2-4.7,17.3-4.7,27.1c0,9.3,1.5,18.2,4.5,26.8s7.4,16.1,13.2,22.7c5.8,6.5,13.1,11.8,21.8,15.7
			s18.7,5.9,30.1,5.9c20.3,0,37.9-7,52.7-20.9L734.1,194.9z"/>
		<path class="st1" d="M778.7,217.1h-18.5V64.6h18.5V217.1z"/>
		<path class="st1" d="M825.8,65.5c2.3-2.3,5.1-3.5,8.3-3.5s6,1.2,8.3,3.5c2.3,2.3,3.5,5.1,3.5,8.3c0,3.2-1.2,6-3.5,8.3
			s-5.1,3.5-8.3,3.5s-6-1.2-8.3-3.5s-3.5-5.1-3.5-8.3S823.5,67.8,825.8,65.5z M843.7,108.2v108.9h-18.5V108.2H843.7z"/>
		<path class="st1" d="M956.2,205.5c5-2,10.1-5,15.1-9.3l6.3,8.3c-4.9,3.8-11,7.3-18.2,10.5s-15.6,4.8-25.2,4.8
			c-8.6,0-16.3-1.5-23.1-4.5s-12.7-7-17.5-12.2c-4.9-5.2-8.6-11.3-11.2-18.3c-2.6-7-3.9-14.6-3.9-22.8c0-7.7,1.2-15,3.6-21.8
			c2.4-6.8,6-12.8,10.8-17.9s10.7-9.1,17.6-12.1c7-3,15-4.5,24.2-4.5c4.4,0,8.9,0.4,13.6,1.2c4.7,0.8,9.2,2.3,13.3,4.4
			s7.8,4.9,11,8.3s5.5,7.7,7,13h-15c-1.6-5.1-4.9-9.4-9.8-12.9c-4.9-3.5-10.8-5.2-17.4-5.2c-4.1,0-8.4,0.8-12.9,2.5
			s-8.6,4.4-12.3,8.1s-6.8,8.6-9.3,14.8s-3.7,13.7-3.7,22.6c0,8.6,1.1,15.8,3.4,21.7c2.3,5.9,5.3,10.6,9,14.2
			c3.8,3.6,8.1,6.1,13,7.7c4.9,1.6,9.9,2.4,15.1,2.4C945.7,208.4,951.2,207.4,956.2,205.5z"/>
		<path class="st1" d="M1022.1,162.2l53.6-54h14.2l-41.6,41.8l54.7,67.1h-24.4l-43.8-53.8l-12.6,12.9v41h-18.5V64.6h18.5
			L1022.1,162.2L1022.1,162.2z"/>
		<polygon class="st1" points="686.1,299.1 686.1,311.1 607.5,311.1 607.5,365.8 675,365.8 675,375.8 607.5,375.8 607.5,439.7 
			686.1,439.7 686.1,451.7 587.6,451.7 587.6,299.1 		"/>
		<path class="st1" d="M767.2,367.6c0-1.9-0.5-3.9-1.5-6.1s-2.6-4.2-4.8-6s-4.8-3.3-8-4.6c-3.2-1.2-6.9-1.9-11.3-1.9
			c-4.3,0-8,0.6-10.9,1.9c-2.9,1.2-5.2,2.8-6.9,4.6c-1.7,1.8-3,3.8-3.7,5.9s-1.1,4.1-1.1,6c0,4.5,1.6,8,4.9,10.5
			c3.3,2.5,7.3,4.6,12.3,6.3c4.9,1.7,10.2,3.4,16,5c5.7,1.6,11,3.7,16,6.2c4.9,2.5,9,5.9,12.3,10.1s4.9,9.8,4.9,16.8
			c0,9.6-3.4,17.3-10.1,23.2c-6.8,5.9-16.8,8.8-30.2,8.8c-7.4,0-13.9-0.9-19.5-2.7c-5.6-1.8-10.3-4.3-14.2-7.3s-6.7-6.5-8.6-10.3
			c-1.9-3.8-2.8-7.8-2.8-11.9h14c0,1.7,0.5,3.9,1.6,6.5s2.9,5.2,5.4,7.7s5.8,4.7,9.8,6.5s8.9,2.7,14.7,2.7c4.6,0,8.5-0.6,11.5-1.9
			c3-1.2,5.4-2.8,7.2-4.6c1.7-1.8,2.9-3.8,3.6-6c0.7-2.2,1-4.3,1-6.3c0-4.8-1.6-8.6-4.8-11.3c-3.2-2.8-7.2-5-11.9-6.9
			c-4.8-1.8-10-3.5-15.5-5c-5.6-1.5-10.8-3.5-15.5-6c-4.8-2.5-8.8-5.7-11.9-9.8c-3.2-4.1-4.8-9.6-4.8-16.6c0-5.1,0.9-9.5,2.8-13.4
			c1.9-3.8,4.5-7.1,7.7-9.7c3.3-2.6,7.1-4.6,11.5-5.9s9.2-2,14.2-2c5.4,0,10.4,0.7,15.1,2.1c4.7,1.4,8.8,3.3,12.4,5.7
			c3.5,2.4,6.3,5.3,8.4,8.6c2,3.3,3,7,3,10.9h-12.3V367.6z"/>
		<path class="st1" d="M885.8,440c5-2,10.1-5,15.1-9.3l6.3,8.3c-4.9,3.8-11,7.3-18.2,10.5s-15.6,4.8-25.2,4.8
			c-8.6,0-16.3-1.5-23.1-4.5s-12.7-7-17.5-12.2c-4.9-5.2-8.6-11.3-11.2-18.3c-2.6-7-3.9-14.6-3.9-22.8c0-7.7,1.2-15,3.6-21.8
			c2.4-6.8,6-12.8,10.8-17.9s10.7-9.1,17.6-12.1c7-3,15-4.5,24.2-4.5c4.4,0,8.9,0.4,13.6,1.2c4.7,0.8,9.2,2.3,13.3,4.4
			s7.8,4.9,11,8.3s5.5,7.7,7,13h-15c-1.6-5.1-4.9-9.4-9.8-12.9c-4.9-3.5-10.8-5.2-17.4-5.2c-4.1,0-8.4,0.8-12.9,2.5
			s-8.6,4.4-12.3,8.1s-6.8,8.6-9.3,14.8c-2.5,6.2-3.7,13.7-3.7,22.6c0,8.6,1.1,15.8,3.4,21.7c2.3,5.9,5.3,10.6,9,14.2
			c3.8,3.6,8.1,6.1,13,7.7s9.9,2.4,15.1,2.4C875.3,442.9,880.8,442,885.8,440z"/>
		<path class="st1" d="M951.7,342.7v71.9c0,1.5,0.1,3.7,0.4,6.9c0.3,3.1,1.3,6.3,2.9,9.5c1.7,3.2,4.2,6,7.6,8.4
			c3.4,2.4,8.2,3.6,14.3,3.6c3.8,0,7.4-0.7,10.9-2s6.5-3.3,9.2-6c2.6-2.7,4.7-6.1,6.3-10.1c1.6-4.1,2.4-8.9,2.4-14.6v-67.5h18.5
			v108.9h-18.5V438h-0.9l-3.5,3.5c-5.1,5.1-10.1,8.5-15.1,10.3s-9.6,2.6-13.8,2.5c-9.6,0-17-1.6-22.3-4.9s-9.2-7.1-11.7-11.5
			s-4-8.9-4.5-13.5s-0.8-8.2-0.8-10.8v-70.8L951.7,342.7L951.7,342.7z"/>
		<path class="st1" d="M1156.5,397.4c0-9.7-1.4-18.2-4.1-25.3c-2.8-7.1-6.5-13-11.2-17.6s-10.2-8.1-16.4-10.5
			c-6.2-2.3-12.9-3.5-19.8-3.5c-7.4,0-14.2,1.3-20.5,3.8c-6.2,2.5-11.7,6.2-16.3,11.1c-4.7,4.9-8.3,10.8-10.9,17.6
			c-2.6,6.9-3.9,14.7-3.9,23.4c0,7.3,1.1,14.3,3.4,21.2c2.2,6.9,5.7,13.1,10.2,18.5c4.6,5.5,10.4,9.8,17.4,13.1
			c7,3.3,15.4,4.9,24.9,4.9c9.3,0,17.9-1.6,25.7-4.9c7.8-3.3,14.7-8,20.5-14l-7-7c-3,2.6-5.9,5-8.6,7.2s-5.4,4-8.2,5.4
			s-5.6,2.6-8.6,3.4s-6.3,1.2-9.9,1.2c-4.1,0-8.4-0.6-12.9-1.9c-4.6-1.2-8.8-3.5-12.7-6.6c-3.9-3.2-7.2-7.6-9.8-13.3
			c-2.6-5.7-3.9-12.9-3.9-21.8h82.6L1156.5,397.4L1156.5,397.4z M1074,393.3c0-5.8,0.6-11.4,1.8-16.9c1.2-5.4,3.1-10.3,5.6-14.5
			s5.7-7.6,9.6-10.1s8.5-3.8,13.9-3.8c10.2,0,18.2,4,23.9,12.1c5.7,8.1,8.6,19.1,8.6,33.2L1074,393.3L1074,393.3z"/>
		<rect x="1189.2" y="299.1" class="st1" width="18.5" height="152.5"/>
		<path class="st1" d="M1329.1,373c-0.4-6.2-2-11.8-4.7-16.6c-2.7-4.8-6.9-8.7-12.8-11.7c-5.8-3-14-4.5-24.6-4.5
			c-6.4,0-11.8,0.5-16.4,1.6c-4.5,1.1-8.4,2.5-11.7,4.3c-3.3,1.7-6,3.7-8.3,5.9c-2.3,2.2-4.4,4.4-6.4,6.5l11.2,11.3
			c2-3.3,4.1-6.4,6.1-9c2-2.7,4.3-4.9,6.7-6.8c2.4-1.8,5.1-3.2,8.2-4.2s6.6-1.5,10.7-1.5c9.5,0,16,2.9,19.6,8.7
			c3.6,5.8,5.4,14.7,5.4,26.6v9.4c-3.8-4.6-8.6-8.2-14.5-10.8c-5.9-2.5-12.1-3.8-18.6-3.8s-12.3,1.2-17.4,3.5s-9.4,5.3-12.9,9
			s-6.1,7.9-7.8,12.5c-1.7,4.7-2.6,9.3-2.6,13.9c0,4.5,0.8,8.9,2.4,13.3s4,8.3,7.2,11.8s7.2,6.3,12,8.5s10.3,3.3,16.6,3.3
			c6.5,0,13.1-1.2,19.6-3.6s11.9-5.6,16.1-9.7v10.7h17.6v-59.5C1329.8,385.6,1329.5,379.2,1329.1,373z M1312.1,425.3
			c-1.3,2.9-3,5.6-5,8.1s-4.3,4.6-6.9,6.4s-5.3,3.2-8.1,4.2c-2.8,1-5.7,1.5-8.4,1.5c-2.9,0-6-0.6-9.2-1.7c-3.2-1.2-6.1-2.9-8.8-5.3
			c-2.6-2.4-4.8-5.3-6.5-8.7c-1.7-3.4-2.5-7.4-2.5-12.1c0-3.9,0.7-7.7,2-11.3c1.3-3.6,3.2-6.8,5.6-9.5s5.4-4.9,8.9-6.5
			c3.5-1.7,7.4-2.5,11.6-2.5s7.9,0.8,10.9,2.3c3.1,1.5,5.7,3.4,7.9,5.6c2.2,2.2,4,4.4,5.4,6.8c1.4,2.3,2.4,4.4,3.2,6.1L1312.1,425.3
			L1312.1,425.3z"/>
	</g>
	<g>
		<rect x="476.2" y="11.5" class="st2" width="5.1" height="493.3"/>
	</g>
</g>
</svg>
