<?xml version="1.0" encoding="utf-8"?>
<!-- Generator: Adobe Illustrator 25.0.0, SVG Export Plug-In . SVG Version: 6.00 Build 0)  -->
<svg version="1.1" id="Layer_1" xmlns="http://www.w3.org/2000/svg" xmlns:xlink="http://www.w3.org/1999/xlink" x="0px" y="0px"
	 viewBox="0 0 419.5 434.6" style="enable-background:new 0 0 419.5 434.6;" xml:space="preserve">
<style type="text/css">
	.st0{fill:#2D5C84;}
	.st1{opacity:0;fill:#2D5C84;}
</style>
<g>
	<g>
		<g>
			<path class="st0" d="M338.5,184.8V95.4c1.9-1,3.2-2.9,3.2-5.3c0-3.2-2.5-5.8-5.8-5.8c-3.3,0-5.8,2.5-5.8,5.8
				c0,2.4,1.3,4.2,3.2,5.3v89.4c-1.9,1-3.2,2.9-3.2,5.3c0,3.2,2.5,5.8,5.8,5.8c3.3,0,5.8-2.5,5.8-5.8
				C341.7,187.8,340.4,185.8,338.5,184.8z"/>
		</g>
	</g>
	<g>
		<g>
			<path class="st0" d="M358,157.6v-45.3c1.9-1,3.2-2.9,3.2-5.3c0-3.2-2.5-5.8-5.8-5.8c-3.3,0-5.8,2.5-5.8,5.8
				c0,2.4,1.3,4.2,3.2,5.3v45.3c-1.9,1-3.2,2.9-3.2,5.3c0,3.2,2.5,5.8,5.8,5.8c3.3,0,5.8-2.5,5.8-5.8
				C361.3,160.5,359.8,158.5,358,157.6z"/>
		</g>
	</g>
	<g>
		<g>
			<path class="st0" d="M388.5,146c0-3.2-2.5-5.8-5.8-5.8c-3.3,0-5.8,2.5-5.8,5.8c0,2.4,1.3,4.2,3.2,5.3v8.6l-27.8,27.8v58.1
				c-1.9,1-3.2,2.9-3.2,5.3c0,3.2,2.5,5.8,5.8,5.8c3.2,0,5.8-2.5,5.8-5.8c0-2.4-1.3-4.2-3.2-5.3v-55.9l27.8-27.8v-10.8
				C387.2,150.3,388.5,148.4,388.5,146z"/>
		</g>
	</g>
	<g>
		<g>
			<path class="st0" d="M399.4,283.3v-14.6l-22.1-22.1v-45c1.9-1,3.2-2.9,3.2-5.3c0-3.2-2.5-5.8-5.8-5.8c-3.3,0-5.8,2.5-5.8,5.8
				c0,2.4,1.3,4.2,3.2,5.3v47.1l22.1,22.1v12.5c-1.9,1-3.2,2.9-3.2,5.3c0,3.2,2.5,5.8,5.8,5.8c3.3,0,5.8-2.5,5.8-5.8
				C402.7,286.3,401.4,284.3,399.4,283.3z"/>
		</g>
	</g>
	<g>
		<g>
			<path class="st0" d="M396.2,178.5c0-3.2-2.5-5.8-5.8-5.8c-3.3,0-5.8,2.5-5.8,5.8c0,2.4,1.3,4.2,3.2,5.3v79.7
				c0,1.4,1.1,2.5,2.5,2.5s2.5-1.1,2.5-2.5v-79.8C394.9,182.7,396.2,180.6,396.2,178.5z"/>
		</g>
	</g>
	<g>
		<g>
			<path class="st0" d="M376.1,299v-27.2c1.9-1,3.2-2.9,3.2-5.3c0-3.2-2.5-5.8-5.8-5.8c-3.3,0-5.8,2.5-5.8,5.8
				c0,2.4,1.3,4.2,3.2,5.3V299c-1.9,1-3.2,2.9-3.2,5.3c0,3.2,2.5,5.8,5.8,5.8c3.3,0,5.8-2.5,5.8-5.8
				C379.4,301.9,378.1,299.9,376.1,299z"/>
		</g>
	</g>
	<g>
		<g>
			<ellipse class="st0" cx="385.9" cy="325" rx="5.8" ry="5.8"/>
		</g>
	</g>
	<g>
		<g>
			<circle class="st0" cx="343.1" cy="354.7" r="5.8"/>
		</g>
	</g>
	<g>
		<g>
			<ellipse class="st0" cx="326.3" cy="370.3" rx="5.8" ry="5.8"/>
		</g>
	</g>
	<g>
		<g>
			<circle class="st0" cx="217.3" cy="417" r="5.8"/>
		</g>
	</g>
	<g>
		<g>
			<circle class="st0" cx="254.9" cy="325" r="5.8"/>
		</g>
	</g>
	<g>
		<g>
			<circle class="st0" cx="188.7" cy="417" r="5.8"/>
		</g>
	</g>
	<g>
		<g>
			<circle class="st0" cx="85.1" cy="387.1" r="5.8"/>
		</g>
	</g>
	<g>
		<g>
			<ellipse transform="matrix(0.9732 -0.2298 0.2298 0.9732 -83.1146 24.3544)" class="st0" cx="63" cy="369" rx="5.8" ry="5.8"/>
		</g>
	</g>
	<g>
		<g>
			<ellipse class="st0" cx="29.2" cy="174.5" rx="5.8" ry="5.8"/>
		</g>
	</g>
	<g>
		<g>
			<circle class="st0" cx="39.6" cy="121.4" r="5.8"/>
		</g>
	</g>
	<g>
		<g>
			<circle class="st0" cx="133.1" cy="55.1" r="5.8"/>
		</g>
	</g>
	<g>
		<g>
			<circle class="st0" cx="201.7" cy="42.3" r="5.8"/>
		</g>
	</g>
	<g>
		<g>
			<circle class="st0" cx="266.6" cy="42.3" r="5.8"/>
		</g>
	</g>
	<g>
		<g>
			<circle class="st0" cx="260.1" cy="66.9" r="5.8"/>
		</g>
	</g>
	<g>
		<g>
			<circle class="st0" cx="280.8" cy="113.6" r="5.8"/>
		</g>
	</g>
	<g>
		<g>
			<ellipse class="st0" cx="279.5" cy="135.5" rx="5.8" ry="5.8"/>
		</g>
	</g>
	<g>
		<g>
			
				<ellipse transform="matrix(0.1602 -0.9871 0.9871 0.1602 65.0095 376.1696)" class="st0" cx="253.6" cy="149.9" rx="5.8" ry="5.8"/>
		</g>
	</g>
	<g>
		<g>
			<ellipse class="st0" cx="339.2" cy="275.7" rx="5.8" ry="5.8"/>
		</g>
	</g>
	<g>
		<g>
			<path class="st0" d="M342.4,296.5c-1.7-1.7-4-2.2-6-1.3l-28-28h-58.7c-1-1.9-2.9-3.2-5.3-3.2c-3.2,0-5.8,2.5-5.8,5.8
				c0,3.3,2.5,5.8,5.8,5.8c2.4,0,4.2-1.3,5.3-3.2h56.6l26.4,26.4c-0.7,2-0.2,4.3,1.3,6c2.3,2.3,6,2.3,8.3,0
				C344.5,302.6,344.7,298.9,342.4,296.5z"/>
		</g>
	</g>
	<g>
		<g>
			<path class="st0" d="M332.7,243.1c-2.4,0-4.2,1.3-5.3,3.2h-86.8c-1-1.9-2.9-3.2-5.3-3.2c-3.2,0-5.8,2.5-5.8,5.8
				c0,3.3,2.5,5.8,5.8,5.8c2.4,0,4.2-1.3,5.3-3.2h86.8c1,1.9,2.9,3.2,5.3,3.2c3.2,0,5.8-2.5,5.8-5.8
				C338.5,245.7,336,243.1,332.7,243.1z"/>
		</g>
	</g>
	<g>
		<g>
			<path class="st0" d="M339.9,207.6c-2.3-2.3-6-2.3-8.3,0c-1.7,1.7-2,4-1.3,6l-12.2,12.2h-19c-1-1.9-2.9-3.2-5.3-3.2
				c-3.2,0-5.8,2.5-5.8,5.8s2.5,5.8,5.8,5.8c2.4,0,4.2-1.3,5.3-3.2h21.1l13.7-13.7c2,0.7,4.3,0.2,6-1.3
				C342.1,213.5,342.1,209.9,339.9,207.6z"/>
		</g>
	</g>
	<g>
		<g>
			<path class="st0" d="M326.2,64.4c0-3.2-2.5-5.8-5.8-5.8c-3.3,0-5.8,2.5-5.8,5.8c0,2.4,1.3,4.2,3.2,5.3v78.6l-23.4,23.4v31.6
				c-1.9,1-3.2,2.9-3.2,5.3c0,3.2,2.5,5.8,5.8,5.8c3.3,0,5.8-2.5,5.8-5.8c0-2.4-1.3-4.2-3.2-5.3v-29.4l23.4-23.4V69.7
				C324.9,68.6,326.2,66.5,326.2,64.4z"/>
		</g>
	</g>
	<g>
		<g>
			<path class="st0" d="M316.5,178.3v-22.6c0-1.4-1.1-2.5-2.5-2.5s-2.5,1.1-2.5,2.5v22.6c-1.9,1-3.2,2.9-3.2,5.3
				c0,3.2,2.5,5.8,5.8,5.8c3.3,0,5.8-2.5,5.8-5.8C319.8,181.3,318.4,179.3,316.5,178.3z"/>
		</g>
	</g>
	<g>
		<g>
			<path class="st0" d="M302.2,127.7v-20.7c1.9-1,3.2-2.9,3.2-5.3c0-3.2-2.5-5.8-5.8-5.8s-5.8,2.5-5.8,5.8c0,2.4,1.3,4.2,3.2,5.3
				v20.7c-1.9,1-3.2,2.9-3.2,5.3c0,3.2,2.5,5.8,5.8,5.8s5.8-2.5,5.8-5.8C305.5,130.6,304.2,128.8,302.2,127.7z"/>
		</g>
	</g>
	<g>
		<g>
			<path class="st0" d="M306.1,45.5c-2.5-2-6.1-1.7-8.3,0.8c-1.4,1.8-1.7,4.1-0.8,6.1l-19.8,24.2c-2.2-0.5-4.3,0.2-5.8,2
				c-2,2.5-1.7,6.1,0.8,8.3c2.5,2,6.1,1.7,8.3-0.8c1.4-1.8,1.7-4.1,0.8-6.1l19.8-24.2c2.2,0.5,4.3-0.2,5.8-2
				C309,51.2,308.6,47.6,306.1,45.5z"/>
		</g>
	</g>
	<g>
		<g>
			<path class="st0" d="M295.2,144.6c-2.3-2.3-6-2.3-8.3,0c-1.7,1.7-2.2,4-1.3,6l-15.7,15.7v57.4c-1.9,1-3.2,2.9-3.2,5.3
				c0,3.2,2.5,5.8,5.8,5.8c3.3,0,5.8-2.5,5.8-5.8c0-2.4-1.3-4.2-3.2-5.3v-55.3l14-14c2,0.7,4.3,0.2,6-1.3
				C297.3,150.6,297.3,147,295.2,144.6z"/>
		</g>
	</g>
	<g>
		<g>
			<path class="st0" d="M274.2,185.1l-15.6-15.6c0.7-2,0.2-4.3-1.3-6c-2.3-2.3-6-2.3-8.3,0c-2.3,2.3-2.3,6,0,8.3
				c1.7,1.7,4,2.2,6,1.3l15.6,15.6c0.6,0.6,1.1,0.8,1.8,0.8s1.3-0.2,1.8-0.8C275.2,187.7,275.2,186,274.2,185.1z"/>
		</g>
	</g>
	<g>
		<g>
			<path class="st0" d="M263.4,112.8c-2.3-2.3-6-2.3-8.3,0c-1.7,1.7-2.2,4-1.3,6L226,146.6h-57.8c-1-1.9-2.9-3.2-5.3-3.2
				c-3.2,0-5.8,2.5-5.8,5.8s2.5,5.8,5.8,5.8c2.4,0,4.2-1.3,5.3-3.2h60.1l29.2-29.2c2,0.7,4.3,0.2,6-1.3
				C265.5,119,265.5,115.2,263.4,112.8z"/>
		</g>
	</g>
	<g>
		<g>
			<path class="st0" d="M250.7,47.1c-2.3-2.3-6-2.3-8.3,0c-1.7,1.7-2.2,4-1.3,6l-12.1,12.1v24l-18,18c-2-0.7-4.3-0.2-6,1.3
				c-2.3,2.3-2.3,6,0,8.3c2.3,2.3,6,2.3,8.3,0c1.7-1.7,2.2-4,1.3-6l19.4-19.4v-24l10.6-10.6c2,0.7,4.3,0.2,6-1.3
				C252.9,53.1,252.9,49.4,250.7,47.1z"/>
		</g>
	</g>
	<g>
		<g>
			<path class="st0" d="M263,86.7c-2.3-2.3-6-2.3-8.3,0c-1.7,1.7-2.2,4-1.3,6l-36.5,36.5h-64.2l-16.4,16.4v98.9
				c-1.9,1-3.2,2.9-3.2,5.3c0,3.2,2.5,5.8,5.8,5.8c3.3,0,5.8-2.5,5.8-5.8c0-2.4-1.3-4.2-3.2-5.3v-96.7l13.4-13.4h64.2l38-38
				c2,0.7,4.3,0.2,6-1.3C265.3,92.6,265.3,89,263,86.7z"/>
		</g>
	</g>
	<g>
		<g>
			<path class="st0" d="M254.3,223.7v-34.1L230.8,166h-69.1c-1-1.9-2.9-3.2-5.3-3.2c-3.2,0-5.8,2.5-5.8,5.8c0,3.3,2.5,5.8,5.8,5.8
				c2.4,0,4.2-1.3,5.3-3.2h67l20.6,20.6v32c-1.9,1-3.2,2.9-3.2,5.3c0,3.2,2.5,5.8,5.8,5.8s5.8-2.5,5.8-5.8
				C257.5,226.6,256.2,224.7,254.3,223.7z"/>
		</g>
	</g>
	<g>
		<g>
			<path class="st0" d="M368.4,347v-17.3l-7.4-8.2c0.8-2,0.5-4.3-1.1-6c-2.3-2.4-5.9-2.5-8.3-0.4c-2.4,2.3-2.5,5.9-0.4,8.3
				c1.6,1.7,4,2.3,5.9,1.7l6.1,6.7v15.1c-1.9,1-3.2,2.9-3.2,5.3c0,3.2,2.5,5.8,5.8,5.8c3.3,0,5.8-2.5,5.8-5.8
				C371.6,349.9,370.3,347.9,368.4,347z"/>
		</g>
	</g>
	<g>
		<g>
			<path class="st0" d="M340.8,326.8c-1.7-1.7-4-2.2-6-1.3L295.5,286h-57.7l-14.6-14.7v-78.6c1.9-1,3.2-2.9,3.2-5.3
				c0-3.2-2.5-5.8-5.8-5.8c-3.2,0-5.8,2.5-5.8,5.8c0,2.4,1.3,4.2,3.2,5.3v80.7l17.6,17.6h57.7l37.8,37.8c-0.7,2-0.2,4.3,1.3,6
				c2.3,2.3,6,2.3,8.3,0C343.1,332.6,343.1,328.9,340.8,326.8z"/>
		</g>
	</g>
	<g>
		<g>
			<path class="st0" d="M324.9,347.2c-1.8-1.4-4.1-1.7-6-0.8l-7.4-6.4v-14.2L290,305.4c0.7-2,0.1-4.3-1.6-5.9
				c-2.4-2.3-6-2.2-8.3,0.2c-2.3,2.4-2.2,6,0.2,8.3c1.7,1.6,4.1,2,6,1.2l19.7,18.8v14.3l9.2,7.9c-0.6,2.2,0.1,4.3,1.9,5.8
				c2.5,2.2,6.1,1.8,8.3-0.7C327.7,352.9,327.3,349.2,324.9,347.2z"/>
		</g>
	</g>
	<g>
		<g>
			<path class="st0" d="M324.4,388.4c-1.7-1.7-4-2.2-6-1.3l-28.9-28.9v-31.4l-25.2-25.2h-39.6l-21.1-21.3v-68.3
				c1.9-1,3.2-2.9,3.2-5.3c0-3.2-2.5-5.8-5.8-5.8s-5.8,2.5-5.8,5.8c0,2.4,1.3,4.2,3.2,5.3v70.3l24.1,24.1h39.6l22.2,22.2v31.4
				l30.5,30.5c-0.7,2-0.2,4.3,1.3,6c2.3,2.3,6,2.3,8.3,0C326.7,394.4,326.7,390.7,324.4,388.4z"/>
		</g>
	</g>
	<g>
		<g>
			<path class="st0" d="M299.6,388.3v-19.1c0-1.4-1.1-2.5-2.5-2.5c-1.4,0-2.5,1.1-2.5,2.5v19.1c-1.9,1-3.2,2.9-3.2,5.3
				c0,3.2,2.5,5.8,5.8,5.8c3.3,0,5.8-2.5,5.8-5.8C302.8,391.4,301.6,389.4,299.6,388.3z"/>
		</g>
	</g>
	<g>
		<g>
			<path class="st0" d="M273.7,404v-51.8c1.9-1,3.2-2.9,3.2-5.3c0-3.2-2.5-5.8-5.8-5.8c-3.3,0-5.8,2.5-5.8,5.8
				c0,2.4,1.3,4.2,3.2,5.3V404c-1.9,1-3.2,2.9-3.2,5.3c0,3.2,2.5,5.8,5.8,5.8c3.3,0,5.8-2.5,5.8-5.8
				C277,406.9,275.6,404.9,273.7,404z"/>
		</g>
	</g>
	<g>
		<g>
			<path class="st0" d="M246.5,410.5v-66c1.9-1,3.2-2.9,3.2-5.3c0-3.2-2.5-5.8-5.8-5.8s-5.8,2.5-5.8,5.8c0,2.4,1.3,4.2,3.2,5.3v66
				c-1.9,1-3.2,2.9-3.2,5.3c0,3.2,2.5,5.8,5.8,5.8s5.8-2.5,5.8-5.8C249.7,413.4,248.4,411.5,246.5,410.5z"/>
		</g>
	</g>
	<g>
		<g>
			<path class="st0" d="M235.4,318.5c-2.4,0-4.2,1.3-5.3,3.2H215l-32.2-32.2v-96.7c1.9-1,3.2-2.9,3.2-5.3c0-3.2-2.5-5.8-5.8-5.8
				c-3.3,0-5.8,2.5-5.8,5.8c0,2.4,1.3,4.2,3.2,5.3v98.9l35.3,35.3H230c1,1.9,2.9,3.2,5.3,3.2c3.2,0,5.8-2.5,5.8-5.8
				C241.1,320.9,238.7,318.5,235.4,318.5z"/>
		</g>
	</g>
	<g>
		<g>
			<path class="st0" d="M232.3,349.1l-13.2-13.2h-10.7c-1-1.9-2.9-3.2-5.3-3.2c-3.2,0-5.8,2.5-5.8,5.8c0,3.2,2.5,5.8,5.8,5.8
				c2.4,0,4.2-1.3,5.3-3.2h8.6l10.2,10.2v25.1l-15.5,15.5c-2-0.7-4.3-0.2-6,1.3c-2.3,2.3-2.3,6,0,8.3s6,2.3,8.3,0c1.7-1.7,2-4,1.3-6
				l16.9-16.9v-29.3h0.2L232.3,349.1L232.3,349.1z"/>
		</g>
	</g>
	<g>
		<g>
			<path class="st0" d="M215.4,358c-2.3-2.3-6-2.3-8.3,0c-1.7,1.7-2.2,4-1.3,6l-41.4,41.4c-2-0.7-4.3-0.2-6,1.3
				c-2.3,2.3-2.3,6,0,8.3c2.3,2.3,6,2.3,8.3,0c1.7-1.7,2.2-4,1.3-6l41.4-41.4c2,0.7,4.3,0.2,6-1.3C217.6,364,217.6,360.2,215.4,358z
				"/>
		</g>
	</g>
	<g>
		<g>
			<path class="st0" d="M190.1,322.6l-29.2-29.2v-92.9c1.9-1,3.2-2.9,3.2-5.3c0-3.2-2.5-5.8-5.8-5.8c-3.3,0-5.8,2.5-5.8,5.8
				c0,2.4,1.3,4.2,3.2,5.3v95l29.2,29.2V357l-29.3,29.3c-2-0.7-4.3-0.2-6,1.3c-2.3,2.3-2.3,6,0,8.3c2.3,2.3,6,2.3,8.3,0
				c1.7-1.7,2.2-4,1.3-6l30.8-30.8v-36.5L190.1,322.6L190.1,322.6z"/>
		</g>
	</g>
	<g>
		<g>
			<path class="st0" d="M171.3,325.8l-7.2-7.2c0.7-2,0.2-4.3-1.3-6c-2.3-2.3-6-2.3-8.3,0s-2.3,6,0,8.3c1.7,1.7,4,2,6,1.3l5.7,5.7
				V349l-12.3,12.2c-2-0.7-4.3-0.2-6,1.3c-2.3,2.3-2.3,6,0,8.3c2.3,2.3,6,2.3,8.3,0c1.7-1.7,2-4,1.3-6l13.7-13.7L171.3,325.8
				L171.3,325.8L171.3,325.8z"/>
		</g>
	</g>
	<g>
		<g>
			<path class="st0" d="M158.3,336.8c-1.7-1.7-4-2.2-6-1.3l-9.6-9.6v-45c1.9-1,3.2-2.9,3.2-5.3c0-3.2-2.5-5.8-5.8-5.8
				s-5.8,2.5-5.8,5.8c0,2.4,1.3,4.2,3.2,5.3v47.1l11,11c-0.7,2-0.2,4.3,1.3,6c2.3,2.3,6,2.3,8.3,0
				C160.6,342.7,160.6,339,158.3,336.8z"/>
		</g>
	</g>
	<g>
		<g>
			<path class="st0" d="M138.8,400.1V353l-5.9-5.9c0.7-2,0.2-4.3-1.3-6c-2.3-2.3-6-2.3-8.3,0s-2.3,6,0,8.3c1.7,1.7,4,2,6,1.3
				l4.3,4.3v45.2c-1.9,1-3.2,2.9-3.2,5.3c0,3.2,2.5,5.8,5.8,5.8s5.8-2.5,5.8-5.8C142.1,403.1,140.8,401,138.8,400.1z"/>
		</g>
	</g>
	<g>
		<g>
			<path class="st0" d="M121.2,324.8c2,0.7,4.3,0.2,6-1.3c2.3-2.3,2.3-6,0-8.3c-2.3-2.3-6-2.3-8.3,0c-1.7,1.7-2,4-1.3,6l-13.7,13.7
				V359l10.4,10.4c-0.7,2-0.2,4.3,1.3,6c2.3,2.3,6,2.3,8.3,0c2.3-2.3,2.3-6,0-8.3c-1.7-1.7-4-2-6-1.3l-9-9V337L121.2,324.8z"/>
		</g>
	</g>
	<g>
		<g>
			<path class="st0" d="M127.1,286.7c-2.3-2.3-6-2.3-8.3,0c-1.7,1.7-2,4-1.3,6l-31.2,31.2v40.4l23,23v10.2c-1.9,1-3.2,2.9-3.2,5.3
				c0,3.2,2.5,5.8,5.8,5.8s5.8-2.5,5.8-5.8c0-2.4-1.3-4.2-3.2-5.3V385l-22.9-23v-36.1l29.6-29.6c2,0.7,4.3,0.2,6-1.3
				C129.5,292.6,129.5,289,127.1,286.7z"/>
		</g>
	</g>
	<g>
		<g>
			<path class="st0" d="M127.8,216c0-3.2-2.5-5.8-5.8-5.8s-5.8,2.5-5.8,5.8c0,2.4,1.3,4.2,3.2,5.3V261L63,317.3
				c-2-0.7-4.3-0.2-6,1.3c-2.3,2.3-2.3,6,0,8.3c2.3,2.3,6,2.3,8.3,0c1.7-1.7,2.2-4,1.3-6l57.7-57.7v-41.9
				C126.5,220.2,127.8,218.3,127.8,216z"/>
		</g>
	</g>
	<g>
		<g>
			<path class="st0" d="M248.7,17.9c-2.3-2.3-6-2.3-8.3,0c-1.7,1.7-2.2,4-1.3,6l-30.8,30.8v33.1l-22.4,22.4h-36.2l-27.4,27.4v49.7
				c-1.9,1-3.2,2.9-3.2,5.3c0,3.2,2.5,5.8,5.8,5.8c3.2,0,5.8-2.5,5.8-5.8c0-2.4-1.3-4.2-3.2-5.3v-47.5l24.4-24.4h36.4L213.7,90V56.9
				l29-29.2c2,0.7,4.3,0.2,6-1.3C251,23.9,251,20.2,248.7,17.9z"/>
		</g>
	</g>
	<g>
		<g>
			<path class="st0" d="M226.3,18.9c0-3.2-2.5-5.8-5.8-5.8c-3.2,0-5.8,2.5-5.8,5.8c0,2.4,1.3,4.2,3.2,5.3v22.1
				c0,1.4,1.1,2.5,2.5,2.5s2.5-1.1,2.5-2.5V24.2C225.1,23.1,226.3,21.3,226.3,18.9z"/>
		</g>
	</g>
	<g>
		<g>
			<path class="st0" d="M190.1,26.7c0-3.2-2.5-5.8-5.8-5.8c-3.3,0-5.8,2.5-5.8,5.8c0,2.4,1.3,4.2,3.2,5.3v51.3L176,89
				c-2-0.7-4.3-0.2-6,1.3c-2.3,2.3-2.3,6,0,8.3c2.3,2.3,6,2.3,8.3,0c1.7-1.7,2-4,1.3-6l7.2-7.2V31.9C188.7,31,190.1,29,190.1,26.7z"
				/>
		</g>
	</g>
	<g>
		<g>
			<path class="st0" d="M168.6,73.3V37.1c1.9-1,3.2-2.9,3.2-5.3c0-3.2-2.5-5.8-5.8-5.8s-5.8,2.5-5.8,5.8c0,2.4,1.3,4.2,3.2,5.3v36.2
				c-1.9,1-3.2,2.9-3.2,5.3c0,3.2,2.5,5.8,5.8,5.8s5.8-2.5,5.8-5.8C171.9,76.3,170.6,74.3,168.6,73.3z"/>
		</g>
	</g>
	<g>
		<g>
			<path class="st0" d="M148.4,35.9c0.7-2,0.2-4.3-1.3-6c-2.3-2.3-6-2.3-8.3,0s-2.3,6,0,8.3c1.7,1.7,4,2,6,1.3l4.3,4.3v23.9
				l-10.8,10.8h-6.7c-1-1.9-2.9-3.2-5.3-3.2c-3.2,0-5.8,2.5-5.8,5.8c0,3.3,2.5,5.8,5.8,5.8c2.4,0,4.2-1.3,5.3-3.2h8.9l13.9-14V41.7
				L148.4,35.9z"/>
		</g>
	</g>
	<g>
		<g>
			<path class="st0" d="M116.2,52.6c0-3.2-2.5-5.8-5.8-5.8s-5.8,2.5-5.8,5.8c0,2.4,1.3,4.2,3.2,5.3v34.6l-24.6,24.6v27.5
				c-1.9,1-3.2,2.9-3.2,5.3c0,3.2,2.5,5.8,5.8,5.8s5.8-2.5,5.8-5.8c0-2.4-1.3-4.2-3.2-5.3v-25.5L113,94.5V57.8
				C114.8,56.9,116.2,54.9,116.2,52.6z"/>
		</g>
	</g>
	<g>
		<g>
			<path class="st0" d="M98,69.4c0-3.2-2.5-5.8-5.8-5.8c-3.3,0-5.8,2.5-5.8,5.8c0,2.4,1.3,4.2,3.2,5.3V91l-6.4,6.4
				c-2-0.7-4.3-0.2-6,1.3c-2.3,2.3-2.3,6,0,8.3c2.3,2.3,6,2.3,8.3,0c1.7-1.7,2-4,1.3-6l7.8-7.8V74.6C96.7,73.7,98,71.8,98,69.4z"/>
		</g>
	</g>
	<g>
		<g>
			<path class="st0" d="M77.9,76.6c-2.3-2.3-6-2.3-8.3,0c-1.7,1.7-2.2,4-1.3,6l-9.1,9.1v43.8c-1.9,1-3.2,2.9-3.2,5.3
				c0,3.2,2.5,5.8,5.8,5.8c3.3,0,5.8-2.5,5.8-5.8c0-2.4-1.3-4.2-3.2-5.3V94l7.6-7.6c2,0.7,4.3,0.2,6-1.3
				C80.2,82.6,80.2,78.9,77.9,76.6z"/>
		</g>
	</g>
	<g>
		<g>
			<path class="st0" d="M155,89c-2.4,0-4.2,1.3-5.3,3.2h-13.3l-35.3,35.3v122.3c-1.9,1-3.2,2.9-3.2,5.3c0,3.2,2.5,5.8,5.8,5.8
				c3.2,0,5.8-2.5,5.8-5.8c0-2.4-1.3-4.2-3.2-5.3V129.5l32.2-32.2h11.2c1,1.9,2.9,3.2,5.3,3.2c3.2,0,5.8-2.5,5.8-5.8
				C160.9,91.5,158.2,89,155,89z"/>
		</g>
	</g>
	<g>
		<g>
			<path class="st0" d="M56.5,161.1c-1.7-1.7-4-2.2-6-1.3L33,142.3c0.7-2,0.2-4.3-1.3-6c-2.3-2.3-6-2.3-8.3,0c-2.3,2.3-2.3,6,0,8.3
				c1.7,1.7,4,2.2,6,1.3l17.4,17.4c-0.7,2-0.2,4.3,1.3,6c2.3,2.3,6,2.3,8.3,0C58.8,167,58.8,163.3,56.5,161.1z"/>
		</g>
	</g>
	<g>
		<g>
			<path class="st0" d="M77.9,162.2c-2.3-2.3-6-2.3-8.3,0c-1.7,1.7-2.2,4-1.3,6l-21.2,21.2c-2-0.7-4.3-0.2-6,1.3
				c-2.3,2.3-2.3,6,0,8.3c2.3,2.3,6,2.3,8.3,0c1.7-1.7,2.2-4,1.3-6l21.2-21.2c2,0.7,4.3,0.2,6-1.3C80.2,168.1,80.2,164.4,77.9,162.2
				z"/>
		</g>
	</g>
	<g>
		<g>
			<path class="st0" d="M89.5,180.3c-2.3-2.3-6-2.3-8.3,0c-1.7,1.7-2.2,4-1.3,6l-26.5,26.5c-2-0.7-4.3-0.2-6,1.3
				c-2.3,2.3-2.3,6,0,8.3c2.3,2.3,6,2.3,8.3,0c1.7-1.7,2-4,1.3-6L83.5,190c2,0.7,4.3,0.2,6-1.3C91.9,186.4,91.9,182.7,89.5,180.3z"
				/>
		</g>
	</g>
	<g>
		<g>
			<path class="st0" d="M92.1,210.2c-2.3-2.3-6-2.3-8.3,0c-1.7,1.7-2.2,4-1.3,6l-13.6,13.4c-2-0.7-4.3-0.2-6,1.3
				c-2.3,2.3-2.3,6,0,8.3c2.3,2.3,6,2.3,8.3,0c1.7-1.7,2.2-4,1.3-6l13.6-13.6c2,0.7,4.3,0.2,6-1.3C94.4,216.1,94.4,212.4,92.1,210.2
				z"/>
		</g>
	</g>
	<g>
		<g>
			<path class="st0" d="M85.6,274.3v-24.5c1.9-1,3.2-2.9,3.2-5.3c0-3.2-2.5-5.8-5.8-5.8c-3.2,0-5.8,2.5-5.8,5.8
				c0,2.4,1.3,4.2,3.2,5.3v24.5c-1.9,1-3.2,2.9-3.2,5.3c0,3.2,2.5,5.8,5.8,5.8c3.2,0,5.8-2.5,5.8-5.8
				C88.9,277.2,87.6,275.3,85.6,274.3z"/>
		</g>
	</g>
	<g>
		<g>
			<path class="st0" d="M63.6,270.5v-12.1l-28.5-28.5v-20.3c1.9-1,3.2-2.9,3.2-5.3c0-3.2-2.5-5.8-5.8-5.8s-5.8,2.5-5.8,5.8
				c0,2.4,1.3,4.2,3.2,5.3V232l28.5,28.5v10c-1.9,1-3.2,2.9-3.2,5.3c0,3.2,2.5,5.8,5.8,5.8c3.3,0,5.8-2.5,5.8-5.8
				C67,273.4,65.6,271.3,63.6,270.5z"/>
		</g>
	</g>
	<g>
		<g>
			<path class="st0" d="M72.1,340.2c-2.4,0-4.2,1.3-5.3,3.2h-5.7l-11-11v-23.2l12.8-12.8c2,0.7,4.3,0.2,6-1.3c2.3-2.3,2.3-6,0-8.3
				c-2.3-2.3-6-2.3-8.3,0c-1.7,1.7-2.2,4-1.3,6L45,307.1v27.4l14.2,14.2h7.8c1,1.9,2.9,3.2,5.3,3.2c3.2,0,5.8-2.5,5.8-5.8
				C78.2,342.8,75.4,340.2,72.1,340.2z"/>
		</g>
	</g>
	<g>
		<g>
			<path class="st0" d="M35.1,296.3v-36.2c1.9-1,3.2-2.9,3.2-5.3c0-3.2-2.5-5.8-5.8-5.8s-5.8,2.5-5.8,5.8c0,2.4,1.3,4.2,3.2,5.3
				v36.2c-1.9,1-3.2,2.9-3.2,5.3c0,3.2,2.5,5.8,5.8,5.8s5.8-2.5,5.8-5.8C38.3,299.3,37.1,297.4,35.1,296.3z"/>
		</g>
	</g>
	<g>
		<g>
			<path class="st0" d="M15.6,270.5v-73.8c1.9-1,3.2-2.9,3.2-5.3c0-3.2-2.5-5.8-5.8-5.8c-3.2,0-5.8,2.5-5.8,5.8
				c0,2.4,1.3,4.2,3.2,5.3v73.8c-1.9,1-3.2,2.9-3.2,5.3c0,3.2,2.5,5.8,5.8,5.8s5.8-2.5,5.8-5.8C19,273.4,17.6,271.3,15.6,270.5z"/>
		</g>
	</g>
</g>
<rect x="-9.8" y="3.3" class="st1" width="429.3" height="429.3"/>
</svg>
