<?xml version="1.0" encoding="utf-8"?>
<!-- Generator: Adobe Illustrator 22.0.0, SVG Export Plug-In . SVG Version: 6.00 Build 0)  -->
<svg version="1.1" id="Layer_1" xmlns="http://www.w3.org/2000/svg" xmlns:xlink="http://www.w3.org/1999/xlink" x="0px" y="0px"
	 viewBox="0 0 419.5 434.6" style="enable-background:new 0 0 419.5 434.6;" xml:space="preserve">
<style type="text/css">
	.st0{fill:#9ACD8D;}
</style>
<g>
	<g>
		<g>
			<path class="st0" d="M351.5,182.1V87.3c2-1.1,3.4-3.1,3.4-5.6c0-3.4-2.7-6.2-6.2-6.2s-6.2,2.7-6.2,6.2c0,2.5,1.4,4.5,3.4,5.6
				v94.8c-2,1.1-3.4,3.1-3.4,5.6c0,3.4,2.7,6.2,6.2,6.2s6.2-2.7,6.2-6.2C354.9,185.3,353.5,183.2,351.5,182.1z"/>
		</g>
	</g>
	<g>
		<g>
			<path class="st0" d="M372.1,153.3v-48c2-1.1,3.4-3.1,3.4-5.6c0-3.4-2.7-6.2-6.2-6.2s-6.2,2.7-6.2,6.2c0,2.5,1.4,4.5,3.4,5.6v48
				c-2,1.1-3.4,3.1-3.4,5.6c0,3.4,2.7,6.2,6.2,6.2s6.2-2.7,6.2-6.2C375.6,156.4,374.1,154.2,372.1,153.3z"/>
		</g>
	</g>
	<g>
		<g>
			<path class="st0" d="M404.5,141c0-3.4-2.7-6.2-6.2-6.2s-6.2,2.7-6.2,6.2c0,2.5,1.4,4.5,3.4,5.6v9.1L366,185.2v61.6
				c-2,1.1-3.4,3.1-3.4,5.6c0,3.4,2.7,6.2,6.2,6.2c3.4,0,6.2-2.7,6.2-6.2c0-2.5-1.4-4.5-3.4-5.6v-59.3l29.5-29.5v-11.5
				C403.1,145.5,404.5,143.5,404.5,141z"/>
		</g>
	</g>
	<g>
		<g>
			<path class="st0" d="M416.1,286.6v-15.5l-23.4-23.4V200c2-1.1,3.4-3.1,3.4-5.6c0-3.4-2.7-6.2-6.2-6.2s-6.2,2.7-6.2,6.2
				c0,2.5,1.4,4.5,3.4,5.6v49.9l23.4,23.4v13.3c-2,1.1-3.4,3.1-3.4,5.6c0,3.4,2.7,6.2,6.2,6.2s6.2-2.7,6.2-6.2
				C419.6,289.8,418.2,287.7,416.1,286.6z"/>
		</g>
	</g>
	<g>
		<g>
			<path class="st0" d="M412.7,175.4c0-3.4-2.7-6.2-6.2-6.2s-6.2,2.7-6.2,6.2c0,2.5,1.4,4.5,3.4,5.6v84.5c0,1.5,1.2,2.7,2.7,2.7
				s2.7-1.2,2.7-2.7v-84.6C411.3,179.9,412.7,177.7,412.7,175.4z"/>
		</g>
	</g>
	<g>
		<g>
			<path class="st0" d="M391.3,303.2v-28.8c2-1.1,3.4-3.1,3.4-5.6c0-3.4-2.7-6.2-6.2-6.2s-6.2,2.7-6.2,6.2c0,2.5,1.4,4.5,3.4,5.6
				v28.8c-2,1.1-3.4,3.1-3.4,5.6c0,3.4,2.7,6.2,6.2,6.2s6.2-2.7,6.2-6.2C394.8,306.3,393.5,304.2,391.3,303.2z"/>
		</g>
	</g>
	<g>
		<g>
			<ellipse class="st0" cx="401.7" cy="330.8" rx="6.2" ry="6.2"/>
		</g>
	</g>
	<g>
		<g>
			<circle class="st0" cx="356.3" cy="362.3" r="6.2"/>
		</g>
	</g>
	<g>
		<g>
			<ellipse class="st0" cx="338.5" cy="378.9" rx="6.2" ry="6.2"/>
		</g>
	</g>
	<g>
		<g>
			<circle class="st0" cx="222.9" cy="428.4" r="6.2"/>
		</g>
	</g>
	<g>
		<g>
			<circle class="st0" cx="262.8" cy="330.8" r="6.2"/>
		</g>
	</g>
	<g>
		<g>
			<circle class="st0" cx="192.6" cy="428.4" r="6.2"/>
		</g>
	</g>
	<g>
		<g>
			<circle class="st0" cx="82.7" cy="396.7" r="6.2"/>
		</g>
	</g>
	<g>
		<g>
			
				<ellipse transform="matrix(0.9732 -0.2298 0.2298 0.9732 -85.1634 23.7315)" class="st0" cx="59.3" cy="377.5" rx="6.2" ry="6.2"/>
		</g>
	</g>
	<g>
		<g>
			<ellipse class="st0" cx="23.5" cy="171.2" rx="6.2" ry="6.2"/>
		</g>
	</g>
	<g>
		<g>
			<circle class="st0" cx="34.5" cy="114.9" r="6.2"/>
		</g>
	</g>
	<g>
		<g>
			<circle class="st0" cx="133.6" cy="44.6" r="6.2"/>
		</g>
	</g>
	<g>
		<g>
			<circle class="st0" cx="206.4" cy="31" r="6.2"/>
		</g>
	</g>
	<g>
		<g>
			<circle class="st0" cx="275.2" cy="31" r="6.2"/>
		</g>
	</g>
	<g>
		<g>
			<circle class="st0" cx="268.3" cy="57.1" r="6.2"/>
		</g>
	</g>
	<g>
		<g>
			<circle class="st0" cx="290.3" cy="106.6" r="6.2"/>
		</g>
	</g>
	<g>
		<g>
			<ellipse class="st0" cx="288.9" cy="129.9" rx="6.2" ry="6.2"/>
		</g>
	</g>
	<g>
		<g>
			<circle class="st0" cx="261.4" cy="145.1" r="6.2"/>
		</g>
	</g>
	<g>
		<g>
			<ellipse class="st0" cx="352.2" cy="278.5" rx="6.2" ry="6.2"/>
		</g>
	</g>
	<g>
		<g>
			<path class="st0" d="M355.6,300.6c-1.8-1.8-4.2-2.3-6.4-1.4l-29.7-29.7h-62.3c-1.1-2-3.1-3.4-5.6-3.4c-3.4,0-6.2,2.7-6.2,6.2
				s2.7,6.2,6.2,6.2c2.5,0,4.5-1.4,5.6-3.4h60l28,28c-0.7,2.1-0.2,4.6,1.4,6.4c2.4,2.4,6.4,2.4,8.8,0S358,303.1,355.6,300.6z"/>
		</g>
	</g>
	<g>
		<g>
			<path class="st0" d="M345.3,244c-2.5,0-4.5,1.4-5.6,3.4h-92.1c-1.1-2-3.1-3.4-5.6-3.4c-3.4,0-6.2,2.7-6.2,6.2s2.7,6.2,6.2,6.2
				c2.5,0,4.5-1.4,5.6-3.4h92.1c1.1,2,3.1,3.4,5.6,3.4c3.4,0,6.2-2.7,6.2-6.2S348.8,244,345.3,244z"/>
		</g>
	</g>
	<g>
		<g>
			<path class="st0" d="M352.9,206.3c-2.4-2.4-6.4-2.4-8.8,0c-1.8,1.8-2.1,4.2-1.4,6.4l-12.9,12.9h-20.2c-1.1-2-3.1-3.4-5.6-3.4
				c-3.4,0-6.2,2.7-6.2,6.2s2.7,6.2,6.2,6.2c2.5,0,4.5-1.4,5.6-3.4H332l14.5-14.5c2.1,0.7,4.6,0.2,6.4-1.4
				C355.3,212.6,355.3,208.7,352.9,206.3z"/>
		</g>
	</g>
	<g>
		<g>
			<path class="st0" d="M338.4,54.4c0-3.4-2.7-6.2-6.2-6.2s-6.2,2.7-6.2,6.2c0,2.5,1.4,4.5,3.4,5.6v83.4l-24.8,24.8v33.5
				c-2,1.1-3.4,3.1-3.4,5.6c0,3.4,2.7,6.2,6.2,6.2s6.2-2.7,6.2-6.2c0-2.5-1.4-4.5-3.4-5.6v-31.2l24.8-24.8V60.1
				C337,58.9,338.4,56.7,338.4,54.4z"/>
		</g>
	</g>
	<g>
		<g>
			<path class="st0" d="M328.1,175.2v-24c0-1.5-1.2-2.7-2.7-2.7s-2.7,1.2-2.7,2.7v24c-2,1.1-3.4,3.1-3.4,5.6c0,3.4,2.7,6.2,6.2,6.2
				s6.2-2.7,6.2-6.2C331.6,178.4,330.1,176.3,328.1,175.2z"/>
		</g>
	</g>
	<g>
		<g>
			<path class="st0" d="M313,121.6V99.7c2-1.1,3.4-3.1,3.4-5.6c0-3.4-2.7-6.2-6.2-6.2s-6.2,2.7-6.2,6.2c0,2.5,1.4,4.5,3.4,5.6v21.9
				c-2,1.1-3.4,3.1-3.4,5.6c0,3.4,2.7,6.2,6.2,6.2s6.2-2.7,6.2-6.2C316.5,124.7,315.1,122.7,313,121.6z"/>
		</g>
	</g>
	<g>
		<g>
			<path class="st0" d="M317.1,34.4c-2.6-2.1-6.5-1.8-8.8,0.9c-1.5,1.9-1.8,4.4-0.8,6.5l-21,25.7c-2.3-0.5-4.6,0.2-6.2,2.1
				c-2.1,2.6-1.8,6.5,0.9,8.8c2.6,2.1,6.5,1.8,8.8-0.9c1.5-1.9,1.8-4.4,0.8-6.5l21-25.7c2.3,0.5,4.6-0.2,6.2-2.1
				C320.2,40.5,319.8,36.6,317.1,34.4z"/>
		</g>
	</g>
	<g>
		<g>
			<path class="st0" d="M305.5,139.5c-2.4-2.4-6.4-2.4-8.8,0c-1.8,1.8-2.3,4.2-1.4,6.4l-16.6,16.6v60.9c-2,1.1-3.4,3.1-3.4,5.6
				c0,3.4,2.7,6.2,6.2,6.2s6.2-2.7,6.2-6.2c0-2.5-1.4-4.5-3.4-5.6v-58.6l14.9-14.9c2.1,0.7,4.6,0.2,6.4-1.4
				C307.8,145.9,307.8,142,305.5,139.5z"/>
		</g>
	</g>
	<g>
		<g>
			<path class="st0" d="M283.3,182.4l-16.5-16.5c0.7-2.1,0.2-4.6-1.4-6.4c-2.4-2.4-6.4-2.4-8.8,0c-2.4,2.4-2.4,6.4,0,8.8
				c1.8,1.8,4.2,2.3,6.4,1.4l16.5,16.5c0.6,0.6,1.2,0.8,1.9,0.8s1.4-0.2,1.9-0.8C284.3,185.2,284.3,183.4,283.3,182.4z"/>
		</g>
	</g>
	<g>
		<g>
			<path class="st0" d="M271.8,105.8c-2.4-2.4-6.4-2.4-8.8,0c-1.8,1.8-2.3,4.2-1.4,6.4l-29.4,29.4h-61.3c-1.1-2-3.1-3.4-5.6-3.4
				c-3.4,0-6.2,2.7-6.2,6.2s2.7,6.2,6.2,6.2c2.5,0,4.5-1.4,5.6-3.4h63.7l31-31c2.1,0.7,4.6,0.2,6.4-1.4
				C274.1,112.3,274.1,108.3,271.8,105.8z"/>
		</g>
	</g>
	<g>
		<g>
			<path class="st0" d="M258.4,36.1c-2.4-2.4-6.4-2.4-8.8,0c-1.8,1.8-2.3,4.2-1.4,6.4l-12.8,12.8v25.4l-19.1,19.1
				c-2.1-0.7-4.6-0.2-6.4,1.4c-2.4,2.4-2.4,6.4,0,8.8s6.4,2.4,8.8,0c1.8-1.8,2.3-4.2,1.4-6.4L240.7,83V57.6l11.2-11.2
				c2.1,0.7,4.6,0.2,6.4-1.4C260.7,42.5,260.7,38.5,258.4,36.1z"/>
		</g>
	</g>
	<g>
		<g>
			<path class="st0" d="M271.4,78.1c-2.4-2.4-6.4-2.4-8.8,0c-1.8,1.8-2.3,4.2-1.4,6.4l-38.7,38.7h-68.1L137,140.6v104.9
				c-2,1.1-3.4,3.1-3.4,5.6c0,3.4,2.7,6.2,6.2,6.2s6.2-2.7,6.2-6.2c0-2.5-1.4-4.5-3.4-5.6V142.9l14.2-14.2h68.1l40.3-40.3
				c2.1,0.7,4.6,0.2,6.4-1.4C273.8,84.4,273.8,80.5,271.4,78.1z"/>
		</g>
	</g>
	<g>
		<g>
			<path class="st0" d="M262.2,223.4v-36.2l-25-25h-73.3c-1.1-2-3.1-3.4-5.6-3.4c-3.4,0-6.2,2.7-6.2,6.2s2.7,6.2,6.2,6.2
				c2.5,0,4.5-1.4,5.6-3.4H235l21.8,21.8v33.9c-2,1.1-3.4,3.1-3.4,5.6c0,3.4,2.7,6.2,6.2,6.2s6.2-2.7,6.2-6.2
				C265.6,226.5,264.2,224.5,262.2,223.4z"/>
		</g>
	</g>
	<g>
		<g>
			<path class="st0" d="M383.2,354.1v-18.3l-7.9-8.7c0.8-2.1,0.5-4.6-1.2-6.4c-2.4-2.5-6.3-2.7-8.8-0.4c-2.5,2.4-2.7,6.3-0.4,8.8
				c1.7,1.8,4.2,2.4,6.3,1.8l6.5,7.1v16c-2,1.1-3.4,3.1-3.4,5.6c0,3.4,2.7,6.2,6.2,6.2s6.2-2.7,6.2-6.2
				C386.6,357.2,385.2,355.1,383.2,354.1z"/>
		</g>
	</g>
	<g>
		<g>
			<path class="st0" d="M353.9,332.7c-1.8-1.8-4.2-2.3-6.4-1.4l-41.6-41.8h-61.2l-15.5-15.6v-83.4c2-1.1,3.4-3.1,3.4-5.6
				c0-3.4-2.7-6.2-6.2-6.2c-3.4,0-6.2,2.7-6.2,6.2c0,2.5,1.4,4.5,3.4,5.6v85.6l18.7,18.7h61.2l40.1,40.1c-0.7,2.1-0.2,4.6,1.4,6.4
				c2.4,2.4,6.4,2.4,8.8,0C356.3,338.9,356.3,335,353.9,332.7z"/>
		</g>
	</g>
	<g>
		<g>
			<path class="st0" d="M337,354.4c-1.9-1.5-4.4-1.8-6.4-0.9l-7.9-6.8v-15.1L300,310c0.7-2.1,0.1-4.6-1.7-6.3
				c-2.5-2.4-6.4-2.3-8.8,0.2s-2.3,6.4,0.2,8.8c1.8,1.7,4.3,2.1,6.4,1.3l20.9,19.9v15.2l9.8,8.4c-0.6,2.3,0.1,4.6,2,6.2
				c2.6,2.3,6.5,1.9,8.8-0.7C340,360.4,339.6,356.5,337,354.4z"/>
		</g>
	</g>
	<g>
		<g>
			<path class="st0" d="M336.5,398.1c-1.8-1.8-4.2-2.3-6.4-1.4l-30.6-30.6v-33.3l-26.7-26.7h-42l-22.4-22.6v-72.4
				c2-1.1,3.4-3.1,3.4-5.6c0-3.4-2.7-6.2-6.2-6.2s-6.2,2.7-6.2,6.2c0,2.5,1.4,4.5,3.4,5.6v74.6l25.6,25.6h42l23.5,23.5v33.3
				l32.3,32.3c-0.7,2.1-0.2,4.6,1.4,6.4c2.4,2.4,6.4,2.4,8.8,0C339,404.4,339,400.5,336.5,398.1z"/>
		</g>
	</g>
	<g>
		<g>
			<path class="st0" d="M310.2,398v-20.3c0-1.5-1.2-2.7-2.7-2.7s-2.7,1.2-2.7,2.7V398c-2,1.1-3.4,3.1-3.4,5.6c0,3.4,2.7,6.2,6.2,6.2
				s6.2-2.7,6.2-6.2C313.6,401.2,312.3,399.1,310.2,398z"/>
		</g>
	</g>
	<g>
		<g>
			<path class="st0" d="M282.7,414.6v-54.9c2-1.1,3.4-3.1,3.4-5.6c0-3.4-2.7-6.2-6.2-6.2s-6.2,2.7-6.2,6.2c0,2.5,1.4,4.5,3.4,5.6
				v54.9c-2,1.1-3.4,3.1-3.4,5.6c0,3.4,2.7,6.2,6.2,6.2s6.2-2.7,6.2-6.2C286.2,417.7,284.8,415.6,282.7,414.6z"/>
		</g>
	</g>
	<g>
		<g>
			<path class="st0" d="M253.9,421.5v-70c2-1.1,3.4-3.1,3.4-5.6c0-3.4-2.7-6.2-6.2-6.2s-6.2,2.7-6.2,6.2c0,2.5,1.4,4.5,3.4,5.6v70
				c-2,1.1-3.4,3.1-3.4,5.6c0,3.4,2.7,6.2,6.2,6.2s6.2-2.7,6.2-6.2C257.3,424.6,255.9,422.5,253.9,421.5z"/>
		</g>
	</g>
	<g>
		<g>
			<path class="st0" d="M242.1,323.9c-2.5,0-4.5,1.4-5.6,3.4h-16l-34.2-34.2V190.5c2-1.1,3.4-3.1,3.4-5.6c0-3.4-2.7-6.2-6.2-6.2
				s-6.2,2.7-6.2,6.2c0,2.5,1.4,4.5,3.4,5.6v104.9l37.4,37.4h18.3c1.1,2,3.1,3.4,5.6,3.4c3.4,0,6.2-2.7,6.2-6.2
				S245.6,323.9,242.1,323.9z"/>
		</g>
	</g>
	<g>
		<g>
			<path class="st0" d="M238.8,356.4l-14-14h-11.4c-1.1-2-3.1-3.4-5.6-3.4c-3.4,0-6.2,2.7-6.2,6.2c0,3.4,2.7,6.2,6.2,6.2
				c2.5,0,4.5-1.4,5.6-3.4h9.1l10.8,10.8v26.6l-16.4,16.4c-2.1-0.7-4.6-0.2-6.4,1.4c-2.4,2.4-2.4,6.4,0,8.8s6.4,2.4,8.8,0
				c1.8-1.8,2.1-4.2,1.4-6.4l17.9-17.9v-31.1h0.2V356.4z"/>
		</g>
	</g>
	<g>
		<g>
			<path class="st0" d="M220.9,365.8c-2.4-2.4-6.4-2.4-8.8,0c-1.8,1.8-2.3,4.2-1.4,6.4l-43.9,43.9c-2.1-0.7-4.6-0.2-6.4,1.4
				c-2.4,2.4-2.4,6.4,0,8.8s6.4,2.4,8.8,0c1.8-1.8,2.3-4.2,1.4-6.4l43.9-43.9c2.1,0.7,4.6,0.2,6.4-1.4
				C223.2,372.2,223.2,368.2,220.9,365.8z"/>
		</g>
	</g>
	<g>
		<g>
			<path class="st0" d="M194.1,328.3l-31-31v-98.5c2-1.1,3.4-3.1,3.4-5.6c0-3.4-2.7-6.2-6.2-6.2s-6.2,2.7-6.2,6.2
				c0,2.5,1.4,4.5,3.4,5.6v100.8l31,31v34.2l-31.1,31.1c-2.1-0.7-4.6-0.2-6.4,1.4c-2.4,2.4-2.4,6.4,0,8.8s6.4,2.4,8.8,0
				c1.8-1.8,2.3-4.2,1.4-6.4l32.7-32.7v-38.7H194.1z"/>
		</g>
	</g>
	<g>
		<g>
			<path class="st0" d="M174.1,331.7l-7.6-7.6c0.7-2.1,0.2-4.6-1.4-6.4c-2.4-2.4-6.4-2.4-8.8,0c-2.4,2.4-2.4,6.4,0,8.8
				c1.8,1.8,4.2,2.1,6.4,1.4l6,6v22.4l-13,12.9c-2.1-0.7-4.6-0.2-6.4,1.4c-2.4,2.4-2.4,6.4,0,8.8s6.4,2.4,8.8,0
				c1.8-1.8,2.1-4.2,1.4-6.4l14.5-14.5v-26.9h0.1V331.7z"/>
		</g>
	</g>
	<g>
		<g>
			<path class="st0" d="M160.4,343.3c-1.8-1.8-4.2-2.3-6.4-1.4l-10.2-10.2V284c2-1.1,3.4-3.1,3.4-5.6c0-3.4-2.7-6.2-6.2-6.2
				s-6.2,2.7-6.2,6.2c0,2.5,1.4,4.5,3.4,5.6v49.9l11.7,11.7c-0.7,2.1-0.2,4.6,1.4,6.4c2.4,2.4,6.4,2.4,8.8,0
				C162.8,349.6,162.8,345.7,160.4,343.3z"/>
		</g>
	</g>
	<g>
		<g>
			<path class="st0" d="M139.7,410.5v-50l-6.3-6.3c0.7-2.1,0.2-4.6-1.4-6.4c-2.4-2.4-6.4-2.4-8.8,0c-2.4,2.4-2.4,6.4,0,8.8
				c1.8,1.8,4.2,2.1,6.4,1.4l4.6,4.6v47.9c-2,1.1-3.4,3.1-3.4,5.6c0,3.4,2.7,6.2,6.2,6.2s6.2-2.7,6.2-6.2
				C143.2,413.6,141.8,411.4,139.7,410.5z"/>
		</g>
	</g>
	<g>
		<g>
			<path class="st0" d="M121,330.6c2.1,0.7,4.6,0.2,6.4-1.4c2.4-2.4,2.4-6.4,0-8.8s-6.4-2.4-8.8,0c-1.8,1.8-2.1,4.2-1.4,6.4
				l-14.5,14.5v25.6l11,11c-0.7,2.1-0.2,4.6,1.4,6.4c2.4,2.4,6.4,2.4,8.8,0s2.4-6.4,0-8.8c-1.8-1.8-4.2-2.1-6.4-1.4l-9.5-9.5v-21.1
				L121,330.6z"/>
		</g>
	</g>
	<g>
		<g>
			<path class="st0" d="M127.3,290.2c-2.4-2.4-6.4-2.4-8.8,0c-1.8,1.8-2.1,4.2-1.4,6.4L84,329.7v42.8l24.4,24.4v10.8
				c-2,1.1-3.4,3.1-3.4,5.6c0,3.4,2.7,6.2,6.2,6.2s6.2-2.7,6.2-6.2c0-2.5-1.4-4.5-3.4-5.6v-13.2l-24.3-24.4v-38.3l31.4-31.4
				c2.1,0.7,4.6,0.2,6.4-1.4C129.8,296.5,129.8,292.6,127.3,290.2z"/>
		</g>
	</g>
	<g>
		<g>
			<path class="st0" d="M128,215.2c0-3.4-2.7-6.2-6.2-6.2s-6.2,2.7-6.2,6.2c0,2.5,1.4,4.5,3.4,5.6v42.1l-59.7,59.7
				c-2.1-0.7-4.6-0.2-6.4,1.4c-2.4,2.4-2.4,6.4,0,8.8s6.4,2.4,8.8,0c1.8-1.8,2.3-4.2,1.4-6.4l61.2-61.2v-44.4
				C126.6,219.7,128,217.7,128,215.2z"/>
		</g>
	</g>
	<g>
		<g>
			<path class="st0" d="M256.2,5.1c-2.4-2.4-6.4-2.4-8.8,0c-1.8,1.8-2.3,4.2-1.4,6.4l-32.7,32.7v35.1l-23.8,23.8h-38.4L122,132.2
				v52.7c-2,1.1-3.4,3.1-3.4,5.6c0,3.4,2.7,6.2,6.2,6.2c3.4,0,6.2-2.7,6.2-6.2c0-2.5-1.4-4.5-3.4-5.6v-50.4l25.9-25.9h38.6l27-27
				V46.5l30.8-31c2.1,0.7,4.6,0.2,6.4-1.4C258.7,11.5,258.7,7.6,256.2,5.1z"/>
		</g>
	</g>
	<g>
		<g>
			<path class="st0" d="M232.5,6.2c0-3.4-2.7-6.2-6.2-6.2c-3.4,0-6.2,2.7-6.2,6.2c0,2.5,1.4,4.5,3.4,5.6v23.4c0,1.5,1.2,2.7,2.7,2.7
				c1.5,0,2.7-1.2,2.7-2.7V11.8C231.2,10.7,232.5,8.7,232.5,6.2z"/>
		</g>
	</g>
	<g>
		<g>
			<path class="st0" d="M194.1,14.5c0-3.4-2.7-6.2-6.2-6.2s-6.2,2.7-6.2,6.2c0,2.5,1.4,4.5,3.4,5.6v54.4l-6,6
				c-2.1-0.7-4.6-0.2-6.4,1.4c-2.4,2.4-2.4,6.4,0,8.8s6.4,2.4,8.8,0c1.8-1.8,2.1-4.2,1.4-6.4l7.6-7.6V20
				C192.6,19,194.1,16.9,194.1,14.5z"/>
		</g>
	</g>
	<g>
		<g>
			<path class="st0" d="M171.3,63.9V25.5c2-1.1,3.4-3.1,3.4-5.6c0-3.4-2.7-6.2-6.2-6.2s-6.2,2.7-6.2,6.2c0,2.5,1.4,4.5,3.4,5.6v38.4
				c-2,1.1-3.4,3.1-3.4,5.6c0,3.4,2.7,6.2,6.2,6.2s6.2-2.7,6.2-6.2C174.8,67.1,173.4,64.9,171.3,63.9z"/>
		</g>
	</g>
	<g>
		<g>
			<path class="st0" d="M149.9,24.2c0.7-2.1,0.2-4.6-1.4-6.4c-2.4-2.4-6.4-2.4-8.8,0c-2.4,2.4-2.4,6.4,0,8.8
				c1.8,1.8,4.2,2.1,6.4,1.4l4.6,4.6v25.3l-11.5,11.5h-7.1c-1.1-2-3.1-3.4-5.6-3.4c-3.4,0-6.2,2.7-6.2,6.2s2.7,6.2,6.2,6.2
				c2.5,0,4.5-1.4,5.6-3.4h9.4l14.7-14.8V30.4L149.9,24.2z"/>
		</g>
	</g>
	<g>
		<g>
			<path class="st0" d="M115.7,41.9c0-3.4-2.7-6.2-6.2-6.2s-6.2,2.7-6.2,6.2c0,2.5,1.4,4.5,3.4,5.6v36.7l-26.1,26.1v29.2
				c-2,1.1-3.4,3.1-3.4,5.6c0,3.4,2.7,6.2,6.2,6.2s6.2-2.7,6.2-6.2c0-2.5-1.4-4.5-3.4-5.6v-27l26.1-26.1V47.5
				C114.2,46.5,115.7,44.4,115.7,41.9z"/>
		</g>
	</g>
	<g>
		<g>
			<path class="st0" d="M96.4,59.8c0-3.4-2.7-6.2-6.2-6.2S84,56.3,84,59.8c0,2.5,1.4,4.5,3.4,5.6v17.3l-6.8,6.8
				c-2.1-0.7-4.6-0.2-6.4,1.4c-2.4,2.4-2.4,6.4,0,8.8c2.4,2.4,6.4,2.4,8.8,0c1.8-1.8,2.1-4.2,1.4-6.4l8.3-8.3V65.3
				C95,64.3,96.4,62.3,96.4,59.8z"/>
		</g>
	</g>
	<g>
		<g>
			<path class="st0" d="M75.1,67.4c-2.4-2.4-6.4-2.4-8.8,0c-1.8,1.8-2.3,4.2-1.4,6.4l-9.7,9.7V130c-2,1.1-3.4,3.1-3.4,5.6
				c0,3.4,2.7,6.2,6.2,6.2s6.2-2.7,6.2-6.2c0-2.5-1.4-4.5-3.4-5.6V85.8l8.1-8.1c2.1,0.7,4.6,0.2,6.4-1.4
				C77.5,73.7,77.5,69.8,75.1,67.4z"/>
		</g>
	</g>
	<g>
		<g>
			<path class="st0" d="M156.9,80.5c-2.5,0-4.5,1.4-5.6,3.4h-14.1l-37.4,37.4V251c-2,1.1-3.4,3.1-3.4,5.6c0,3.4,2.7,6.2,6.2,6.2
				c3.4,0,6.2-2.7,6.2-6.2c0-2.5-1.4-4.5-3.4-5.6V123.5l34.2-34.2h11.9c1.1,2,3.1,3.4,5.6,3.4c3.4,0,6.2-2.7,6.2-6.2
				C163.1,83.2,160.3,80.5,156.9,80.5z"/>
		</g>
	</g>
	<g>
		<g>
			<path class="st0" d="M52.4,157c-1.8-1.8-4.2-2.3-6.4-1.4l-18.5-18.5c0.7-2.1,0.2-4.6-1.4-6.4c-2.4-2.4-6.4-2.4-8.8,0
				c-2.4,2.4-2.4,6.4,0,8.8c1.8,1.8,4.2,2.3,6.4,1.4l18.5,18.4c-0.7,2.1-0.2,4.6,1.4,6.4c2.4,2.4,6.4,2.4,8.8,0
				C54.8,163.3,54.8,159.3,52.4,157z"/>
		</g>
	</g>
	<g>
		<g>
			<path class="st0" d="M75.1,158.2c-2.4-2.4-6.4-2.4-8.8,0c-1.8,1.8-2.3,4.2-1.4,6.4l-22.5,22.5c-2.1-0.7-4.6-0.2-6.4,1.4
				c-2.4,2.4-2.4,6.4,0,8.8c2.4,2.4,6.4,2.4,8.8,0c1.8-1.8,2.3-4.2,1.4-6.4l22.5-22.5c2.1,0.7,4.6,0.2,6.4-1.4
				C77.5,164.4,77.5,160.5,75.1,158.2z"/>
		</g>
	</g>
	<g>
		<g>
			<path class="st0" d="M87.4,177.4c-2.4-2.4-6.4-2.4-8.8,0c-1.8,1.8-2.3,4.2-1.4,6.4l-28.1,28.1c-2.1-0.7-4.6-0.2-6.4,1.4
				c-2.4,2.4-2.4,6.4,0,8.8s6.4,2.4,8.8,0c1.8-1.8,2.1-4.2,1.4-6.4L81,187.6c2.1,0.7,4.6,0.2,6.4-1.4
				C89.9,183.8,89.9,179.9,87.4,177.4z"/>
		</g>
	</g>
	<g>
		<g>
			<path class="st0" d="M90.2,209.1c-2.4-2.4-6.4-2.4-8.8,0c-1.8,1.8-2.3,4.2-1.4,6.4l-14.4,14.2c-2.1-0.7-4.6-0.2-6.4,1.4
				c-2.4,2.4-2.4,6.4,0,8.8s6.4,2.4,8.8,0c1.8-1.8,2.3-4.2,1.4-6.4l14.4-14.4c2.1,0.7,4.6,0.2,6.4-1.4
				C92.6,215.3,92.6,211.4,90.2,209.1z"/>
		</g>
	</g>
	<g>
		<g>
			<path class="st0" d="M83.3,277v-26c2-1.1,3.4-3.1,3.4-5.6c0-3.4-2.7-6.2-6.2-6.2c-3.4,0-6.2,2.7-6.2,6.2c0,2.5,1.4,4.5,3.4,5.6
				v26c-2,1.1-3.4,3.1-3.4,5.6c0,3.4,2.7,6.2,6.2,6.2c3.4,0,6.2-2.7,6.2-6.2C86.8,280.1,85.4,278.1,83.3,277z"/>
		</g>
	</g>
	<g>
		<g>
			<path class="st0" d="M59.9,273v-12.8L29.7,230v-21.5c2-1.1,3.4-3.1,3.4-5.6c0-3.4-2.7-6.2-6.2-6.2s-6.2,2.7-6.2,6.2
				c0,2.5,1.4,4.5,3.4,5.6v23.7l30.2,30.2V273c-2,1.1-3.4,3.1-3.4,5.6c0,3.4,2.7,6.2,6.2,6.2s6.2-2.7,6.2-6.2
				C63.5,276.1,62,273.9,59.9,273z"/>
		</g>
	</g>
	<g>
		<g>
			<path class="st0" d="M68.9,346.9c-2.5,0-4.5,1.4-5.6,3.4h-6l-11.7-11.7V314l13.6-13.6c2.1,0.7,4.6,0.2,6.4-1.4
				c2.4-2.4,2.4-6.4,0-8.8c-2.4-2.4-6.4-2.4-8.8,0c-1.8,1.8-2.3,4.2-1.4,6.4l-15.2,15.2v29.1L55.3,356h8.3c1.1,2,3.1,3.4,5.6,3.4
				c3.4,0,6.2-2.7,6.2-6.2S72.4,346.9,68.9,346.9z"/>
		</g>
	</g>
	<g>
		<g>
			<path class="st0" d="M29.7,300.4V262c2-1.1,3.4-3.1,3.4-5.6c0-3.4-2.7-6.2-6.2-6.2s-6.2,2.7-6.2,6.2c0,2.5,1.4,4.5,3.4,5.6v38.4
				c-2,1.1-3.4,3.1-3.4,5.6c0,3.4,2.7,6.2,6.2,6.2s6.2-2.7,6.2-6.2C33.1,303.6,31.8,301.5,29.7,300.4z"/>
		</g>
	</g>
	<g>
		<g>
			<path class="st0" d="M9,273v-78.3c2-1.1,3.4-3.1,3.4-5.6c0-3.4-2.7-6.2-6.2-6.2c-3.4,0-6.2,2.7-6.2,6.2c0,2.5,1.4,4.5,3.4,5.6
				V273c-2,1.1-3.4,3.1-3.4,5.6c0,3.4,2.7,6.2,6.2,6.2s6.2-2.7,6.2-6.2C12.6,276.1,11.1,273.9,9,273z"/>
		</g>
	</g>
</g>
</svg>
