<svg id="Layer_1" data-name="Layer 1" xmlns="http://www.w3.org/2000/svg" viewBox="0 0 290.71 290.71"><defs><style>.cls-1{fill:#9acd8d;}</style></defs><path class="cls-1" d="M380,136.35c-.38-10.18-10.11-20.71-12.52-22.8-2.06-2.39-12.6-12.12-22.77-12.5a14,14,0,0,0-10.77,4.22L244.12,195a4.21,4.21,0,1,0,2.83,2.83l66.57-66.57c13.31,3.19,30,12.1,36.18,36.21l-6.05,6a4.21,4.21,0,1,0,2.83,2.83l29.27-29.27A14,14,0,0,0,380,136.35Zm-27,27.9c-6.7-23-22.63-32.43-36.15-36.23l19.93-19.93a10,10,0,0,1,7.79-3c8.67.32,18.45,9.45,19.89,11.12a4.49,4.49,0,0,0,.44.43c1.66,1.44,10.79,11.22,11.11,19.89a10,10,0,0,1-3,7.79Z" transform="translate(-89.26 -101.04)"/><path class="cls-1" d="M316.49,197.59a4.2,4.2,0,0,0-1.05,4.17L157.53,359.67c-6.7-23-22.62-32.44-36.15-36.23l80.13-80.13a4.2,4.2,0,1,0-2.83-2.82L117.18,322A5.81,5.81,0,0,0,116,323.8L89.72,385a4.86,4.86,0,0,0,.84,5.43,4.54,4.54,0,0,0,3.24,1.31,5.69,5.69,0,0,0,2.2-.47l61.21-26.22a5.84,5.84,0,0,0,1.81-1.24L318.27,204.59a4.2,4.2,0,1,0-1.78-7ZM119,326.93c13,3.32,28.9,12.18,35.09,35.14L114.63,379c-2.69-6.88-8.11-10.07-13-11.51ZM94.42,387.61a.72.72,0,1,1-1-1L100,371.15c5.44,1.46,9.11,4.61,10.94,9.38Z" transform="translate(-89.26 -101.04)"/><path class="cls-1" d="M321.06,175.21a4.2,4.2,0,0,0-1,4.17L168.87,330.53l-7.78-7.78L302.81,181h0l15-15a2,2,0,0,0,0-2.83l-10.6-10.61a2,2,0,0,0-2.83,0L151.82,305.15a4.21,4.21,0,1,0,2.83,2.83L305.8,156.82l7.78,7.78L156.84,321.34a2.6,2.6,0,0,0-.25.31l-.12.22-.06.12a1.38,1.38,0,0,0-.08.27.45.45,0,0,0,0,.11,2,2,0,0,0,0,.77.45.45,0,0,0,0,.11,1.38,1.38,0,0,0,.08.27l.06.12.12.22a3.76,3.76,0,0,0,.25.31l10.61,10.6a2,2,0,0,0,2.83,0L322.85,182.21a4.21,4.21,0,1,0-1.79-7Z" transform="translate(-89.26 -101.04)"/></svg>