<svg id="Layer_1" data-name="Layer 1" xmlns="http://www.w3.org/2000/svg" viewBox="0 0 272.06 272.06">
  <defs>
    <style>
      .cls-1 {
        fill: #9acd8d;
      }

      .cls-2 {
        fill: #0e3004;
      }
    </style>
  </defs>
  <path class="cls-1" d="M276.07,30.58H248.43V26.32a17,17,0,1,0-34,0v4.26H191.05V26.32a17,17,0,0,0-34,0v4.26H133.66V26.32a17,17,0,0,0-34,0v4.26H76.27V26.32a17,17,0,1,0-34,0v4.26H14.63a5.31,5.31,0,0,0-5.31,5.31V276.07a5.31,5.31,0,0,0,5.31,5.31H276.07a5.31,5.31,0,0,0,5.31-5.31V35.89A5.31,5.31,0,0,0,276.07,30.58Zm-51-4.26a6.38,6.38,0,0,1,12.76,0V49.7a6.38,6.38,0,0,1-12.76,0Zm-57.38,0a6.38,6.38,0,0,1,12.75,0V49.7a6.38,6.38,0,1,1-12.75,0Zm-57.39,0a6.38,6.38,0,0,1,12.75,0V49.7a6.38,6.38,0,1,1-12.75,0Zm-57.39,0a6.38,6.38,0,0,1,12.76,0V49.7a6.38,6.38,0,1,1-12.76,0ZM270.75,90.09H169.26a5.32,5.32,0,0,0,0,10.63H270.75v170H20v-170H121.44a5.32,5.32,0,0,0,0-10.63H20V41.2H42.27v8.5a17,17,0,1,0,34,0V41.2H99.65v8.5a17,17,0,1,0,34,0V41.2H157v8.5a17,17,0,1,0,34,0V41.2h23.38v8.5a17,17,0,1,0,34,0V41.2h22.32Z" transform="translate(-9.32 -9.32)"/>
  <path class="cls-1" d="M246.31,119.84H44.39a5.32,5.32,0,0,0-5.31,5.32V246.31a5.31,5.31,0,0,0,5.31,5.31H246.31a5.31,5.31,0,0,0,5.31-5.31V125.16A5.32,5.32,0,0,0,246.31,119.84ZM89.62,241H49.7V211.24H89.62Zm0-40.39H49.7V170.86H89.62Zm0-40.38H49.7V130.47H89.62ZM140.1,241H100.25V211.24H140.1Zm0-40.39H100.25V170.86H140.1Zm0-40.38H100.25V130.47H140.1ZM190.58,241H150.73V211.24h39.85Zm0-40.39H150.73V170.86h39.85Zm0-40.38H150.73V130.47h39.85ZM241,241H201.21V211.24H241Zm0-40.39H201.21V170.86H241Zm0-40.38H201.21V130.47H241Z" transform="translate(-9.32 -9.32)"/>
  <rect class="cls-2" x="191.89" y="201.92" width="39.79" height="29.76"/>
  <rect class="cls-2" x="141.41" y="201.92" width="39.85" height="29.76"/>
  <rect class="cls-2" x="90.93" y="201.92" width="39.85" height="29.76"/>
  <rect class="cls-2" x="40.38" y="201.92" width="39.92" height="29.76"/>
  <rect class="cls-2" x="191.89" y="161.54" width="39.79" height="29.75"/>
  <rect class="cls-2" x="141.41" y="161.54" width="39.85" height="29.75"/>
  <rect class="cls-2" x="90.93" y="161.54" width="39.85" height="29.75"/>
  <rect class="cls-2" x="40.38" y="161.54" width="39.92" height="29.75"/>
  <rect class="cls-2" x="191.89" y="121.15" width="39.79" height="29.76"/>
  <rect class="cls-2" x="141.41" y="121.15" width="39.85" height="29.76"/>
  <rect class="cls-2" x="90.93" y="121.15" width="39.85" height="29.76"/>
  <rect class="cls-2" x="40.38" y="121.15" width="39.92" height="29.76"/>
  <path class="cls-1" d="M145.35,100.72a5.31,5.31,0,1,0-3.76-1.56A5.36,5.36,0,0,0,145.35,100.72Z" transform="translate(-9.32 -9.32)"/>
</svg>
