<?xml version="1.0" encoding="utf-8"?>
<!-- Generator: Adobe Illustrator 22.0.0, SVG Export Plug-In . SVG Version: 6.00 Build 0)  -->
<svg version="1.1" id="Layer_1" xmlns="http://www.w3.org/2000/svg" xmlns:xlink="http://www.w3.org/1999/xlink" x="0px" y="0px"
	 viewBox="0 0 290.7 290.7" style="enable-background:new 0 0 290.7 290.7;" xml:space="preserve">
<style type="text/css">
	.st0{fill:#9ACD8D;}
</style>
<path class="st0" d="M183.3,255.8c-0.9-1.4-2.5-2.3-4.2-2.3H98.7c-1.7,0-3.3,0.8-4.2,2.3c-0.9,1.4-1.1,3.2-0.4,4.7
	c7.8,17.7,25.4,29.2,44.8,29.2c19.3,0,36.9-11.5,44.8-29.2C184.3,259,184.2,257.2,183.3,255.8z M138.9,279.7
	c-12.6,0-24.3-6-31.6-16.2h63.2C163.2,273.7,151.5,279.7,138.9,279.7z"/>
<path class="st0" d="M171.6,43.7c-0.6,0-1.2-0.1-1.7-0.3c-10.3-3.7-21-5.6-32-5.6c-11,0-21.8,1.9-32,5.6c-0.5,0.2-1.1,0.3-1.7,0.3
	c-1,0-2-0.3-2.9-0.9c-1.3-0.9-2.1-2.5-2.1-4.1v-1.3C99.2,16.8,115.9,0,136.5,0h2.7c20.6,0,37.4,16.8,37.4,37.4v1.3
	c0,1.6-0.8,3.2-2.1,4.1C173.6,43.4,172.6,43.7,171.6,43.7z M137.9,27.8c9.5,0,19,1.3,28.1,3.9C163.3,19,152.3,10,139.2,10h-2.7
	c-13.1,0-24.1,9-26.8,21.6C118.9,29.1,128.3,27.8,137.9,27.8z"/>
<path class="st0" d="M139.2,1h-2.7c-20.1,0-36.4,16.3-36.4,36.4v1.3c0,1.3,0.6,2.5,1.7,3.3c0.7,0.5,1.5,0.7,2.3,0.7
	c0.5,0,0.9-0.1,1.4-0.2c10.4-3.8,21.3-5.7,32.4-5.7c11.1,0,22,1.9,32.4,5.7c0.4,0.2,0.9,0.2,1.4,0.2c0.8,0,1.6-0.3,2.3-0.7
	c1.1-0.7,1.7-2,1.7-3.3v-1.3C175.6,17.3,159.3,1,139.2,1z M137.9,28.8c-10,0-19.9,1.4-29.4,4.3c2.1-13.7,13.9-24,28.1-24h2.7
	c14.2,0,26,10.3,28.1,24C157.8,30.2,147.9,28.8,137.9,28.8z"/>
<g>
	<path class="st0" d="M156.3,228.2c-1.8,0-3.6,0.7-4.8,2H39.4c-1.6,0-3-1-3.3-2.4c-0.3-1.5,0.3-2.9,1.6-3.5c0.2-0.1,0.4-0.2,0.6-0.3
		c1.3-0.8,8-5.7,14.4-19.2c11.3-23.9,13.7-57.3,13.7-81.1c0-10.9,2.6-21.9,7.4-31.7c1.6-0.5,3.1-1.5,4-3c1.9-3.2,0.9-7.3-2.3-9.3
		c-1.1-0.6-2.3-1-3.5-1c-2.4,0-4.6,1.3-5.8,3.3c-1,1.7-1.2,3.6-0.7,5.5c-5.6,11.2-8.6,23.7-8.6,36.2c0,22.8-2.2,54.7-12.8,77.1
		c-5,10.6-9.8,14.5-10.8,15.2c-5,2.5-7.6,8.2-6.4,13.8c1.2,5.7,6.5,9.9,12.5,9.9h112.1c1.3,1.3,3,2,4.8,2c3.7,0,6.7-3,6.7-6.7
		S160,228.2,156.3,228.2z"/>
	<path class="st0" d="M242.5,216c-1.1-0.8-5.8-4.7-10.8-15.2c-10.6-22.4-12.8-54.3-12.8-77.1c0-0.1,0-0.3,0-0.4
		c-0.2-44.4-36.5-80.5-80.9-80.5c-16.9,0-33.8,5.5-47.5,15.5c-0.3,0-0.6-0.1-1-0.1c-1.6,0-3.2,0.6-4.4,1.6c-2.8,2.4-3.1,6.7-0.7,9.5
		c1.3,1.5,3.1,2.3,5.1,2.3c1.6,0,3.2-0.6,4.4-1.6c1.3-1.1,2.1-2.7,2.3-4.3c12.1-8.7,26.9-13.5,41.7-13.5c39.3,0,71.4,32,71.5,71.3
		l0,0.2c0,23.8,2.4,57.1,13.7,81.1c6.4,13.6,13.1,18.4,14.4,19.2c0.2,0.1,0.4,0.2,0.6,0.3c1.3,0.6,1.9,1.9,1.6,3.5
		c-0.3,1.4-1.7,2.4-3.3,2.4h-37.2c-1.3-1.3-3-2-4.8-2c-3.7,0-6.7,3-6.7,6.7s3,6.7,6.7,6.7c1.8,0,3.6-0.7,4.8-2h37.2
		c6,0,11.3-4.2,12.5-9.9C250.1,224.2,247.4,218.5,242.5,216z"/>
</g>
</svg>
