<svg id="Layer_1" data-name="Layer 1" xmlns="http://www.w3.org/2000/svg" viewBox="0 0 296.55 193.4"><defs><style>.cls-1{fill:#9acd8d;}</style></defs><path class="cls-1" d="M296.86,54.91a3,3,0,0,0-2.69-1.68H3.62a3,3,0,0,0-2.37,4.84l43.24,55.79a6.11,6.11,0,0,0-.19.87,5.21,5.21,0,0,0,5.17,5.86h0a5.21,5.21,0,1,0,0-10.42l-.22,0-39.5-51H288.05l-16.59,21.4h-.23A5.2,5.2,0,0,0,268,89.94a5.12,5.12,0,0,0,3.19,1.1,5.21,5.21,0,0,0,5.17-5.87,4.89,4.89,0,0,0-.2-.86l20.34-26.24A3,3,0,0,0,296.86,54.91Z" transform="translate(-0.62 -53.23)"/><path class="cls-1" d="M255.22,106.48a5.21,5.21,0,0,0-8.17,5.64L148.89,238.74,70.38,137.46a4.89,4.89,0,0,0,.2-.86,5.21,5.21,0,0,0-5.17-5.87,5.12,5.12,0,0,0-3.19,1.1,5.21,5.21,0,0,0,3.19,9.33l.23,0,80.88,104.34a3,3,0,0,0,4.74,0L251.79,115.79l.23,0a5.14,5.14,0,0,0,4.12-2A5.22,5.22,0,0,0,255.22,106.48Z" transform="translate(-0.62 -53.23)"/><polygon class="cls-1" points="148.77 160.71 261.62 19.89 35.92 19.89 148.77 160.71"/></svg>