<svg id="Layer_1" data-name="Layer 1" xmlns="http://www.w3.org/2000/svg" viewBox="0 0 278.52 279.23">
  <defs>
    <style>
      .cls-1 {
        fill: #9acd8d;
      }
    </style>
  </defs>
  <path class="cls-1" d="M273.92,89.28a20.34,20.34,0,0,1-13.33,7A124.26,124.26,0,1,1,145.35,18.52,125,125,0,0,1,168,20.58a20.44,20.44,0,0,1,4.5-13.92l.35-.42a139.69,139.69,0,0,0-27.47-2.72C68.56,3.52,6.09,66,6.09,142.77S68.56,282,145.35,282s139.26-62.47,139.26-139.26A138.35,138.35,0,0,0,273.92,89.28Z" transform="translate(-6.09 -2.8)"/>
  <path class="cls-1" d="M142.32,230.26a1.25,1.25,0,0,1-1.24-1.24V216.84a7.78,7.78,0,0,0-7.1-7.73c-8.43-.69-16.82-3-23-6.46a1.25,1.25,0,0,1-.58-1.52l1.92-5.37a1.24,1.24,0,0,1,1.17-.82,1.2,1.2,0,0,1,.59.15,59.14,59.14,0,0,0,26.87,6.63c16.45,0,27.94-9.7,27.94-23.58,0-15.31-12.88-22.59-25.47-27.73-23.17-9.09-32.18-18.29-32.18-32.86S121,91.72,136.6,88a7.7,7.7,0,0,0,5.93-7.54V67.76a1.25,1.25,0,0,1,1.24-1.24h3.86a1.23,1.23,0,0,1,1.24,1.24h0V79.17A7.75,7.75,0,0,0,156,86.9,51.82,51.82,0,0,1,174,91.63a1.24,1.24,0,0,1,.6,1.54l-2,5.23a1.25,1.25,0,0,1-1.16.82,1.16,1.16,0,0,1-.51-.12A53.78,53.78,0,0,0,147.77,94c-17.44,0-25.24,10.6-25.24,21.09,0,12.84,9.34,19,27.73,26.65,21.4,8.74,30.12,18.86,30.12,34.94,0,15.22-10.53,27.55-26.83,31.4a7.71,7.71,0,0,0-5.93,7.54V229a1.24,1.24,0,0,1-1.23,1.24Z" transform="translate(-6.09 -2.8)"/>
  <path class="cls-1" d="M198.27,14Q192,11.41,185.54,9.43A10.47,10.47,0,0,1,195,11.35Z" transform="translate(-6.09 -2.8)"/>
  <path class="cls-1" d="M265,67.73l-5.12-4.13h0L238.34,46.26l3.33-4,18.66-22.24a10.5,10.5,0,1,0-16.08-13.5L225.47,28.94,222,33.08,198.27,14,195,11.35A10.5,10.5,0,0,0,181.84,27.7l26.64,21.47-22,26.21a10.5,10.5,0,0,0,16.09,13.5l22.26-26.53,27,21.73a10.42,10.42,0,0,0,4.12,2,10.81,10.81,0,0,0,2.46.29A10.5,10.5,0,0,0,265,67.73Z" transform="translate(-6.09 -2.8)"/>
</svg>
