<svg id="Layer_1" data-name="Layer 1" xmlns="http://www.w3.org/2000/svg" viewBox="0 0 255.62 261.04">
  <defs>
    <style>
      .cls-1 {
        fill: #fc0000;
      }
    </style>
  </defs>
  <path class="cls-1" d="M261.71,91.38a11.14,11.14,0,0,1-1.92.17A10.9,10.9,0,0,1,252,88.33l-6.7-6.7a121.82,121.82,0,0,1,17.85,63.72c0,66.46-52.85,120.52-117.81,120.52S27.54,211.81,27.54,145.35,80.39,24.83,145.35,24.83A115.07,115.07,0,0,1,206.8,42.56a11,11,0,0,1,.37-11.42,125,125,0,0,0-61.82-16.31c-70.47,0-127.81,58.55-127.81,130.52S74.88,275.87,145.35,275.87s127.81-58.55,127.81-130.52A132.06,132.06,0,0,0,261.71,91.38Z" transform="translate(-17.54 -14.83)"/>
  <path class="cls-1" d="M207.45,153.47h-62.1a5,5,0,0,1-5-5V66a5,5,0,0,1,10,0v77.47h57.1a5,5,0,0,1,0,10Z" transform="translate(-17.54 -14.83)"/>
  <path class="cls-1" d="M263.32,77a5,5,0,0,1-3.53,8.53,5.47,5.47,0,0,1-.9-.08,5.09,5.09,0,0,1-2.64-1.38L238.08,65.92l-2.28,2.29L219.92,84.09A5,5,0,1,1,212.85,77l16.29-16.3L231,58.85,212.85,40.68a5,5,0,0,1-.52-6.45,4.38,4.38,0,0,1,.52-.62,5,5,0,0,1,7.07,0l18.16,18.17,18.17-18.17a5,5,0,0,1,7.07,7.07L245.16,58.85Z" transform="translate(-17.54 -14.83)"/>
</svg>
