<svg id="Layer_1" data-name="Layer 1" xmlns="http://www.w3.org/2000/svg" viewBox="0 0 298.62 296.14"><defs><style>.cls-1{fill:#9acd8d;}</style></defs><path class="cls-1" d="M148.07,296.14C66.39,296.14,0,229.72,0,148.07S66.39,0,148.07,0a148,148,0,0,1,133.4,83.72l1.31,2.7-9.91,4.79-1.3-2.71A138,138,0,0,0,148.07,11C72.49,11,11,72.49,11,148.07S72.49,285.14,148.07,285.14a136.51,136.51,0,0,0,137-132.26l.1-3,11,.38-.1,3A148.05,148.05,0,0,1,148.07,296.14Z" transform="translate(0 0)"/><path class="cls-1" d="M148.07,293.14C68.07,293.14,3,228.06,3,148.07S68.08,3,148.07,3a145.1,145.1,0,0,1,130.7,82l-4.5,2.18A141,141,0,0,0,148.07,8C70.84,8,8,70.83,8,148.07S70.84,288.14,148.07,288.14A139.5,139.5,0,0,0,288.07,153l5,.18a145.07,145.07,0,0,1-145,140Z" transform="translate(0 0)"/><path class="cls-1" d="M290.31,161.59a8.26,8.26,0,1,1,.2-16.52h.21a8.27,8.27,0,0,1-.2,16.53Z" transform="translate(0 0)"/><path class="cls-1" d="M285.25,153.2a5.27,5.27,0,1,1,5.15,5.39h0A5.27,5.27,0,0,1,285.25,153.2Z" transform="translate(0 0)"/><path class="cls-1" d="M276.33,94.18a8.26,8.26,0,0,1-3.61-15.7,8.16,8.16,0,0,1,3.6-.83,8.28,8.28,0,0,1,0,16.55Z" transform="translate(0 0)"/><path class="cls-1" d="M271.58,88.21a5.27,5.27,0,1,0,2.5-7l-.05,0A5.27,5.27,0,0,0,271.58,88.21Z" transform="translate(0 0)"/><path class="cls-1" d="M144.81,245a1.53,1.53,0,0,1-1.52-1.52V228.54a9.54,9.54,0,0,0-8.71-9.48c-10.34-.84-20.62-3.73-28.21-7.92a1.54,1.54,0,0,1-.72-1.86l2.36-6.59a1.5,1.5,0,0,1,1.43-1,1.58,1.58,0,0,1,.73.18A72.52,72.52,0,0,0,143.11,210c20.17,0,34.26-11.89,34.26-28.92,0-18.77-15.79-27.7-31.23-34-28.41-11.14-39.46-22.43-39.46-40.29s11.92-31.67,31.11-36.21a9.45,9.45,0,0,0,7.28-9.25V45.73a1.53,1.53,0,0,1,1.52-1.52h4.73a1.52,1.52,0,0,1,1.52,1.52v14a9.5,9.5,0,0,0,8.7,9.48A63.65,63.65,0,0,1,183.7,75a1.52,1.52,0,0,1,.74,1.89L182,83.31a1.53,1.53,0,0,1-1.42,1,1.38,1.38,0,0,1-.63-.14,65.88,65.88,0,0,0-28.46-6.24c-21.38,0-30.95,13-30.95,25.87,0,15.74,11.45,23.35,34,32.68,26.24,10.71,36.94,23.12,36.94,42.84,0,18.66-12.91,33.78-32.9,38.5a9.46,9.46,0,0,0-7.28,9.25v16.41A1.52,1.52,0,0,1,149.8,245Z" transform="translate(0 0)"/></svg>