<svg id="Layer_1" data-name="Layer 1" xmlns="http://www.w3.org/2000/svg" viewBox="0 0 272.06 289.99">
  <defs>
    <style>
      .cls-1 {
        fill: #9acd8d;
      }

      .marked {
        fill: #0e3004;
      }

      .marked2 {
        fill: #fff;
      }
    </style>
  </defs>
  <path class="cls-1" d="M246.31,119.84H44.39a5.32,5.32,0,0,0-5.31,5.32V246.31a5.31,5.31,0,0,0,5.31,5.31H246.31a5.31,5.31,0,0,0,5.31-5.31V125.16A5.32,5.32,0,0,0,246.31,119.84ZM89.62,241H49.7V211.24H89.62Zm0-40.39H49.7V170.86H89.62Zm0-40.38H49.7V130.47H89.62ZM140.1,241H100.25V211.24H140.1Zm0-40.39H100.25V170.86H140.1Zm0-40.38H100.25V130.47H140.1ZM190.58,241H150.73V211.24h39.85Zm0-40.39H150.73V170.86h39.85Zm0-40.38H150.73V130.47h39.85ZM241,241H201.21V211.24H241Zm0-40.39H201.21V170.86H241Zm0-40.38H201.21V130.47H241Z" transform="translate(-9.32 -9.32)"/>
  <g>
    <rect class="marked" x="40.38" y="161.54" width="39.92" height="29.75"/>
    <rect class="marked" x="90.67" y="161.28" width="39.85" height="29.75"/>
    <rect class="marked" x="191.63" y="120.89" width="39.79" height="29.76"/>
    <rect class="marked" x="141.15" y="120.89" width="39.85" height="29.76"/>
  </g>
  <g>
    <path class="cls-1" d="M276.07,30.58H248.43V26.32a17,17,0,1,0-34,0v4.26H191.05V26.32a17,17,0,0,0-34,0v4.26H133.66V26.32a17,17,0,0,0-34,0v4.26H76.27V26.32a17,17,0,1,0-34,0v4.26H14.63a5.31,5.31,0,0,0-5.31,5.31V276.07a5.31,5.31,0,0,0,5.31,5.31H276.07a5.31,5.31,0,0,0,5.31-5.31V35.89A5.31,5.31,0,0,0,276.07,30.58Zm-51-4.26a6.38,6.38,0,0,1,12.76,0V49.7a6.38,6.38,0,0,1-12.76,0Zm-57.38,0a6.38,6.38,0,0,1,12.75,0V49.7a6.38,6.38,0,1,1-12.75,0Zm-57.39,0a6.38,6.38,0,0,1,12.75,0V49.7a6.38,6.38,0,1,1-12.75,0Zm-57.39,0a6.38,6.38,0,0,1,12.76,0V49.7a6.38,6.38,0,1,1-12.76,0ZM270.75,90.09H169.26a5.32,5.32,0,0,0,0,10.63H270.75v170H20v-170H121.44a5.32,5.32,0,0,0,0-10.63H20V41.2H42.27v8.5a17,17,0,1,0,34,0V41.2H99.65v8.5a17,17,0,1,0,34,0V41.2H157v8.5a17,17,0,1,0,34,0V41.2h23.38v8.5a17,17,0,1,0,34,0V41.2h22.32Z" transform="translate(-9.32 -9.32)"/>
    <path class="cls-1" d="M145.35,90.09a5.31,5.31,0,1,0,3.76,1.56A5.36,5.36,0,0,0,145.35,90.09Z" transform="translate(-9.32 -9.32)"/>
  </g>
  <g>
    <path d="M160.9,228.05a9.41,9.41,0,0,0-5.29,1.61,9.52,9.52,0,0,0-9-6.36,9.4,9.4,0,0,0-5.28,1.61,9.51,9.51,0,0,0-13.72-5.09V199.54a9.5,9.5,0,0,0-19,0v50.4l-14-8.61a.41.41,0,0,0-.11-.07,9.28,9.28,0,0,0-4.85-1.34,9.52,9.52,0,0,0-9.5,9.51,9.22,9.22,0,0,0,1.48,5.09l0,0,21.78,34.72a21.26,21.26,0,0,0,18.11,10H149a21.4,21.4,0,0,0,21.38-21.38V237.55A9.51,9.51,0,0,0,160.9,228.05Zm4.75,49.88A16.65,16.65,0,0,1,149,294.56H121.53a16.53,16.53,0,0,1-14.09-7.79L85.6,252l-.06-.1a4.6,4.6,0,0,1-.66-2.42,4.75,4.75,0,0,1,4.75-4.75,4.5,4.5,0,0,1,2.43.67l.15.09,17.56,10.76.06,0,.09,0,.13.07.07,0,.16.06.06,0,.16,0h.07l.16,0h.65l.17,0h0l.2-.05h0l.2-.08h0l.16-.09.06,0,.13-.09.08-.06.1-.07.09-.09.07-.06.1-.11a.18.18,0,0,0,0-.07l.09-.11a.22.22,0,0,0,0-.08l0-.05,0-.06a.31.31,0,0,0,.05-.1l.06-.11,0-.1a.56.56,0,0,0,0-.12.38.38,0,0,0,0-.1.5.5,0,0,0,0-.13.44.44,0,0,1,0-.1s0-.09,0-.13,0-.07,0-.1v-.13a.13.13,0,0,0,0-.06V199.54a4.75,4.75,0,0,1,9.5,0v49.89a2.38,2.38,0,0,0,4.75,0V228.05a4.75,4.75,0,0,1,9.5,0v21.38a2.38,2.38,0,0,0,4.75,0V232.8a4.76,4.76,0,0,1,9.51,0v16.63a2.38,2.38,0,0,0,4.75,0V237.55a4.75,4.75,0,0,1,9.5,0Z" transform="translate(-9.32 -9.32)"/>
    <path class="marked2" d="M165.65,237.55v40.38A16.65,16.65,0,0,1,149,294.56H121.53a16.53,16.53,0,0,1-14.09-7.79L85.6,252l-.06-.1a4.6,4.6,0,0,1-.66-2.42,4.75,4.75,0,0,1,4.75-4.75,4.5,4.5,0,0,1,2.43.67l.15.09,17.56,10.76.06,0,.09,0,.13.07.07,0,.16.06.06,0,.16,0h.07l.16,0h.65l.17,0h0l.2-.05h0l.2-.08h0l.16-.09.06,0,.13-.09.08-.06.1-.07.09-.09.07-.06.1-.11a.18.18,0,0,0,0-.07l.09-.11a.22.22,0,0,0,0-.08l0-.05,0-.06a.31.31,0,0,0,.05-.1l.06-.11,0-.1a.56.56,0,0,0,0-.12.38.38,0,0,0,0-.1.5.5,0,0,0,0-.13.44.44,0,0,1,0-.1s0-.09,0-.13,0-.07,0-.1v-.13a.13.13,0,0,0,0-.06V199.54a4.75,4.75,0,0,1,9.5,0v49.89a2.38,2.38,0,0,0,4.75,0V228.05a4.75,4.75,0,0,1,9.5,0v21.38a2.38,2.38,0,0,0,4.75,0V232.8a4.76,4.76,0,0,1,9.51,0v16.63a2.38,2.38,0,0,0,4.75,0V237.55a4.75,4.75,0,0,1,9.5,0Z" transform="translate(-9.32 -9.32)"/>
  </g>
</svg>
