<svg id="Layer_1" data-name="Layer 1" xmlns="http://www.w3.org/2000/svg" viewBox="0 0 298.62 296.14">
  <defs>
    <style>
      .cls-1 {
        fill: #9acd8d;
      }
    </style>
  </defs>
  <path id="circle" class="cls-1" d="M298.61,153.7a8.26,8.26,0,0,0-7.89-8.63h-.21a8.25,8.25,0,0,0-5.79,14.23A136.52,136.52,0,0,1,148.07,285.14C72.49,285.14,11,223.65,11,148.07S72.49,11,148.07,11A138,138,0,0,1,268.65,82.88a8.22,8.22,0,0,0,7.68,11.3v0a8.29,8.29,0,0,0,7.8-5.55A8.28,8.28,0,0,0,278.51,78,148,148,0,0,0,148.07,0C66.39,0,0,66.42,0,148.07S66.39,296.14,148.07,296.14A148,148,0,0,0,295.7,159.63,8.2,8.2,0,0,0,298.61,153.7Z" transform="translate(0 0)"/>
  <path id="vertical" class="cls-1" d="M149.39,61.13a5.5,5.5,0,0,0-5.5,5.5V229.51a5.5,5.5,0,0,0,11,0V66.63A5.5,5.5,0,0,0,149.39,61.13Z" transform="translate(0 0)"/>
  <path id="horizontal" class="cls-1" d="M230.83,142.57H68a5.5,5.5,0,1,0,0,11H230.83a5.5,5.5,0,0,0,0-11Z" transform="translate(0 0)"/>
</svg>
