<svg id="Layer_1" data-name="Layer 1" xmlns="http://www.w3.org/2000/svg" viewBox="0 0 298.78 296.15"><defs><style>.cls-1{fill:#9acd8d;}</style></defs><path class="cls-1" d="M222.68,372.07C141,372.07,74.61,305.65,74.61,224S141,75.93,222.68,75.93a148.05,148.05,0,0,1,133.4,83.72l1.31,2.7-9.91,4.79-1.3-2.71a138,138,0,0,0-123.5-77.5C147.1,86.93,85.61,148.42,85.61,224S147.1,361.07,222.68,361.07a136.51,136.51,0,0,0,137-132.26l.1-3,11,.38-.1,3a148.06,148.06,0,0,1-148,142.88Z" transform="translate(-74.61 -75.93)"/><path class="cls-1" d="M222.68,369.07c-80,0-145.07-65.08-145.07-145.07S142.69,78.93,222.68,78.93a145.09,145.09,0,0,1,130.7,82l-4.5,2.18a141,141,0,0,0-126.2-79.2C145.45,83.93,82.61,146.76,82.61,224s62.84,140.07,140.07,140.07a139.5,139.5,0,0,0,140-135.16l5,.18a145.07,145.07,0,0,1-145,140Z" transform="translate(-74.61 -75.93)"/><path class="cls-1" d="M364.92,237.52a8.26,8.26,0,0,1,.2-16.52h.21a8.27,8.27,0,0,1-.2,16.53Z" transform="translate(-74.61 -75.93)"/><path class="cls-1" d="M359.86,229.13a5.27,5.27,0,1,1,5.13,5.39A5.27,5.27,0,0,1,359.86,229.13Z" transform="translate(-74.61 -75.93)"/><path class="cls-1" d="M350.94,170.11a8.26,8.26,0,0,1-3.61-15.7,8.16,8.16,0,0,1,3.6-.83,8.27,8.27,0,0,1,7.81,11,8.29,8.29,0,0,1-7.8,5.55Z" transform="translate(-74.61 -75.93)"/><path class="cls-1" d="M346.19,164.14a5.27,5.27,0,1,0,2.45-7A5.27,5.27,0,0,0,346.19,164.14Z" transform="translate(-74.61 -75.93)"/><path class="cls-1" d="M224,310.94a5.51,5.51,0,0,1-5.5-5.5V142.56a5.5,5.5,0,0,1,11,0V305.44A5.51,5.51,0,0,1,224,310.94Z" transform="translate(-74.61 -75.93)"/><path class="cls-1" d="M224,307.94a2.5,2.5,0,0,1-2.5-2.5V142.56a2.5,2.5,0,0,1,5,0V305.44A2.5,2.5,0,0,1,224,307.94Z" transform="translate(-74.61 -75.93)"/><path class="cls-1" d="M142.56,229.5a5.5,5.5,0,0,1,0-11H305.44a5.5,5.5,0,1,1,0,11Z" transform="translate(-74.61 -75.93)"/><path class="cls-1" d="M305.44,226.5H142.56a2.5,2.5,0,0,1,0-5H305.44a2.5,2.5,0,1,1,0,5Z" transform="translate(-74.61 -75.93)"/></svg>