<svg id="Layer_1" data-name="Layer 1" xmlns="http://www.w3.org/2000/svg" viewBox="0 0 264.35 265.52">
  <defs>
    <style>
      .cls-1 {
        fill: #9acd8d;
      }
    </style>
  </defs>
  <path class="cls-1" d="M271.61,39.13l-10,13.68V250.68a11,11,0,0,1-10.95,10.95H40a11,11,0,0,1-11-10.95V40a11,11,0,0,1,11-11H250.68c.34,0,.67,0,1,.05L258,20.4a20.89,20.89,0,0,0-7.36-1.33H40a21,21,0,0,0-21,21V250.68a21,21,0,0,0,21,20.95H250.68a21,21,0,0,0,20.95-20.95V40C271.63,39.72,271.62,39.43,271.61,39.13Z" transform="translate(-19.07 -6.11)"/>
  <path class="cls-1" d="M282.47,14.05,269.79,31.44l-8.16,11.19-140,192a5,5,0,0,1-3.72,2h-.32a5,5,0,0,1-3.63-1.57L45.57,162.56a5,5,0,1,1,7.28-6.86l64.23,68.19L257.44,31.41l5.89-8.08L274.39,8.16a5,5,0,0,1,8.08,5.89Z" transform="translate(-19.07 -6.11)"/>
</svg>
