<svg id="Layer_1" data-name="Layer 1" xmlns="http://www.w3.org/2000/svg" viewBox="0 0 279.45 258.92"><defs><style>.cls-1{fill:none;stroke:#9acd8d;stroke-linecap:round;stroke-linejoin:round;stroke-width:10px;}.cls-2{fill:#9acd8d;}</style></defs><path class="cls-1" d="M148,272.51h-1.28A124.46,124.46,0,0,1,59.4,60.68,124.48,124.48,0,0,1,254,82.67l-4.83,3A118.8,118.8,0,0,0,29.26,149.77c.9,63.91,53.64,116.42,117.55,117.07H148A118.81,118.81,0,0,0,266.56,156.1l5.65.38A124.49,124.49,0,0,1,148,272.51Z" transform="translate(-18.58 -18.59)"/><path class="cls-1" d="M269.38,156.29a121.63,121.63,0,0,1-122.6,113.38C81.09,269,27.35,215.5,26.42,149.81A121.64,121.64,0,0,1,251.55,84.16" transform="translate(-18.58 -18.59)"/><path class="cls-2" d="M291.39,190.64a6.68,6.68,0,0,1-5.35-2.7l-17.52-23.83a1,1,0,0,0-.79-.39.94.94,0,0,0-.62.23l-22.48,19.22A6.64,6.64,0,1,1,236,173.08l28.7-24.53a6.64,6.64,0,0,1,9.66,1.11l22.38,30.41a6.66,6.66,0,0,1-1.41,9.28A6.57,6.57,0,0,1,291.39,190.64Z" transform="translate(-18.58 -18.59)"/><path class="cls-2" d="M237.42,180.59h0a3.8,3.8,0,0,0,5.37.42l22.47-19.21a3.8,3.8,0,0,1,5.54.63l17.53,23.83a3.8,3.8,0,0,0,5.32.81h0a3.8,3.8,0,0,0,.8-5.32l-22.37-30.4a3.81,3.81,0,0,0-5.54-.64l-28.7,24.52A3.81,3.81,0,0,0,237.42,180.59Z" transform="translate(-18.58 -18.59)"/></svg>