<svg id="Layer_1" data-name="Layer 1" xmlns="http://www.w3.org/2000/svg" viewBox="0 0 500.64 422.83">
  <defs>
    <style>
      .cls-1 {
        fill: #2d5b84cb;
      }
    </style>
  </defs>
  <path class="cls-1" d="M28.27,473.3a17.14,17.14,0,0,1-9.94-2.86C11.63,465.8,4.92,456,5.72,447c.46-5.22.85-10.6,1.23-15.8,1.45-19.79,3-40.26,8.4-59.86,37-133.26,124.44-215,259.82-242.91,10-2.07,20.15-2.86,29.93-3.62l1.73-.14-.09-5c-.22-12-.46-24.46,1.81-36.8,2.68-14.61,11-25.59,22.89-30.12,12.05-4.6,25.85-1.9,37.87,7.41C378,66.79,385.58,74.53,393,82c1.79,1.82,3.58,3.64,5.38,5.44C427.71,116.78,457,146.23,485.49,175c27.72,28,27.74,68.62.05,96.6-29.05,29.36-67.43,68-106.79,106.84-7.36,7.26-15.87,12.76-24,15.5-10.58,3.57-21.3,2.27-30.2-3.68-10.28-6.87-16.72-19.07-17.67-33.46-.23-3.49-.25-6.91-.21-10.25V332.87c0-3.07,0-6.4-.11-8.83-2.53.14-5.92.51-8.67.8C197.81,335.5,115.34,381.05,52.79,460.21c-.3.37-.68.91-1.08,1.49-2,2.81-4.94,7.07-10.24,8.9A41.49,41.49,0,0,1,28.27,473.3Zm-.58-25.08a11,11,0,0,0,1.88,2.91,27.14,27.14,0,0,0,3.26-.84c.28-.38.6-.84.85-1.19.54-.77,1.15-1.65,1.84-2.53,33.14-41.93,71.83-75.28,115-99.13s92-38.83,145-44.48c12.31-1.31,20.45-2.18,26.8,3.53,5.13,4.61,6.09,10.63,6.27,19.67h.16v11c0,2,0,4.09-.07,6.13-.07,4.21-.14,8.19.11,12,.49,7.41,3.46,13.62,7.95,16.62,3.18,2.12,6.85,2.5,10.93,1.13,4.93-1.67,10.6-5.43,15.56-10.32C402.57,324,440.9,285.41,469.9,256.1c19.42-19.63,19.4-46,0-65.65-28.42-28.71-57.72-58.13-87.07-87.44-1.85-1.84-3.68-3.7-5.51-5.56-7.18-7.29-14-14.17-21.45-20-5.8-4.5-11.83-6-16.54-4.25s-7.82,6.56-9.1,13.54c-1.87,10.17-1.67,21-1.45,32.42,0,2.45.09,4.89.11,7.33.07,6.87-2.22,18.61-18.43,19.9l-3.61.29c-9.52.74-18.51,1.44-27.19,3.23C153,176.06,71.18,252.52,36.54,377.18c-4.86,17.5-6.28,36.87-7.65,55.59C28.52,437.83,28.14,443.06,27.69,448.22ZM310,124.31Z" transform="translate(-5.65 -50.47)"/>
</svg>
