<svg id="Layer_1" data-name="Layer 1" xmlns="http://www.w3.org/2000/svg" viewBox="0 0 195.23 251.65"><defs><style>.cls-1{fill:#9acd8d;}</style></defs><path class="cls-1" d="M226.75,167.9a4,4,0,0,0-3.64-2.34H101.83V142.32H197a4,4,0,0,0,4-4V107.07a4,4,0,0,0-4-4H101.83V79.83H197a4,4,0,0,0,4-4V44.58a4,4,0,0,0-4-4H96.83a6.22,6.22,0,1,0,0,8H193V71.83H97.83a4,4,0,0,0-4,4v31.24a4,4,0,0,0,4,4H193v23.25H97.83a4,4,0,0,0-4,4v28.74a4,4,0,0,0-.88,2.5,4,4,0,0,0,4,4H214.33l-64.94,74.72L84.55,173.69a6.21,6.21,0,1,0-6.14,5.25h.1L146.37,257a4,4,0,0,0,6,0l73.72-84.81A4,4,0,0,0,226.75,167.9Z" transform="translate(-51.77 -38.37)"/><path class="cls-1" d="M240.79,254.2a6.2,6.2,0,0,0-4,10.94V282H62V265.14a6.22,6.22,0,1,0-8,0V286a4,4,0,0,0,4,4h182.8a4,4,0,0,0,4-4V265.14a6.2,6.2,0,0,0-4-10.94Zm2,9.89V286a2,2,0,0,1-2,2H58a2,2,0,0,1-2-2V264.09a4.17,4.17,0,0,1-2.22-3.68A4.22,4.22,0,1,1,60,264.09V284h178.8V264.09a4.22,4.22,0,1,1,4,0Z" transform="translate(-51.77 -38.37)"/><path class="cls-1" d="M240.79,256.2a4.19,4.19,0,0,0-2,7.89V284H60V264.09a4.22,4.22,0,1,0-4,0V286a2,2,0,0,0,2,2h182.8a2,2,0,0,0,2-2V264.09a4.19,4.19,0,0,0-2-7.89Z" transform="translate(-51.77 -38.37)"/></svg>