<svg id="Layer_1" data-name="Layer 1" xmlns="http://www.w3.org/2000/svg" viewBox="0 0 286.86 287.26"><defs><style>.cls-1{fill:#9acd8d;}</style></defs><path class="cls-1" d="M367.43,187.4a107.16,107.16,0,0,1-107,107,105.27,105.27,0,0,1-73.06-28.76L95,360.22a7.22,7.22,0,1,1-7.22-7h.06l99.38-101.72,1.22,1.19.09-.1,2.12,2.24.4.41,1.18,1.15,2.08,2.1a95.4,95.4,0,0,0,66.11,25.94,97,97,0,1,0-95.32-78.85,7.23,7.23,0,0,1,3.26,4.39,7.22,7.22,0,0,1-5.23,8.76,7.43,7.43,0,0,1-1.76.21,7.19,7.19,0,0,1-6-11.13,108.5,108.5,0,0,1-1.95-20.42,107,107,0,0,1,214.07,0Z" transform="translate(-80.57 -80.37)"/></svg>