<svg id="Layer_1" data-name="Layer 1" xmlns="http://www.w3.org/2000/svg" viewBox="0 0 286.93 287.31">
  <defs>
    <style>
      .cls-1 {
        fill: #9acd8d;
      }
    </style>
  </defs>
  <path class="cls-1" d="M286.86,107a107.16,107.16,0,0,1-107,107,105.28,105.28,0,0,1-73.06-28.76L14.43,279.85a7.22,7.22,0,1,1-7.44-7h.28l99.38-101.72,1.22,1.19.09-.1,2.12,2.24.4.41,1.18,1.15,2.08,2.1a95.44,95.44,0,0,0,66.11,25.94,97,97,0,1,0-95.32-78.85,7.2,7.2,0,0,1-2,13.15,7.5,7.5,0,0,1-1.76.21,7.2,7.2,0,0,1-7.18-7.2,7.3,7.3,0,0,1,1.18-3.93,108.5,108.5,0,0,1-2-20.42,107,107,0,0,1,214.07,0Z" transform="translate(0.01 0.01)"/>
  <path class="cls-1" d="M156,27.44a4.46,4.46,0,0,0,5.36,4.76,89.79,89.79,0,0,1,16.49-2.14,78.57,78.57,0,0,1,48.07,16.38,4.48,4.48,0,0,0,6.42-.95l.06-.08a4.45,4.45,0,0,0-.93-6.07,87.5,87.5,0,0,0-53.62-18.28c-5.1,0-13.47,1.27-18.12,2.05a4.44,4.44,0,0,0-3.7,4Z" transform="translate(0.01 0.01)"/>
  <path class="cls-1" d="M252.13,62.64c-2-2.68-4.94-6.65-7.66-10a4.18,4.18,0,0,0-6.54.07l-.05.07a4.14,4.14,0,0,0,0,5.1c2.49,3.16,5.1,7,7,9.87a4.16,4.16,0,0,0,6.25.84l.43-.39A4.15,4.15,0,0,0,252.13,62.64Z" transform="translate(0.01 0.01)"/>
  <path class="cls-1" d="M286.86,107a107.16,107.16,0,0,1-107,107,105.28,105.28,0,0,1-73.06-28.76L14.43,279.85a7.22,7.22,0,1,1-7.44-7h.28l99.38-101.72,1.22,1.19.09-.1,2.12,2.24.4.41,1.18,1.15,2.08,2.1a95.44,95.44,0,0,0,66.11,25.94,97,97,0,1,0-95.32-78.85,7.2,7.2,0,0,1-2,13.15,7.5,7.5,0,0,1-1.76.21,7.2,7.2,0,0,1-7.18-7.2,7.3,7.3,0,0,1,1.18-3.93,108.5,108.5,0,0,1-2-20.42,107,107,0,0,1,214.07,0Z" transform="translate(0.01 0.01)"/>
</svg>
