<svg id="Layer_1" data-name="Layer 1" xmlns="http://www.w3.org/2000/svg" viewBox="0 0 448 448"><defs><style>.cls-1{opacity:0;}.cls-2{fill:#fff;}</style></defs><title>semicircle</title><path d="M377.47,60.84,223.5,223.5,61.33,70a224,224,0,0,1,316.14-9.16Z"/><g class="cls-1"><path class="cls-2" d="M224,447.5A223.5,223.5,0,0,1,61.35,70.71l162.17,153.5,154-162.66A223.49,223.49,0,0,1,224,447.5Z"/><path d="M377.51,62.25A223,223,0,1,1,61.37,71.42L222.81,224.23l.73.68.69-.72L377.51,62.25m0-1.41L223.5,223.5,61.33,70A223.24,223.24,0,0,0,0,224C0,347.71,100.29,448,224,448S448,347.71,448,224A223.35,223.35,0,0,0,377.47,60.84Z"/></g></svg>