<svg id="Layer_1" data-name="Layer 1" xmlns="http://www.w3.org/2000/svg" viewBox="0 0 232.55 232.55">
  <defs>
    <style>
      .cls-1 {
        fill: #9acd8d;
      }
    </style>
  </defs>
  <path class="cls-1" d="M242.34,261.63h-194a19.32,19.32,0,0,1-19.29-19.29v-194A19.32,19.32,0,0,1,48.36,29.07h194a19.32,19.32,0,0,1,19.29,19.29v194A19.32,19.32,0,0,1,242.34,261.63ZM48.36,38.28A10.09,10.09,0,0,0,38.28,48.36v194a10.09,10.09,0,0,0,10.08,10.08h194a10.09,10.09,0,0,0,10.08-10.08v-194a10.09,10.09,0,0,0-10.08-10.08Z" transform="translate(-29.07 -29.07)"/>
</svg>
