<svg id="Layer_1" data-name="Layer 1" xmlns="http://www.w3.org/2000/svg" viewBox="0 0 220.82 297.38"><defs><style>.cls-1{fill:#9acd8d;}</style></defs><path class="cls-1" d="M123.7,240.42a7.2,7.2,0,0,1-5.25-12.13l-4.86-96.47a5.4,5.4,0,0,1,0-.69V131l0-.25a5,5,0,0,1,.19-.79l0-.08.11-.28,8.58-20.47a17.72,17.72,0,0,1,16.28-11H170l3.13-12.65c1.56-6.29,5.54-10.19,10.4-10.19h81c4.78,0,8.87,4,10.4,10.19L278,98.15h31.16a17.72,17.72,0,0,1,16.28,11l8.5,20.3.1.17.06.23a4.82,4.82,0,0,1,.22.85c0,.12,0,.23.05.35a4.19,4.19,0,0,1,0,.5v.21l0,.17,0,.32a5.7,5.7,0,0,1-.17.74c0,.11-.07.22-.1.32a5.43,5.43,0,0,1-.34.73l-.13.21-.18.29-.09.09a4.6,4.6,0,0,1-.52.56l-.09.09-.17.14a5.72,5.72,0,0,1-.63.44l-.31.16a4.69,4.69,0,0,1-.78.31l-.3.09a5,5,0,0,1-1.14.13H123.85l4.59,91.22a7.19,7.19,0,0,1-4.37,12.62ZM321.9,126.57,316.23,113a7.75,7.75,0,0,0-7.06-4.89H138.83a7.75,7.75,0,0,0-7.06,4.89l-5.67,13.53ZM267.71,98.15l-2.54-10.24a6.2,6.2,0,0,0-1.17-2.6H184a6.13,6.13,0,0,0-1.17,2.6l-2.54,10.24Z" transform="translate(-113.59 -75.31)"/><path class="cls-1" d="M331.38,131.85a1,1,0,0,0,0-.17s0-.07,0-.11a1.37,1.37,0,0,0,0-.19.76.76,0,0,0,0-.15,3,3,0,0,0-.12-.43h0l-8.57-20.46a14.72,14.72,0,0,0-13.51-9.18h-33.5L272,86.22c-1.19-4.8-4.13-7.91-7.49-7.91h-81c-3.41,0-6.28,3-7.49,7.91l-3.7,14.93h-33.5a14.72,14.72,0,0,0-13.51,9.18l-8.58,20.47a0,0,0,0,1,0,0,2.2,2.2,0,0,0-.12.44v0a1.35,1.35,0,0,0,0,.35l4.94,98a4.21,4.21,0,1,0,4-.2l-4.83-95.86H329.41a1.76,1.76,0,0,0,.46-.06l.12,0,.3-.12.13-.07a2.4,2.4,0,0,0,.26-.18l.1-.09a1.58,1.58,0,0,0,.29-.34h0a0,0,0,0,1,0,0,2.15,2.15,0,0,0,.19-.37.65.65,0,0,1,0-.13A1.59,1.59,0,0,0,331.38,131.85ZM179.92,87.18c.79-3.2,2.41-4.87,3.6-4.87h81c1.19,0,2.81,1.67,3.6,4.87l3.46,14H176.46Zm-58.33,42.39L129,111.88a10.72,10.72,0,0,1,9.82-6.73H309.17a10.72,10.72,0,0,1,9.82,6.73l7.41,17.69Z" transform="translate(-113.59 -75.31)"/><path class="cls-1" d="M141,371.59a16.54,16.54,0,0,1-16.16-15.94l-2.36-46.83a7.19,7.19,0,0,1,4.37-12.62h.37a7.2,7.2,0,0,1,5.25,12.13l2.36,46.83a6.54,6.54,0,0,0,6.24,6.44l165.73,1.1a6.55,6.55,0,0,0,6.32-6.45l8.65-172.58A7.2,7.2,0,0,1,327,171.53h.37a7.19,7.19,0,0,1,4.37,12.62l-8.65,172.59a16.51,16.51,0,0,1-16.26,15.94Z" transform="translate(-113.59 -75.31)"/><path class="cls-1" d="M327.26,174.53a4.23,4.23,0,0,0-4.42,4,4.18,4.18,0,0,0,2,3.79l-8.73,174.07a9.51,9.51,0,0,1-9.27,9.3h-.06l-165.73-1.1a9.54,9.54,0,0,1-9.22-9.29L129.43,307a4.21,4.21,0,1,0-4,.2l2.44,48.32a13.53,13.53,0,0,0,13.18,13.09l165.73,1.1h.09a13.5,13.5,0,0,0,13.27-13.09l8.72-174.08a4.2,4.2,0,0,0-1.6-8Z" transform="translate(-113.59 -75.31)"/><path class="cls-1" d="M182.13,341.69a5,5,0,0,1-5-5V172a7.21,7.21,0,1,1,10,0V331.69H219V162.57a5,5,0,0,1,5-5h41.87a5,5,0,0,1,5,5V327.31a7.21,7.21,0,1,1-10,0V167.57H229V336.69a5,5,0,0,1-5,5Z" transform="translate(-113.59 -75.31)"/><path class="cls-1" d="M186.34,166.78a4.21,4.21,0,1,0-6.21,3.68V336.69a2,2,0,0,0,2,2H224a2,2,0,0,0,2-2V164.57h37.87V328.8a4.21,4.21,0,1,0,4,0V162.57a2,2,0,0,0-2-2H224a2,2,0,0,0-2,2V334.69H184.13V170.46A4.18,4.18,0,0,0,186.34,166.78Z" transform="translate(-113.59 -75.31)"/></svg>