<?xml version="1.0" encoding="utf-8"?>
<!-- Generator: Adobe Illustrator 22.0.0, SVG Export Plug-In . SVG Version: 6.00 Build 0)  -->
<svg version="1.1" id="Layer_1" xmlns="http://www.w3.org/2000/svg" xmlns:xlink="http://www.w3.org/1999/xlink" x="0px" y="0px"
	 viewBox="0 0 448 448" style="enable-background:new 0 0 448 448;" xml:space="preserve">
<style type="text/css">
	.st0{fill:#9ACD8D;}
</style>
<g>
	<path class="st0" d="M224,231.6c-63.9,0-115.8-52-115.8-115.8S160.1,0,224,0s115.8,52,115.8,115.8S287.9,231.6,224,231.6z
		 M224,13.7c-56.3,0-102.1,45.8-102.1,102.1S167.7,217.9,224,217.9s102.1-45.8,102.1-102.1S280.3,13.7,224,13.7z"/>
	<path class="st0" d="M224,228.1c62,0,112.2-50.3,112.2-112.2C336.2,53.8,286,3.6,224,3.6c-62,0-112.2,50.3-112.2,112.2
		C111.8,177.8,162,228.1,224,228.1z M224,10.1c58.3,0,105.7,47.4,105.7,105.7S282.3,221.5,224,221.5s-105.7-47.4-105.7-105.7
		S165.7,10.1,224,10.1z"/>
	<path class="st0" d="M224.2,448c-69.8,0-129.9-15.4-160.8-41.2c-16-13.4-24.1-29.1-24.1-46.8c0-57.7,22.7-112.7,62.2-151
		c1.4-1.4,3.3-2.2,5.3-2.2c0.1,0,0.3,0,0.4,0c2.1,0.1,4.1,1.1,5.5,2.7c27.8,33,68.3,51.9,111.3,51.9s83.5-18.9,111.3-51.9
		c1.4-1.6,3.4-2.6,5.5-2.7l0.4,0c2,0,3.9,0.8,5.4,2.2c39.5,38.3,62.2,93.3,62.2,151c0,20.2-11.1,38.4-32.2,52.8
		c-0.5,3.9-2.8,7.3-6.3,9.2c-1.8,1-3.8,1.5-5.8,1.5l0,0c-4.5,0-8.6-2.5-10.7-6.4c-1.5-2.9-1.9-6.2-1-9.3c0.9-3.1,3-5.7,5.9-7.2
		c1.8-1,3.7-1.5,5.7-1.5c1.4,0,2.8,0.2,4.1,0.7c16.5-11.4,24.9-24.8,24.9-39.8c0-50.6-18.9-99.3-51.9-134.3
		c-30.4,32.5-73,51-117.4,51s-87.1-18.6-117.4-51c-33,35-51.9,83.8-51.9,134.3c0,12.9,6.3,24.7,18.6,35
		c28.3,23.6,84.5,37.7,150.3,37.7c20.8,0,41.7-1.5,60.7-4.4c1.8-3.2,4.9-5.5,8.5-6.1c0.7-0.1,1.4-0.2,2.1-0.2c5.9,0,11,4.2,12,10.1
		c1.2,6.6-3.3,13-9.9,14.1c-0.7,0.1-1.4,0.2-2.1,0.2c-2.9,0-5.7-1.1-7.9-3C267.4,446.4,245.7,448,224.2,448z"/>
	<path class="st0" d="M405.1,360c0-56.7-22.3-110.9-61.1-148.5c-0.8-0.8-1.9-1.2-3.1-1.1c-1.1,0.1-2.2,0.6-2.9,1.5
		c-28.5,33.8-70,53.1-114,53.1s-85.6-19.4-114-53.1c-0.7-0.9-1.8-1.4-2.9-1.5c-1.2-0.1-2.2,0.4-3.1,1.1
		C65.2,249.1,42.9,303.2,42.9,360c0,16.6,7.7,31.4,22.8,44.1c33.3,27.8,97,40.4,158.5,40.4c22.1,0,44-1.6,64-4.8
		c1.9,2.3,5,3.6,8.2,3.1c4.7-0.8,7.8-5.3,7-10c-0.8-4.7-5.3-7.8-10-7c-3.3,0.6-5.7,2.9-6.7,5.9C212.9,443.1,114.4,434,71,397.8
		c-13.2-11-19.9-23.7-19.9-37.8c0-53,20.2-103.6,55.5-139.5c29.9,33.5,72.4,52.7,117.4,52.7s87.5-19.1,117.4-52.7
		c35.3,35.9,55.5,86.5,55.5,139.5c0,16.8-9.5,31.5-28.2,43.9c-2.5-1.5-5.7-1.7-8.5-0.2c-4.2,2.3-5.8,7.5-3.5,11.7s7.5,5.8,11.7,3.5
		c3-1.6,4.6-4.8,4.5-8C394,397,405.1,379.5,405.1,360z"/>
</g>
</svg>
