<svg id="Layer_1" data-name="Layer 1" xmlns="http://www.w3.org/2000/svg" viewBox="0 0 396.05 448">
  <defs>
    <style>
      .cls-1 {
        fill: #9acd8d;
      }
    </style>
  </defs>
  <g>
    <path class="cls-1" d="M325.69,124.83a102,102,0,1,1-5.05-42H335a115.8,115.8,0,1,0,4.44,42Z" transform="translate(-39.3)"/>
    <path class="cls-1" d="M346.6,209a7.91,7.91,0,0,0-5.4-2.2h-.4a7.87,7.87,0,0,0-5.5,2.7,145.29,145.29,0,0,1-222.6,0,7.87,7.87,0,0,0-5.5-2.7h-.4a7.49,7.49,0,0,0-5.3,2.2C62,247.3,39.3,302.3,39.3,360c0,17.7,8.1,33.4,24.1,46.8,30.9,25.8,91,41.2,160.8,41.2a424.94,424.94,0,0,0,62.9-4.6,12.14,12.14,0,0,0,7.9,3,14.92,14.92,0,0,0,2.1-.2A12.19,12.19,0,0,0,295,422a14.92,14.92,0,0,0-2.1.2,12.13,12.13,0,0,0-8.5,6.1,408.88,408.88,0,0,1-60.7,4.4c-65.8,0-122-14.1-150.3-37.7-12.3-10.3-18.6-22.1-18.6-35,0-50.5,18.9-99.3,51.9-134.3a160.63,160.63,0,0,0,234.8,0c33,35,51.9,83.7,51.9,134.3,0,15-8.4,28.4-24.9,39.8a11.41,11.41,0,0,0-4.1-.7,11.57,11.57,0,0,0-5.7,1.5,11.76,11.76,0,0,0-5.9,7.2,12.56,12.56,0,0,0,1,9.3,12.17,12.17,0,0,0,10.7,6.4,11.94,11.94,0,0,0,5.8-1.5,12.17,12.17,0,0,0,6.3-9.2c21.1-14.4,32.2-32.6,32.2-52.8C408.8,302.3,386.1,247.3,346.6,209Z" transform="translate(-39.3)"/>
  </g>
  <path class="cls-1" d="M435.35,103.83a11,11,0,0,1-11,11h-41v41a11,11,0,1,1-22,0v-41h-41a11,11,0,0,1,0-22h41v-41a11,11,0,1,1,22,0v41h41A11,11,0,0,1,435.35,103.83Z" transform="translate(-39.3)"/>
</svg>
