<svg id="Layer_1" data-name="Layer 1" xmlns="http://www.w3.org/2000/svg" viewBox="0 0 413.86 311.71"><defs><style>.cls-1{fill:#9acd8d;}.cls-2,.cls-3{fill:none;stroke:#9acd8d;stroke-linecap:round;stroke-linejoin:round;}.cls-2{stroke-width:20px;}.cls-3{stroke-width:12px;}</style></defs><path class="cls-1" d="M229.81,151.54" transform="translate(-10.03 -45.85)"/><path class="cls-1" d="M214.12,286.48c-30.85,0-63.54-8.66-94.52-25.05-26-13.77-50.33-32.92-66.56-52.55a8,8,0,0,1,0-10.21c31-37.38,94.58-77.61,161.08-77.61,31.07,0,64,8.77,95.11,25.37,25.86,13.78,49.88,32.81,66,52.24a8,8,0,0,1,0,10.21c-15.8,19-39.46,37.88-64.92,51.65C278.88,277.51,245.63,286.48,214.12,286.48Zm0-149.31c-37.07,0-67.23,29.88-67.23,66.6s30.16,66.6,67.23,66.6,67.23-29.88,67.23-66.6-30.16-66.6-67.24-66.6Zm66.51,16.65a82.16,82.16,0,0,1,0,100l-3.5,4.57,5.32-2.24c37.73-15.9,64.67-41.14,74.49-51.26l1-1.06-1-1.06c-21.07-21.72-47.52-39.92-74.48-51.24l-5.33-2.22Zm-134.82-2.34c-37.73,15.87-64.65,41.14-74.48,51.23l-1,1.06,1,1.07c21.07,21.72,47.51,39.92,74.48,51.23l5.32,2.22-3.5-4.56a82.18,82.18,0,0,1,0-99.91l3.51-4.56Z" transform="translate(-10.03 -45.85)"/><path class="cls-1" d="M214.12,234.06a30.29,30.29,0,0,1,0-60.58h0a30.29,30.29,0,1,1,0,60.58Zm0-46a15.7,15.7,0,1,0,15.82,15.7,15.69,15.69,0,0,0-15.82-15.7Z" transform="translate(-10.03 -45.85)"/><line id="line6" class="cls-2" x1="123.87" y1="15.92" x2="146.19" y2="51.47"/><line id="line5" class="cls-2" x1="284.31" y1="15.92" x2="261.99" y2="51.47"/><line id="line4" class="cls-2" x1="199.21" y1="10" x2="199.21" y2="45.77"/><line id="line3" class="cls-2" x1="123.87" y1="295.79" x2="146.19" y2="260.24"/><line id="line2" class="cls-2" x1="284.31" y1="295.79" x2="261.99" y2="260.24"/><line id="line1" class="cls-2" x1="199.21" y1="301.71" x2="199.21" y2="265.93"/><g id="linedecorative2"><polyline class="cls-3" points="356.29 157.96 401.23 157.96 401.23 220.89"/><path class="cls-1" d="M398.62,266.11a12.64,12.64,0,1,0,12.64-12.63A12.63,12.63,0,0,0,398.62,266.11Z" transform="translate(-10.03 -45.85)"/></g><g id="linedecorative1"><polyline class="cls-3" points="50.93 157.91 12.63 157.96 12.63 103.33"/><path class="cls-1" d="M35.29,149.81a12.63,12.63,0,1,0-12.63,12.63A12.63,12.63,0,0,0,35.29,149.81Z" transform="translate(-10.03 -45.85)"/></g></svg>