<svg id="Capa_1" data-name="Capa 1" xmlns="http://www.w3.org/2000/svg" viewBox="0 0 1967 1129">
  <defs>
    <style>
      .cls-1 {
        fill: #a56565;
      }

      .cls-2 {
        fill: #e2e5e7;
      }

      .cls-3 {
        fill: #b0b7bd;
      }

      .cls-4 {
        fill: #cad1d8;
      }

      .cls-5 {
        fill: #340101;
      }

      .cls-6 {
        fill: #fa9700;
      }
    </style>
  </defs>
  <rect class="cls-1" width="1967" height="1129"/>
  <path class="cls-2" d="M832,284a32.09,32.09,0,0,0-32,32V764a32.09,32.09,0,0,0,32,32h320a32.09,32.09,0,0,0,32-32V412L1056,284Z" transform="translate(21 16)"/>
  <path class="cls-3" d="M1088,412h96L1056,284v96A32.09,32.09,0,0,0,1088,412Z" transform="translate(21 16)"/>
  <polygon class="cls-4" points="1205 524 1109 428 1205 428 1205 524"/>
  <path class="cls-4" d="M1010,700H800v31H995c19-3,26-14,26-31V669C1021,686.05,1016,700,1010,700Z" transform="translate(21 16)"/>
  <g>
    <g>
      <path class="cls-5" d="M893,462.2q41.09,0,82.17,0c27.75,0,47.8,20.11,47.82,47.95q0,79.05,0,158.12c0,28.6-19.63,48.52-48.33,48.64-40,.17-80.09.05-120.13.05-14.73,0-29.47.1-44.2,0C781.66,716.68,762,697,762,668.33q-.13-78.76,0-157.54c0-29,19.92-48.58,48.92-48.59Zm-24.81,60.2c-4.15,0-8.31.08-12.46,0-2.28,0-3.62.67-3.69,3.12-.22,8.12-3.86,15.31-6.41,22.77Q830.73,591.9,815.4,635.4c-1.18,3.38-.93,4.9,3.11,4.74,5.28-.21,10.58-.18,15.86,0,2.94.1,4.45-1,5.3-3.81,2-6.68,4.42-13.24,6.37-19.94,1-3.27,2.62-4.41,6-4.34,9.63.22,19.28.41,28.89,0,5.72-.27,9.25.91,10.32,7.17.67,3.85,2.5,7.5,3.71,11.27,3.09,9.64,3.07,9.65,13,9.65,4,0,7.94-.19,11.89,0,4.24.27,4.69-1.15,3.34-4.91-11.78-32.86-23.35-65.79-35.08-98.66C883.06,522.36,883,522.4,868.23,522.4Zm92.63,72.89c0-13.2-.09-26.41.06-39.61.05-3.55-.82-5.19-4.71-5-5.27.28-10.57.25-15.84,0-3.57-.16-4.51,1.33-4.5,4.66q.14,39.9,0,79.8c0,3.51.86,5.21,4.75,5a129.65,129.65,0,0,1,15.27,0c4.13.25,5.1-1.45,5-5.26C960.75,621.71,960.86,608.5,960.86,595.29Zm-12.51-53.75c8.52,0,14.23-5.71,14.13-14.22-.1-8.32-5.76-14-13.88-13.86a13.82,13.82,0,0,0-14,14C934.65,535.84,940.19,541.51,948.35,541.54Z" transform="translate(21 16)"/>
      <path class="cls-6" d="M868.23,522.4c14.72,0,14.83,0,19.91,14.17,11.73,32.87,23.3,65.8,35.08,98.66,1.35,3.76.9,5.18-3.34,4.91-4-.24-7.93,0-11.89,0-9.93,0-9.91,0-13-9.65-1.21-3.77-3-7.42-3.71-11.27-1.07-6.26-4.6-7.44-10.32-7.17-9.61.46-19.26.27-28.89,0-3.41-.07-5.07,1.07-6,4.34-1.95,6.7-4.36,13.26-6.37,19.94-.85,2.84-2.36,3.91-5.3,3.81-5.28-.18-10.58-.21-15.86,0-4,.16-4.29-1.36-3.11-4.74q15.27-43.51,30.27-87.14c2.55-7.46,6.19-14.65,6.41-22.77.07-2.45,1.41-3.17,3.69-3.12C859.92,522.48,864.08,522.4,868.23,522.4Zm-.12,22.17c-4.39,14-8.55,27.5-12.86,40.93-1,3.13-.07,4,3,3.92,6.59-.13,13.19-.15,19.78,0,3.43.08,3.67-1.34,2.79-4.12C876.58,571.87,872.42,558.4,868.11,544.57Z" transform="translate(21 16)"/>
      <path class="cls-6" d="M960.86,595.29c0,13.21-.11,26.42.07,39.62.06,3.81-.91,5.51-5,5.26a129.65,129.65,0,0,0-15.27,0c-3.89.21-4.77-1.49-4.75-5q.14-39.9,0-79.8c0-3.33.93-4.82,4.5-4.66,5.27.24,10.57.27,15.84,0,3.89-.2,4.76,1.44,4.71,5C960.77,568.88,960.86,582.09,960.86,595.29Z" transform="translate(21 16)"/>
      <path class="cls-6" d="M948.35,541.54c-8.16,0-13.7-5.7-13.72-14a13.82,13.82,0,0,1,14-14c8.12-.11,13.78,5.54,13.88,13.86C962.58,535.83,956.87,541.57,948.35,541.54Z" transform="translate(21 16)"/>
    </g>
    <path class="cls-5" d="M868.11,544.57c4.31,13.83,8.47,27.3,12.73,40.74.88,2.78.64,4.2-2.79,4.12-6.59-.16-13.19-.14-19.78,0-3.09.07-4-.79-3-3.92C859.56,572.07,863.72,558.59,868.11,544.57Z" transform="translate(21 16)"/>
  </g>
</svg>
