<svg id="Capa_1" data-name="Capa 1" xmlns="http://www.w3.org/2000/svg" viewBox="0 0 1967 1129">
  <defs>
    <style>
      .cls-1 {
        fill: #a4d5e0;
      }

      .cls-2 {
        fill: #e2e5e7;
      }

      .cls-3 {
        fill: #b0b7bd;
      }

      .cls-4 {
        fill: #cad1d8;
      }

      .cls-5 {
        fill: #50bee8;
      }

      .cls-6 {
        fill: #fff;
      }
    </style>
  </defs>
  <rect class="cls-1" width="1967" height="1129"/>
  <g>
    <path class="cls-2" d="M800.86,222a39.89,39.89,0,0,0-39.79,39.75v556.5A39.89,39.89,0,0,0,800.86,858h397.85a39.88,39.88,0,0,0,39.79-39.75V381L1079.36,222Z" transform="translate(21 16)"/>
    <path class="cls-3" d="M1119.14,381H1238.5L1079.36,222V341.25A39.88,39.88,0,0,0,1119.14,381Z" transform="translate(21 16)"/>
    <polygon class="cls-4" points="1259.5 516.25 1140.14 397 1259.5 397 1259.5 516.25"/>
    <path class="cls-5" d="M1158.93,738.75A20,20,0,0,1,1139,758.63H701.39a20,20,0,0,1-19.89-19.88V540a19.94,19.94,0,0,1,19.89-19.87H1139A19.94,19.94,0,0,1,1158.93,540Z" transform="translate(21 16)"/>
    <g>
      <path class="cls-6" d="M756.81,699c-5.25,0-11-2.88-11-9.86V598.89c0-5.72,5.73-9.86,11-9.86h36.43c72.69,0,71.08,110,1.41,110Zm10-90.59V679.6h26.4c43,0,44.84-71.19,0-71.19Z" transform="translate(21 16)"/>
      <path class="cls-6" d="M925.19,700.59c-29.42,1.27-60-18.29-60-57.22,0-39.09,30.54-58.31,60-58.31,27.83,1.41,56.93,20.65,56.93,58.31S953,700.59,925.19,700.59Zm-1.75-94.86c-17.83,0-37.22,12.56-37.22,37.66s19.41,37.68,37.22,37.68c18.3,0,37.85-12.72,37.85-37.68C961.29,618.27,941.74,605.73,923.44,605.73Z" transform="translate(21 16)"/>
      <path class="cls-6" d="M1000.84,643.21c0-30.67,19.26-57,55.84-57,13.84,0,24.83,4.13,36.42,14.15a10.31,10.31,0,1,1-14.16,14.93c-6.51-6.84-13.19-8.73-22.26-8.73-24.49,0-36.25,17.33-36.25,36.71,0,19.72,11.6,37.82,36.25,37.82,9.07,0,17.5-3.67,24.83-10.17,4.91-3.82,11.75-1.93,14.62,1.9,2.54,3.5,3.8,9.39-1.75,14.93-11.14,10.36-24.49,12.42-37.72,12.42C1018.19,700.13,1000.84,673.88,1000.84,643.21Z" transform="translate(21 16)"/>
    </g>
    <path class="cls-4" d="M1139,758.63h-378V778.5h378a19.94,19.94,0,0,0,19.89-19.87V738.75A20,20,0,0,1,1139,758.63Z" transform="translate(21 16)"/>
  </g>
</svg>
