<svg id="Capa_1" data-name="Capa 1" xmlns="http://www.w3.org/2000/svg" viewBox="0 0 1967 1129">
  <defs>
    <style>
      .cls-1 {
        fill: #e4f9c7;
      }

      .cls-2 {
        fill: #e2e5e7;
      }

      .cls-3 {
        fill: #b0b7bd;
      }

      .cls-4 {
        fill: #cad1d8;
      }

      .cls-5 {
        fill: #84bd5a;
      }

      .cls-6 {
        fill: #fff;
      }
    </style>
  </defs>
  <rect class="cls-1" width="1967" height="1129"/>
  <g>
    <path class="cls-2" d="M800.91,221.82a39.89,39.89,0,0,0-39.77,39.78V818.4a39.89,39.89,0,0,0,39.77,39.78h397.72a39.89,39.89,0,0,0,39.77-39.78V380.91L1079.32,221.82Z" transform="translate(21 16)"/>
    <path class="cls-3" d="M1119.09,380.91H1238.4L1079.32,221.82V341.14A39.88,39.88,0,0,0,1119.09,380.91Z" transform="translate(21 16)"/>
    <polygon class="cls-4" points="1259.4 516.23 1140.09 396.91 1259.4 396.91 1259.4 516.23"/>
    <path class="cls-5" d="M1158.86,738.86A20,20,0,0,1,1139,758.75H701.48a20,20,0,0,1-19.88-19.89V540a20,20,0,0,1,19.88-19.89H1139A20,20,0,0,1,1158.86,540Z" transform="translate(21 16)"/>
    <g>
      <path class="cls-6" d="M711,689.22v-90.3c0-5.73,4.13-9.86,11.27-9.86a9.49,9.49,0,0,1,9.71,9.86v34.66h51.82V598.92c0-5.73,5.09-9.86,10.82-9.86a9.61,9.61,0,0,1,9.86,9.86v90.3a9.71,9.71,0,0,1-9.86,9.87c-5.73,0-10.82-4.3-10.82-9.87v-34.8H732v34.8a9.59,9.59,0,0,1-9.71,9.87C715.16,699.09,711,694.79,711,689.22Z" transform="translate(21 16)"/>
      <path class="cls-6" d="M856.57,608.94H828.75c-13.84,0-13.84-20.34,0-20.34h75.19c14.16,0,14.16,20.34,0,20.34H877.55v80.28c0,13.83-21,14.16-21,0V608.94Z" transform="translate(21 16)"/>
      <path class="cls-6" d="M950.91,629.29v58.82c0,7-5.73,11-11.43,11-5.09,0-9.55-4-9.55-11V598.6a10.61,10.61,0,0,1,9.55-11c4.59,0,7.3,2.72,10,5.74l35,47.21,36.23-49c5.27-6.5,18.14-4,18.14,7v89.51c0,7-4.48,11-9.55,11-5.7,0-10.18-4-10.18-11V629.29l-26.39,33.39c-5.7,7-12.86,7-18.11,0Z" transform="translate(21 16)"/>
      <path class="cls-6" d="M1061,598.6a9.92,9.92,0,0,1,10-9.7,9.7,9.7,0,0,1,9.39,9.7v79.67h43.25c15.57,0,15.91,20.82,0,20.82H1071c-5.56,0-10-4-10-9.71V598.6Z" transform="translate(21 16)"/>
    </g>
    <path class="cls-4" d="M1139,758.75H761.14v19.88H1139a20,20,0,0,0,19.89-19.88V738.86A20,20,0,0,1,1139,758.75Z" transform="translate(21 16)"/>
  </g>
</svg>
