<svg id="Capa_1" data-name="Capa 1" xmlns="http://www.w3.org/2000/svg" viewBox="0 0 1967 1129">
  <defs>
    <style>
      .cls-1 {
        fill: #f78d86;
      }

      .cls-2 {
        fill: #e2e5e7;
      }

      .cls-3 {
        fill: #b0b7bd;
      }

      .cls-4 {
        fill: #cad1d8;
      }

      .cls-5 {
        fill: #f15642;
      }

      .cls-6 {
        fill: #fff;
      }
    </style>
  </defs>
  <rect class="cls-1" width="1967" height="1129"/>
  <g>
    <path class="cls-2" d="M800.89,221.79a39.89,39.89,0,0,0-39.77,39.77V818.44a39.89,39.89,0,0,0,39.77,39.77h397.77a39.89,39.89,0,0,0,39.78-39.77V380.89l-159.11-159.1Z" transform="translate(13 16)"/>
    <path class="cls-3" d="M1119.11,380.89h119.33l-159.11-159.1V341.12A39.89,39.89,0,0,0,1119.11,380.89Z" transform="translate(13 16)"/>
    <polygon class="cls-4" points="1251.44 516.22 1132.11 396.89 1251.44 396.89 1251.44 516.22"/>
    <path class="cls-5" d="M1158.88,738.88A20,20,0,0,1,1139,758.77H701.45a20,20,0,0,1-19.89-19.89V540a20,20,0,0,1,19.89-19.89H1139A20,20,0,0,1,1158.88,540Z" transform="translate(13 16)"/>
    <g>
      <path class="cls-6" d="M768.26,598.61a10.94,10.94,0,0,1,10.8-11h36.73c20.68,0,39.3,13.84,39.3,40.38,0,25.13-18.62,39.14-39.3,39.14H789.24v21c0,7-4.46,11-10.18,11a10.72,10.72,0,0,1-10.8-11Zm21,9v39.62h26.55c10.66,0,19.09-9.41,19.09-19.27,0-11.12-8.43-20.35-19.09-20.35Z" transform="translate(13 16)"/>
      <path class="cls-6" d="M886.23,699.11c-5.25,0-11-2.87-11-9.85V598.93c0-5.71,5.72-9.87,11-9.87h36.42c72.67,0,71.08,110.05,1.43,110.05Zm10-90.63v71.24h26.39c42.94,0,44.85-71.24,0-71.24Z" transform="translate(13 16)"/>
      <path class="cls-6" d="M1019.51,609.75V635h40.55c5.73,0,11.45,5.72,11.45,11.27,0,5.25-5.72,9.55-11.45,9.55h-40.55v33.39c0,5.57-4,9.85-9.53,9.85-7,0-11.28-4.28-11.28-9.85V598.91c0-5.71,4.3-9.87,11.28-9.87h55.83c7,0,11.13,4.16,11.13,9.87a11,11,0,0,1-11.13,10.82h-46.3Z" transform="translate(13 16)"/>
    </g>
    <path class="cls-4" d="M1139,758.77H761.12v19.89H1139a20,20,0,0,0,19.89-19.89V738.88A20,20,0,0,1,1139,758.77Z" transform="translate(13 16)"/>
  </g>
</svg>
