<svg id="Capa_1" data-name="Capa 1" xmlns="http://www.w3.org/2000/svg" viewBox="0 0 1967 1129">
  <defs>
    <style>
      .cls-1 {
        fill: #95b3c6;
      }

      .cls-2 {
        fill: #e2e5e7;
      }

      .cls-3 {
        fill: #b0b7bd;
      }

      .cls-4 {
        fill: #cad1d8;
      }

      .cls-5 {
        fill: #576d7e;
      }

      .cls-6 {
        fill: #fff;
      }
    </style>
  </defs>
  <rect class="cls-1" width="1967" height="1129"/>
  <g>
    <path class="cls-2" d="M800.86,222a39.89,39.89,0,0,0-39.79,39.75v556.5A39.89,39.89,0,0,0,800.86,858h397.85a39.88,39.88,0,0,0,39.79-39.75V381L1079.36,222Z" transform="translate(21 16)"/>
    <path class="cls-3" d="M1119.14,381H1238.5L1079.36,222V341.25A39.88,39.88,0,0,0,1119.14,381Z" transform="translate(21 16)"/>
    <polygon class="cls-4" points="1259.5 516.25 1140.14 397 1259.5 397 1259.5 516.25"/>
    <path class="cls-5" d="M1158.93,738.75A20,20,0,0,1,1139,758.63H701.39a20,20,0,0,1-19.89-19.88V540a19.94,19.94,0,0,1,19.89-19.87H1139A19.94,19.94,0,0,1,1158.93,540Z" transform="translate(21 16)"/>
    <g>
      <path class="cls-6" d="M769.67,598.57a11,11,0,0,1,10.82-11h36.74c20.69,0,39.31,13.83,39.31,40.37,0,25.12-18.62,39.09-39.31,39.09H790.65v21c0,7-4.43,11-10.16,11a10.74,10.74,0,0,1-10.82-11Zm21,9v39.58h26.56c10.66,0,19.1-9.39,19.1-19.24,0-11.13-8.44-20.34-19.1-20.34Z" transform="translate(21 16)"/>
      <path class="cls-6" d="M873.57,689.14V598.89c0-5.72,4.13-9.86,11.29-9.86a9.49,9.49,0,0,1,9.69,9.86v34.64h51.84V598.89c0-5.72,5.1-9.86,10.82-9.86a9.63,9.63,0,0,1,9.87,9.86v90.25a9.72,9.72,0,0,1-9.87,9.86c-5.72,0-10.82-4.29-10.82-9.86V654.36H894.55v34.78a9.58,9.58,0,0,1-9.69,9.86C877.7,699,873.57,694.71,873.57,689.14Z" transform="translate(21 16)"/>
      <path class="cls-6" d="M989.42,598.57a11,11,0,0,1,10.82-11H1037c20.68,0,39.3,13.83,39.3,40.37,0,25.12-18.62,39.09-39.3,39.09h-26.56v21c0,7-4.46,11-10.19,11a10.74,10.74,0,0,1-10.82-11V598.57Zm21,9v39.58H1037c10.66,0,19.09-9.39,19.09-19.24,0-11.13-8.43-20.34-19.09-20.34Z" transform="translate(21 16)"/>
    </g>
    <path class="cls-4" d="M1139,758.63h-378V778.5h378a19.94,19.94,0,0,0,19.89-19.87V738.75A20,20,0,0,1,1139,758.63Z" transform="translate(21 16)"/>
  </g>
</svg>
