<svg id="Capa_1" data-name="Capa 1" xmlns="http://www.w3.org/2000/svg" viewBox="0 0 1967 1129">
  <defs>
    <style>
      .cls-1 {
        fill: #f4ba9d;
      }

      .cls-2 {
        fill: #e2e5e7;
      }

      .cls-3 {
        fill: #b0b7bd;
      }

      .cls-4 {
        fill: #cad1d8;
      }

      .cls-5 {
        fill: #ef8043;
      }

      .cls-6 {
        fill: #fff;
      }
    </style>
  </defs>
  <rect class="cls-1" width="1967" height="1129"/>
  <g>
    <path class="cls-2" d="M800.86,222a39.89,39.89,0,0,0-39.79,39.75v556.5A39.89,39.89,0,0,0,800.86,858h397.85a39.88,39.88,0,0,0,39.79-39.75V381L1079.36,222Z" transform="translate(21 16)"/>
    <path class="cls-3" d="M1119.14,381H1238.5L1079.36,222V341.25A39.88,39.88,0,0,0,1119.14,381Z" transform="translate(21 16)"/>
    <polygon class="cls-4" points="1259.5 516.25 1140.14 397 1259.5 397 1259.5 516.25"/>
    <path class="cls-5" d="M1158.93,738.75A20,20,0,0,1,1139,758.63H701.39a20,20,0,0,1-19.89-19.88V540a19.94,19.94,0,0,1,19.89-19.87H1139A19.94,19.94,0,0,1,1158.93,540Z" transform="translate(21 16)"/>
    <g>
      <path class="cls-6" d="M772.83,598.57a10.94,10.94,0,0,1,10.8-11h36.74c20.69,0,39.31,13.83,39.31,40.35,0,25.12-18.62,39.11-39.31,39.11H793.82v21c0,7-4.44,11-10.17,11a10.72,10.72,0,0,1-10.8-11V598.57Zm21,9v39.6h26.55c10.66,0,19.1-9.41,19.1-19.26,0-11.11-8.44-20.34-19.1-20.34Z" transform="translate(21 16)"/>
      <path class="cls-6" d="M880,598.57a10.94,10.94,0,0,1,10.82-11h36.74c20.69,0,39.31,13.83,39.31,40.35,0,25.12-18.62,39.11-39.31,39.11H901v21c0,7-4.46,11-10.19,11a10.73,10.73,0,0,1-10.82-11V598.57Zm21,9v39.6H927.5c10.66,0,19.09-9.41,19.09-19.26,0-11.11-8.43-20.34-19.09-20.34Z" transform="translate(21 16)"/>
      <path class="cls-6" d="M1016.79,608.91H989c-13.84,0-13.84-20.34,0-20.34h75.22c14.16,0,14.16,20.34,0,20.34h-26.4v80.25c0,13.81-21,14.15-21,0Z" transform="translate(21 16)"/>
    </g>
    <path class="cls-4" d="M1139,758.63h-378V778.5h378a19.94,19.94,0,0,0,19.89-19.87V738.75A20,20,0,0,1,1139,758.63Z" transform="translate(21 16)"/>
  </g>
</svg>
