<svg id="Capa_1" data-name="Capa 1" xmlns="http://www.w3.org/2000/svg" viewBox="0 0 1967 1129">
  <defs>
    <style>
      .cls-1 {
        fill: #315872;
      }

      .cls-2 {
        fill: #e2e5e7;
      }

      .cls-3 {
        fill: #b0b7bd;
      }

      .cls-4 {
        fill: #cad1d8;
      }

      .cls-5 {
        fill: #001e36;
      }

      .cls-6 {
        fill: #30a6fc;
      }
    </style>
  </defs>
  <rect class="cls-1" width="1967" height="1129"/>
  <path class="cls-2" d="M832,284a32.09,32.09,0,0,0-32,32V764a32.09,32.09,0,0,0,32,32h320a32.09,32.09,0,0,0,32-32V412L1056,284Z" transform="translate(34 40)"/>
  <path class="cls-3" d="M1088,412h96L1056,284v96A32.09,32.09,0,0,0,1088,412Z" transform="translate(34 40)"/>
  <polygon class="cls-4" points="1218 548 1122 452 1218 452 1218 548"/>
  <path class="cls-4" d="M1010,700H800v31H995c19-3,26-14,26-31V669C1021,686.05,1016,700,1010,700Z" transform="translate(34 40)"/>
  <path class="cls-5" d="M1023,668.27c0,28.6-19.63,48.52-48.33,48.64-40,.17-80.09.05-120.13.05-14.73,0-29.47.1-44.2,0C781.66,716.68,762,697,762,668.33q-.13-78.76,0-157.54c0-29,19.92-48.58,48.92-48.59H893q41.09,0,82.17,0c27.75,0,47.8,20.11,47.82,47.95Q1023.08,589.2,1023,668.27Z" transform="translate(34 40)"/>
  <path class="cls-6" d="M816.06,591.42c0-17.48.1-35-.08-52.43,0-3.79.64-5.42,4.93-5.34,13.8.26,27.63-1.91,41.42.13,15.08,2.24,27.68,8.47,33.37,23.69,5.47,14.65,4.15,28.77-6.26,41-6.43,7.56-15.06,11.34-24.86,13.09-6.76,1.21-13.44.78-20.14.65-3.59-.06-4.68.84-4.6,4.4.21,9-.08,18.06.14,27.08.09,3.86-.85,5.64-5.11,5.33a106.31,106.31,0,0,0-14.39,0c-3.66.23-4.52-1.14-4.49-4.6C816.15,626.77,816.06,609.1,816.06,591.42ZM840,573.29c0,1.34-.1,2.69,0,4,.41,4.68-2.21,11.48,1.18,13.57,4.25,2.61,10.82,1.24,16.29.21,14.34-2.72,21-13.07,15.91-25.26-4-9.58-12.73-11.07-21.8-11.21-11.6-.19-11.6-.11-11.6,11.19Z" transform="translate(34 40)"/>
  <path class="cls-6" d="M910.05,634.8c.22-3.24-.78-7.89.94-9.37,2.38-2,5.61,1.83,8.65,2.74,7.61,2.27,15.27,3.63,23.25,2.65,3.25-.41,6.1-1.21,6.7-5,.58-3.67-2.15-5.19-4.69-6.41-5.34-2.57-10.95-4.59-16.27-7.19-15.61-7.63-19.41-16.64-17.9-29C912.1,571.83,922,563,936.07,560.81a65.29,65.29,0,0,1,29,1.92c1.8.55,4,1,4,3.49.1,5.57.23,11.14,0,16.7-.16,3.34-2.49,2-4.19,1.28a49.74,49.74,0,0,0-23.85-4.11c-3.06.2-6.38.44-7.44,4.08s1.48,5.86,4.3,7.22c6.71,3.26,13.64,6.05,20.34,9.32,10.44,5.09,16.59,13.23,15.3,25.22-1.33,12.45-8.9,20-20.77,23.31-13,3.59-25.81,2.45-38.51-1.6-3-1-4.37-2.7-4.08-5.92.21-2.28,0-4.6,0-6.91Z" transform="translate(34 40)"/>
</svg>
