<svg id="Capa_1" data-name="Capa 1" xmlns="http://www.w3.org/2000/svg" xmlns:xlink="http://www.w3.org/1999/xlink" viewBox="0 0 531.02 636">
  <defs>
    <style>
      .cls-1 {
        fill: none;
      }

      .cls-2 {
        clip-path: url(#clip-path);
      }

      .cls-3 {
        fill: #e2e5e7;
      }

      .cls-4 {
        fill: #b0b7bd;
      }

      .cls-5 {
        fill: #cad1d8;
      }

      .cls-6 {
        clip-path: url(#clip-path-2);
      }

      .cls-7 {
        fill: #fff;
      }
    </style>
    <clipPath id="clip-path" transform="translate(-707.48 -222)">
      <rect class="cls-1" x="-21" y="-16" width="1967" height="1129"/>
    </clipPath>
    <clipPath id="clip-path-2" transform="translate(-707.48 -222)">
      <path class="cls-1" d="M1158.93,738.75A20,20,0,0,1,1139,758.63H701.39a20,20,0,0,1-19.89-19.88V540a19.94,19.94,0,0,1,19.89-19.87H1139A19.94,19.94,0,0,1,1158.93,540Z"/>
    </clipPath>
  </defs>
  <path class="cls-3" d="M800.86,222a39.89,39.89,0,0,0-39.79,39.75v556.5A39.89,39.89,0,0,0,800.86,858h397.85a39.88,39.88,0,0,0,39.79-39.75V381L1079.36,222Z" transform="translate(-707.48 -222)"/>
  <path class="cls-4" d="M1119.14,381H1238.5L1079.36,222V341.25A39.88,39.88,0,0,0,1119.14,381Z" transform="translate(-707.48 -222)"/>
  <polygon class="cls-5" points="531.02 278.25 411.67 159 531.02 159 531.02 278.25"/>
  <path class="cls-5" d="M1139,758.63h-378V778.5h378a19.94,19.94,0,0,0,19.89-19.87V738.75A20,20,0,0,1,1139,758.63Z" transform="translate(-707.48 -222)"/>
  <g>
    <path class="cls-7" d="M801,663.78a34.63,34.63,0,0,1-5.5,19.19,36.56,36.56,0,0,1-16.1,13.33q-10.59,4.82-25.13,4.81-17.41,0-28.74-6.58a38.39,38.39,0,0,1-13-12.64q-5-7.92-5-15.38A10.42,10.42,0,0,1,718.15,656a9.1,9.1,0,0,1,6.39,2.41,19.08,19.08,0,0,1,4.45,7.15,47.78,47.78,0,0,0,4.86,9.39,19.62,19.62,0,0,0,7.35,6.22q4.72,2.46,12.44,2.45,10.61,0,17.22-4.94t6.62-12.32a13,13,0,0,0-3.57-9.51,22.94,22.94,0,0,0-9.23-5.58q-5.65-1.93-15.14-4.1a111.06,111.06,0,0,1-21.23-6.94,34.34,34.34,0,0,1-13.57-10.84q-5-6.87-5-17.06a29.3,29.3,0,0,1,5.3-17.26q5.29-7.54,15.34-11.6T754,579.4a58.46,58.46,0,0,1,18.75,2.69,39.4,39.4,0,0,1,13.12,7.15,29.7,29.7,0,0,1,7.63,9.35,21.5,21.5,0,0,1,2.41,9.55,11.27,11.27,0,0,1-3,7.67,9.59,9.59,0,0,1-7.51,3.41q-4.1,0-6.22-2.05a27.31,27.31,0,0,1-4.62-6.7,30.51,30.51,0,0,0-7.7-10.4q-4.5-3.74-14.46-3.73-9.23,0-14.89,4t-5.66,9.76a9.83,9.83,0,0,0,1.93,6.1,16.19,16.19,0,0,0,5.3,4.42,36.12,36.12,0,0,0,6.82,2.89q3.45,1,11.4,3.05a176.55,176.55,0,0,1,18,5.14A55,55,0,0,1,789,638.57a28.15,28.15,0,0,1,8.83,10.16Q801,654.87,801,663.78Z" transform="translate(-707.48 -222)"/>
    <path class="cls-7" d="M921.52,661.93a31.32,31.32,0,0,1-2.77,12.17,44.63,44.63,0,0,1-23.89,23.08,54.54,54.54,0,0,1-21.51,3.93,75,75,0,0,1-16.94-1.76,47.48,47.48,0,0,1-13.85-5.5A46.52,46.52,0,0,1,831.12,684a57.86,57.86,0,0,1-8-12.4A64.62,64.62,0,0,1,818.23,657a79.7,79.7,0,0,1-1.65-16.54A73.24,73.24,0,0,1,820.72,615a54.2,54.2,0,0,1,11.84-19.23,51.53,51.53,0,0,1,18.07-12.16,58.32,58.32,0,0,1,22.07-4.18,55.23,55.23,0,0,1,25.46,5.7q11.15,5.7,17.1,14.09t5.94,15.86a10.34,10.34,0,0,1-2.89,7.22,9.17,9.17,0,0,1-7,3.13q-4.58,0-6.86-2.16a30,30,0,0,1-5.1-7.47q-4.67-8.74-11-13.09t-15.53-4.33q-14.7,0-23.41,11.16t-8.71,31.71q0,13.72,3.85,22.84t10.92,13.61a30.14,30.14,0,0,0,16.54,4.5q10.28,0,17.38-5.1t10.72-15a25.36,25.36,0,0,1,3.78-7.59c1.49-2,3.9-2.93,7.22-2.93a10.12,10.12,0,0,1,7.31,3A9.9,9.9,0,0,1,921.52,661.93Z" transform="translate(-707.48 -222)"/>
    <path class="cls-7" d="M1032.39,663.78a34.55,34.55,0,0,1-5.5,19.19q-5.49,8.5-16.09,13.33t-25.13,4.81q-17.43,0-28.74-6.58a38.21,38.21,0,0,1-13-12.64q-5-7.92-5-15.38A10.42,10.42,0,0,1,949.54,656a9.09,9.09,0,0,1,6.38,2.41,19,19,0,0,1,4.46,7.15,47.79,47.79,0,0,0,4.85,9.39,19.62,19.62,0,0,0,7.35,6.22q4.74,2.46,12.45,2.45,10.59,0,17.22-4.94t6.62-12.32a13,13,0,0,0-3.57-9.51,22.91,22.91,0,0,0-9.24-5.58q-5.65-1.93-15.13-4.1a111.18,111.18,0,0,1-21.24-6.94,34.23,34.23,0,0,1-13.56-10.84q-5-6.87-5-17.06a29.3,29.3,0,0,1,5.3-17.26q5.3-7.54,15.33-11.6t23.61-4.06a58.44,58.44,0,0,1,18.74,2.69,39.35,39.35,0,0,1,13.13,7.15,29.83,29.83,0,0,1,7.63,9.35,21.63,21.63,0,0,1,2.41,9.55,11.32,11.32,0,0,1-3,7.67,9.59,9.59,0,0,1-7.51,3.41c-2.73,0-4.81-.68-6.22-2.05a27.31,27.31,0,0,1-4.62-6.7,30.4,30.4,0,0,0-7.71-10.4q-4.5-3.74-14.45-3.73-9.24,0-14.89,4t-5.66,9.76a9.89,9.89,0,0,0,1.92,6.1,16.4,16.4,0,0,0,5.3,4.42,36.2,36.2,0,0,0,6.83,2.89q3.45,1,11.4,3.05a177.06,177.06,0,0,1,18,5.14,54.8,54.8,0,0,1,13.73,6.82,28,28,0,0,1,8.83,10.16Q1032.4,654.87,1032.39,663.78Z" transform="translate(-707.48 -222)"/>
    <path class="cls-7" d="M1142.07,663.78a34.63,34.63,0,0,1-5.5,19.19q-5.5,8.5-16.1,13.33t-25.13,4.81q-17.43,0-28.74-6.58a38.21,38.21,0,0,1-13-12.64q-5-7.92-5-15.38A10.42,10.42,0,0,1,1059.21,656a9.09,9.09,0,0,1,6.38,2.41,19,19,0,0,1,4.46,7.15,47.78,47.78,0,0,0,4.86,9.39,19.51,19.51,0,0,0,7.34,6.22q4.74,2.46,12.45,2.45,10.59,0,17.22-4.94t6.62-12.32a13,13,0,0,0-3.57-9.51,22.94,22.94,0,0,0-9.23-5.58q-5.67-1.93-15.14-4.1a110.83,110.83,0,0,1-21.23-6.94,34.27,34.27,0,0,1-13.57-10.84q-5-6.87-5-17.06a29.3,29.3,0,0,1,5.3-17.26q5.3-7.54,15.33-11.6T1095,579.4a58.44,58.44,0,0,1,18.74,2.69,39.35,39.35,0,0,1,13.13,7.15,29.83,29.83,0,0,1,7.63,9.35,21.5,21.5,0,0,1,2.41,9.55,11.32,11.32,0,0,1-3,7.67,9.59,9.59,0,0,1-7.51,3.41q-4.1,0-6.22-2.05a27.31,27.31,0,0,1-4.62-6.7,30.4,30.4,0,0,0-7.71-10.4q-4.48-3.74-14.45-3.73-9.23,0-14.89,4t-5.66,9.76a9.83,9.83,0,0,0,1.93,6.1,16.25,16.25,0,0,0,5.29,4.42,36.2,36.2,0,0,0,6.83,2.89q3.45,1,11.4,3.05a175.59,175.59,0,0,1,18,5.14,54.8,54.8,0,0,1,13.73,6.82,28,28,0,0,1,8.83,10.16Q1142.07,654.87,1142.07,663.78Z" transform="translate(-707.48 -222)"/>
  </g>
</svg>
