<svg id="Capa_1" data-name="Capa 1" xmlns="http://www.w3.org/2000/svg" viewBox="0 0 1967 1129">
  <defs>
    <style>
      .cls-1 {
        fill: #4a6981;
      }

      .cls-2 {
        fill: #e2e5e7;
      }

      .cls-3 {
        fill: #b0b7bd;
      }

      .cls-4 {
        fill: #cad1d8;
      }

      .cls-5 {
        fill: #293035;
      }

      .cls-6 {
        fill: #fff;
      }
    </style>
  </defs>
  <rect class="cls-1" width="1967" height="1129"/>
  <g>
    <path class="cls-2" d="M832,284a32.09,32.09,0,0,0-32,32V764a32.09,32.09,0,0,0,32,32h320a32.09,32.09,0,0,0,32-32V412L1056,284Z" transform="translate(21 16)"/>
    <path class="cls-3" d="M1088,412h96L1056,284v96A32.09,32.09,0,0,0,1088,412Z" transform="translate(21 16)"/>
    <polygon class="cls-4" points="1205 524 1109 428 1205 428 1205 524"/>
    <path class="cls-5" d="M1120,700a16,16,0,0,1-16,16H752a16,16,0,0,1-16-16V540a16,16,0,0,1,16-16h352a16,16,0,0,1,16,16Z" transform="translate(21 16)"/>
    <g>
      <path class="cls-6" d="M836.78,595.47H814.4c-11.14,0-11.14-16.37,0-16.37h60.51c11.39,0,11.39,16.37,0,16.37H853.66v64.59c0,11.12-16.89,11.4-16.89,0V595.47Z" transform="translate(21 16)"/>
      <path class="cls-6" d="M928.42,610.18l22.27-27.89c6.65-8.69,19.57,2.43,12.29,10.75-7.68,9.09-15.73,18.94-23.43,29l26.11,32.5c7,9.6-7,18.82-13.95,9.34l-23.53-30.19L905,664.54c-6.52,9.33-21-1.15-13.68-9.85L917,622.06c-8-10.09-15.86-19.93-23.66-29-8.07-9.6,6.91-19.44,12.78-10.48Z" transform="translate(21 16)"/>
      <path class="cls-6" d="M1002.29,595.47H979.92c-11.14,0-11.14-16.37,0-16.37h60.5c11.39,0,11.39,16.37,0,16.37h-21.24v64.59c0,11.12-16.89,11.4-16.89,0V595.47Z" transform="translate(21 16)"/>
    </g>
    <path class="cls-4" d="M1104,716H800v16h304a16,16,0,0,0,16-16V700A16,16,0,0,1,1104,716Z" transform="translate(21 16)"/>
  </g>
</svg>
