<svg id="Capa_1" data-name="Capa 1" xmlns="http://www.w3.org/2000/svg" viewBox="0 0 1967 1129">
  <defs>
    <style>
      .cls-1 {
        fill: #beccb0;
      }

      .cls-2 {
        fill: #e2e5e7;
      }

      .cls-3 {
        fill: #b0b7bd;
      }

      .cls-4 {
        fill: #cad1d8;
      }

      .cls-5 {
        fill: #84bd5a;
      }

      .cls-6 {
        fill: #fff;
      }
    </style>
  </defs>
  <rect class="cls-1" width="1967" height="1129"/>
  <g>
    <path class="cls-2" d="M800.86,222a39.89,39.89,0,0,0-39.79,39.75v556.5A39.89,39.89,0,0,0,800.86,858h397.85a39.88,39.88,0,0,0,39.79-39.75V381L1079.36,222Z" transform="translate(21 16)"/>
    <path class="cls-3" d="M1119.14,381H1238.5L1079.36,222V341.25A39.88,39.88,0,0,0,1119.14,381Z" transform="translate(21 16)"/>
    <polygon class="cls-4" points="1259.5 516.25 1140.14 397 1259.5 397 1259.5 516.25"/>
    <path class="cls-5" d="M1158.93,738.75A20,20,0,0,1,1139,758.63H701.39a20,20,0,0,1-19.89-19.88V540a19.94,19.94,0,0,1,19.89-19.87H1139A19.94,19.94,0,0,1,1158.93,540Z" transform="translate(21 16)"/>
    <g>
      <path class="cls-6" d="M821.17,627.19l27.67-34.64c8.27-10.81,24.35,3,15.28,13.34C854.59,617.17,844.56,629.42,835,642l32.45,40.36c8.75,11.93-8.73,23.36-17.33,11.59l-29.28-37.5-28.79,38.32C784,706.31,766,693.3,775,682.48L807,642c-10-12.56-19.73-24.79-29.42-36.07-10-11.93,8.6-24.15,15.92-13Z" transform="translate(21 16)"/>
      <path class="cls-6" d="M887.09,598.57a9.92,9.92,0,0,1,10-9.7,9.7,9.7,0,0,1,9.39,9.7v79.62h43.27c15.57,0,15.91,20.81,0,20.81H897.14c-5.57,0-10-4-10-9.68V598.57Z" transform="translate(21 16)"/>
      <path class="cls-6" d="M979.93,612.88c3.66-30.84,50.25-36.39,72.21-19.54,10.83,8.73-.63,22.56-10.18,15.57-11.78-7.46-38.49-10.95-41.84,5.54-4.29,26.08,64.89,11.15,63.78,53.43-1.11,40.36-59.64,41.3-81.6,23.19a11.74,11.74,0,0,1-2.23-15.58c4.14-4.12,8.73-5.55,14.17-1.1,13,8.89,46.6,15.57,49-7C1041.16,643.89,975,658,979.93,612.88Z" transform="translate(21 16)"/>
    </g>
    <path class="cls-4" d="M1139,758.63h-378V778.5h378a19.94,19.94,0,0,0,19.89-19.87V738.75A20,20,0,0,1,1139,758.63Z" transform="translate(21 16)"/>
  </g>
</svg>
